<?xml version="1.0" encoding="utf-8"?>
<!-- Generator: Adobe Illustrator 22.1.0, SVG Export Plug-In . SVG Version: 6.00 Build 0)  -->
<svg version="1.1" id="Layer_1" xmlns="http://www.w3.org/2000/svg" xmlns:xlink="http://www.w3.org/1999/xlink" x="0px" y="0px"
	 viewBox="0 0 106.5 99.6" style="enable-background:new 0 0 106.5 99.6;" xml:space="preserve">
<style type="text/css">
	.st0{opacity:0.1;}
	.st1{fill:#000;}
	
		.st2{fill:none;stroke:#FFFFFF;stroke-width:1.6573;stroke-linecap:round;stroke-linejoin:round;stroke-miterlimit:10;stroke-dasharray:0,4.1433;}
</style>
<g class="st0">
	<g>
		<path class="st1" d="M95.1,98.4c1-0.5,1.9-1.2,2.6-2c1.3-1.6,2.3-3.9,1.7-5.9c-0.5-2.1-2.6-3.4-4.7-3.8c-1-0.2-2.2-0.2-3.2,0.2
			c-1,0.3-1.8,1.2-2.1,2.3c0-1.2,0.8-2.3,1.9-2.8s2.3-0.6,3.5-0.5c1.2,0.2,2.4,0.6,3.4,1.3c0.5,0.4,0.9,0.8,1.3,1.3s0.7,1.1,0.9,1.7
			c0.4,1.3,0.2,2.6-0.2,3.7c-0.4,1.1-1,2.1-1.9,3c-1.7,1.7-4.1,2.7-6.4,2.6C93,99.3,94.1,98.9,95.1,98.4z"/>
	</g>
	<g>
		<path class="st1" d="M93.2,58.9c-0.6,2.9-1.9,5.5-3.3,7.9c-1.5,2.4-3,4.6-4.2,7c-1.2,2.3-2.1,4.8-2.7,7.4
			c-0.7,2.5-0.9,5.2-0.8,7.8c0.1,2.6,0.9,5.1,2.6,7.1s4.2,3.3,7,3.4C89.1,100,86.1,99,84,97c-1-1-1.9-2.3-2.5-3.6
			c-0.6-1.3-0.9-2.8-1.1-4.2c-0.7-5.8,0.6-11.5,3.2-16.6c2.7-5,6.4-9.2,7.8-14.2s0.7-10.7-1.9-15.5C93.1,47.1,94.5,53.2,93.2,58.9z"
			/>
	</g>
	<g>
		<path class="st1" d="M76.2,21.6c-1.9,0.2-3.8-0.1-5.6-0.5c-1.8-0.4-3.6-1.1-5.3-1.9c-1.7-0.8-3.3-1.8-4.8-2.9
			c-3.1-2.2-5.9-4.6-8.8-6.7c-2.9-2.1-6-3.9-9.3-5.1C39.1,3.3,35.5,2.6,32,2.4c-3.5-0.2-7.1,0.2-10.5,1.1c-1.6,0.5-3.2,1.2-4.6,2.2
			c-1.3,1-2.5,2.4-2.9,4c-0.5,1.5-0.2,3.4,0.7,4.9c0.8,1.5,2.4,2.8,4.3,2.6c-0.9,0.2-1.8,0.1-2.7-0.3c-0.8-0.4-1.5-1.1-2.1-1.9
			c-1.1-1.6-1.6-3.6-1.3-5.6c0.4-2,1.6-3.7,3.1-5s3.3-2.2,5.1-2.8c7.3-2.4,15.2-2,22.3,0.4c3.6,1.4,7,3.3,9.9,5.6
			c3,2.3,5.7,4.8,8.5,7c2.8,2.3,5.9,4.2,9.3,5.3c3.4,1.2,7.1,1.4,10.6,0.1C80.1,20.9,78.2,21.4,76.2,21.6z"/>
	</g>
	<g>
		<g>
			<path class="st1" d="M74.3,6.7c2.1-0.9,4.3-1.5,6.6-1.7c4.6-0.4,9.2,0.4,13.5,2.2s8.1,5.2,10.1,9.5c2.1,4.3,2.4,9.3,1.2,14
				c-1.2,4.5-3.7,8.6-6.8,12c-1.5,1.7-3.2,3.3-5,4.7c-1.8,1.5-3.7,2.7-5.4,4c-1.7,1.3-3.3,2.8-4.3,4.6c-0.5,0.9-0.8,1.9-0.9,2.9
				s0.1,2.1,0.5,3c0.8,1.9,2.4,3.6,4.5,4.1c2,0.5,4.4,0,6-1.6c-0.6,0.9-1.6,1.6-2.7,2c-1.1,0.3-2.2,0.4-3.4,0.2
				c-2.3-0.4-4.3-2.1-5.4-4.2c-0.5-1.1-0.8-2.3-0.8-3.5c0-1.3,0.3-2.5,0.8-3.6c1-2.2,2.8-3.9,4.5-5.4s3.5-2.8,5.2-4.2
				c1.6-1.4,3.2-3,4.6-4.6c2.9-3.2,5.2-7,6.2-11.1c1.1-4.1,0.8-8.5-0.9-12.3c-0.9-1.9-2.1-3.7-3.6-5.1c-1.5-1.5-3.3-2.7-5.2-3.6
				C89.7,7.1,85.3,6.2,81,6.3c-2.2,0-4.4,0.3-6.4,1.1s-3.9,2-5.4,3.7C70.4,9.2,72.3,7.7,74.3,6.7z"/>
		</g>
		<g>
			<path class="st1" d="M78,40.8c-1.8-0.2-3.5-0.8-5.1-1.7c-3.2-1.8-5.5-4.8-7-8.1c-0.4-0.8-0.6-1.6-0.9-2.5
				c-0.2-0.9-0.4-1.8-0.5-2.7c-0.1-1.8-0.1-3.5,0.2-5.3c0.5-3.5,2-6.9,4.5-9.3c-1.6,3-2.4,6.3-2.6,9.5c-0.1,1.6-0.1,3.2,0.2,4.8
				c0.1,0.8,0.3,1.6,0.5,2.3c0.2,0.7,0.5,1.5,0.8,2.2c0.6,1.5,1.4,2.8,2.4,4.1c1,1.2,2.1,2.4,3.4,3.3c2.6,1.9,5.8,2.9,9.2,2.8
				C81.5,40.7,79.7,40.9,78,40.8z"/>
		</g>
		<g>
			<path class="st1" d="M95.2,60.7c-0.2-1.2-0.7-2.3-1.6-2.9c-0.9-0.7-2.1-0.8-3.2-0.5s-2.2,1.1-2.6,2.3c0-0.6,0.3-1.3,0.7-1.8
				s1-0.9,1.6-1.2c1.2-0.5,2.8-0.5,4,0.4c1.2,0.8,1.8,2.3,1.8,3.6c0,1.4-0.5,2.7-1.5,3.6C95.1,63.1,95.2,61.9,95.2,60.7z"/>
		</g>
		<g>
			<path class="st1" d="M95.1,22.7c1.1,2.6,1.2,5.7,0.3,8.3c-0.9,2.7-2.6,5-4.8,6.7c-2.2,1.7-4.9,2.7-7.5,2.6c2.4-1,4.5-2.4,6.2-4.1
				c1.7-1.7,3-3.8,3.7-6c0.7-2.3,0.8-4.6,0.2-6.9c-0.6-2.3-1.9-4.4-3.8-6.2C91.8,18,93.9,20.1,95.1,22.7z"/>
		</g>
		<g>
			<path class="st1" d="M81.9,30c-0.7,0.3-1.4,0.4-2.2,0.3C78.1,30,76.9,29,76,27.9s-1.6-2.5-2-3.9c-0.4-1.5-0.4-3.1,0.2-4.6
				s1.8-2.7,3.1-3.4c1.3-0.7,2.8-1.2,4.2-1.3c2.8-0.3,5.8,0.5,7.9,2.3c-2.5-1-5.2-1.2-7.7-0.7c-1.2,0.3-2.4,0.7-3.4,1.4
				c-1,0.6-1.9,1.5-2.3,2.5s-0.4,2.2-0.2,3.4c0.2,1.2,0.7,2.3,1.4,3.4c0.7,1.1,1.6,2,2.7,2.4c1,0.4,2.5,0.2,3.3-1
				C83,29.1,82.5,29.7,81.9,30z"/>
		</g>
		<g>
			<path class="st1" d="M44.2,23.6c0.8-0.6,1.3-1.4,1.5-2.2c0.4-1.8-0.6-3.6-1.9-4.9c-1.3-1.3-2.9-2.3-4.7-3s-3.7-1-5.7-0.9
				c3.9-1,8.3,0.3,11.2,3.2c0.7,0.8,1.3,1.6,1.7,2.6s0.6,2.1,0.3,3.2s-1.1,1.9-2,2.4s-2.1,0.5-2.9-0.1
				C42.6,24.4,43.6,24.1,44.2,23.6z"/>
		</g>
		<g>
			<path class="st1" d="M67.7,44.1c-2.6-1.5-4.8-3.7-6.5-6.2c-1.8-2.5-2.8-5.4-3.7-8.1c-0.8-2.8-1.6-5.5-2.8-7.9
				c-1.2-2.5-3-4.6-5.3-5.7c-1.1-0.5-2.4-0.8-3.7-0.8c-1.3,0.1-2.5,0.5-3.5,1.4c-1,0.9-1.7,2.1-1.9,3.4c-0.1,0.7,0,1.3,0.2,2
				c0.2,0.6,0.5,1.3,1.1,1.7c-1.3-0.7-2-2.3-2-3.8s0.7-3,1.7-4.2c1.1-1.1,2.6-1.9,4.2-2.1c1.6-0.2,3.2,0.1,4.7,0.7
				c1.5,0.5,2.8,1.5,3.9,2.6c1.1,1.1,2,2.4,2.7,3.7c1.4,2.6,2.2,5.5,3.1,8.2c0.9,2.8,1.8,5.3,3.3,7.6s3.4,4.3,5.6,5.9
				c4.4,3.2,10.4,4.3,15.9,2.4C79.6,47.7,72.9,47.3,67.7,44.1z"/>
		</g>
		<path class="st2" d="M91.5,82.5c-3.3-2.7-6.7-5.3-9.4-8.7c-2.7-3.4-4.5-7.5-4.4-11.8c0.1-2.7,1-5.3,1.9-7.9c0.3-1,0.7-2,1-3"/>
		<path class="st2" d="M19,22c3.2,0.6,6.4-1.2,9.2-2.8c2.8-1.6,6-3.3,9.2-2.5"/>
		<path class="st2" d="M103.6,48.3c0.7-2.5,0.3-5.2-1.2-7.3c-1.4-2.1-3.9-3.4-6.4-3.6"/>
	</g>
	<g>
		<path class="st1" d="M22.4,14.3c0.4-1.3,0.5-2.7,0.2-3.9s-1.1-2.3-2.1-3.1c-1-0.9-2.2-1.5-3.5-2c-1.3-0.4-2.7-0.7-4.1-0.9
			S10,4.1,8.6,4.2C5.7,4.4,2.8,5,0,6.1c2.4-2,5.3-3.3,8.4-3.8s6.3-0.4,9.4,0.7c1.5,0.6,3,1.4,4.2,2.6c0.6,0.6,1.1,1.3,1.5,2
			c0.4,0.8,0.7,1.7,0.8,2.5c0.2,1.7-0.2,3.4-1.1,4.8c-0.9,1.3-2.4,2.4-4,2.3C20.6,16.7,21.6,15.6,22.4,14.3z"/>
	</g>
</g>
</svg>
