<svg xmlns="http://www.w3.org/2000/svg" width="20" height="20" viewBox="0 0 20 20" fill="none" m_init="2355927202112270755"> <path d="M10 20C15.5228 20 20 15.5228 20 10C20 4.47715 15.5228 0 10 0C4.47715 0 0 4.47715 0 10C0 15.5228 4.47715 20 10 20Z" fill="#36221A"/> <path d="M12.4282 9.95171L17.4543 13.1291V6.64014L12.4282 9.95171Z" fill="white"/> <path d="M2.54578 6.64014V13.1291L7.57184 9.95171L2.54578 6.64014Z" fill="white"/> <path d="M16.5226 4.75H3.47756C3.0126 4.75 2.64361 5.09662 2.57373 5.54295L10.0001 10.4358L17.4264 5.54295C17.3565 5.09662 16.9875 4.75 16.5226 4.75Z" fill="white"/> <path d="M11.5745 10.5141L10.256 11.3825C10.1778 11.4338 10.0893 11.4589 9.9998 11.4589C9.91035 11.4589 9.82183 11.4338 9.74356 11.3825L8.42508 10.5132L2.57532 14.2133C2.64707 14.6559 3.01419 14.9997 3.47729 14.9997H16.5223C16.9854 14.9997 17.3525 14.6559 17.4243 14.2133L11.5745 10.5141Z" fill="white"/> </svg>