<svg xmlns="http://www.w3.org/2000/svg" width="20" height="20" viewBox="0 0 20 20" fill="none" m_init="2355927202112270755"> <path d="M10 20C15.5228 20 20 15.5228 20 10C20 4.47715 15.5228 0 10 0C4.47715 0 0 4.47715 0 10C0 15.5228 4.47715 20 10 20Z" fill="#36221A"/> <path d="M16.9618 7.11607C16.929 6.37219 16.8087 5.86078 16.6364 5.41763C16.4586 4.94725 16.1851 4.52611 15.8268 4.17602C15.4767 3.82048 15.0528 3.54421 14.5879 3.36922C14.1421 3.19689 13.6334 3.0766 12.8895 3.0438C12.1401 3.00823 11.9022 3 10.0014 3C8.10064 3 7.86272 3.00823 7.11606 3.04102C6.37218 3.07382 5.86077 3.19422 5.41774 3.36644C4.94725 3.54421 4.52611 3.8177 4.17602 4.17602C3.82048 4.52611 3.54431 4.95003 3.36921 5.41496C3.19689 5.86078 3.0766 6.36941 3.0438 7.11329C3.00823 7.86273 3 8.10064 3 10.0014C3 11.9022 3.00823 12.1401 3.04102 12.8868C3.07382 13.6306 3.19422 14.1421 3.36654 14.5852C3.54431 15.0556 3.82048 15.4767 4.17602 15.8268C4.52611 16.1824 4.95002 16.4586 5.41496 16.6336C5.86077 16.8059 6.36941 16.9262 7.11339 16.959C7.85994 16.9919 8.09796 17.0001 9.99874 17.0001C11.8995 17.0001 12.1374 16.9919 12.8841 16.959C13.628 16.9262 14.1394 16.8059 14.5824 16.6336C15.5233 16.2699 16.2672 15.526 16.6309 14.5852C16.8031 14.1394 16.9235 13.6306 16.9563 12.8868C16.9891 12.1401 16.9974 11.9022 16.9974 10.0014C16.9974 8.10064 16.9946 7.86273 16.9618 7.11607ZM15.7011 12.8321C15.6709 13.5158 15.5561 13.885 15.4604 14.1312C15.2251 14.7411 14.7411 15.2251 14.1311 15.4604C13.885 15.5561 13.5131 15.6709 12.8321 15.701C12.0936 15.7339 11.8722 15.742 10.0042 15.742C8.13621 15.742 7.91197 15.7339 7.17621 15.701C6.49248 15.6709 6.12326 15.5561 5.87712 15.4604C5.57361 15.3482 5.29734 15.1704 5.07309 14.938C4.84063 14.7109 4.66286 14.4375 4.55068 14.1339C4.45496 13.8878 4.34011 13.5158 4.31009 12.8348C4.27719 12.0964 4.26907 11.8748 4.26907 10.0069C4.26907 8.13889 4.27719 7.91465 4.31009 7.17899C4.34011 6.49526 4.45496 6.12605 4.55068 5.8799C4.66286 5.57628 4.84063 5.30012 5.07587 5.07577C5.30279 4.8433 5.57628 4.66553 5.8799 4.55346C6.12604 4.45774 6.49803 4.34289 7.17899 4.31277C7.91742 4.27997 8.13899 4.27174 10.0069 4.27174C11.8776 4.27174 12.0991 4.27997 12.8348 4.31277C13.5186 4.34289 13.8878 4.45774 14.1339 4.55346C14.4374 4.66553 14.7137 4.8433 14.9379 5.07577C15.1704 5.30279 15.3482 5.57628 15.4604 5.8799C15.5561 6.12605 15.6709 6.49793 15.7011 7.17899C15.7339 7.91742 15.7421 8.13889 15.7421 10.0069C15.7421 11.8748 15.7339 12.0936 15.7011 12.8321Z" fill="white"/> <path d="M10.0009 6.40479C8.01536 6.40479 6.40442 8.01562 6.40442 10.0012C6.40442 11.9868 8.01536 13.5976 10.0009 13.5976C11.9865 13.5976 13.5973 11.9868 13.5973 10.0012C13.5973 8.01562 11.9865 6.40479 10.0009 6.40479ZM10.0009 12.3341C8.71276 12.3341 7.66793 11.2894 7.66793 10.0012C7.66793 8.71302 8.71276 7.6683 10.0009 7.6683C11.289 7.6683 12.3338 8.71302 12.3338 10.0012C12.3338 11.2894 11.289 12.3341 10.0009 12.3341V12.3341Z" fill="white"/> <path d="M14.5791 6.26197C14.5791 6.72563 14.2032 7.10157 13.7394 7.10157C13.2757 7.10157 12.8998 6.72563 12.8998 6.26197C12.8998 5.7982 13.2757 5.42236 13.7394 5.42236C14.2032 5.42236 14.5791 5.7982 14.5791 6.26197V6.26197Z" fill="white"/> </svg>