<?xml version="1.0" encoding="utf-8"?>
<!-- Generator: Adobe Illustrator 22.1.0, SVG Export Plug-In . SVG Version: 6.00 Build 0)  -->
<svg version="1.1" id="Capa_1" xmlns="http://www.w3.org/2000/svg" xmlns:xlink="http://www.w3.org/1999/xlink" x="0px" y="0px"
	 viewBox="0 0 512 512" style="enable-background:new 0 0 512 512;" xml:space="preserve">
<style type="text/css">
	.st0{fill:#000;}
</style>
<g>
	<g>
		<g>
			<path class="st0" d="M241.8,5.9C241.8,5.9,241.8,5.9,241.8,5.9l-104,104.5c-7.8,7.8-7.8,20.5,0.1,28.3c7.8,7.8,20.5,7.8,28.3-0.1
				L236,68.4V492c0,11,9,20,20,20s20-9,20-20V68.4l69.8,70.2c7.8,7.8,20.5,7.9,28.3,0.1c7.8-7.8,7.9-20.5,0.1-28.3L270.2,5.9
				c0,0,0,0,0,0C262.3-2,249.6-1.9,241.8,5.9z"/>
		</g>
	</g>
</g>
</svg>
