<svg xmlns="http://www.w3.org/2000/svg" width="20" height="20" viewBox="0 0 20 20" fill="none" m_init="2355927202112270755"> <path d="M10 20C15.5228 20 20 15.5228 20 10C20 4.47715 15.5228 0 10 0C4.47715 0 0 4.47715 0 10C0 15.5228 4.47715 20 10 20Z" fill="#36221A"/> <path d="M17.488 11.2524C17.9644 7.24239 17.2591 4.71075 15.987 3.56569L15.9877 3.56503C13.9344 1.60958 7.00018 1.32016 4.54373 3.65286C3.44059 4.79392 3.05203 6.46859 3.00945 8.54181C2.96686 10.6157 2.9163 14.5006 6.53644 15.5545H6.53976L6.53644 17.164C6.53644 17.164 6.51182 17.8161 6.92833 17.9471C7.40471 18.1015 7.62028 17.7988 9.10201 16.0289C11.5798 16.2438 13.4826 15.7515 13.6989 15.6796C14.1992 15.512 17.0303 15.1374 17.488 11.2524ZM9.34619 14.8965C9.34619 14.8965 7.77797 16.852 7.29027 17.3596C7.13059 17.5246 6.95561 17.5093 6.95827 17.182C6.95827 16.9671 6.97024 14.51 6.97024 14.51C3.90101 13.6304 4.08198 10.3223 4.11525 8.59171C4.14852 6.86048 4.46522 5.44263 5.39936 4.48786C7.55442 2.46721 13.6337 2.91898 15.1826 4.37475C17.0762 6.05342 16.4022 10.796 16.4062 10.9577C16.0169 14.2006 13.7228 14.4062 13.301 14.5465C13.1207 14.6064 11.4473 15.0369 9.34619 14.8965V14.8965Z" fill="white"/> <path d="M10.2137 4.86768C9.95757 4.86768 9.95757 5.26688 10.2137 5.27021C12.2011 5.28551 13.8379 6.67076 13.8558 9.21171C13.8558 9.47985 14.2484 9.47652 14.245 9.20839H14.2444C14.2231 6.47049 12.436 4.88298 10.2137 4.86768V4.86768Z" fill="white"/> <path d="M12.8279 8.79013C12.8219 9.05493 13.2138 9.06758 13.2171 8.79944C13.2497 7.28978 12.3189 6.04625 10.5697 5.91518C10.3135 5.89655 10.2869 6.29908 10.5424 6.31771C12.0594 6.43282 12.8585 7.46809 12.8279 8.79013V8.79013Z" fill="white"/> <path d="M12.4086 10.5076C12.0799 10.3173 11.7453 10.4357 11.6069 10.6227L11.3175 10.9973C11.1704 11.1876 10.8956 11.1623 10.8956 11.1623C8.89029 10.632 8.35402 8.53349 8.35402 8.53349C8.35402 8.53349 8.32941 8.24939 8.51304 8.09703L8.87499 7.79762C9.05596 7.65391 9.1704 7.30793 8.9861 6.96794C8.49375 6.07837 8.16307 5.77165 7.99474 5.53611C7.81776 5.31455 7.55162 5.26465 7.27484 5.41436H7.26885C6.69333 5.75102 6.06325 6.3811 6.26485 7.02981C6.60883 7.71379 7.2409 9.89412 9.25556 11.5415C10.2023 12.3206 11.7007 13.119 12.3368 13.3033L12.3428 13.3127C12.9695 13.5216 13.579 12.8669 13.9043 12.2741V12.2694C14.0487 11.9826 14.0008 11.7112 13.7899 11.5335C13.416 11.1689 12.8517 10.7664 12.4086 10.5076Z" fill="white"/> <path d="M10.8439 7.40101C11.4833 7.43827 11.7933 7.77227 11.8266 8.45824C11.8386 8.72637 12.2278 8.70774 12.2158 8.43961C12.1732 7.54406 11.7061 7.04505 10.8651 6.99847C10.609 6.98317 10.585 7.3857 10.8439 7.40101V7.40101Z" fill="white"/> </svg>