<?xml version="1.0" encoding="UTF-8"?> <!-- Creator: CorelDRAW 2020 (64-Bit) --> <svg xmlns="http://www.w3.org/2000/svg" xmlns:xlink="http://www.w3.org/1999/xlink" xmlns:xodm="http://www.corel.com/coreldraw/odm/2003" xml:space="preserve" width="35" height="34" style="shape-rendering:geometricPrecision; text-rendering:geometricPrecision; image-rendering:optimizeQuality; fill-rule:evenodd; clip-rule:evenodd" viewBox="0 0 10500 14800"> <defs> <style type="text/css"> <![CDATA[ .fil0 {fill:#fff;fill-rule:nonzero} .fil1 {fill:#000;fill-rule:nonzero} ]]> </style> </defs> <g id="Слой_x0020_1"> <metadata id="CorelCorpID_0Corel-Layer"></metadata> <g id="_1817768165088"> <g> <path class="fil0" d="M9754.41 1068.63l-8716.12 0c-117.58,0 -213.99,-96.49 -213.99,-215.62 0,-118.52 96.41,-215.53 213.99,-215.53l8716.12 0c120.92,0 217.68,97.01 217.68,215.53 0,119.13 -96.76,215.62 -217.68,215.62zm-8338.19 5089.93l0 -4594.76c0,-77.38 18.17,-149.97 48.34,-215.53l8054.01 0c33.34,65.56 51.42,138.15 51.42,215.53l0 4594.76c0,77.39 -18.08,149.98 -51.42,215.62l-8054.01 0c-30.17,-65.64 -48.34,-138.23 -48.34,-215.62zm8555.87 710.79c0,118.52 -96.76,215.54 -217.68,215.54l-8716.12 0c-117.58,0 -213.99,-97.02 -213.99,-215.54 0,-119.12 96.41,-215.53 213.99,-215.53l8716.12 0c120.92,0 217.68,96.41 217.68,215.53zm-2361.19 3806.93c30.26,27.85 30.26,71.3 27.26,94.95 -6.09,52.88 -33.25,109.1 -78.68,154.78 -42.24,45.07 -99.75,75.58 -151.08,83.12 -24.26,3.35 -66.59,5.15 -96.76,-22.36l-1420.98 -1369.22c-42.33,-38.73 -99.75,-50.22 -151.17,-27.85 -51.33,21.77 -87.67,72.24 -87.67,128.46l0 1214.19c0,131.2 -96.75,237.3 -214.68,237.3 -117.83,0 -214.59,-106.1 -214.59,-237.3l0 -1229.53c0,-57.16 -33.25,-108.58 -87.67,-129.75 -15.17,-6.68 -33.25,-9.94 -51.42,-9.94 -36.25,0 -75.58,14.83 -99.75,42.6l-1275.8 1323.62c-21.17,24.17 -63.51,23.57 -84.68,20.57 -51.42,-7.03 -108.83,-36 -154.17,-80.73 -48.42,-44.14 -78.67,-99.84 -87.67,-152.12 -3.08,-21.42 -6.08,-61.62 18.08,-85.87l1677.91 -1745.95c9.08,-8.14 21.17,-13.88 36.33,-17.48 63.51,-14.57 108.84,-71.04 108.84,-136.35l0 -1270.06c0,-34.79 6,-67.44 18.09,-97.1l393.1 0c12.08,29.66 18.08,62.31 18.08,97.1l0 1305.11c0,60.76 42.34,114.93 99.75,133.35 12.09,4.54 24.26,10.54 33.26,18.08l1826.07 1758.38zm2639.37 -9823.27c0,-272.69 -220.76,-494.57 -495.86,-494.57l-8716.12 0c-271.75,0 -493.71,221.88 -493.71,494.57 0,267.3 213.22,484.63 478.28,493.46 -17.22,70.1 -26.91,142.35 -26.91,217.33l0 4594.76c0,74.99 9.69,147.23 26.91,217.42 -265.06,9.09 -478.28,226.16 -478.28,493.37 0,272.7 221.96,494.91 493.71,494.91l3915.17 0c-6.09,31.46 -9.09,63.76 -9.09,97.1l0 1176.91c-24.16,14.82 -48.33,32.65 -66.5,53.22l-1680.9 1745.6c-78.68,82.62 -111.93,201.05 -90.76,326.52 18.17,111.92 78.67,220.76 169.34,306.89 87.67,86.47 199.51,142.08 311.35,156.65 127,16.03 244.93,-21.76 323.51,-103.69l1033.96 -1073.9 0 882.79c0,285.38 220.68,516.94 492.77,516.94 272.1,0 495.86,-231.56 495.86,-516.94l0 -886.13 1185.13 1141.85c84.67,80.13 205.6,116.47 329.52,97.7 114.92,-16.62 226.76,-75.59 314.43,-166.25 87.67,-90.76 142.09,-204.14 154.17,-318.72 12.08,-126.66 -27.17,-245.19 -111.84,-325.91l0 0 -1826.08 -1758.64c-15.08,-12.94 -30.25,-25.02 -45.33,-35.9l0 -1218.99c0,-33.34 -3,-65.64 -9.08,-97.1l3830.49 0c275.1,0 495.86,-222.21 495.86,-494.91 0,-203.19 -124.01,-377.93 -299.35,-454.12 24.17,-81.58 39.34,-167.45 39.34,-256.67l0 -4594.76c0,-89.21 -15.17,-174.74 -39.34,-256.67 175.34,-76.18 299.35,-250.58 299.35,-454.12z"></path> <path class="fil0" d="M8436.27 2172.7c-90.67,-69.51 -223.76,-51.08 -293.26,41.13l-1266.72 1684.59 -1693.07 -845.59c-93.67,-47.82 -208.59,-16.97 -269.1,71.04l-1166.96 1754.09 -1263.73 0c-114.83,0 -208.59,93.67 -208.59,209.45 0,115.86 93.76,209.53 208.59,209.53l1375.56 0c69.59,0 133.09,-35.05 172.34,-93.07l1130.72 -1693.67 1680.99 841.05c90.67,45.34 199.51,19.37 260.01,-61.36l1375.56 -1823.59c69.5,-92.55 51.42,-224.02 -42.34,-293.6z"></path> </g> <g> <path class="fil1" d="M9572.01 1246.77l-8716.12 0c-117.58,0 -213.99,-96.5 -213.99,-215.62 0,-118.52 96.41,-215.54 213.99,-215.54l8716.12 0c120.93,0 217.68,97.02 217.68,215.54 0,119.12 -96.75,215.62 -217.68,215.62zm-8338.19 5089.93l0 -4594.76c0,-77.39 18.17,-149.98 48.34,-215.54l8054.01 0c33.34,65.56 51.42,138.15 51.42,215.54l0 4594.76c0,77.38 -18.08,149.97 -51.42,215.62l-8054.01 0c-30.17,-65.65 -48.34,-138.24 -48.34,-215.62zm8555.87 710.79c0,118.52 -96.75,215.53 -217.68,215.53l-8716.12 0c-117.58,0 -213.99,-97.01 -213.99,-215.53 0,-119.13 96.41,-215.54 213.99,-215.54l8716.12 0c120.93,0 217.68,96.41 217.68,215.54zm-2361.19 3806.92c30.26,27.86 30.26,71.3 27.26,94.96 -6.09,52.87 -33.25,109.09 -78.67,154.77 -42.25,45.08 -99.76,75.59 -151.09,83.13 -24.26,3.34 -66.59,5.14 -96.76,-22.37l-1420.98 -1369.21c-42.33,-38.74 -99.75,-50.22 -151.17,-27.86 -51.33,21.77 -87.67,72.25 -87.67,128.47l0 1214.18c0,131.21 -96.75,237.3 -214.68,237.3 -117.83,0 -214.59,-106.09 -214.59,-237.3l0 -1229.52c0,-57.17 -33.25,-108.58 -87.67,-129.75 -15.17,-6.69 -33.25,-9.94 -51.42,-9.94 -36.25,0 -75.58,14.82 -99.75,42.59l-1275.8 1323.62c-21.17,24.17 -63.51,23.57 -84.68,20.57 -51.41,-7.03 -108.83,-35.99 -154.17,-80.73 -48.42,-44.13 -78.67,-99.84 -87.67,-152.11 -3.08,-21.43 -6.08,-61.62 18.08,-85.87l1677.91 -1745.95c9.08,-8.15 21.17,-13.89 36.34,-17.49 63.5,-14.57 108.83,-71.04 108.83,-136.34l0 -1270.06c0,-34.8 6,-67.45 18.09,-97.1l393.1 0c12.08,29.65 18.08,62.3 18.08,97.1l0 1305.11c0,60.76 42.34,114.92 99.75,133.35 12.09,4.54 24.26,10.54 33.26,18.08l1826.07 1758.37zm2639.37 -9823.26c0,-272.7 -220.76,-494.57 -495.86,-494.57l-8716.12 0c-271.75,0 -493.71,221.87 -493.71,494.57 0,267.29 213.22,484.63 478.28,493.45 -17.22,70.11 -26.91,142.35 -26.91,217.34l0 4594.76c0,74.98 9.69,147.23 26.91,217.42 -265.06,9.08 -478.28,226.16 -478.28,493.37 0,272.69 221.96,494.91 493.71,494.91l3915.17 0c-6.09,31.45 -9.09,63.76 -9.09,97.1l0 1176.9c-24.16,14.83 -48.33,32.65 -66.5,53.22l-1680.9 1745.61c-78.68,82.61 -111.93,201.05 -90.76,326.51 18.17,111.92 78.67,220.76 169.34,306.89 87.67,86.47 199.51,142.09 311.35,156.66 127,16.02 244.93,-21.77 323.51,-103.7l1033.96 -1073.89 0 882.78c0,285.38 220.68,516.94 492.77,516.94 272.1,0 495.86,-231.56 495.86,-516.94l0 -886.13 1185.13 1141.86c84.68,80.13 205.6,116.46 329.52,97.7 114.92,-16.63 226.76,-75.59 314.43,-166.26 87.67,-90.76 142.09,-204.14 154.17,-318.72 12.08,-126.66 -27.17,-245.18 -111.84,-325.91l0 0 -1826.08 -1758.63c-15.08,-12.94 -30.25,-25.03 -45.33,-35.91l0 -1218.98c0,-33.34 -3,-65.65 -9.08,-97.1l3830.49 0c275.1,0 495.86,-222.22 495.86,-494.91 0,-203.2 -124.01,-377.94 -299.35,-454.12 24.17,-81.59 39.34,-167.46 39.34,-256.67l0 -4594.76c0,-89.22 -15.17,-174.74 -39.34,-256.67 175.34,-76.19 299.35,-250.59 299.35,-454.12z"></path> <path class="fil1" d="M8253.87 2350.83c-90.67,-69.5 -223.76,-51.08 -293.26,41.13l-1266.72 1684.59 -1693.07 -845.59c-93.67,-47.82 -208.59,-16.97 -269.1,71.04l-1166.96 1754.09 -1263.72 0c-114.84,0 -208.6,93.67 -208.6,209.45 0,115.87 93.76,209.54 208.6,209.54l1375.55 0c69.59,0 133.09,-35.05 172.34,-93.07l1130.72 -1693.67 1680.99 841.05c90.67,45.33 199.51,19.37 260.01,-61.36l1375.56 -1823.6c69.5,-92.55 51.42,-224.01 -42.34,-293.6z"></path> </g> </g> </g> </svg> 