<?xml version="1.0" encoding="UTF-8"?> <!-- Creator: CorelDRAW 2020 (64-Bit) --> <svg xmlns="http://www.w3.org/2000/svg" xmlns:xlink="http://www.w3.org/1999/xlink" xmlns:xodm="http://www.corel.com/coreldraw/odm/2003" xml:space="preserve" width="35" height="34" style="shape-rendering:geometricPrecision; text-rendering:geometricPrecision; image-rendering:optimizeQuality; fill-rule:evenodd; clip-rule:evenodd" viewBox="0 0 10500 14800"> <defs> <style type="text/css"> <![CDATA[ .fil0 {fill:#fff;fill-rule:nonzero} .fil1 {fill:#000;fill-rule:nonzero} ]]> </style> </defs> <g id="Слой_x0020_1"> <metadata id="CorelCorpID_0Corel-Layer"></metadata> <g id="_1817899764544"> <g> <path class="fil0" d="M3008.27 7813.27c158.76,-56.38 336.95,-125.6 525.62,-209.09 708.32,-311.73 1707.32,-888.04 2445.28,-1860.57 502.67,-663.05 827.51,-1431.91 964.85,-2284.99 15.37,-94.6 -46.17,-184.51 -139.87,-204.3l-581.1 -123.07 1576.85 -1358.54 900.88 1872.14 -634.32 -90.9c-8.67,-1.27 -17.26,-1.9 -25.57,-1.9 -78.34,0 -149.18,51.32 -172.14,128.49 -180.71,607.84 -399.38,1120.45 -668.38,1567.36 -302.88,503.93 -665.58,921.21 -1109.6,1276.32 -757.75,606.3 -1771.12,1030.9 -3082.5,1289.05zm-1162.55 238.19c23.58,152.61 152.97,261.04 303.78,261.04 13.38,0 26.75,-0.99 40.48,-2.89 1806.82,-237.19 3156.14,-729.28 4125.15,-1504.92 477.81,-382.13 867.98,-830.67 1193.18,-1371.64 261.95,-436.07 478.72,-928.53 659.53,-1501.94l576.58 82.49c113.49,16.63 225.08,-30.9 292.31,-122.98 67.32,-92.16 78.79,-212.97 29.01,-315.89l-970.91 -2017.53 -0.36 -0.27c-41.38,-86.11 -122.07,-148.91 -215.5,-167.7 -91.45,-19.79 -190.57,5.78 -263.31,68.22l-1705.07 1468.87c-87.92,75.9 -126.23,197.97 -97.22,310.47 29.36,113.76 119.27,200.23 234.93,224.45l511.34 108.34c-141.86,727.39 -432.91,1385.02 -866.72,1956.63 -691.43,911.62 -1634.32,1454.5 -2303.7,1749.7 -382.21,168.25 -716.27,275.41 -929.88,335.59 -119.18,33.8 -213.88,56.48 -272.25,69.85 -30.27,6.69 -54.48,11.75 -70.39,15l-15.63 3.16c-171.5,30.9 -281.47,184.87 -255.35,351.95z"></path> <path class="fil0" d="M10037 9322.35c0,-137.71 -111.5,-249.3 -249.57,-249.3l-8859.12 0 0 -8194.44c0,-137.71 -111.6,-249.3 -249.3,-249.3 -137.71,0 -249.21,111.59 -249.21,249.3l0 8443.74c0,65.69 26.47,129.76 73.01,176.29 46.53,46.54 110.87,73.01 176.2,73.01l9108.42 0c138.07,0 249.57,-111.59 249.57,-249.3z"></path> </g> <g> <path class="fil1" d="M2886.31 8158.44c158.76,-56.38 336.95,-125.6 525.62,-209.09 708.32,-311.74 1707.33,-888.04 2445.29,-1860.57 502.66,-663.06 827.5,-1431.92 964.85,-2284.99 15.36,-94.61 -46.18,-184.51 -139.88,-204.3l-581.1 -123.07 1576.85 -1358.54 900.88 1872.14 -634.32 -90.9c-8.67,-1.27 -17.26,-1.9 -25.57,-1.9 -78.34,0 -149.18,51.32 -172.13,128.49 -180.72,607.84 -399.39,1120.45 -668.39,1567.36 -302.88,503.93 -665.58,921.2 -1109.6,1276.31 -757.75,606.31 -1771.12,1030.91 -3082.5,1289.06zm-1162.55 238.19c23.58,152.61 152.98,261.04 303.78,261.04 13.38,0 26.75,-0.99 40.48,-2.89 1806.82,-237.19 3156.14,-729.28 4125.15,-1504.92 477.82,-382.13 867.98,-830.67 1193.19,-1371.65 261.94,-436.07 478.72,-928.52 659.52,-1501.94l576.58 82.5c113.49,16.63 225.09,-30.9 292.31,-122.98 67.32,-92.16 78.79,-212.97 29.01,-315.89l-970.91 -2017.53 -0.36 -0.27c-41.38,-86.11 -122.07,-148.91 -215.5,-167.7 -91.45,-19.79 -190.57,5.78 -263.31,68.22l-1705.07 1468.87c-87.92,75.9 -126.23,197.97 -97.22,310.47 29.36,113.76 119.27,200.23 234.93,224.45l511.34 108.34c-141.86,727.38 -432.91,1385.01 -866.72,1956.62 -691.43,911.63 -1634.32,1454.51 -2303.7,1749.71 -382.21,168.25 -716.27,275.41 -929.88,335.59 -119.18,33.79 -213.88,56.47 -272.25,69.85 -30.27,6.68 -54.48,11.74 -70.39,15l-15.63 3.16c-171.5,30.9 -281.47,184.87 -255.35,351.95z"></path> <path class="fil1" d="M9915.04 9667.52c0,-137.71 -111.5,-249.3 -249.57,-249.3l-8859.12 0 0 -8194.44c0,-137.71 -111.6,-249.3 -249.3,-249.3 -137.71,0 -249.21,111.59 -249.21,249.3l0 8443.74c0,65.69 26.47,129.75 73.01,176.29 46.53,46.53 110.87,73.01 176.2,73.01l9108.42 0c138.07,0 249.57,-111.59 249.57,-249.3z"></path> </g> </g> </g> </svg> 