<?xml version="1.0" encoding="UTF-8"?> <!-- Creator: CorelDRAW 2020 (64-Bit) --> <svg xmlns="http://www.w3.org/2000/svg" xmlns:xlink="http://www.w3.org/1999/xlink" xmlns:xodm="http://www.corel.com/coreldraw/odm/2003" xml:space="preserve" width="35" height="34" style="shape-rendering:geometricPrecision; text-rendering:geometricPrecision; image-rendering:optimizeQuality; fill-rule:evenodd; clip-rule:evenodd" viewBox="0 0 10500 14800"> <defs> <style type="text/css"> <![CDATA[ .fil0 {fill:#fff;fill-rule:nonzero} .fil1 {fill:#000;fill-rule:nonzero} ]]> </style> </defs> <g id="Слой_x0020_1"> <metadata id="CorelCorpID_0Corel-Layer"></metadata> <g id="_1818233895664"> <path class="fil0" d="M9940.7 10650.07l-8707.49 0 0 -2914.46c528.34,-1762.46 2429.95,-1503.73 2877.36,-1416.42l1288.57 2533.74c35.63,70.57 108.1,115.34 187.47,115.34l0.34 0c79.12,0 151.59,-44.17 187.73,-114.48l1280.46 -2488.96c1043.29,-83.68 1829.41,92.22 2337.38,522.9 487.27,413.33 543.6,920.01 548.18,975.39l0 2786.95zm-4726.27 -3817.47l-125.7 479.07 -546.97 -1075.9c138.56,53.57 282.2,96.79 430.42,127.25 -5.52,27.09 -8.54,55.38 -8.54,84.03 0,171.59 103.18,319.2 250.79,385.55zm771.79 -14.58c133.04,-71.52 224.31,-209.99 224.31,-370.97 0,-36.84 -6.04,-71.87 -15.18,-105.6 167.71,-40.81 328.95,-96.8 482.95,-166.85l-517.03 1004.99 -175.05 -361.57zm-741.34 -370.97c0,-78.25 63.59,-141.83 141.84,-141.83l400.47 0c78.25,0 141.83,63.58 141.83,141.83 0,78.16 -63.58,141.83 -141.83,141.83l-400.47 0c-78.25,0 -141.84,-63.67 -141.84,-141.83zm250.45 422.99l203.61 0 301.6 622.46 -412.38 801.29 -307.39 -604.42 214.56 -819.33zm-2340.14 -3227.88c0,-1313.59 1068.23,-2381.9 2381.81,-2381.9 1313.33,0 2381.9,1068.31 2381.9,2381.9 0,1309.27 -1062.19,2375.08 -2370.6,2381.55l-22.86 0c-1308.06,-6.47 -2370.25,-1072.28 -2370.25,-2381.55zm6519.44 2932.05c-582.51,-500.03 -1448.34,-713.04 -2575.41,-635.48 733.84,-500.64 1216.53,-1343.09 1216.53,-2296.57 0,-1532.11 -1246.63,-2778.75 -2778.75,-2778.75 -1532.37,0 -2779.01,1246.64 -2779.01,2778.75 0,906.03 436.11,1712.25 1109.04,2219.61 -813.81,-80.4 -2527.27,-20.7 -3047.75,1784.98 -5.18,18.9 -8.2,38.65 -8.2,58.49l0 3155.76c0,116.56 94.64,211.2 211.2,211.2l9129.61 0c116.55,0 210.94,-94.64 210.94,-211.2l0 -3005.73c0,-3.71 0,-7.59 -0.35,-11.9 -1.81,-28.91 -47.79,-720.38 -687.85,-1269.16z"></path> <path class="fil1" d="M9636.96 10861.09l-8707.49 0 0 -2914.45c528.34,-1762.46 2429.96,-1503.73 2877.36,-1416.42l1288.57 2533.73c35.63,70.57 108.1,115.35 187.47,115.35l0.35 0c79.11,0 151.58,-44.17 187.72,-114.49l1280.46 -2488.95c1043.29,-83.69 1829.41,92.22 2337.38,522.89 487.27,413.33 543.6,920.01 548.18,975.4l0 2786.94zm-4726.27 -3817.47l-125.7 479.08 -546.97 -1075.91c138.56,53.58 282.2,96.8 430.42,127.25 -5.52,27.09 -8.54,55.39 -8.54,84.03 0,171.6 103.18,319.21 250.79,385.55zm771.79 -14.58c133.04,-71.52 224.31,-209.98 224.31,-370.97 0,-36.84 -6.04,-71.86 -15.18,-105.59 167.71,-40.81 328.96,-96.8 482.95,-166.86l-517.03 1004.99 -175.05 -361.57zm-741.33 -370.97c0,-78.25 63.58,-141.83 141.83,-141.83l400.47 0c78.25,0 141.84,63.58 141.84,141.83 0,78.17 -63.59,141.83 -141.84,141.83l-400.47 0c-78.25,0 -141.83,-63.66 -141.83,-141.83zm250.44 423l203.61 0 301.61 622.45 -412.39 801.3 -307.39 -604.42 214.56 -819.33zm-2340.14 -3227.89c0,-1313.58 1068.23,-2381.89 2381.81,-2381.89 1313.33,0 2381.9,1068.31 2381.9,2381.89 0,1309.27 -1062.19,2375.08 -2370.59,2381.55l-22.87 0c-1308.06,-6.47 -2370.25,-1072.28 -2370.25,-2381.55zm6519.44 2932.06c-582.51,-500.04 -1448.34,-713.04 -2575.4,-635.48 733.83,-500.64 1216.52,-1343.09 1216.52,-2296.58 0,-1532.11 -1246.63,-2778.74 -2778.75,-2778.74 -1532.37,0 -2779.01,1246.63 -2779.01,2778.74 0,906.04 436.11,1712.25 1109.04,2219.62 -813.81,-80.41 -2527.27,-20.7 -3047.75,1784.98 -5.18,18.89 -8.2,38.65 -8.2,58.49l0 3155.76c0,116.55 94.64,211.19 211.2,211.19l9129.61 0c116.56,0 210.94,-94.64 210.94,-211.19l0 -3005.73c0,-3.71 0,-7.59 -0.35,-11.91 -1.81,-28.9 -47.79,-720.37 -687.85,-1269.15z"></path> </g> </g> </svg> 