<?xml version="1.0" encoding="UTF-8"?> <!-- Creator: CorelDRAW 2020 (64-Bit) --> <svg xmlns="http://www.w3.org/2000/svg" xmlns:xlink="http://www.w3.org/1999/xlink" xmlns:xodm="http://www.corel.com/coreldraw/odm/2003" xml:space="preserve" width="35" height="34" style="shape-rendering:geometricPrecision; text-rendering:geometricPrecision; image-rendering:optimizeQuality; fill-rule:evenodd; clip-rule:evenodd" viewBox="0 0 10500 14800"> <defs> <style type="text/css"> <![CDATA[ .fil0 {fill:#fff;fill-rule:nonzero} .fil1 {fill:#000;fill-rule:nonzero} ]]> </style> </defs> <g id="Слой_x0020_1"> <metadata id="CorelCorpID_0Corel-Layer"></metadata> <g id="_1779204731776"> <g> <path class="fil0" d="M6075.58 5818.27c81.85,-196.33 198.96,-374.97 348.08,-529.41 56.65,-57.34 64.15,-147.75 18.51,-216.15l-147.31 -216.16 355.52 -242.66 147.38 216.15c45.89,68.41 132.55,94.86 208.21,63.97 198.33,-81.6 406.73,-125.68 619.63,-130.12 81.6,0 151.06,-59.52 166.32,-138.93l48.96 -258.11 422.36 81.6 -48.96 258.1c-15.44,79.41 27.58,158.82 102.8,189.71 196.77,81.6 374.53,198.52 528.97,348.52 58.65,57.34 148.87,63.96 216.4,17.63l216.78 -147.81 241.54 357.34 -216.59 147.81c-67.47,44.08 -93.73,132.3 -62.65,207.33 81.84,198.52 125.3,405.86 128.8,619.82 1.56,81.6 60.02,150 140.12,165.45l256.92 48.52 -80.72 423.49 -256.98 -48.52c-80.04,-15.45 -159.88,26.45 -191.21,101.48 -81.59,196.33 -198.77,374.97 -347.89,529.41 -56.65,59.52 -64.4,149.93 -18.51,216.15l147.37 216.15 -355.58 242.66 -147.56 -216.21c-45.65,-68.34 -132.56,-94.85 -207.78,-63.96 -198.52,81.65 -407.23,125.73 -620.07,130.17 -81.41,0 -150.88,59.53 -166.07,138.94l-48.96 258.1 -422.42 -81.65 49.2 -255.86c15.2,-81.6 -27.82,-161.01 -103.04,-191.89 -196.77,-81.6 -374.53,-198.52 -528.97,-348.52 -58.65,-55.15 -149.06,-63.97 -216.34,-17.64l-216.84 147.82 -241.79 -355.15 216.84 -147.81c67.53,-46.34 93.54,-132.31 62.65,-209.53 -81.84,-198.52 -125.3,-405.86 -129.05,-619.82 -1.31,-81.66 -59.53,-150 -139.81,-165.44l-256.98 -48.52 80.53 -423.55 257.17 50.77c79.85,15.44 159.69,-28.7 191.02,-103.67zm-552.79 -317.63c-44.77,-8.82 -91.29,2.18 -128.81,28.63 -37.95,24.26 -63.96,63.97 -72.53,108.11l-144.93 761c-17.89,94.86 43.2,183.08 136.74,200.71l293.56 57.34c13.69,161.07 46.77,317.63 98.17,472.07l-247.48 167.63c-37.7,26.45 -63.96,66.16 -72.34,110.3 -8.63,46.33 0.87,92.6 26.7,130.12l435.18 639.7c25.57,37.45 65.27,63.96 110.11,72.78 44.76,8.82 91.1,-2.19 128.99,-26.45l247.47 -169.88c123.81,105.92 258.55,194.14 402.8,266.92l-55.78 293.37c-17.88,92.61 43.46,182.83 136.75,200.71l760.57 144.94c11,2.19 21.82,3.31 32.39,3.31 81.15,0 153.12,-57.58 168.75,-140.06l56.28 -292.74c160.56,-15.45 318.5,-48.52 472.26,-99.23l168.07 247.04c25.57,38.58 65.52,64.59 110.29,73.03 44.77,8.57 91.1,-0.94 128.81,-26.7l640.58 -434.56c78.47,-52.95 98.98,-161 45.64,-240.41l-168.51 -247.04c104.55,-123.55 193.21,-258.11 265.3,-403.67l293.62 57.34c93.1,17.63 183.52,-44.14 201.4,-136.74l144.94 -761.01c8.56,-44.14 -1.13,-90.47 -26.7,-130.18 -25.64,-37.45 -65.34,-61.71 -110.11,-70.53l-293.56 -57.4c-13.88,-158.81 -46.77,-317.63 -98.17,-472.01l247.48 -167.63c78.78,-52.96 99.04,-161 45.64,-240.41l-435.18 -639.7c-25.57,-37.52 -65.27,-63.97 -110.04,-72.79 -44.77,-8.81 -91.35,2.19 -129.06,28.64l-247.48 167.7c-123.73,-105.92 -258.73,-194.15 -402.98,-264.74l56.22 -295.56c17.63,-92.66 -43.65,-183.08 -137,-200.71l-760.5 -145.62c-44.84,-6.57 -91.11,2.25 -129.06,28.7 -37.7,24.26 -63.78,63.96 -72.34,108.11l-56.02 295.56c-160.57,13.19 -318.76,46.33 -472.26,97.04l-168.07 -247.04c-25.83,-37.52 -65.34,-63.97 -110.3,-72.78 -44.77,-8.82 -91.1,0 -129.05,26.44l-640.33 436.75c-37.52,24.26 -63.78,63.96 -72.16,108.11 -8.57,46.33 0.88,92.6 26.7,130.11l168.07 247.04c-104.29,123.56 -193.21,258.11 -264.92,403.67l-293.81 -57.33z"></path> <path class="fil0" d="M6780.12 6310.16c44.52,-233.85 177.77,-436.74 374.97,-571.3 149.75,-101.48 322.95,-154.44 500.02,-154.44 56.28,0 112.99,6.63 169.45,15.44 483.51,92.67 802.02,562.49 709.61,1045.57 -44.58,233.78 -178.01,436.74 -375.22,571.3 -197.21,134.55 -434.99,183.07 -669.22,138.93l0 0c-234.28,-46.27 -436.99,-178.64 -571.11,-374.97 -134.12,-198.52 -183.08,-436.74 -138.5,-670.53zm645.15 1383.01l0 0c78.09,15.45 155.75,22.08 232.28,22.08 581.68,0 1101.77,-412.49 1214.95,-1005.86 127.74,-670.53 -313.45,-1319.05 -983.54,-1446.98 -324.51,-61.77 -653.77,6.63 -927.32,191.89 -273.3,185.27 -457.94,467.64 -519.91,791.9 -61.77,324.26 6.38,652.89 192.15,926.38 185.7,273.55 466.75,458.82 791.39,520.59z"></path> <path class="fil0" d="M1967.55 2172.12c65.47,48.52 155.94,44.08 217.03,-8.81 161.01,-143.44 344.33,-251.48 544.42,-324.26 76.71,-28.7 123.3,-105.92 111.6,-185.33l-37.32 -260.23 425.99 -61.78 37.01 260.3c11.51,81.59 78.1,141.12 159.51,147.75 212.4,13.25 418.86,66.21 613.19,156.62 74.09,35.27 161.88,13.26 210.9,-52.96l156.82 -209.52 344.33 258.04 -157.32 209.59c-48.96,63.97 -45.21,154.38 8.63,216.15 141.81,161.01 250.6,344.09 323.38,544.86 27.77,77.15 105.42,123.49 186.4,112.48l258.92 -37.51 61.08 425.74 -258.92 37.45c-80.72,11.07 -142.06,77.22 -147.37,158.81 -13.44,211.78 -66.4,419.12 -157,613.26 -34.64,72.78 -12.63,161 52.46,209.52l210.02 158.82 -257.67 344.08 -209.96 -158.81c-65.09,-48.52 -155.94,-44.09 -216.84,8.81 -161.01,143.37 -344.33,251.48 -544.42,324.26 -76.53,28.7 -123.3,105.92 -111.79,185.33l37.26 260.23 -425.49 61.78 -37.26 -260.3c-11.51,-81.59 -78.1,-141.12 -159.51,-147.75 -212.4,-13.25 -418.86,-66.21 -613.44,-156.62 -23.39,-11.01 -48.08,-15.45 -72.53,-15.45 -52.96,0 -104.55,24.26 -138.12,68.41l-157.01 209.52 -344.14 -258.05 157.25 -209.58c48.77,-66.16 45.27,-156.63 -8.56,-216.16 -141.81,-161 -250.79,-344.08 -323.39,-544.85 -28.01,-77.15 -106.1,-123.49 -186.39,-112.48l-258.92 37.51 -61.34 -425.74 259.18 -37.45c80.53,-11.07 142.24,-77.22 147.37,-158.81 13.44,-211.78 66.15,-419.12 157.25,-613.26 34.39,-72.78 12.32,-161 -52.96,-209.53l-209.77 -158.81 257.86 -344.08 209.58 158.81zm-1023.49 2009.47c13.45,92.6 100.54,158.81 194.77,145.56l296 -41.9c65.28,145.56 147.56,284.56 246.17,412.49l-179.33 240.41c-27.32,37.52 -39.02,83.85 -32.64,127.93 6.38,44.14 30.64,86.04 67.28,112.48l619.57 465.45c76.1,57.33 184.02,41.89 241.1,-35.33l179.33 -240.41c151.12,59.59 307.5,99.29 467.44,121.3l42.33 295.62c6.38,44.08 30.64,85.98 67.03,112.49 30.26,22.07 66.4,35.26 103.48,35.26 7.94,0 16.13,0 24.26,-2.19l766.51 -110.29c93.97,-13.26 159.5,-99.23 146,-194.08l-42.77 -295.63c147.56,-66.15 286.31,-147.75 414.92,-247.04l239.54 178.7c76.09,57.34 183.95,41.89 240.85,-33.07l464.13 -619.83c57.09,-77.22 41.46,-185.32 -34.45,-242.66l-239.54 -178.64c58.28,-150 98.42,-306.62 119.55,-467.63l295.81 -41.95c45.46,-6.57 86.04,-30.89 113.36,-66.16 27.39,-37.51 39.08,-83.84 32.64,-127.92l-110.04 -767.64c-13.45,-92.6 -100.36,-158.81 -194.77,-145.56l-296 41.9c-65.28,-145.57 -147.56,-284.56 -246.17,-414.68l179.33 -238.22c27.32,-37.52 39.01,-83.85 32.64,-127.93 -6.63,-46.33 -30.64,-86.04 -67.03,-112.48l-619.89 -465.45c-36.57,-26.45 -82.47,-39.7 -127.67,-33.07 -45.21,6.62 -86.04,30.88 -113.36,68.4l-179.33 238.22c-151.12,-57.4 -307.5,-97.1 -467.19,-119.11l-42.58 -295.62c-13.45,-94.85 -100.36,-158.82 -194.77,-145.56l-766.51 110.29c-45.21,6.63 -85.79,30.89 -113.17,66.16 -27.33,37.51 -39.27,83.84 -32.64,127.92l42.33 295.63c-147.31,66.15 -286.06,147.75 -414.67,247.04l-239.54 -178.7c-36.39,-28.64 -82.29,-39.71 -127.49,-33.08 -45.46,6.63 -86.29,30.89 -113.61,66.15l-463.88 619.83c-27.58,37.51 -39.02,83.84 -32.64,127.92 6.38,46.34 30.64,86.04 67.03,112.55l239.78 180.83c-58.65,150 -98.6,306.62 -119.73,467.63l-296.06 41.95c-45.21,6.57 -85.79,30.83 -113.11,66.16 -27.39,37.51 -39.27,83.78 -32.71,127.92l110.11 767.64z"></path> <path class="fil0" d="M4199.55 3321.29c69.96,487.52 -269.55,941.89 -757.01,1012.48 -487.7,68.35 -940.76,-271.3 -1010.67,-758.81 -70.15,-485.27 269.55,-939.64 756.75,-1010.23 43.02,-6.63 85.6,-8.82 127.75,-8.82 436.49,0 819.46,322.07 883.18,765.38zm-884.75 1365.38c58.28,0 117.36,-4.38 176.7,-13.19 675.22,-97.1 1145.92,-725.74 1048.88,-1400.71 -96.86,-674.97 -725.31,-1144.79 -1400.46,-1047.75 -675.22,97.1 -1145.92,725.74 -1049.07,1400.71 88.67,615.38 618.95,1060.94 1223.95,1060.94z"></path> </g> <g> <path class="fil1" d="M5787.26 5938.48c81.84,-196.33 198.95,-374.96 348.08,-529.4 56.65,-57.34 64.15,-147.75 18.51,-216.16l-147.32 -216.15 355.53 -242.66 147.37 216.15c45.9,68.4 132.56,94.85 208.21,63.96 198.34,-81.59 406.74,-125.67 619.64,-130.11 81.59,0 151.06,-59.53 166.32,-138.94l48.96 -258.1 422.36 81.59 -48.96 258.11c-15.44,79.41 27.57,158.82 102.79,189.71 196.77,81.59 374.54,198.52 528.97,348.52 58.65,57.33 148.88,63.96 216.41,17.63l216.78 -147.81 241.53 357.33 -216.59 147.81c-67.46,44.09 -93.72,132.31 -62.65,207.34 81.85,198.52 125.3,405.86 128.81,619.82 1.56,81.6 60.02,150 140.12,165.45l256.92 48.52 -80.72 423.48 -256.99 -48.52c-80.03,-15.44 -159.88,26.45 -191.2,101.48 -81.6,196.34 -198.77,374.97 -347.9,529.41 -56.65,59.53 -64.4,149.94 -18.5,216.15l147.37 216.16 -355.59 242.66 -147.56 -216.21c-45.64,-68.35 -132.55,-94.86 -207.77,-63.97 -198.52,81.66 -407.23,125.74 -620.07,130.18 -81.41,0 -150.88,59.53 -166.07,138.93l-48.96 258.11 -422.43 -81.66 49.21 -255.85c15.19,-81.6 -27.82,-161.01 -103.04,-191.9 -196.77,-81.59 -374.53,-198.52 -528.97,-348.52 -58.65,-55.15 -149.07,-63.96 -216.34,-17.63l-216.84 147.81 -241.79 -355.15 216.84 -147.81c67.53,-46.33 93.54,-132.3 62.65,-209.52 -81.85,-198.52 -125.3,-405.86 -129.05,-619.82 -1.32,-81.66 -59.53,-150 -139.81,-165.45l-256.98 -48.52 80.53 -423.55 257.17 50.77c79.84,15.45 159.69,-28.7 191.02,-103.67zm-552.8 -317.63c-44.77,-8.81 -91.29,2.19 -128.8,28.64 -37.95,24.26 -63.97,63.96 -72.53,108.11l-144.94 761c-17.88,94.85 43.21,183.08 136.75,200.71l293.56 57.34c13.69,161.06 46.77,317.63 98.16,472.07l-247.47 167.63c-37.71,26.45 -63.97,66.15 -72.35,110.3 -8.63,46.33 0.88,92.6 26.7,130.11l435.18 639.71c25.58,37.45 65.28,63.96 110.11,72.78 44.77,8.81 91.1,-2.19 128.99,-26.45l247.48 -169.88c123.8,105.91 258.55,194.14 402.79,266.92l-55.77 293.37c-17.88,92.6 43.46,182.83 136.75,200.71l760.56 144.94c11.01,2.18 21.82,3.31 32.39,3.31 81.16,0 153.13,-57.59 168.76,-140.06l56.27 -292.75c160.57,-15.44 318.51,-48.52 472.26,-99.23l168.07 247.05c25.58,38.57 65.53,64.58 110.3,73.03 44.77,8.56 91.1,-0.94 128.8,-26.7l640.58 -434.56c78.47,-52.96 98.98,-161 45.65,-240.41l-168.51 -247.04c104.54,-123.55 193.2,-258.11 265.3,-403.67l293.62 57.34c93.1,17.63 183.51,-44.15 201.4,-136.75l144.93 -761c8.57,-44.15 -1.12,-90.48 -26.7,-130.18 -25.63,-37.46 -65.34,-61.72 -110.11,-70.53l-293.56 -57.4c-13.88,-158.82 -46.77,-317.63 -98.16,-472.01l247.48 -167.63c78.78,-52.96 99.04,-161.01 45.64,-240.41l-435.18 -639.71c-25.57,-37.51 -65.28,-63.96 -110.05,-72.78 -44.77,-8.81 -91.35,2.19 -129.05,28.64l-247.48 167.69c-123.74,-105.92 -258.73,-194.14 -402.98,-264.73l56.21 -295.56c17.63,-92.67 -43.64,-183.08 -136.99,-200.71l-760.51 -145.62c-44.83,-6.57 -91.1,2.25 -129.05,28.69 -37.71,24.26 -63.78,63.97 -72.35,108.11l-56.02 295.56c-160.57,13.2 -318.76,46.33 -472.26,97.04l-168.07 -247.04c-25.82,-37.51 -65.34,-63.96 -110.29,-72.78 -44.77,-8.81 -91.1,0 -129.06,26.45l-640.33 436.75c-37.51,24.26 -63.77,63.96 -72.15,108.1 -8.57,46.33 0.87,92.6 26.7,130.12l168.07 247.04c-104.3,123.55 -193.21,258.11 -264.93,403.67l-293.81 -57.34z"></path> <path class="fil1" d="M6491.8 6430.38c44.52,-233.85 177.76,-436.75 374.97,-571.3 149.75,-101.48 322.95,-154.44 500.02,-154.44 56.27,0 112.98,6.62 169.45,15.44 483.51,92.66 802.02,562.49 709.6,1045.56 -44.58,233.79 -178.01,436.75 -375.21,571.3 -197.21,134.56 -435,183.08 -669.22,138.93l0 0c-234.29,-46.26 -437,-178.63 -571.11,-374.96 -134.12,-198.52 -183.08,-436.75 -138.5,-670.53zm645.14 1383.01l0 0c78.1,15.44 155.76,22.07 232.29,22.07 581.68,0 1101.77,-412.48 1214.94,-1005.85 127.74,-670.53 -313.44,-1319.05 -983.53,-1446.98 -324.51,-61.78 -653.78,6.63 -927.33,191.89 -273.3,185.26 -457.94,467.63 -519.9,791.89 -61.78,324.26 6.38,652.9 192.14,926.39 185.7,273.55 466.76,458.81 791.39,520.59z"></path> <path class="fil1" d="M1679.23 2292.34c65.46,48.52 155.94,44.08 217.03,-8.82 161,-143.43 344.33,-251.48 544.41,-324.26 76.72,-28.7 123.3,-105.92 111.61,-185.32l-37.33 -260.24 425.99 -61.77 37.02 260.29c11.5,81.6 78.09,141.12 159.5,147.75 212.4,13.26 418.86,66.22 613.2,156.63 74.09,35.27 161.88,13.26 210.9,-52.96l156.81 -209.52 344.33 258.04 -157.31 209.59c-48.96,63.96 -45.21,154.38 8.63,216.15 141.81,161.01 250.6,344.08 323.38,544.85 27.76,77.16 105.42,123.49 186.39,112.49l258.92 -37.52 61.09 425.74 -258.92 37.45c-80.72,11.07 -142.06,77.22 -147.37,158.82 -13.45,211.78 -66.41,419.11 -157.01,613.26 -34.64,72.78 -12.63,161 52.46,209.52l210.03 158.82 -257.67 344.08 -209.97 -158.82c-65.09,-48.52 -155.94,-44.08 -216.84,8.82 -161,143.37 -344.33,251.48 -544.41,324.26 -76.53,28.7 -123.3,105.92 -111.8,185.33l37.27 260.23 -425.49 61.77 -37.27 -260.29c-11.5,-81.6 -78.09,-141.12 -159.5,-147.75 -212.4,-13.26 -418.86,-66.22 -613.45,-156.63 -23.38,-11 -48.08,-15.44 -72.53,-15.44 -52.96,0 -104.54,24.26 -138.12,68.4l-157 209.53 -344.14 -258.05 157.25 -209.59c48.77,-66.15 45.27,-156.62 -8.57,-216.15 -141.8,-161 -250.79,-344.08 -323.38,-544.85 -28.01,-77.16 -106.11,-123.49 -186.39,-112.49l-258.92 37.52 -61.34 -425.74 259.17 -37.45c80.53,-11.07 142.25,-77.22 147.38,-158.82 13.44,-211.77 66.15,-419.11 157.25,-613.25 34.39,-72.78 12.32,-161.01 -52.96,-209.53l-209.78 -158.82 257.86 -344.08 209.59 158.82zm-1023.49 2009.46c13.44,92.6 100.54,158.82 194.77,145.56l296 -41.89c65.27,145.56 147.56,284.56 246.16,412.49l-179.32 240.41c-27.33,37.51 -39.02,83.85 -32.64,127.93 6.38,44.14 30.64,86.03 67.28,112.48l619.57 465.44c76.09,57.34 184.01,41.9 241.1,-35.32l179.32 -240.42c151.13,59.59 307.51,99.3 467.45,121.3l42.33 295.63c6.38,44.08 30.64,85.97 67.03,112.48 30.26,22.07 66.4,35.27 103.48,35.27 7.94,0 16.13,0 24.26,-2.19l766.5 -110.3c93.98,-13.25 159.51,-99.23 146,-194.08l-42.77 -295.62c147.57,-66.15 286.31,-147.75 414.93,-247.04l239.54 178.7c76.09,57.33 183.95,41.89 240.85,-33.08l464.13 -619.82c57.08,-77.22 41.45,-185.33 -34.45,-242.66l-239.54 -178.64c58.27,-150 98.41,-306.63 119.55,-467.63l295.81 -41.96c45.46,-6.56 86.03,-30.88 113.36,-66.15 27.38,-37.52 39.08,-83.85 32.64,-127.93l-110.05 -767.63c-13.44,-92.6 -100.35,-158.82 -194.77,-145.56l-296 41.89c-65.27,-145.56 -147.56,-284.55 -246.16,-414.67l179.32 -238.23c27.33,-37.51 39.02,-83.84 32.64,-127.92 -6.63,-46.34 -30.64,-86.04 -67.03,-112.49l-619.88 -465.44c-36.58,-26.45 -82.47,-39.71 -127.68,-33.08 -45.2,6.63 -86.03,30.89 -113.36,68.41l-179.32 238.22c-151.13,-57.4 -307.51,-97.1 -467.2,-119.11l-42.58 -295.63c-13.44,-94.85 -100.35,-158.81 -194.77,-145.56l-766.5 110.3c-45.21,6.63 -85.79,30.89 -113.18,66.15 -27.32,37.52 -39.26,83.85 -32.63,127.93l42.33 295.62c-147.32,66.16 -286.06,147.75 -414.68,247.04l-239.54 -178.7c-36.39,-28.63 -82.28,-39.7 -127.49,-33.07 -45.45,6.63 -86.28,30.89 -113.61,66.15l-463.88 619.82c-27.57,37.52 -39.01,83.85 -32.64,127.93 6.38,46.33 30.64,86.04 67.03,112.55l239.79 180.82c-58.65,150 -98.6,306.63 -119.74,467.63l-296.06 41.96c-45.21,6.56 -85.78,30.82 -113.11,66.15 -27.38,37.52 -39.26,83.79 -32.7,127.93l110.11 767.63z"></path> <path class="fil1" d="M3911.22 3441.51c69.97,487.51 -269.55,941.89 -757,1012.48 -487.7,68.34 -940.77,-271.3 -1010.67,-758.82 -70.16,-485.26 269.55,-939.64 756.75,-1010.23 43.02,-6.63 85.6,-8.81 127.74,-8.81 436.5,0 819.47,322.07 883.18,765.38zm-884.74 1365.38c58.27,0 117.36,-4.38 176.7,-13.2 675.22,-97.1 1145.91,-725.73 1048.87,-1400.7 -96.85,-674.97 -725.3,-1144.79 -1400.46,-1047.75 -675.22,97.1 -1145.91,725.74 -1049.06,1400.71 88.66,615.38 618.95,1060.94 1223.95,1060.94z"></path> </g> </g> </g> </svg> 