<svg xmlns="http://www.w3.org/2000/svg" width="512" height="512" viewBox="0 0 512 512" fill="none" m_init="2355927202201140833"> <path d="M176.792 0H59.208C26.561 0 0 26.561 0 59.208V176.792C0 209.439 26.561 236 59.208 236H176.792C209.439 236 236 209.439 236 176.792V59.208C236 26.561 209.439 0 176.792 0ZM196 176.792C196 187.383 187.383 196 176.792 196H59.208C48.617 196 40 187.383 40 176.792V59.208C40 48.617 48.617 40 59.208 40H176.792C187.383 40 196 48.617 196 59.208V176.792Z" fill="white"/> <path d="M452 0H336C302.916 0 276 26.916 276 60V176C276 209.084 302.916 236 336 236H452C485.084 236 512 209.084 512 176V60C512 26.916 485.084 0 452 0ZM472 176C472 187.028 463.028 196 452 196H336C324.972 196 316 187.028 316 176V60C316 48.972 324.972 40 336 40H452C463.028 40 472 48.972 472 60V176Z" fill="white"/> <path d="M176.792 276H59.208C26.561 276 0 302.561 0 335.208V452.792C0 485.439 26.561 512 59.208 512H176.792C209.439 512 236 485.439 236 452.792V335.208C236 302.561 209.439 276 176.792 276ZM196 452.792C196 463.383 187.383 472 176.792 472H59.208C48.617 472 40 463.383 40 452.792V335.208C40 324.617 48.617 316 59.208 316H176.792C187.383 316 196 324.617 196 335.208V452.792Z" fill="white"/> <path d="M452 276H336C302.916 276 276 302.916 276 336V452C276 485.084 302.916 512 336 512H452C485.084 512 512 485.084 512 452V336C512 302.916 485.084 276 452 276ZM472 452C472 463.028 463.028 472 452 472H336C324.972 472 316 463.028 316 452V336C316 324.972 324.972 316 336 316H452C463.028 316 472 324.972 472 336V452Z" fill="white"/> </svg>