<svg xmlns="http://www.w3.org/2000/svg" width="512" height="512" viewBox="0 0 512 512" fill="none" m_init="2355927202201140833"> <g clip-path="url(#clip0)"> <path d="M475.425 200.225L262.092 4.66898C255.141 -1.69002 244.451 -1.53502 237.695 5.01898L36.213 200.574C32.764 203.922 30.814 208.527 30.814 213.332V494.221C30.814 504.04 38.772 511.999 48.592 511.999H196.74C206.559 511.999 214.518 504.04 214.518 494.221V363.851H297.481V494.221C297.481 504.04 305.439 511.999 315.259 511.999H463.407C473.226 511.999 481.185 504.046 481.185 494.221V213.333C481.185 208.349 479.099 203.597 475.425 200.225ZM445.629 476.444H333.037V346.074C333.037 336.255 325.078 328.296 315.259 328.296H196.741C186.922 328.296 178.963 336.255 178.963 346.074V476.444H66.37V220.853L250.424 42.216L445.63 221.155V476.444H445.629Z" fill="white"/> </g> <defs> <clipPath id="clip0"> <rect width="512" height="512" fill="white"/> </clipPath> </defs> </svg>