<?xml version="1.0" encoding="UTF-8"?> <!-- Creator: CorelDRAW 2020 (64-Bit) --> <svg xmlns="http://www.w3.org/2000/svg" xmlns:xlink="http://www.w3.org/1999/xlink" xmlns:xodm="http://www.corel.com/coreldraw/odm/2003" xml:space="preserve" width="90" height="90" style="shape-rendering:geometricPrecision; text-rendering:geometricPrecision; image-rendering:optimizeQuality; fill-rule:evenodd; clip-rule:evenodd" viewBox="0 0 10500 10000"> <defs> <style type="text/css"> <![CDATA[ .fil0 {fill:#34302E;fill-rule:nonzero} .fil1 {fill:#FFA501;fill-rule:nonzero} ]]> </style> </defs> <g id="Слой_x0020_1"> <metadata id="CorelCorpID_0Corel-Layer"></metadata> <g id="_1817473915056"> <path class="fil0" d="M5361.36 3322.11c968.37,0 1756.32,788.03 1756.32,1756.4 0,242.56 -15.11,455.11 -89.79,765.15 -138.55,563.9 -489.7,1366.36 -610.07,1633.64l-2113 0c-120.57,-267.28 -471.45,-1069.26 -609.99,-1632.89 -74.96,-310.79 -89.87,-523.34 -89.87,-765.9 0,-968.37 787.75,-1756.4 1756.4,-1756.4zm1146.33 5910.84c-39.9,38.67 -97.77,62.9 -159.99,59.84l-1855.32 -24.51c-113.35,-1.43 -205.05,-77.34 -204.1,-169.11 0.68,-70.33 57.12,-132.82 140.24,-154.88 71.35,-19 119.62,-85.31 116.22,-159.04 -3.34,-73.45 -58.08,-134.73 -130.65,-146.98 -95.58,-15.8 -167.14,-86.94 -166.18,-165.43 0.75,-66.79 53.3,-127.79 131.39,-152.03 65.29,-20.22 109.95,-80.47 110.22,-148.96 0.21,-68.14 -43.7,-128.94 -108.79,-149.84 -79.99,-25.67 -133.57,-88.84 -132.82,-157.54 0.27,-30.02 10.82,-54.26 23.28,-73.73l2196.6 0c28.6,29.07 46.36,65.29 45.89,104.44 -0.48,66.78 -53.1,127.78 -130.92,151.82 -65.29,20.15 -109.95,80.47 -110.43,148.68 -0.27,68.42 43.92,129.22 109,150.12 79.99,25.66 133.3,89.05 132.35,157.74 -0.48,70.39 -56.65,132.62 -139.77,154.68 -71.08,18.99 -119.62,85.03 -116.01,158.76 3.34,73.53 57.66,134.73 130.44,147.26 95.31,15.79 166.66,86.93 165.91,165.43 -0.47,48.06 -25.66,82.65 -46.56,103.28zm-3216.17 -4154.44c0,265.37 16.61,498.55 98.72,839.83 146.5,595.43 503.18,1409.8 628.03,1686.48 -53.3,75.7 -82.58,164.27 -83.53,256.52 -1.23,115.53 42.28,224.05 117.64,309.36 -73.25,82.37 -116.48,187.08 -117.64,299 -1.43,130.92 53.78,251.22 146.24,339.38 -66.25,79.93 -104.92,179.6 -105.94,286.96 -2.58,263.94 227.73,481.8 513.26,485.68l1855.31 24.24c2.66,0 5.04,0 7.49,0 141.68,0 278.11,-54.06 375.4,-149.17 89.79,-87.41 139.76,-202.67 141.19,-323.99 1.23,-130.92 -54.05,-251.21 -146.5,-339.38 66.51,-79.92 104.97,-179.59 105.93,-286.95 1.15,-115.53 -42.28,-224.12 -117.71,-309.15 73.52,-82.59 116.75,-187.29 117.71,-299.01 1.15,-116.21 -42.76,-223.58 -116.49,-307.65 130.17,-289.41 477.45,-1086.76 621.57,-1672.8 82.11,-340.8 98.72,-573.98 98.72,-839.35 0,-1141.09 -928.54,-2069.57 -2069.56,-2069.57 -1141.3,0 -2069.84,928.48 -2069.84,2069.57z"></path> <path class="fil0" d="M3999.82 2789.18c-4.56,3.34 -9.59,5.31 -15.38,5.52 -7.9,1.22 -16.07,-3.34 -21.38,-9.88l-933.78 -1186.15c-5.52,-7.01 -5.99,-14.16 -5.52,-19 0.48,-4.08 2.38,-11.77 9.87,-17.56 5.52,-4.29 11.24,-5.52 15.8,-5.52 1.02,0 2.18,0 3.13,0 3.88,0.75 11.57,2.66 17.56,9.88l933.99 1185.95c5.52,7.22 6.06,14.43 5.52,19.2 -0.48,4.08 -2.59,11.57 -9.81,17.56zm-806.74 -1319.52c-30.23,-38.4 -73.46,-62.64 -122,-68.42 -48.07,-5.99 -96.06,7.69 -134.53,37.92 -38.4,30.29 -62.63,73.52 -68.21,122 -6,48.54 7.69,96.33 37.71,134.52l934.26 1185.95c34.59,43.98 87.96,69.65 143.38,69.65 2.18,0 4.08,0 6.26,0l0.28 0c38.87,-1.43 75.63,-15.11 106.4,-39.15 38.4,-30.22 62.64,-73.45 68.42,-121.99 5.79,-48.55 -7.69,-96.34 -37.92,-134.53l-934.05 -1185.95z"></path> <path class="fil0" d="M6656.85 2740.64l770.19 -1159.06c5.31,-7.69 12.52,-10.08 16.61,-11.03 3.81,-0.48 11.51,-1.22 19.4,3.81 7.7,5.59 10.35,12.73 11.1,16.82 0.95,4.83 1.16,12.05 -3.88,19.47l-770.46 1158.86c-6.74,10.07 -16.82,11.23 -20.9,11.5 -5.04,0 -10.35,-1.22 -14.91,-4.35 -7.9,-5.25 -10.28,-12.74 -11.03,-16.55 -0.68,-3.81 -1.43,-11.5 3.88,-19.47zm-79.79 166.46l0.27 0c30.23,20.15 64.81,30.5 100.62,30.5 2.39,0 4.36,0 6.47,0 58.89,-1.91 113.63,-32.41 146.03,-81.43l770.26 -1158.79c27.1,-40.64 36.76,-89.38 27.1,-137.38 -9.6,-47.59 -37.45,-88.91 -78.02,-115.81 -40.58,-27.09 -89.32,-36.69 -137.12,-27.09 -48.06,9.8 -89.11,37.44 -116,78.02l-770.26 1158.86c-27.17,40.57 -36.76,89.32 -27.17,137.11 9.67,47.79 37.52,89.11 77.82,116.01z"></path> <path class="fil0" d="M5304.92 2452.66l64.81 -1539.01c0.48,-9.6 5.51,-15.59 8.44,-18.25 3.61,-3.33 9.81,-6.67 18.72,-6.67 8.85,0.48 14.91,4.77 17.98,8.37 2.92,2.86 7.21,9.4 7.01,18.73l-64.88 1539.01c-0.48,13.69 -11.51,24.78 -25.94,25.26l-1.16 0c-8.92,-0.48 -14.91,-4.83 -18.04,-8.65 -2.86,-2.92 -7.21,-9.12 -6.94,-18.79zm18.45 183.75c2.65,0 5.04,0.27 7.49,0.27 2.17,0 4.56,-0.27 6.19,-0.27 94.9,-3.13 172.24,-79.72 176.33,-174.83l65.08 -1539.29c1.91,-48.74 -15.11,-95.31 -48.06,-131.12 -33.09,-36.01 -78.29,-56.91 -126.56,-58.82 -48.95,-1.91 -95.31,14.64 -131.33,47.32 -36.08,33.15 -57.19,78.29 -59.09,127.51l-64.88 1539.02c-2.18,48.74 14.91,95.38 47.79,131.39 33.15,35.81 78.09,56.91 126.83,58.82l0.21 0z"></path> <path class="fil0" d="M4251.72 4785.97l0 0c93.95,5.78 176.53,-65.56 183.07,-159.99 2.86,-45.34 9.8,-88.57 20.63,-131.6 71.82,-283.89 301.66,-394.86 481.8,-438.3 84.55,-20.15 146.71,-22.6 153.18,-22.81 94.63,-2.17 169.86,-80.94 167.68,-175.3 -1.91,-93 -78.77,-168.36 -175.31,-168.36 -322.08,6.94 -943.93,206.76 -991.24,913.56 -6.2,94.43 65.63,176.53 160.19,182.8z"></path> </g> <g id="_1817473914528"> <path class="fil1" d="M5068.55 3208.78c968.37,0 1756.33,788.02 1756.33,1756.39 0,242.57 -15.11,455.12 -89.8,765.15 -138.54,563.91 -489.7,1366.37 -610.06,1633.65l-2113 0c-120.57,-267.28 -471.45,-1069.26 -610,-1632.9 -74.95,-310.78 -89.86,-523.33 -89.86,-765.9 0,-968.37 787.75,-1756.39 1756.39,-1756.39zm1146.33 5910.84c-39.89,38.66 -97.76,62.9 -159.98,59.84l-1855.32 -24.51c-113.35,-1.43 -205.06,-77.34 -204.1,-169.11 0.68,-70.33 57.12,-132.83 140.24,-154.88 71.35,-19 119.62,-85.31 116.21,-159.04 -3.33,-73.46 -58.07,-134.73 -130.64,-146.98 -95.59,-15.8 -167.14,-86.94 -166.19,-165.44 0.75,-66.78 53.31,-127.78 131.4,-152.02 65.29,-20.22 109.95,-80.47 110.22,-148.96 0.2,-68.15 -43.71,-128.94 -108.79,-149.84 -80,-25.67 -133.57,-88.85 -132.83,-157.54 0.28,-30.02 10.83,-54.26 23.29,-73.73l2196.6 0c28.59,29.07 46.36,65.29 45.88,104.43 -0.47,66.79 -53.1,127.79 -130.91,151.82 -65.29,20.15 -109.95,80.47 -110.43,148.69 -0.27,68.42 43.91,129.22 109,150.12 79.99,25.66 133.3,89.04 132.34,157.74 -0.47,70.39 -56.64,132.62 -139.76,154.67 -71.08,19 -119.62,85.04 -116.01,158.77 3.33,73.52 57.66,134.73 130.44,147.25 95.31,15.8 166.66,86.94 165.91,165.44 -0.48,48.06 -25.67,82.65 -46.57,103.28zm-3216.16 -4154.45c0,265.38 16.61,498.55 98.71,839.84 146.51,595.42 503.18,1409.8 628.04,1686.47 -53.31,75.71 -82.58,164.28 -83.53,256.53 -1.23,115.53 42.27,224.05 117.64,309.35 -73.26,82.38 -116.49,187.09 -117.64,299.01 -1.43,130.92 53.78,251.22 146.23,339.38 -66.24,79.93 -104.91,179.59 -105.93,286.96 -2.59,263.94 227.73,481.8 513.25,485.68l1855.32 24.24c2.66,0 5.04,0 7.49,0 141.67,0 278.11,-54.06 375.39,-149.17 89.8,-87.41 139.77,-202.67 141.2,-323.99 1.23,-130.92 -54.06,-251.22 -146.51,-339.38 66.52,-79.92 104.98,-179.59 105.93,-286.96 1.16,-115.53 -42.27,-224.11 -117.71,-309.15 73.53,-82.58 116.76,-187.28 117.71,-299 1.16,-116.22 -42.75,-223.58 -116.48,-307.66 130.17,-289.4 477.44,-1086.76 621.57,-1672.79 82.1,-340.81 98.72,-573.98 98.72,-839.36 0,-1141.08 -928.55,-2069.56 -2069.57,-2069.56 -1141.29,0 -2069.83,928.48 -2069.83,2069.56z"></path> <path class="fil1" d="M3707.02 2675.85c-4.56,3.34 -9.6,5.31 -15.38,5.51 -7.9,1.23 -16.07,-3.33 -21.38,-9.87l-933.79 -1186.15c-5.51,-7.02 -5.99,-14.16 -5.51,-19 0.48,-4.08 2.38,-11.78 9.87,-17.56 5.51,-4.29 11.23,-5.52 15.79,-5.52 1.03,0 2.18,0 3.14,0 3.88,0.75 11.57,2.66 17.56,9.87l933.99 1185.96c5.51,7.21 6.06,14.43 5.51,19.19 -0.47,4.09 -2.58,11.58 -9.8,17.57zm-806.75 -1319.53c-30.22,-38.39 -73.45,-62.63 -122,-68.42 -48.06,-5.99 -96.06,7.7 -134.52,37.92 -38.4,30.3 -62.64,73.53 -68.22,122 -5.99,48.54 7.7,96.34 37.72,134.53l934.26 1185.95c34.58,43.98 87.96,69.65 143.38,69.65 2.17,0 4.08,0 6.26,0l0.27 0c38.88,-1.43 75.64,-15.12 106.41,-39.15 38.4,-30.23 62.63,-73.46 68.42,-122 5.79,-48.54 -7.69,-96.33 -37.92,-134.52l-934.06 -1185.96z"></path> <path class="fil1" d="M6364.05 2627.31l770.18 -1159.06c5.32,-7.7 12.53,-10.08 16.62,-11.03 3.81,-0.48 11.5,-1.23 19.4,3.81 7.69,5.58 10.35,12.73 11.1,16.82 0.95,4.83 1.15,12.05 -3.88,19.47l-770.47 1158.85c-6.74,10.08 -16.81,11.24 -20.9,11.51 -5.03,0 -10.34,-1.23 -14.91,-4.36 -7.89,-5.24 -10.28,-12.73 -11.02,-16.54 -0.69,-3.81 -1.43,-11.51 3.88,-19.47zm-79.79 166.45l0.27 0c30.23,20.16 64.81,30.5 100.62,30.5 2.38,0 4.36,0 6.47,0 58.89,-1.9 113.62,-32.4 146.03,-81.42l770.26 -1158.79c27.09,-40.64 36.76,-89.39 27.09,-137.38 -9.6,-47.59 -37.44,-88.92 -78.02,-115.81 -40.57,-27.09 -89.32,-36.69 -137.11,-27.09 -48.06,9.8 -89.12,37.44 -116.01,78.02l-770.26 1158.85c-27.16,40.58 -36.76,89.32 -27.16,137.12 9.67,47.79 37.51,89.11 77.82,116z"></path> <path class="fil1" d="M5012.11 2339.33l64.82 -1539.01c0.47,-9.6 5.51,-15.59 8.44,-18.25 3.61,-3.34 9.8,-6.67 18.72,-6.67 8.85,0.47 14.91,4.76 17.97,8.37 2.93,2.86 7.22,9.4 7.02,18.72l-64.88 1539.02c-0.48,13.68 -11.51,24.78 -25.94,25.26l-1.16 0c-8.92,-0.48 -14.91,-4.84 -18.04,-8.65 -2.86,-2.93 -7.22,-9.12 -6.95,-18.79zm18.45 183.75c2.66,0 5.04,0.27 7.49,0.27 2.18,0 4.56,-0.27 6.2,-0.27 94.9,-3.13 172.24,-79.72 176.33,-174.83l65.08 -1539.29c1.91,-48.74 -15.11,-95.31 -48.06,-131.12 -33.09,-36.01 -78.3,-56.92 -126.57,-58.82 -48.95,-1.91 -95.31,14.64 -131.32,47.31 -36.08,33.16 -57.19,78.3 -59.1,127.52l-64.88 1539.01c-2.17,48.75 14.91,95.38 47.8,131.4 33.15,35.81 78.08,56.91 126.83,58.82l0.2 0z"></path> <path class="fil1" d="M3958.92 4672.63l0 0c93.95,5.79 176.53,-65.56 183.06,-159.98 2.86,-45.35 9.81,-88.58 20.63,-131.6 71.83,-283.9 301.66,-394.87 481.8,-438.3 84.56,-20.15 146.72,-22.6 153.18,-22.81 94.64,-2.18 169.86,-80.94 167.69,-175.3 -1.91,-93 -78.77,-168.37 -175.31,-168.37 -322.09,6.95 -943.93,206.76 -991.25,913.57 -6.19,94.43 65.63,176.53 160.2,182.79z"></path> </g> </g> </svg> 