<?xml version="1.0" encoding="UTF-8"?> <!-- Creator: CorelDRAW 2020 (64-Bit) --> <svg xmlns="http://www.w3.org/2000/svg" xmlns:xlink="http://www.w3.org/1999/xlink" xmlns:xodm="http://www.corel.com/coreldraw/odm/2003" xml:space="preserve" width="90" height="90" style="shape-rendering:geometricPrecision; text-rendering:geometricPrecision; image-rendering:optimizeQuality; fill-rule:evenodd; clip-rule:evenodd" viewBox="0 0 10500 10000"> <defs> <style type="text/css"> <![CDATA[ .fil0 {fill:#34302E;fill-rule:nonzero} .fil1 {fill:#FFA501;fill-rule:nonzero} ]]> </style> </defs> <g id="Слой_x0020_1"> <metadata id="CorelCorpID_0Corel-Layer"></metadata> <path class="fil0" d="M5335.7 4938.46c-149.46,-109.2 -333.03,-174.77 -531.96,-174.77 -498.58,0 -904.15,405.64 -904.15,904.21 0,498.52 405.57,904.34 904.15,904.34 498.76,0 904.39,-405.82 904.39,-904.34 0,-198.99 -65.32,-382.5 -174.77,-531.96l665.58 -665.64c276.94,322.11 444.85,740.37 444.85,1197.6 0,1014.64 -825.36,1839.99 -1839.87,1839.99 -1014.64,0 -1840.23,-825.35 -1840.23,-1839.99 0,-1014.27 825.59,-1839.8 1840.23,-1839.8 457.05,0 875.32,168.09 1197.6,444.97l-665.82 665.39zm-630.67 828.15c27.2,27.44 62.95,41.1 98.71,41.1 35.75,0 71.51,-13.66 98.7,-41.1l430.29 -430.04c60.34,96.16 96.15,209.68 96.15,331.33 0,344.75 -280.58,624.91 -625.14,624.91 -344.57,0 -624.91,-280.16 -624.91,-624.91 0,-344.38 280.34,-624.72 624.91,-624.72 121.83,0 235.35,35.58 331.27,95.98l-429.98 429.98c-54.64,54.63 -54.64,143.08 0,197.47zm98.71 -3148.5c790.69,0 1511.93,302.56 2054.58,797.92l-659.14 658.96c-373.04,-327.21 -861.11,-526.2 -1395.26,-526.2 -1168.83,0 -2119.66,950.65 -2119.66,2119.11 0,1168.65 950.83,2119.48 2119.66,2119.48 1168.46,0 2119.11,-950.83 2119.11,-2119.48 0,-534.15 -198.93,-1022.16 -526.19,-1395.26l658.96 -659.14c495.36,542.65 797.73,1263.71 797.73,2054.4 0,1681.98 -1368,3049.98 -3049.79,3049.98 -1681.79,0 -3049.8,-1368 -3049.8,-3049.98 0,-1681.54 1368.01,-3049.79 3049.8,-3049.79zm0 6379.02c1835.74,0 3329.28,-1493.48 3329.28,-3329.23 0,-867.78 -334.12,-1658.66 -879.75,-2251.63l626.61 -626.85c22.28,31.27 56.94,53.73 98.28,58.22l1311.31 144.17c5.34,0.61 10.5,0.85 15.42,0.85 70.41,0 130.82,-52.93 138.77,-124.44 8.32,-76.67 -46.93,-145.82 -123.6,-154.19l-1229.65 -135.14 360.41 -360.41c6.01,1.46 11.59,2.98 17.97,3.83l1311.3 144.11c5.34,0.43 10.5,0.91 15.42,0.91 70.48,0 130.82,-52.93 138.77,-124.44 8.38,-76.67 -46.92,-145.88 -123.78,-154.19l-1108.06 -121.66 673.11 -673.29c54.39,-54.63 54.39,-143.08 0,-197.47 -54.64,-54.58 -143.09,-54.58 -197.48,0l-690.41 690.22 -364.29 -939.9c-27.62,-72 -108.6,-107.51 -180.54,-79.89 -71.94,27.86 -107.69,108.78 -79.89,180.72l404.12 1043.17c1.52,3.88 4.31,6.85 6.01,10.5l-297.28 297.27 -364.9 -972.08c-27.19,-72.18 -107.69,-108.78 -179.87,-81.59 -72.18,26.96 -108.78,107.51 -81.83,179.69l403.94 1075.71c1.88,5.1 5.34,8.74 7.7,13.47l-705.03 704.98c-593.22,-545.87 -1384.27,-879.93 -2252.06,-879.93 -1835.56,0 -3329.29,1493.73 -3329.29,3329.28 0,1835.75 1493.73,3329.23 3329.29,3329.23z"></path> <path class="fil1" d="M5248.32 4681.97c-149.45,-109.21 -333.03,-174.77 -531.96,-174.77 -498.58,0 -904.15,405.64 -904.15,904.21 0,498.52 405.57,904.33 904.15,904.33 498.76,0 904.39,-405.81 904.39,-904.33 0,-198.99 -65.32,-382.51 -174.77,-531.96l665.58 -665.64c276.94,322.1 444.85,740.37 444.85,1197.6 0,1014.64 -825.35,1839.99 -1839.87,1839.99 -1014.63,0 -1840.23,-825.35 -1840.23,-1839.99 0,-1014.27 825.6,-1839.81 1840.23,-1839.81 457.05,0 875.32,168.1 1197.6,444.98l-665.82 665.39zm-630.67 828.15c27.2,27.44 62.95,41.1 98.71,41.1 35.75,0 71.51,-13.66 98.71,-41.1l430.28 -430.04c60.34,96.16 96.16,209.68 96.16,331.33 0,344.75 -280.59,624.91 -625.15,624.91 -344.57,0 -624.91,-280.16 -624.91,-624.91 0,-344.38 280.34,-624.72 624.91,-624.72 121.84,0 235.36,35.57 331.27,95.97l-429.98 429.98c-54.63,54.64 -54.63,143.09 0,197.48zm98.71 -3148.5c790.69,0 1511.94,302.55 2054.58,797.91l-659.14 658.96c-373.04,-327.2 -861.11,-526.19 -1395.26,-526.19 -1168.83,0 -2119.66,950.65 -2119.66,2119.11 0,1168.65 950.83,2119.48 2119.66,2119.48 1168.47,0 2119.12,-950.83 2119.12,-2119.48 0,-534.15 -198.94,-1022.16 -526.2,-1395.26l658.96 -659.14c495.36,542.65 797.73,1263.71 797.73,2054.4 0,1681.97 -1368,3049.98 -3049.79,3049.98 -1681.79,0 -3049.8,-1368.01 -3049.8,-3049.98 0,-1681.55 1368.01,-3049.79 3049.8,-3049.79zm0 6379.01c1835.74,0 3329.28,-1493.48 3329.28,-3329.22 0,-867.79 -334.12,-1658.66 -879.74,-2251.63l626.6 -626.85c22.28,31.26 56.94,53.72 98.28,58.22l1311.31 144.17c5.34,0.61 10.5,0.85 15.42,0.85 70.42,0 130.82,-52.93 138.77,-124.45 8.32,-76.67 -46.93,-145.81 -123.6,-154.19l-1229.65 -135.13 360.41 -360.41c6.01,1.46 11.59,2.98 17.97,3.83l1311.3 144.11c5.34,0.43 10.5,0.91 15.42,0.91 70.48,0 130.82,-52.93 138.77,-124.44 8.38,-76.68 -46.92,-145.88 -123.77,-154.2l-1108.07 -121.65 673.11 -673.29c54.39,-54.63 54.39,-143.08 0,-197.47 -54.64,-54.58 -143.08,-54.58 -197.48,0l-690.4 690.22 -364.3 -939.91c-27.62,-71.99 -108.6,-107.51 -180.54,-79.89 -71.93,27.87 -107.69,108.79 -79.89,180.73l404.12 1043.16c1.52,3.89 4.31,6.86 6.01,10.5l-297.27 297.28 -364.91 -972.08c-27.19,-72.18 -107.69,-108.79 -179.87,-81.59 -72.18,26.95 -108.78,107.51 -81.83,179.69l403.94 1075.71c1.88,5.09 5.34,8.74 7.71,13.47l-705.04 704.98c-593.22,-545.87 -1384.27,-879.93 -2252.06,-879.93 -1835.56,0 -3329.29,1493.72 -3329.29,3329.28 0,1835.74 1493.73,3329.22 3329.29,3329.22z"></path> </g> </svg> 