<?xml version="1.0" encoding="UTF-8"?> <!-- Creator: CorelDRAW 2020 (64-Bit) --> <svg xmlns="http://www.w3.org/2000/svg" xmlns:xlink="http://www.w3.org/1999/xlink" xmlns:xodm="http://www.corel.com/coreldraw/odm/2003" xml:space="preserve" width="90" height="90" style="shape-rendering:geometricPrecision; text-rendering:geometricPrecision; image-rendering:optimizeQuality; fill-rule:evenodd; clip-rule:evenodd" viewBox="0 0 10500 10000"> <defs> <style type="text/css"> <![CDATA[ .fil0 {fill:#34302E;fill-rule:nonzero} .fil1 {fill:#FFCC00;fill-rule:nonzero} ]]> </style> </defs> <g id="Слой_x0020_1"> <metadata id="CorelCorpID_0Corel-Layer"></metadata> <g id="_1817534599200"> <path class="fil0" d="M5382.4 3438.15c-19.65,51.99 -12.61,110.22 18.92,155.68 31.54,45.54 83.53,72.97 138.89,72.97l225.65 0c753.56,0 1366.69,612.91 1366.69,1366.48l0 1020.86 -3731.74 0 0 -1020.57c0.22,-753.86 613.36,-1366.77 1366.92,-1366.77l370.77 0c73.7,0 139.18,-48.11 161.18,-118.94 13.42,-44 27.94,-89.54 45.76,-138.68 0.22,-0.51 0.52,-1.32 0.81,-2.12 0.51,-1.25 1.03,-2.57 1.03,-3.08 11.36,-30.8 23.54,-62.85 36.44,-94.46l12.91 -31.53c11.66,-28.45 24.35,-57.42 37.84,-87.19l9.02 -20.39c16.57,-35.71 34.17,-71.94 52.8,-108.68l15.76 -29.47c15.55,-30.07 32.05,-59.77 51.19,-93.94l14.23 -24.35c21.78,-37.47 44.8,-75.02 70.4,-114.55l14.44 -21.26c21.27,-32.05 43.49,-64.09 65.78,-95.41l22.96 -31.31c28.74,-38.28 58.22,-76.85 88.51,-113.3l10.85 -12.46c28.75,-34.62 59.55,-68.79 91.59,-103.18l28.75 -30.8c32.34,-33.88 66.22,-67.54 103.98,-103.26l9.32 -9.01c39.01,-36.52 80.44,-71.65 122.61,-106.63 11.15,-9.02 22.22,-17.82 34.17,-27.43 35.94,-28.45 72.67,-56.61 113.52,-85.87l27.21 -19.87c47.08,-32.63 96.5,-64.97 146.88,-95.77l36.74 -21.42c42.97,-25.37 86.97,-49.72 138.45,-76.63l35.94 -18.63c59.76,-29.99 117.47,-56.9 177.97,-82.49l28.75 -11.66c53.02,-22 107.87,-42.9 163.24,-62.63l55.36 -18.85c75.54,-25.37 144.1,-46.05 208.49,-63.14 9.31,0.3 16.86,7.48 16.86,17.09 0,5.21 -2.34,8.8 -4.69,11.15 -13.93,3.37 -26.91,6.67 -34.9,9.02 -237.02,60.28 -1445.39,431.48 -1968.25,1812.48zm1750.15 4656.83c0,753.63 -613.13,1366.76 -1366.69,1366.98l-998.13 0c-753.56,-0.22 -1366.7,-613.35 -1366.92,-1366.98l0 -1703.52 3731.74 0 0 1703.52zm304.48 -6143.35c14.52,-3.89 25.08,-6.45 23.32,-6.45 15.77,-1.54 32.56,-5.94 47.3,-12.18 133.76,-54.85 219.92,-183.4 219.92,-327.5 0,-195.58 -159.13,-354.71 -354.71,-354.71 -26.39,0 -52.5,3.38 -86.16,11.15 -71.87,19.43 -146.89,42.16 -229.16,69.88l-59.04 20.17c-62.04,21.71 -122.61,45.03 -181.86,69.3l-10.05 4.18c-8.28,3.08 -16.57,6.45 -23.02,9.31 -65.49,27.94 -129.07,57.64 -196.39,91.3l-46.27 24.05c-50.45,26.4 -99.37,53.54 -147.77,81.99l-39.52 23.32c-56.91,34.69 -112.57,70.84 -165.88,108.09l-30.51 22.29c-44,31.02 -85.87,63.14 -125.98,94.97 -12.91,10.34 -26.11,20.9 -39.09,31.53 -47.81,39.31 -94.16,79.13 -140.94,122.91l-9.83 9.53c-39.89,37.55 -77.88,75.53 -114.62,113.81l-31.53 33.96c-36.23,38.28 -70.91,77.29 -102.45,115.05l-11.14 13.2c-35.72,42.98 -69.08,86.17 -101.42,129.36l-25.37 34.4c-25.38,35.71 -49.65,70.91 -75.02,108.67l-15.55 23.54c-27.94,42.68 -54.05,85.36 -82.5,133.98 -5.43,9.32 -10.63,18.63 -13.71,24.35 -19.36,34.17 -37.99,67.76 -54.56,99.36l-17.38 33.37c-20.9,40.63 -40.33,80.67 -59.18,121.29l-10.12 22.81c-15.03,33.07 -29.26,65.7 -41.65,96.5l-13.94 33.88c-14.81,36.45 -28.52,72.16 -41.14,106.34 -1.1,3.08 -2.34,6.16 -3.15,9.02 -3.89,10.85 -7.77,21.19 -11.07,31.82l-248.16 0c-939.53,0 -1704.02,764.2 -1704.32,1703.81l0 3061.99c0.3,939.31 764.79,1703.8 1704.32,1704.32l998.13 -0.3c939.53,-0.22 1704.02,-764.71 1704.02,-1704.31l0 -3061.7c0,-929.49 -748.13,-1687.75 -1674.03,-1703.81 500.86,-1037.87 1443.26,-1327.09 1641.18,-1377.84z"></path> <path class="fil0" d="M5470.92 4428.94l0 997.54c0,112.57 -92.11,204.16 -204.38,204.38 -112.27,-0.22 -203.57,-91.81 -203.87,-204.38l0 -998.05c0.3,-110.73 89.03,-201.3 198.66,-204.08 1.83,0 3.67,0 5.5,0 112.27,0.22 204.09,92.1 204.09,204.59zm-204.9 -542.22c-297.8,0.81 -540.46,243.69 -540.68,541.49l0 998.57c0.22,298.02 242.88,540.9 541.2,541.41 298.53,-0.51 541.48,-243.17 542,-541.41l0 -998.35c0,0 0,0 0,-0.22 -0.52,-295.24 -238.77,-536.35 -533.2,-541.27 -3.08,-0.22 -5.94,0 -9.32,-0.22z"></path> </g> <g id="_1817534599152"> <path class="fil1" d="M5283.8 3148.71c-19.65,51.99 -12.61,110.21 18.92,155.68 31.53,45.54 83.53,72.97 138.89,72.97l225.64 0c753.57,0 1366.7,612.91 1366.7,1366.47l0 1020.86 -3731.74 0 0 -1020.57c0.22,-753.85 613.35,-1366.76 1366.92,-1366.76l370.77 0c73.7,0 139.18,-48.11 161.18,-118.95 13.42,-44 27.94,-89.54 45.76,-138.67 0.22,-0.51 0.51,-1.32 0.81,-2.13 0.51,-1.24 1.02,-2.56 1.02,-3.08 11.37,-30.8 23.54,-62.84 36.45,-94.45l12.91 -31.53c11.66,-28.46 24.34,-57.42 37.84,-87.19l9.02 -20.39c16.57,-35.71 34.17,-71.94 52.79,-108.68l15.77 -29.48c15.55,-30.07 32.05,-59.76 51.19,-93.94l14.22 -24.34c21.78,-37.48 44.81,-75.02 70.4,-114.55l14.45 -21.27c21.27,-32.04 43.49,-64.09 65.78,-95.4l22.95 -31.31c28.75,-38.28 58.23,-76.86 88.51,-113.3l10.86 -12.47c28.74,-34.61 59.54,-68.78 91.59,-103.18l28.75 -30.8c32.34,-33.88 66.21,-67.54 103.98,-103.25l9.31 -9.02c39.02,-36.52 80.45,-71.64 122.62,-106.62 11.14,-9.02 22.22,-17.82 34.17,-27.43 35.93,-28.45 72.67,-56.61 113.52,-85.87l27.2 -19.88c47.08,-32.63 96.51,-64.97 146.89,-95.77l36.74 -21.41c42.97,-25.37 86.97,-49.72 138.45,-76.63l35.93 -18.63c59.77,-29.99 117.48,-56.91 177.98,-82.5l28.75 -11.66c53.02,-22 107.87,-42.9 163.23,-62.62l55.37 -18.85c75.53,-25.37 144.1,-46.05 208.48,-63.14 9.32,0.29 16.87,7.48 16.87,17.09 0,5.2 -2.35,8.8 -4.69,11.14 -13.94,3.38 -26.92,6.68 -34.91,9.02 -237.01,60.28 -1445.38,431.49 -1968.24,1812.49zm1750.15 4656.82c0,753.64 -613.13,1366.77 -1366.7,1366.99l-998.12 0c-753.57,-0.22 -1366.7,-613.35 -1366.92,-1366.99l0 -1703.51 3731.74 0 0 1703.51zm304.48 -6143.34c14.52,-3.89 25.08,-6.46 23.32,-6.46 15.76,-1.54 32.56,-5.94 47.3,-12.17 133.75,-54.85 219.92,-183.41 219.92,-327.5 0,-195.58 -159.13,-354.71 -354.71,-354.71 -26.4,0 -52.5,3.37 -86.16,11.14 -71.87,19.44 -146.89,42.17 -229.17,69.89l-59.03 20.17c-62.04,21.7 -122.61,45.02 -181.86,69.3l-10.05 4.18c-8.29,3.08 -16.57,6.45 -23.03,9.31 -65.48,27.94 -129.06,57.64 -196.38,91.3l-46.27 24.05c-50.46,26.4 -99.37,53.53 -147.77,81.99l-39.53 23.32c-56.9,34.68 -112.56,70.83 -165.87,108.09l-30.51 22.29c-44,31.02 -85.87,63.14 -125.99,94.97 -12.9,10.34 -26.1,20.9 -39.08,31.53 -47.81,39.31 -94.16,79.12 -140.95,122.9l-9.82 9.54c-39.9,37.54 -77.88,75.53 -114.62,113.81l-31.53 33.95c-36.23,38.28 -70.92,77.29 -102.45,115.06l-11.15 13.2c-35.71,42.97 -69.08,86.17 -101.41,129.36l-25.38 34.39c-25.37,35.71 -49.64,70.91 -75.02,108.68l-15.54 23.54c-27.94,42.68 -54.05,85.36 -82.5,133.98 -5.43,9.31 -10.64,18.62 -13.72,24.34 -19.36,34.18 -37.98,67.76 -54.55,99.37l-17.38 33.37c-20.9,40.62 -40.34,80.66 -59.18,121.29l-10.12 22.8c-15.04,33.08 -29.26,65.71 -41.66,96.51l-13.93 33.88c-14.81,36.45 -28.53,72.16 -41.14,106.33 -1.1,3.08 -2.35,6.16 -3.15,9.02 -3.89,10.85 -7.78,21.19 -11.08,31.83l-248.15 0c-939.54,0 -1704.03,764.19 -1704.32,1703.8l0 3062c0.29,939.31 764.78,1703.8 1704.32,1704.31l998.12 -0.29c939.54,-0.22 1704.03,-764.71 1704.03,-1704.32l0 -3061.7c0,-929.49 -748.14,-1687.74 -1674.03,-1703.8 500.86,-1037.88 1443.25,-1327.1 1641.18,-1377.84z"></path> <path class="fil1" d="M5372.31 4139.5l0 997.54c0,112.57 -92.1,204.16 -204.38,204.38 -112.27,-0.22 -203.57,-91.81 -203.86,-204.38l0 -998.05c0.29,-110.74 89.03,-201.3 198.66,-204.09 1.83,0 3.66,0 5.5,0 112.27,0.22 204.08,92.11 204.08,204.6zm-204.89 -542.22c-297.8,0.81 -540.46,243.68 -540.68,541.49l0 998.56c0.22,298.03 242.88,540.9 541.19,541.42 298.54,-0.52 541.49,-243.17 542,-541.42l0 -998.34c0,0 0,0 0,-0.22 -0.51,-295.24 -238.77,-536.36 -533.2,-541.27 -3.08,-0.22 -5.94,0 -9.31,-0.22z"></path> </g> </g> </svg> 