<?xml version="1.0" encoding="UTF-8"?> <!-- Creator: CorelDRAW 2020 (64-Bit) --> <svg xmlns="http://www.w3.org/2000/svg" xmlns:xlink="http://www.w3.org/1999/xlink" xmlns:xodm="http://www.corel.com/coreldraw/odm/2003" xml:space="preserve" width="90" height="90" style="shape-rendering:geometricPrecision; text-rendering:geometricPrecision; image-rendering:optimizeQuality; fill-rule:evenodd; clip-rule:evenodd" viewBox="0 0 10500 10000"> <defs> <style type="text/css"> <![CDATA[ .fil0 {fill:#34302E;fill-rule:nonzero} .fil1 {fill:#FFCC00;fill-rule:nonzero} ]]> </style> </defs> <g id="Слой_x0020_1"> <metadata id="CorelCorpID_0Corel-Layer"></metadata> <g id="_1817471302272"> <path class="fil0" d="M9214.9 6712.27c0,255.54 -383.63,556.06 -728.26,665.52 -91.23,28.1 -153.56,112.41 -153.56,207.78l0 1047.56 -1769.61 -1187.99c-36.22,-22.45 -78.66,-36.38 -122.12,-36.38l-4053.97 0c-384.19,0 -697.05,-311.75 -697.05,-696.49l0 -3928.99c0,-384.74 312.86,-696.49 697.05,-696.49l6130.47 0c384.51,0 697.05,311.75 697.05,696.49l0 3928.99zm-697.05 -5063.56l-6130.47 0c-625.96,0 -1135.45,508.3 -1135.45,1134.57l0 3928.99c0,626.28 509.49,1134.49 1135.45,1134.49l3987.1 0 2055.72 1379.06c36.78,25.15 79.53,39.24 122.2,39.24 35.35,0 70.77,-8.43 103.09,-28.1 71.33,-36.54 115.99,-112.32 115.99,-190.98l0 -1308.68c399.64,-168.45 881.82,-533.61 881.82,-1025.03l0 -3928.99c0,-626.27 -509.49,-1134.57 -1135.45,-1134.57z"></path> <path class="fil0" d="M8031.13 3670.76l-5170.56 0c-82,0 -148.79,-67.43 -148.79,-148.87 0,-84.23 66.79,-148.87 148.79,-148.87l5170.56 0c82.31,0 149.18,64.64 149.18,148.87 0,81.44 -66.87,148.87 -149.18,148.87zm0 -561.72l-5170.56 0c-227.2,0 -411.97,185.41 -411.97,412.85 0,227.52 184.77,410.06 411.97,410.06l5170.56 0c227.2,0 412.29,-182.54 412.29,-410.06 0,-227.44 -185.09,-412.85 -412.29,-412.85z"></path> <path class="fil0" d="M8031.13 4878.33l-5170.56 0c-82,0 -148.79,-67.34 -148.79,-148.78 0,-81.52 66.79,-148.87 148.79,-148.87l5170.56 0c82.31,0 149.18,67.35 149.18,148.87 0,81.44 -66.87,148.78 -149.18,148.78zm0 -561.63l-5170.56 0c-227.2,0 -411.97,185.33 -411.97,412.85 0,227.44 184.77,412.76 411.97,412.76l5170.56 0c227.2,0 412.29,-185.32 412.29,-412.76 0,-227.52 -185.09,-412.85 -412.29,-412.85z"></path> <path class="fil0" d="M8031.13 6046.66l-5170.56 0c-82,0 -148.79,-67.42 -148.79,-148.86 0,-84.23 66.79,-148.87 148.79,-148.87l5170.56 0c82.31,0 149.18,64.64 149.18,148.87 0,81.44 -66.87,148.86 -149.18,148.86zm0 -561.71l-5170.56 0c-227.2,0 -411.97,185.41 -411.97,412.85 0,227.52 184.77,410.06 411.97,410.06l5170.56 0c227.2,0 412.29,-182.54 412.29,-410.06 0,-227.44 -185.09,-412.85 -412.29,-412.85z"></path> </g> <g id="_1817471302848"> <path class="fil1" d="M9123.52 6444.04c0,255.54 -383.63,556.06 -728.25,665.52 -91.23,28.1 -153.57,112.41 -153.57,207.78l0 1047.56 -1769.61 -1187.99c-36.22,-22.45 -78.65,-36.38 -122.12,-36.38l-4053.97 0c-384.19,0 -697.05,-311.75 -697.05,-696.49l0 -3928.99c0,-384.74 312.86,-696.49 697.05,-696.49l6130.47 0c384.51,0 697.05,311.75 697.05,696.49l0 3928.99zm-697.05 -5063.56l-6130.47 0c-625.96,0 -1135.45,508.29 -1135.45,1134.57l0 3928.99c0,626.27 509.49,1134.49 1135.45,1134.49l3987.1 0 2055.72 1379.06c36.78,25.15 79.53,39.24 122.2,39.24 35.35,0 70.77,-8.44 103.1,-28.1 71.32,-36.54 115.98,-112.33 115.98,-190.98l0 -1308.68c399.64,-168.45 881.83,-533.61 881.83,-1025.03l0 -3928.99c0,-626.28 -509.5,-1134.57 -1135.46,-1134.57z"></path> <path class="fil1" d="M7939.75 3402.52l-5170.56 0c-81.99,0 -148.79,-67.42 -148.79,-148.86 0,-84.23 66.8,-148.87 148.79,-148.87l5170.56 0c82.31,0 149.18,64.64 149.18,148.87 0,81.44 -66.87,148.86 -149.18,148.86zm0 -561.71l-5170.56 0c-227.2,0 -411.97,185.41 -411.97,412.85 0,227.52 184.77,410.06 411.97,410.06l5170.56 0c227.2,0 412.29,-182.54 412.29,-410.06 0,-227.44 -185.09,-412.85 -412.29,-412.85z"></path> <path class="fil1" d="M7939.75 4610.1l-5170.56 0c-81.99,0 -148.79,-67.35 -148.79,-148.79 0,-81.51 66.8,-148.86 148.79,-148.86l5170.56 0c82.31,0 149.18,67.35 149.18,148.86 0,81.44 -66.87,148.79 -149.18,148.79zm0 -561.63l-5170.56 0c-227.2,0 -411.97,185.32 -411.97,412.84 0,227.44 184.77,412.77 411.97,412.77l5170.56 0c227.2,0 412.29,-185.33 412.29,-412.77 0,-227.52 -185.09,-412.84 -412.29,-412.84z"></path> <path class="fil1" d="M7939.75 5778.43l-5170.56 0c-81.99,0 -148.79,-67.43 -148.79,-148.87 0,-84.22 66.8,-148.86 148.79,-148.86l5170.56 0c82.31,0 149.18,64.64 149.18,148.86 0,81.44 -66.87,148.87 -149.18,148.87zm0 -561.71l-5170.56 0c-227.2,0 -411.97,185.4 -411.97,412.84 0,227.52 184.77,410.07 411.97,410.07l5170.56 0c227.2,0 412.29,-182.55 412.29,-410.07 0,-227.44 -185.09,-412.84 -412.29,-412.84z"></path> </g> </g> </svg> 