<?xml version="1.0" encoding="UTF-8"?> <!-- Creator: CorelDRAW 2020 (64-Bit) --> <svg xmlns="http://www.w3.org/2000/svg" xmlns:xlink="http://www.w3.org/1999/xlink" xmlns:xodm="http://www.corel.com/coreldraw/odm/2003" xml:space="preserve" width="90" height="90" style="shape-rendering:geometricPrecision; text-rendering:geometricPrecision; image-rendering:optimizeQuality; fill-rule:evenodd; clip-rule:evenodd" viewBox="0 0 10500 10000"> <defs> <style type="text/css"> <![CDATA[ .fil0 {fill:#34302E;fill-rule:nonzero} .fil1 {fill:#FFCC00;fill-rule:nonzero} ]]> </style> </defs> <g id="Слой_x0020_1"> <metadata id="CorelCorpID_0Corel-Layer"></metadata> <path class="fil0" d="M6067.73 7645.83c253.43,105.88 506.78,211.32 760.21,316.9 -145.68,149.34 -291.36,298.75 -436.96,448.09 -111.19,-46.07 -222.59,-92.44 -333.78,-138.81 3.44,-208.63 7.1,-417.55 10.53,-626.18zm1979.35 -5128.46c75.86,-181.52 151.43,-362.97 227.07,-544.71 342.95,142.76 685.61,285.76 1028.35,428.53 -656.2,1574.7 -1312.1,3149.19 -1968.3,4723.9 -75.56,181.44 -151.13,363.26 -226.77,544.71 -342.96,-142.77 -685.69,-285.76 -1028.65,-428.53 656.2,-1574.48 1312.32,-3149.19 1968.3,-4723.9zm1350.25 -418.82c-327.73,-136.72 -655.38,-273.22 -983.1,-409.86 317.94,-417.03 1028.12,-117.01 983.1,409.86zm-62.95 6990.57c-1055.23,0 -2110.54,0 -3165.77,0 342.44,-351.39 684.87,-702.57 1027.6,-1053.96 17.93,-0.22 34.8,-4.48 50.33,-10.75 2.32,-0.82 4.71,-1.87 6.8,-2.69 1.34,-0.52 2.68,-1.05 3.95,-1.79 33.46,-13.44 63.03,-39.5 80.87,-82.74 676.51,-1623.17 1352.72,-3246.63 2029.15,-4869.8 95.88,-230.21 191.75,-460.49 287.63,-690.7 7.39,-15.23 11.35,-30.01 13.74,-44.5 132.24,-435.17 -42.94,-913.28 -483.94,-1097.12 -438.08,-182.27 -959.13,32.41 -1141.62,470.19 -676.21,1623.47 -1352.42,3246.64 -2028.85,4869.81 -95.88,230.21 -191.75,460.41 -287.93,690.69 -23.74,57.42 -9.26,122.98 30.84,167.26 -2.39,130.9 -4.48,261.8 -6.87,392.77 -1.04,61.9 -2.09,124.02 -2.91,186.22 -6.05,359.01 -12.1,718.1 -18.15,1077.11 -1514.37,0 -3028.52,0 -4542.68,0 -224.15,0 -224.38,429.65 0,429.65 2715.89,0 5432,0 8147.81,0 224.16,0 224.46,-429.65 0,-429.65z"></path> <path class="fil1" d="M5954.6 7313.74c253.43,105.88 506.78,211.31 760.21,316.9 -145.68,149.34 -291.36,298.75 -436.97,448.09 -111.18,-46.07 -222.59,-92.44 -333.77,-138.81 3.44,-208.63 7.09,-417.55 10.53,-626.18zm1979.34 -5128.46c75.87,-181.52 151.43,-362.97 227.07,-544.72 342.96,142.77 685.62,285.76 1028.35,428.53 -656.19,1574.71 -1312.09,3149.19 -1968.29,4723.9 -75.56,181.45 -151.13,363.27 -226.77,544.72 -342.96,-142.77 -685.69,-285.76 -1028.65,-428.53 656.2,-1574.49 1312.32,-3149.19 1968.29,-4723.9zm1350.26 -418.82c-327.73,-136.72 -655.38,-273.22 -983.11,-409.87 317.95,-417.03 1028.13,-117 983.11,409.87zm-62.95 6990.57c-1055.23,0 -2110.54,0 -3165.77,0 342.43,-351.4 684.87,-702.57 1027.6,-1053.96 17.92,-0.23 34.8,-4.48 50.33,-10.76 2.31,-0.82 4.7,-1.86 6.79,-2.68 1.35,-0.53 2.69,-1.05 3.96,-1.8 33.45,-13.44 63.02,-39.5 80.87,-82.73 676.51,-1623.17 1352.72,-3246.64 2029.15,-4869.8 95.87,-230.21 191.75,-460.49 287.63,-690.7 7.39,-15.23 11.35,-30.02 13.73,-44.5 132.24,-435.18 -42.93,-913.29 -483.93,-1097.12 -438.09,-182.27 -959.13,32.4 -1141.62,470.19 -676.21,1623.47 -1352.42,3246.64 -2028.85,4869.81 -95.88,230.2 -191.76,460.41 -287.93,690.69 -23.75,57.42 -9.26,122.98 30.84,167.26 -2.39,130.9 -4.48,261.79 -6.87,392.76 -1.05,61.9 -2.09,124.03 -2.91,186.23 -6.05,359.01 -12.1,718.1 -18.15,1077.11 -1514.37,0 -3028.53,0 -4542.68,0 -224.16,0 -224.38,429.65 0,429.65 2715.89,0 5432,0 8147.81,0 224.16,0 224.46,-429.65 0,-429.65z"></path> </g> </svg> 