<?xml version="1.0" encoding="UTF-8"?> <!-- Creator: CorelDRAW 2020 (64-Bit) --> <svg xmlns="http://www.w3.org/2000/svg" xmlns:xlink="http://www.w3.org/1999/xlink" xmlns:xodm="http://www.corel.com/coreldraw/odm/2003" xml:space="preserve" width="90" height="90" style="shape-rendering:geometricPrecision; text-rendering:geometricPrecision; image-rendering:optimizeQuality; fill-rule:evenodd; clip-rule:evenodd" viewBox="0 0 10500 10000"> <defs> <style type="text/css"> <![CDATA[ .fil0 {fill:#34302E;fill-rule:nonzero} .fil1 {fill:#FFA501;fill-rule:nonzero} ]]> </style> </defs> <g id="Слой_x0020_1"> <metadata id="CorelCorpID_0Corel-Layer"></metadata> <g id="_1816165841040"> <path class="fil0" d="M8912.93 9429.84l-7607.55 -15.77 0 -8430.59 7607.55 15.77 0 8430.59zm-7765.48 -8763.2l-0.41 0c-41.94,0 -82.09,16.66 -111.76,46.17 -29.67,29.59 -46.33,69.98 -46.33,111.84l0 8747.11c0,87.46 70.55,158.01 157.93,158.25l7924.06 16.67 0.24 0c41.86,0 82.02,-16.67 111.85,-46.5 29.5,-29.5 46.41,-69.9 46.41,-111.84l0 -8747.02c0,-87.46 -70.8,-158.02 -157.93,-158.34l-7924.06 -16.34z"></path> <path class="fil0" d="M3091.46 3106.31c0.57,-250.11 204.18,-453.39 454.2,-453.39l0.82 0c121.02,0.32 234.9,47.63 320.57,133.62 85.51,85.76 132.49,199.87 132.24,321.15 0,121.27 -47.3,235.14 -133.05,320.57 -86,85.51 -199.55,132.49 -320.9,132.49l-0.25 0c-121.27,0 -235.14,-47.31 -320.9,-133.06 -85.42,-85.75 -132.73,-200.11 -132.73,-321.38zm453.88 771.03c205.64,0 398.85,-79.74 544.01,-224.82 145.91,-145.42 226.21,-338.62 226.46,-544.26 0.32,-205.89 -79.42,-399.42 -224.75,-545.08 -145.09,-145.98 -338.37,-226.2 -544.26,-226.53 -0.32,0 -0.89,0 -1.14,0 -424.37,0 -769.65,344.63 -770.47,769 -0.32,205.89 79.66,399.75 225.07,545.73 145.42,145.65 338.62,225.64 544.26,225.96 0.57,0 0.82,0 0.82,0z"></path> <path class="fil0" d="M2166.15 1842.87l5887.39 0 0 3284.09 -1762.59 -1710.4c-32.68,-31.3 -76.57,-47.31 -122.17,-44.22 -45.03,3.49 -86.56,25.85 -114.12,61.94l-1628.72 2137.13 -1187.68 -1009.35c-32.44,-27.8 -74.54,-40.97 -117.29,-36.99 -42.43,3.74 -81.45,24.63 -108.11,57.96l-846.71 1046.58 0 -3786.74zm5887.39 5282.64l0 41.29 -5878.2 0 0 -1045.12 981.47 -1213.77 1191.18 1012.77c33.25,28.04 76.25,41.53 119.57,36.65 43.24,-4.55 82.58,-26.9 108.92,-61.36l1621.81 -2128.2 1855.25 1800.23 0 1557.51zm-6036.62 357.88l6194.63 0c87.46,0 158.26,-71.12 158.26,-158.25l0 -5640.53c0,-87.21 -70.8,-158.01 -158.26,-158.01l-6203.41 0c-87.62,0 -158.34,70.8 -158.34,158.01l0 5599.24c0,19.51 3.99,37.79 10.33,55.03 7.15,80.87 74.29,144.51 156.79,144.51z"></path> </g> <g id="_1816165839072"> <path class="fil1" d="M8793.1 9078.1l-7607.55 -15.77 0 -8430.59 7607.55 15.77 0 8430.59zm-7765.48 -8763.2l-0.4 0c-41.94,0 -82.1,16.67 -111.76,46.17 -29.67,29.59 -46.33,69.98 -46.33,111.84l0 8747.11c0,87.46 70.55,158.01 157.93,158.25l7924.06 16.67 0.24 0c41.86,0 82.01,-16.67 111.84,-46.5 29.51,-29.5 46.42,-69.9 46.42,-111.84l0 -8747.02c0,-87.46 -70.8,-158.01 -157.94,-158.34l-7924.06 -16.34z"></path> <path class="fil1" d="M2971.64 2754.57c0.57,-250.11 204.18,-453.39 454.2,-453.39l0.81 0c121.03,0.32 234.9,47.63 320.58,133.63 85.5,85.75 132.48,199.87 132.24,321.14 0,121.27 -47.31,235.15 -133.06,320.57 -85.99,85.51 -199.54,132.49 -320.9,132.49l-0.24 0c-121.27,0 -235.15,-47.3 -320.9,-133.06 -85.43,-85.75 -132.73,-200.11 -132.73,-321.38zm453.87 771.03c205.64,0 398.85,-79.73 544.02,-224.82 145.9,-145.41 226.21,-338.62 226.45,-544.26 0.33,-205.89 -79.41,-399.42 -224.74,-545.08 -145.09,-145.98 -338.38,-226.2 -544.26,-226.53 -0.33,0 -0.9,0 -1.14,0 -424.37,0 -769.66,344.64 -770.47,769.01 -0.33,205.88 79.66,399.74 225.07,545.72 145.41,145.66 338.62,225.64 544.26,225.96 0.57,0 0.81,0 0.81,0z"></path> <path class="fil1" d="M2046.33 1491.13l5887.38 0 0 3284.09 -1762.59 -1710.4c-32.67,-31.3 -76.56,-47.31 -122.16,-44.22 -45.03,3.5 -86.57,25.85 -114.12,61.94l-1628.72 2137.13 -1187.69 -1009.35c-32.43,-27.8 -74.53,-40.97 -117.29,-36.99 -42.43,3.74 -81.44,24.63 -108.1,57.96l-846.71 1046.58 0 -3786.74zm5887.38 5282.64l0 41.29 -5878.2 0 0 -1045.11 981.48 -1213.78 1191.18 1012.77c33.24,28.04 76.24,41.53 119.56,36.66 43.25,-4.56 82.59,-26.91 108.92,-61.37l1621.81 -2128.19 1855.25 1800.22 0 1557.51zm-6036.62 357.89l6194.64 0c87.45,0 158.25,-71.13 158.25,-158.26l0 -5640.53c0,-87.21 -70.8,-158.01 -158.25,-158.01l-6203.41 0c-87.63,0 -158.34,70.8 -158.34,158.01l0 5599.24c0,19.51 3.98,37.79 10.32,55.03 7.15,80.87 74.29,144.52 156.79,144.52z"></path> </g> </g> </svg> 