<?xml version="1.0" encoding="UTF-8"?> <!-- Creator: CorelDRAW 2020 (64-Bit) --> <svg xmlns="http://www.w3.org/2000/svg" xmlns:xlink="http://www.w3.org/1999/xlink" xmlns:xodm="http://www.corel.com/coreldraw/odm/2003" xml:space="preserve" width="90" height="90" style="shape-rendering:geometricPrecision; text-rendering:geometricPrecision; image-rendering:optimizeQuality; fill-rule:evenodd; clip-rule:evenodd" viewBox="0 0 10500 10000"> <defs> <style type="text/css"> <![CDATA[ .fil0 {fill:#34302E;fill-rule:nonzero} .fil1 {fill:#FFCC00;fill-rule:nonzero} ]]> </style> </defs> <g id="Слой_x0020_1"> <metadata id="CorelCorpID_0Corel-Layer"></metadata> <g id="_1815099585920"> <path class="fil0" d="M2795.05 9143.96l-231.11 0c-137.64,0 -249.99,-111.48 -249.99,-250.86l0 -1287.72 731.09 0 0 1287.72c0,139.38 -112.28,250.86 -249.99,250.86zm-849.77 -2285.64c0,-72.45 62.26,-136.53 136.06,-136.53l1196.47 0c73.87,0 136.05,64.08 136.05,136.53l0 175.65c0,75.22 -62.18,136.53 -136.05,136.53l-1196.47 0c-73.8,0 -136.06,-61.31 -136.06,-136.53l0 -175.65zm618.66 -5778.18l231.11 0c137.71,0 249.99,114.33 249.99,250.86l0 4955.91 -731.09 0 0 -4955.91c0,-136.53 112.35,-250.86 249.99,-250.86zm-684.64 6486.2l0 1326.76c0,379.1 307.2,685.66 684.64,685.66l231.11 0c377.67,0 684.87,-306.56 684.87,-685.66l0 -1326.76c215.46,-80.82 368.98,-289.89 368.98,-532.37l0 -175.65c0,-242.48 -153.52,-451.55 -368.98,-532.37l0 -4994.95c0,-379.01 -307.2,-685.66 -684.87,-685.66l-231.11 0c-377.44,0 -684.64,306.65 -684.64,685.66l0 4994.95c-215.54,80.82 -369.14,289.89 -369.14,532.37l0 175.65c0,242.48 153.6,451.55 369.14,532.37z"></path> <path class="fil0" d="M5263.76 9143.96l-230.79 0c-137.64,0 -250,-111.48 -250,-250.86l0 -3261.19 730.86 0 0 3261.19c0,139.38 -112.04,250.86 -250.07,250.86zm-873 -4259.02c0,-72.54 62.5,-136.61 136.3,-136.61l1196.39 0c73.87,0 136.29,64.07 136.29,136.61l0 175.56c0,72.45 -62.42,136.61 -136.29,136.61l-1196.39 0c-73.8,0 -136.3,-64.16 -136.3,-136.61l0 -175.56zm642.21 -3804.8l230.79 0c138.03,0 250.07,114.33 250.07,250.86l0 2982.53 -730.86 0 0 -2982.53c0,-136.53 112.36,-250.86 250,-250.86zm-684.8 4523.88l0 3289.08c0,379.1 307.12,685.66 684.8,685.66l230.79 0c377.75,0 685.19,-306.56 685.19,-685.66l0 -3308.6c203.13,-86.36 345.91,-289.89 345.91,-524l0 -175.56c0,-234.19 -142.78,-437.65 -345.91,-524.09l0 -3029.85c0,-379.01 -307.44,-685.66 -685.19,-685.66l-230.79 0c-377.68,0 -684.8,306.65 -684.8,685.66l0 3013.18c-227.79,75.22 -392.45,289.89 -392.45,540.76l0 175.56c0,253.63 164.66,465.46 392.45,543.52z"></path> <path class="fil0" d="M7820.88 9143.96l-230.79 0c-137.95,0 -249.99,-111.48 -249.99,-250.86l0 -5187.25 730.54 0 0 5187.25c0,139.38 -112.04,250.86 -249.76,250.86zm-849.84 -6185.08c0,-75.3 62.42,-136.62 136.29,-136.62l1196.31 0c73.88,0 136.3,61.32 136.3,136.62l0 175.56c0,72.45 -62.42,133.77 -136.3,133.77l-1196.31 0c-73.87,0 -136.29,-61.32 -136.29,-133.77l0 -175.56zm619.05 -1878.74l230.79 0c137.72,0 249.76,114.33 249.76,250.86l0 1056.47 -730.54 0 0 -1056.47c0,-136.53 112.04,-250.86 249.99,-250.86zm-685.11 2586.68l0 5226.28c0,379.1 307.2,685.66 685.11,685.66l230.79 0c377.68,0 684.87,-306.56 684.87,-685.66l0 -5226.28c215.47,-80.83 369.3,-289.9 369.3,-532.38l0 -175.56c0,-245.33 -153.83,-451.55 -369.3,-535.23l0 -1092.65c0,-379.01 -307.19,-685.66 -684.87,-685.66l-230.79 0c-377.91,0 -685.11,306.65 -685.11,685.66l0 1092.65c-215.14,83.68 -369.06,289.9 -369.06,535.23l0 175.56c0,242.48 153.92,451.55 369.06,532.38z"></path> </g> <g id="_1815099588800"> <path class="fil1" d="M2673.74 8787.87l-231.11 0c-137.64,0 -249.99,-111.49 -249.99,-250.86l0 -1287.73 731.09 0 0 1287.73c0,139.37 -112.28,250.86 -249.99,250.86zm-849.77 -2285.64c0,-72.46 62.26,-136.53 136.06,-136.53l1196.47 0c73.87,0 136.05,64.07 136.05,136.53l0 175.64c0,75.22 -62.18,136.53 -136.05,136.53l-1196.47 0c-73.8,0 -136.06,-61.31 -136.06,-136.53l0 -175.64zm618.66 -5778.18l231.11 0c137.71,0 249.99,114.33 249.99,250.86l0 4955.91 -731.09 0 0 -4955.91c0,-136.53 112.35,-250.86 249.99,-250.86zm-684.63 6486.2l0 1326.76c0,379.09 307.19,685.66 684.63,685.66l231.11 0c377.67,0 684.87,-306.57 684.87,-685.66l0 -1326.76c215.46,-80.83 368.98,-289.89 368.98,-532.38l0 -175.64c0,-242.49 -153.52,-451.55 -368.98,-532.38l0 -4994.94c0,-379.02 -307.2,-685.66 -684.87,-685.66l-231.11 0c-377.44,0 -684.63,306.64 -684.63,685.66l0 4994.94c-215.55,80.83 -369.15,289.89 -369.15,532.38l0 175.64c0,242.49 153.6,451.55 369.15,532.38z"></path> <path class="fil1" d="M5142.45 8787.87l-230.79 0c-137.64,0 -250,-111.49 -250,-250.86l0 -3261.2 730.86 0 0 3261.2c0,139.37 -112.04,250.86 -250.07,250.86zm-873 -4259.03c0,-72.53 62.5,-136.61 136.3,-136.61l1196.39 0c73.87,0 136.29,64.08 136.29,136.61l0 175.56c0,72.46 -62.42,136.61 -136.29,136.61l-1196.39 0c-73.8,0 -136.3,-64.15 -136.3,-136.61l0 -175.56zm642.21 -3804.79l230.79 0c138.03,0 250.07,114.33 250.07,250.86l0 2982.52 -730.86 0 0 -2982.52c0,-136.53 112.36,-250.86 250,-250.86zm-684.8 4523.87l0 3289.09c0,379.09 307.12,685.66 684.8,685.66l230.79 0c377.75,0 685.19,-306.57 685.19,-685.66l0 -3308.6c203.13,-86.36 345.91,-289.9 345.91,-524.01l0 -175.56c0,-234.19 -142.78,-437.64 -345.91,-524.08l0 -3029.85c0,-379.02 -307.44,-685.66 -685.19,-685.66l-230.79 0c-377.68,0 -684.8,306.64 -684.8,685.66l0 3013.18c-227.79,75.21 -392.44,289.89 -392.44,540.75l0 175.56c0,253.63 164.65,465.46 392.44,543.52z"></path> <path class="fil1" d="M7699.57 8787.87l-230.79 0c-137.95,0 -249.99,-111.49 -249.99,-250.86l0 -5187.26 730.54 0 0 5187.26c0,139.37 -112.04,250.86 -249.76,250.86zm-849.84 -6185.09c0,-75.3 62.42,-136.61 136.29,-136.61l1196.31 0c73.88,0 136.3,61.31 136.3,136.61l0 175.56c0,72.46 -62.42,133.77 -136.3,133.77l-1196.31 0c-73.87,0 -136.29,-61.31 -136.29,-133.77l0 -175.56zm619.05 -1878.73l230.79 0c137.72,0 249.76,114.33 249.76,250.86l0 1056.46 -730.54 0 0 -1056.46c0,-136.53 112.04,-250.86 249.99,-250.86zm-685.11 2586.67l0 5226.29c0,379.09 307.2,685.66 685.11,685.66l230.79 0c377.68,0 684.88,-306.57 684.88,-685.66l0 -5226.29c215.46,-80.83 369.29,-289.89 369.29,-532.38l0 -175.56c0,-245.33 -153.83,-451.55 -369.29,-535.22l0 -1092.65c0,-379.02 -307.2,-685.66 -684.88,-685.66l-230.79 0c-377.91,0 -685.11,306.64 -685.11,685.66l0 1092.65c-215.14,83.67 -369.06,289.89 -369.06,535.22l0 175.56c0,242.49 153.92,451.55 369.06,532.38z"></path> </g> </g> </svg> 