<?xml version="1.0" encoding="UTF-8"?> <!-- Creator: CorelDRAW 2020 (64-Bit) --> <svg xmlns="http://www.w3.org/2000/svg" xmlns:xlink="http://www.w3.org/1999/xlink" xmlns:xodm="http://www.corel.com/coreldraw/odm/2003" xml:space="preserve" width="90" height="90" style="shape-rendering:geometricPrecision; text-rendering:geometricPrecision; image-rendering:optimizeQuality; fill-rule:evenodd; clip-rule:evenodd" viewBox="0 0 10500 10000"> <defs> <style type="text/css"> <![CDATA[ .fil0 {fill:#34302E;fill-rule:nonzero} .fil1 {fill:#FFCC00;fill-rule:nonzero} ]]> </style> </defs> <g id="Слой_x0020_1"> <metadata id="CorelCorpID_0Corel-Layer"></metadata> <g id="_1817516124480"> <path class="fil0" d="M8040.48 8799.99c0,229.11 -186.43,415.54 -415.54,415.54l-4527.25 0c-229.11,0 -415.31,-186.43 -415.31,-415.54l0 -7402.85c0,-229.19 186.2,-415.63 415.31,-415.63l4527.25 0c229.11,0 415.54,186.44 415.54,415.63l0 7402.85zm-415.54 -8178.06l-4527.25 0c-427.43,0 -775.12,347.7 -775.12,775.21l0 7402.85c0,427.43 347.69,775.12 775.12,775.12l4527.25 0c427.43,0 775.12,-347.69 775.12,-775.12l0 -7402.85c0,-427.51 -347.69,-775.21 -775.12,-775.21z"></path> <path class="fil0" d="M5361.16 1168.81c46.04,0 83.56,-37.29 83.56,-83.33 0,-46.04 -37.52,-83.25 -83.56,-83.25 -46.04,0 -83.25,37.21 -83.25,83.25 0,46.04 37.21,83.33 83.25,83.33z"></path> <path class="fil0" d="M5049.26 1504.62l624.34 0c45.5,0 82.78,-37.21 82.78,-83.02 0,-45.72 -37.28,-82.93 -82.78,-82.93l-624.34 0c-45.73,0 -82.93,37.21 -82.93,82.93 0,45.81 37.2,83.02 82.93,83.02z"></path> <path class="fil0" d="M4770.2 1486.17c35.88,0 64.8,-28.92 64.8,-64.57 0,-35.8 -28.92,-64.8 -64.8,-64.8 -35.8,0 -64.49,29 -64.49,64.8 0,35.65 28.69,64.57 64.49,64.57z"></path> <path class="fil0" d="M5361.16 9002.13c-180.03,0 -327.06,-146.72 -327.06,-326.82 0,-180.34 147.03,-327.06 327.06,-327.06 180.65,0 327.06,146.72 327.06,327.06 0,180.1 -146.41,326.82 -327.06,326.82zm0 -833.67c-279.3,0 -506.54,227.24 -506.54,506.85 0,279.37 227.24,506.61 506.54,506.61 279.61,0 506.85,-227.24 506.85,-506.61 0,-279.61 -227.24,-506.85 -506.85,-506.85z"></path> <path class="fil0" d="M7394.96 7975.46l-4067.29 0 0 -6111.73 4067.29 0 0 6111.73zm89.9 -6291.29l-4247.09 0c-49.64,0 -89.89,40.26 -89.89,89.59l0 6291.83c0,49.4 40.25,89.89 89.89,89.89l4247.09 0c49.64,0 89.89,-40.49 89.89,-89.89l0 -6291.83c0,-49.33 -40.25,-89.59 -89.89,-89.59z"></path> </g> <g id="_1817516125104"> <path class="fil1" d="M7931.76 8480.83c0,229.12 -186.43,415.55 -415.55,415.55l-4527.24 0c-229.12,0 -415.31,-186.43 -415.31,-415.55l0 -7402.85c0,-229.19 186.19,-415.62 415.31,-415.62l4527.24 0c229.12,0 415.55,186.43 415.55,415.62l0 7402.85zm-415.55 -8178.05l-4527.24 0c-427.43,0 -775.13,347.7 -775.13,775.2l0 7402.85c0,427.43 347.7,775.13 775.13,775.13l4527.24 0c427.43,0 775.13,-347.7 775.13,-775.13l0 -7402.85c0,-427.5 -347.7,-775.2 -775.13,-775.2z"></path> <path class="fil1" d="M5252.43 849.65c46.05,0 83.57,-37.28 83.57,-83.33 0,-46.04 -37.52,-83.25 -83.57,-83.25 -46.04,0 -83.25,37.21 -83.25,83.25 0,46.05 37.21,83.33 83.25,83.33z"></path> <path class="fil1" d="M4940.54 1185.47l624.34 0c45.49,0 82.78,-37.21 82.78,-83.02 0,-45.73 -37.29,-82.94 -82.78,-82.94l-624.34 0c-45.73,0 -82.94,37.21 -82.94,82.94 0,45.81 37.21,83.02 82.94,83.02z"></path> <path class="fil1" d="M4661.48 1167.02c35.88,0 64.8,-28.92 64.8,-64.57 0,-35.8 -28.92,-64.8 -64.8,-64.8 -35.81,0 -64.49,29 -64.49,64.8 0,35.65 28.68,64.57 64.49,64.57z"></path> <path class="fil1" d="M5252.43 8682.98c-180.02,0 -327.06,-146.72 -327.06,-326.83 0,-180.33 147.04,-327.05 327.06,-327.05 180.65,0 327.06,146.72 327.06,327.05 0,180.11 -146.41,326.83 -327.06,326.83zm0 -833.67c-279.29,0 -506.53,227.23 -506.53,506.84 0,279.38 227.24,506.62 506.53,506.62 279.62,0 506.85,-227.24 506.85,-506.62 0,-279.61 -227.23,-506.84 -506.85,-506.84z"></path> <path class="fil1" d="M7286.24 7656.31l-4067.3 0 0 -6111.73 4067.3 0 0 6111.73zm89.89 -6291.29l-4247.08 0c-49.64,0 -89.9,40.26 -89.9,89.58l0 6291.84c0,49.4 40.26,89.89 89.9,89.89l4247.08 0c49.64,0 89.9,-40.49 89.9,-89.89l0 -6291.84c0,-49.32 -40.26,-89.58 -89.9,-89.58z"></path> </g> </g> </svg> 