<?xml version="1.0" encoding="utf-8"?>
<!-- Generator: Adobe Illustrator 22.1.0, SVG Export Plug-In . SVG Version: 6.00 Build 0)  -->
<svg version="1.1" id="Capa_1" xmlns="http://www.w3.org/2000/svg" xmlns:xlink="http://www.w3.org/1999/xlink" x="0px" y="0px"
	 viewBox="0 0 512 512" style="enable-background:new 0 0 512 512;" xml:space="preserve">
<style type="text/css">
	.st0{fill:#1F1F1F;}
</style>
<g>
	<g>
		<g>
			<path class="st0" d="M506.1,241.8C506.1,241.8,506.1,241.8,506.1,241.8l-104.5-104c-7.8-7.8-20.5-7.8-28.3,0.1
				c-7.8,7.8-7.8,20.5,0.1,28.3l70.2,69.8H20c-11,0-20,9-20,20c0,11,9,20,20,20h423.6l-70.2,69.8c-7.8,7.8-7.9,20.5-0.1,28.3
				c7.8,7.8,20.5,7.9,28.3,0.1l104.5-104c0,0,0,0,0,0C514,262.3,513.9,249.6,506.1,241.8z"/>
		</g>
	</g>
</g>
</svg>
