<svg width="156" height="57" viewBox="0 0 156 57" fill="none" xmlns="http://www.w3.org/2000/svg">
<path d="M31.7851 22.856C30.9958 22.856 30.3078 23 29.7211 23.288C29.1451 23.5653 28.6651 23.9333 28.2811 24.392C27.8971 24.84 27.6091 25.3467 27.4171 25.912C27.2358 26.4773 27.1451 27.0373 27.1451 27.592C27.1451 28.2213 27.2678 28.84 27.5131 29.448C27.7585 30.0453 28.0945 30.5787 28.5211 31.048C28.9585 31.5067 29.4651 31.88 30.0411 32.168C30.6171 32.4453 31.2411 32.584 31.9131 32.584C32.1051 32.584 32.3291 32.5627 32.5851 32.52C32.8518 32.4773 33.1131 32.3973 33.3691 32.28C33.6251 32.152 33.8598 31.976 34.0731 31.752C34.2971 31.528 34.4678 31.2347 34.5851 30.872H34.7451V32.648C34.5851 32.648 34.4145 32.6693 34.2331 32.712C34.0625 32.7547 33.8705 32.8027 33.6571 32.856C33.3798 32.9307 33.0705 33 32.7291 33.064C32.3985 33.128 32.0465 33.16 31.6731 33.16C30.7451 33.16 29.9291 33 29.2251 32.68C28.5211 32.36 27.9345 31.944 27.4651 31.432C26.9958 30.92 26.6438 30.344 26.4091 29.704C26.1745 29.0533 26.0571 28.3973 26.0571 27.736C26.0571 27.0747 26.1745 26.4187 26.4091 25.768C26.6438 25.1173 27.0011 24.536 27.4811 24.024C27.9611 23.5013 28.5638 23.08 29.2891 22.76C30.0145 22.44 30.8678 22.28 31.8491 22.28C32.2011 22.28 32.5158 22.312 32.7931 22.376C33.0811 22.44 33.3371 22.504 33.5611 22.568C33.7211 22.6213 33.8651 22.664 33.9931 22.696C34.1318 22.7173 34.2651 22.728 34.3931 22.728V24.504H34.2331C34.1691 24.1733 34.0518 23.9013 33.8811 23.688C33.7105 23.464 33.5078 23.2933 33.2731 23.176C33.0491 23.0587 32.8038 22.9787 32.5371 22.936C32.2811 22.8827 32.0305 22.856 31.7851 22.856ZM42.8739 32.84H42.9539C43.2099 32.84 43.3379 32.7227 43.3379 32.488C43.3379 32.4027 43.3219 32.312 43.2899 32.216L41.8499 28.328H39.0499L37.6579 32.152C37.6259 32.2373 37.6099 32.3173 37.6099 32.392C37.6099 32.5307 37.6472 32.6427 37.7219 32.728C37.7965 32.8027 37.8765 32.84 37.9619 32.84H38.0419V33H36.2659V32.84H36.3459C36.4845 32.84 36.6179 32.76 36.7459 32.6C36.8845 32.4293 36.9965 32.232 37.0819 32.008L40.7459 22.248L44.3299 31.912C44.4045 32.1253 44.5059 32.3333 44.6339 32.536C44.7725 32.7387 44.9485 32.84 45.1619 32.84H45.2419V33H42.8739V32.84ZM39.2099 27.784H41.6739L40.4419 24.44L39.2099 27.784ZM46.8394 32.84H46.9194C47.0047 32.84 47.0794 32.8133 47.1434 32.76C47.2074 32.696 47.2607 32.6213 47.3034 32.536C47.3567 32.4507 47.394 32.36 47.4154 32.264C47.4474 32.168 47.4634 32.0773 47.4634 31.992V23.432C47.4634 23.3573 47.4474 23.272 47.4154 23.176C47.394 23.08 47.3567 22.9893 47.3034 22.904C47.2607 22.8187 47.2074 22.7493 47.1434 22.696C47.0794 22.632 47.0047 22.6 46.9194 22.6H46.8394V22.44H49.1434V22.6H49.0634C48.978 22.6 48.9034 22.632 48.8394 22.696C48.7754 22.7493 48.722 22.8187 48.6794 22.904C48.6367 22.9893 48.5994 23.08 48.5674 23.176C48.546 23.272 48.5354 23.3573 48.5354 23.432V32.408H52.0394C52.242 32.408 52.418 32.36 52.5674 32.264C52.7167 32.168 52.8394 32.0507 52.9354 31.912C53.042 31.7627 53.1167 31.608 53.1594 31.448C53.2127 31.2773 53.2394 31.1227 53.2394 30.984H53.3994V33H46.8394V32.84ZM54.9169 32.84H54.9969C55.0822 32.84 55.1569 32.8133 55.2209 32.76C55.2849 32.696 55.3382 32.6213 55.3809 32.536C55.4342 32.4507 55.4715 32.36 55.4929 32.264C55.5249 32.168 55.5409 32.0773 55.5409 31.992V23.432C55.5409 23.3573 55.5249 23.272 55.4929 23.176C55.4715 23.08 55.4342 22.9893 55.3809 22.904C55.3382 22.8187 55.2849 22.7493 55.2209 22.696C55.1569 22.632 55.0822 22.6 54.9969 22.6H54.9169V22.44H57.2209V22.6H57.1409C57.0555 22.6 56.9809 22.632 56.9169 22.696C56.8529 22.7493 56.7995 22.8187 56.7569 22.904C56.7142 22.9893 56.6769 23.08 56.6449 23.176C56.6235 23.272 56.6129 23.3573 56.6129 23.432V32.408H60.1169C60.3195 32.408 60.4955 32.36 60.6449 32.264C60.7942 32.168 60.9169 32.0507 61.0129 31.912C61.1195 31.7627 61.1942 31.608 61.2369 31.448C61.2902 31.2773 61.3169 31.1227 61.3169 30.984H61.4769V33H54.9169V32.84ZM76.3986 32.84H76.4786C76.5533 32.84 76.6226 32.808 76.6866 32.744C76.7506 32.68 76.804 32.6053 76.8466 32.52C76.9 32.4347 76.9373 32.344 76.9586 32.248C76.98 32.1413 76.9906 32.0453 76.9906 31.96V23.544L72.8626 33.176L68.9426 24.04V31.96C68.9426 32.0453 68.9533 32.1413 68.9746 32.248C68.996 32.344 69.028 32.4347 69.0706 32.52C69.124 32.6053 69.1826 32.68 69.2466 32.744C69.3106 32.808 69.3853 32.84 69.4706 32.84H69.5506V33H67.8066V32.84H67.8866C67.9613 32.84 68.0306 32.808 68.0946 32.744C68.1586 32.68 68.212 32.6053 68.2546 32.52C68.2973 32.4347 68.3293 32.344 68.3506 32.248C68.372 32.1413 68.3826 32.0453 68.3826 31.96V23.432C68.3826 23.3573 68.372 23.272 68.3506 23.176C68.3293 23.08 68.2973 22.9893 68.2546 22.904C68.212 22.8187 68.1586 22.7493 68.0946 22.696C68.0306 22.632 67.9613 22.6 67.8866 22.6H67.8066V22.44H69.4386L73.1506 31.192L76.8626 22.44H78.6706V22.6H78.5906C78.5053 22.6 78.4306 22.632 78.3666 22.696C78.3026 22.7493 78.244 22.8187 78.1906 22.904C78.148 22.9893 78.116 23.08 78.0946 23.176C78.0733 23.272 78.0626 23.3573 78.0626 23.432V31.96C78.0626 32.0453 78.0733 32.1413 78.0946 32.248C78.116 32.344 78.148 32.4347 78.1906 32.52C78.244 32.6053 78.3026 32.68 78.3666 32.744C78.4306 32.808 78.5053 32.84 78.5906 32.84H78.6706V33H76.3986V32.84ZM80.8681 32.84H80.9481C81.0335 32.84 81.1081 32.8133 81.1721 32.76C81.2361 32.696 81.2895 32.6213 81.3321 32.536C81.3855 32.4507 81.4228 32.36 81.4441 32.264C81.4761 32.168 81.4921 32.0773 81.4921 31.992V23.432C81.4921 23.3573 81.4761 23.272 81.4441 23.176C81.4228 23.08 81.3855 22.9893 81.3321 22.904C81.2895 22.8187 81.2361 22.7493 81.1721 22.696C81.1081 22.632 81.0335 22.6 80.9481 22.6H80.8681V22.44H87.0281V23.928H86.8681C86.8468 23.6827 86.7508 23.4693 86.5801 23.288C86.4095 23.096 86.1428 23 85.7801 23H82.5641V27.048H85.2201C85.4655 27.048 85.6681 26.9733 85.8281 26.824C85.9988 26.6747 86.0841 26.4987 86.0841 26.296H86.2441V28.296H86.0841C86.0841 28.104 86.0041 27.9387 85.8441 27.8C85.6841 27.6613 85.4761 27.592 85.2201 27.592H82.5641V32.44H86.0681C86.2708 32.44 86.4468 32.392 86.5961 32.296C86.7455 32.2 86.8681 32.088 86.9641 31.96C87.0708 31.8213 87.1455 31.6773 87.1881 31.528C87.2415 31.368 87.2681 31.2347 87.2681 31.128H87.4281V33H80.8681V32.84ZM94.07 32.84H94.15C94.2247 32.84 94.294 32.808 94.358 32.744C94.422 32.68 94.4753 32.6053 94.518 32.52C94.5713 32.4347 94.6087 32.344 94.63 32.248C94.6513 32.1413 94.662 32.0453 94.662 31.96V23.448C94.662 23.3733 94.6513 23.288 94.63 23.192C94.6087 23.096 94.5713 23.0053 94.518 22.92C94.4753 22.824 94.4167 22.7493 94.342 22.696C94.278 22.632 94.2033 22.6 94.118 22.6H94.038V22.44H96.662C97.654 22.44 98.4273 22.6587 98.982 23.096C99.5473 23.5333 99.83 24.1147 99.83 24.84C99.83 25.1493 99.7767 25.4267 99.67 25.672C99.5633 25.9173 99.4247 26.136 99.254 26.328C99.094 26.52 98.918 26.6853 98.726 26.824C98.534 26.952 98.3527 27.0587 98.182 27.144C98.63 27.2293 99.0033 27.3733 99.302 27.576C99.6007 27.7787 99.8407 28.0133 100.022 28.28C100.214 28.536 100.347 28.8133 100.422 29.112C100.497 29.4107 100.534 29.704 100.534 29.992C100.534 30.5467 100.433 31.016 100.23 31.4C100.027 31.7733 99.7553 32.0827 99.414 32.328C99.0833 32.5627 98.6993 32.7333 98.262 32.84C97.8353 32.9467 97.3927 33 96.934 33H94.07V32.84ZM99.446 30.088C99.3607 29.2667 99.0833 28.632 98.614 28.184C98.1447 27.736 97.4833 27.512 96.63 27.512H95.734V32.472H96.662C97.526 32.472 98.2033 32.28 98.694 31.896C99.1953 31.5013 99.446 30.9573 99.446 30.264V30.088ZM98.79 24.984C98.758 24.3653 98.5393 23.8747 98.134 23.512C97.7393 23.1493 97.206 22.968 96.534 22.968H95.734V27H96.566C97.014 27 97.3767 26.9413 97.654 26.824C97.942 26.7067 98.1713 26.5573 98.342 26.376C98.5127 26.184 98.63 25.976 98.694 25.752C98.758 25.528 98.79 25.3093 98.79 25.096V24.984ZM108.65 32.84H108.73C108.986 32.84 109.114 32.7227 109.114 32.488C109.114 32.4027 109.098 32.312 109.066 32.216L107.626 28.328H104.826L103.434 32.152C103.402 32.2373 103.386 32.3173 103.386 32.392C103.386 32.5307 103.423 32.6427 103.498 32.728C103.573 32.8027 103.653 32.84 103.738 32.84H103.818V33H102.042V32.84H102.122C102.261 32.84 102.394 32.76 102.522 32.6C102.661 32.4293 102.773 32.232 102.858 32.008L106.522 22.248L110.106 31.912C110.181 32.1253 110.282 32.3333 110.41 32.536C110.549 32.7387 110.725 32.84 110.938 32.84H111.018V33H108.65V32.84ZM104.986 27.784H107.45L106.218 24.44L104.986 27.784ZM118.248 22.856C117.458 22.856 116.77 23 116.184 23.288C115.608 23.5653 115.128 23.9333 114.744 24.392C114.36 24.84 114.072 25.3467 113.88 25.912C113.698 26.4773 113.608 27.0373 113.608 27.592C113.608 28.2213 113.73 28.84 113.976 29.448C114.221 30.0453 114.557 30.5787 114.984 31.048C115.421 31.5067 115.928 31.88 116.504 32.168C117.08 32.4453 117.704 32.584 118.376 32.584C118.568 32.584 118.792 32.5627 119.048 32.52C119.314 32.4773 119.576 32.3973 119.832 32.28C120.088 32.152 120.322 31.976 120.536 31.752C120.76 31.528 120.93 31.2347 121.048 30.872H121.208V32.648C121.048 32.648 120.877 32.6693 120.696 32.712C120.525 32.7547 120.333 32.8027 120.12 32.856C119.842 32.9307 119.533 33 119.192 33.064C118.861 33.128 118.509 33.16 118.136 33.16C117.208 33.16 116.392 33 115.688 32.68C114.984 32.36 114.397 31.944 113.928 31.432C113.458 30.92 113.106 30.344 112.872 29.704C112.637 29.0533 112.52 28.3973 112.52 27.736C112.52 27.0747 112.637 26.4187 112.872 25.768C113.106 25.1173 113.464 24.536 113.944 24.024C114.424 23.5013 115.026 23.08 115.752 22.76C116.477 22.44 117.33 22.28 118.312 22.28C118.664 22.28 118.978 22.312 119.256 22.376C119.544 22.44 119.8 22.504 120.024 22.568C120.184 22.6213 120.328 22.664 120.456 22.696C120.594 22.7173 120.728 22.728 120.856 22.728V24.504H120.696C120.632 24.1733 120.514 23.9013 120.344 23.688C120.173 23.464 119.97 23.2933 119.736 23.176C119.512 23.0587 119.266 22.9787 119 22.936C118.744 22.8827 118.493 22.856 118.248 22.856ZM125.432 32.84H125.512V33H123.224V32.84H123.304C123.39 32.84 123.464 32.808 123.528 32.744C123.592 32.68 123.646 32.6053 123.688 32.52C123.742 32.4347 123.779 32.344 123.8 32.248C123.822 32.1413 123.832 32.0453 123.832 31.96V23.432C123.832 23.3573 123.822 23.272 123.8 23.176C123.779 23.08 123.742 22.9893 123.688 22.904C123.646 22.8187 123.592 22.7493 123.528 22.696C123.464 22.632 123.395 22.6 123.32 22.6H123.24V22.44H125.528V22.6H125.448C125.363 22.6 125.288 22.632 125.224 22.696C125.16 22.7493 125.102 22.8187 125.048 22.904C125.006 22.9893 124.968 23.08 124.936 23.176C124.915 23.272 124.904 23.3573 124.904 23.432V27.144L128.968 23.112C129.032 23.0373 129.064 22.952 129.064 22.856C129.064 22.6853 129 22.6 128.872 22.6H128.792V22.44H130.744V22.6H130.664C130.515 22.6 130.36 22.6533 130.2 22.76C130.04 22.8667 129.88 23 129.72 23.16L126.36 26.504L129.896 31.864C129.907 31.8853 129.955 31.9493 130.04 32.056C130.126 32.1627 130.227 32.2747 130.344 32.392C130.472 32.5093 130.611 32.616 130.76 32.712C130.92 32.7973 131.08 32.84 131.24 32.84V33H130.856C130.536 33 130.264 32.984 130.04 32.952C129.827 32.9093 129.64 32.8453 129.48 32.76C129.32 32.6747 129.176 32.568 129.048 32.44C128.931 32.312 128.808 32.152 128.68 31.96L125.576 27.272L124.904 27.96V31.96C124.904 32.0453 124.915 32.136 124.936 32.232C124.968 32.328 125.006 32.424 125.048 32.52C125.091 32.6053 125.144 32.68 125.208 32.744C125.272 32.808 125.347 32.84 125.432 32.84Z" fill="black"/>
<path fill-rule="evenodd" clip-rule="evenodd" d="M61 8H20C8.95431 8 0 16.9543 0 28C0 39.0457 8.9543 48 20 48H61V47H20C9.50659 47 1 38.4934 1 28C1 17.5066 9.50659 9 20 9H61V8ZM95 47H136C146.493 47 155 38.4934 155 28C155 17.5066 146.493 9 136 9H95V8H136C147.046 8 156 16.9543 156 28C156 39.0457 147.046 48 136 48H95V47Z" fill="white"/>
<path d="M77.9506 0.416992L76.859 2.4859L75.8025 4.55481C76.5596 6.00745 77.2287 7.2664 77.977 8.69263L80.1516 4.55481L79.0335 2.4859L77.9506 0.416992Z" fill="white"/>
<path d="M88.9114 7.46877L88.8057 7.40714L88.7001 7.33671L88.5856 7.27508L88.48 7.20465L88.3655 7.14302L88.2599 7.0814L88.1542 7.01977L88.0398 6.95814L87.9253 6.89651L87.8197 6.84369L87.7052 6.78206L87.5908 6.72044L87.4851 6.65881L87.3707 6.60599L87.2562 6.54436L87.1418 6.49154L87.0273 6.43871L86.9129 6.38589L86.7984 6.32426L86.7368 6.29785L85.7244 8.50762L85.7684 8.52523L85.874 8.56925L85.9709 8.62207L86.0765 8.6749L86.1734 8.71892L86.2702 8.77174L86.3759 8.82456L86.4727 8.87738L86.5695 8.9214L86.6664 8.97423L86.772 9.03585L86.8689 9.08868L86.9657 9.1415L87.0626 9.19432L87.1594 9.24715L87.2562 9.30877L87.3531 9.3616L87.4499 9.41442L87.5468 9.47605L87.6436 9.53767L87.7316 9.5905L88.9994 7.52159L88.9114 7.46877Z" fill="white"/>
<path d="M84.1753 5.31201L84.0521 5.2768L83.9288 5.24158L83.8056 5.19756L83.6823 5.16235L83.559 5.13593L83.427 5.10072L83.3037 5.0655L83.1805 5.03029L83.0572 5.00388L82.9252 4.96866L82.8019 4.93345L82.6787 4.90703L82.5466 4.88062L82.4233 4.85421L82.2913 4.819L82.168 4.79258L82.036 4.77498L81.9127 4.74856L81.8423 4.73096L81.4021 7.1168L81.4549 7.12561L81.5694 7.15202L81.6838 7.16963L81.7895 7.19604L81.9039 7.22245L82.0184 7.24886L82.1328 7.27527L82.2385 7.30169L82.3529 7.31929L82.4674 7.35451L82.573 7.38092L82.6875 7.40733L82.8019 7.44255L82.9076 7.46896L83.0132 7.49537L83.1277 7.53059L83.2333 7.5658L83.3478 7.59221L83.4534 7.62743L83.5679 7.66264L83.6119 7.68025L84.3426 5.36484L84.2986 5.35603L84.1753 5.31201Z" fill="white"/>
<path d="M74.1213 4.72218L73.9892 4.74859L73.8572 4.77501L73.7339 4.79261L73.6019 4.81903L73.4786 4.85424L73.3466 4.88065L73.2233 4.90706L73.0913 4.93348L72.968 4.96869L72.8447 5.00391L72.7215 5.03032L72.5894 5.06553L72.4662 5.10075L72.3429 5.13596L72.2197 5.16238L72.0964 5.19759L71.9732 5.24161L71.8411 5.27683L71.7267 5.31204L71.6738 5.32965L72.4045 7.64507L72.4398 7.62746L72.5542 7.59224L72.6599 7.56583L72.7655 7.53062L72.88 7.4954L72.9944 7.46899L73.1001 7.44258L73.2145 7.40736L73.3202 7.38095L73.4346 7.35454L73.5402 7.31932L73.6547 7.30172L73.7691 7.2753L73.8836 7.24889L73.9892 7.22248L74.1037 7.19607L74.2181 7.16966L74.3326 7.15205L74.447 7.12564L74.5527 7.10803L74.6143 7.09923L74.1741 4.71338L74.1213 4.72218Z" fill="white"/>
<path d="M69.2176 6.27151L69.1031 6.32434L68.9887 6.38596L68.8742 6.43879L68.7598 6.49161L68.6453 6.54443L68.5309 6.60606L68.4164 6.65888L68.302 6.72051L68.1963 6.78214L68.0819 6.84377L67.9674 6.89659L67.8618 6.95822L67.7474 7.01984L67.6417 7.08147L67.5273 7.1431L67.4216 7.20472L67.3072 7.27515L67.2015 7.33678L67.0959 7.40721L66.999 7.46004L68.2756 9.52894L68.3548 9.47612L68.4517 9.41449L68.5397 9.36167L68.6365 9.30885L68.7334 9.24722L68.8302 9.1944L68.9359 9.14157L69.0327 9.08875L69.1296 9.03593L69.2264 8.9743L69.3232 8.92148L69.4201 8.87746L69.5257 8.82464L69.6226 8.77181L69.7194 8.71899L69.8251 8.67497L69.9219 8.62215L70.0276 8.56932L70.1244 8.5253L70.23 8.48128L70.2829 8.45487L69.2704 6.25391L69.2176 6.27151Z" fill="white"/>
<path d="M77.9506 56.1738L76.859 54.1049L75.8025 52.036C76.5596 50.5834 77.2287 49.3244 77.977 47.8982L80.1516 52.036L79.0335 54.1049L77.9506 56.1738Z" fill="white"/>
<path d="M88.9114 49.1221L88.8057 49.1837L88.7001 49.2541L88.5856 49.3157L88.48 49.3862L88.3655 49.4478L88.2599 49.5094L88.1542 49.5711L88.0398 49.6327L87.9253 49.6943L87.8197 49.7471L87.7052 49.8088L87.5908 49.8704L87.4851 49.932L87.3707 49.9848L87.2562 50.0465L87.1418 50.0993L87.0273 50.1521L86.9129 50.2049L86.7984 50.2666L86.7368 50.293L85.7244 48.0832L85.7684 48.0656L85.874 48.0216L85.9709 47.9687L86.0765 47.9159L86.1734 47.8719L86.2702 47.8191L86.3759 47.7663L86.4727 47.7134L86.5695 47.6694L86.6664 47.6166L86.772 47.555L86.8689 47.5021L86.9657 47.4493L87.0626 47.3965L87.1594 47.3437L87.2562 47.282L87.3531 47.2292L87.4499 47.1764L87.5468 47.1148L87.6436 47.0531L87.7316 47.0003L88.9994 49.0692L88.9114 49.1221Z" fill="white"/>
<path d="M84.1753 51.2788L84.0521 51.314L83.9288 51.3492L83.8056 51.3933L83.6823 51.4285L83.559 51.4549L83.427 51.4901L83.3037 51.5253L83.1805 51.5605L83.0572 51.5869L82.9252 51.6222L82.8019 51.6574L82.6787 51.6838L82.5466 51.7102L82.4233 51.7366L82.2913 51.7718L82.168 51.7982L82.036 51.8158L81.9127 51.8423L81.8423 51.8599L81.4021 49.474L81.4549 49.4652L81.5694 49.4388L81.6838 49.4212L81.7895 49.3948L81.9039 49.3684L82.0184 49.342L82.1328 49.3155L82.2385 49.2891L82.3529 49.2715L82.4674 49.2363L82.573 49.2099L82.6875 49.1835L82.8019 49.1483L82.9076 49.1219L83.0132 49.0954L83.1277 49.0602L83.2333 49.025L83.3478 48.9986L83.4534 48.9634L83.5679 48.9282L83.6119 48.9106L84.3426 51.226L84.2986 51.2348L84.1753 51.2788Z" fill="white"/>
<path d="M74.1213 51.8686L73.9892 51.8422L73.8572 51.8158L73.7339 51.7982L73.6019 51.7718L73.4786 51.7366L73.3466 51.7102L73.2233 51.6838L73.0913 51.6573L72.968 51.6221L72.8447 51.5869L72.7215 51.5605L72.5894 51.5253L72.4662 51.4901L72.3429 51.4549L72.2197 51.4284L72.0964 51.3932L71.9732 51.3492L71.8411 51.314L71.7267 51.2788L71.6738 51.2612L72.4045 48.9458L72.4398 48.9634L72.5542 48.9986L72.6599 49.025L72.7655 49.0602L72.88 49.0954L72.9944 49.1218L73.1001 49.1482L73.2145 49.1835L73.3202 49.2099L73.4346 49.2363L73.5402 49.2715L73.6547 49.2891L73.7691 49.3155L73.8836 49.3419L73.9892 49.3683L74.1037 49.3948L74.2181 49.4212L74.3326 49.4388L74.447 49.4652L74.5527 49.4828L74.6143 49.4916L74.1741 51.8774L74.1213 51.8686Z" fill="white"/>
<path d="M69.2176 50.3193L69.1031 50.2665L68.9887 50.2049L68.8742 50.152L68.7598 50.0992L68.6453 50.0464L68.5309 49.9848L68.4164 49.9319L68.302 49.8703L68.1963 49.8087L68.0819 49.7471L67.9674 49.6942L67.8618 49.6326L67.7474 49.571L67.6417 49.5094L67.5273 49.4477L67.4216 49.3861L67.3072 49.3157L67.2015 49.254L67.0959 49.1836L66.999 49.1308L68.2756 47.0619L68.3548 47.1147L68.4517 47.1763L68.5397 47.2291L68.6365 47.282L68.7334 47.3436L68.8302 47.3964L68.9359 47.4492L69.0327 47.5021L69.1296 47.5549L69.2264 47.6165L69.3232 47.6693L69.4201 47.7134L69.5257 47.7662L69.6226 47.819L69.7194 47.8718L69.8251 47.9159L69.9219 47.9687L70.0276 48.0215L70.1244 48.0655L70.23 48.1095L70.2829 48.1359L69.2704 50.3369L69.2176 50.3193Z" fill="white"/>
</svg>
