<?xml version="1.0" encoding="utf-8"?>
<!-- Generator: Adobe Illustrator 22.1.0, SVG Export Plug-In . SVG Version: 6.00 Build 0)  -->
<svg version="1.1" xmlns="http://www.w3.org/2000/svg" xmlns:xlink="http://www.w3.org/1999/xlink" x="0px" y="0px"
	 viewBox="0 0 126.1 54.7" style="enable-background:new 0 0 126.1 54.7;" xml:space="preserve">
<style type="text/css">
	.st0{fill:#363636;}
</style>
<g id="BACKGROUND">
</g>
<g id="OBJECTS">
	<g>
		<g>
			<g>
				<g>
					<path class="st0" d="M105.1,8.2c-1-0.7-1.7-1.4-2.5-2c-0.8-0.6-1.7-1.1-2.7-1.4c-2-0.7-4.3-0.7-6.5-0.6
						c-2.2,0.2-4.4,0.6-6.6,1.3c-2.2,0.6-4.4,1.3-6.6,2.1c-8.7,3.1-16.9,7.3-24.4,12.8c-3.8,2.6-6.8,6.3-8.8,10.4
						c-1,2.1-1.9,4.2-2.4,6.4c-0.5,2.2-0.6,4.6,0.2,6.7c0.4,1.1,1,2,1.7,2.8c0.8,0.8,1.7,1.3,2.7,1.5c1,0.2,2,0,2.8-0.6
						c0.8-0.5,1.5-1.3,2-2.2c1.9-3.8,1.7-8.4-0.2-12.3c-0.9-2-2.2-3.8-3.6-5.5c-1.5-1.6-3.4-2.9-5.3-4.1c-3.9-2.3-8.4-3.9-13-4.6
						c-2.3-0.4-4.6-0.5-6.9-0.5c-2.3,0-4.7,0.1-6.9,0.7C17,19.4,16,19.8,15,20.4c-0.9,0.5-1.9,1.3-2,2.1c-0.1,0.7,0.5,1.5,1.4,2
						c0.9,0.5,1.9,0.9,2.9,1.2c0.5,0.1,1,0.2,1.6,0.2l1.6,0.1c1.1,0,2.2-0.1,3.3-0.2c2.2-0.3,4.3-0.8,6.4-1.6
						c4.2-1.5,8.2-3.6,12.1-6.1c7.7-5,14.4-11.3,20.8-18c0.1-0.1,0.2-0.1,0.3,0c0.1,0.1,0.1,0.2,0,0.3c-5.5,7.5-12,14.4-19.7,19.8
						c-3.9,2.7-8.1,5-12.6,6.6c-4.5,1.5-9.5,2.3-14.4,0.9c-1.2-0.4-2.3-1-3.3-1.8c-0.5-0.4-1-0.9-1.3-1.5c-0.4-0.6-0.6-1.5-0.3-2.2
						c0.2-0.8,0.7-1.3,1.2-1.7c0.5-0.4,1.1-0.7,1.6-0.9c1.1-0.5,2.2-0.8,3.4-1c2.3-0.4,4.7-0.3,7-0.3c2.3,0.1,4.6,0.3,6.9,0.6
						c4.6,0.7,9.1,1.7,13.4,3.7c0.5,0.2,1.1,0.5,1.6,0.8c0.5,0.3,1,0.6,1.6,0.9c1,0.6,2,1.3,2.9,2.1c1.8,1.6,3.3,3.6,4.5,5.7
						c1.1,2.2,1.9,4.6,1.9,7.2c0,2.5-0.7,5.1-2.1,7.2c-0.7,1.1-1.7,2-2.9,2.6c-1.2,0.6-2.6,0.7-3.9,0.3c-1.2-0.4-2.3-1.2-3.1-2.1
						c-0.8-0.9-1.3-2-1.7-3.2c-0.7-2.3-0.6-4.7,0-7c0.6-2.3,1.4-4.5,2.5-6.5c1-2.1,2.3-4.1,3.7-5.9c0.7-0.9,1.5-1.8,2.4-2.6
						c0.9-0.8,1.8-1.5,2.7-2.3C62.7,14,70.9,9.4,79.6,5.9c2.2-0.8,4.4-1.6,6.6-2.3c2.3-0.7,4.6-1.2,7-1.5c2.4-0.2,4.9-0.2,7.3,0.6
						c1.2,0.4,2.4,1,3.4,1.8c1,0.8,1.8,2.1,1.6,3.5c0,0.1-0.1,0.2-0.3,0.2C105.2,8.3,105.2,8.3,105.1,8.2L105.1,8.2z"/>
				</g>
				<g>
					<path class="st0" d="M20.8,8.1c-0.2-1.4,0.6-2.7,1.6-3.5c1-0.8,2.2-1.4,3.4-1.8C28.3,2,30.8,2,33.1,2.2c2.4,0.2,4.7,0.8,7,1.5
						c2.3,0.6,4.5,1.4,6.6,2.3c8.7,3.4,16.9,8,24.2,13.8c0.9,0.7,1.8,1.5,2.7,2.3c0.9,0.8,1.6,1.7,2.4,2.6c1.5,1.8,2.7,3.8,3.7,5.9
						c1,2.1,1.9,4.3,2.5,6.5c0.5,2.3,0.6,4.7,0,7c-0.3,1.1-0.9,2.2-1.7,3.2c-0.8,0.9-1.8,1.7-3.1,2.1c-1.2,0.4-2.7,0.3-3.9-0.3
						c-1.2-0.6-2.2-1.5-2.9-2.6c-1.4-2.1-2.1-4.6-2.1-7.2c0-2.5,0.8-5,1.9-7.2c1.1-2.2,2.7-4.1,4.5-5.7c0.9-0.8,1.9-1.5,2.9-2.1
						c0.5-0.3,1-0.6,1.6-0.9c0.5-0.3,1.1-0.5,1.6-0.8c4.3-1.9,8.9-3,13.4-3.7c2.3-0.3,4.6-0.5,6.9-0.6c2.3-0.1,4.6-0.1,7,0.3
						c1.2,0.2,2.3,0.5,3.4,1c0.6,0.2,1.1,0.5,1.6,0.9c0.5,0.4,1,0.9,1.2,1.7c0.3,0.8,0,1.6-0.3,2.2c-0.4,0.6-0.8,1.1-1.3,1.5
						c-1,0.8-2.2,1.4-3.3,1.8c-4.9,1.4-9.9,0.6-14.4-0.9c-4.5-1.6-8.7-3.9-12.6-6.6C74.9,14.8,68.4,7.9,62.9,0.4
						c-0.1-0.1-0.1-0.2,0-0.3c0.1-0.1,0.2-0.1,0.3,0c6.5,6.6,13.2,13,20.8,18c3.8,2.5,7.8,4.7,12.1,6.1c2.1,0.7,4.3,1.3,6.4,1.6
						c1.1,0.2,2.2,0.2,3.3,0.2l1.6-0.1c0.5,0,1-0.1,1.6-0.2c1-0.2,2-0.6,2.9-1.2c0.9-0.5,1.6-1.3,1.4-2c-0.1-0.8-1.1-1.6-2-2.1
						c-1-0.5-2-1-3.1-1.3c-2.2-0.6-4.6-0.7-6.9-0.7c-2.3,0-4.6,0.2-6.9,0.5c-4.6,0.7-9,2.2-13,4.6c-2,1.2-3.8,2.5-5.3,4.1
						c-1.5,1.6-2.7,3.5-3.6,5.5c-1.9,3.9-2.1,8.5-0.2,12.3c0.5,0.9,1.1,1.7,2,2.2c0.8,0.5,1.8,0.7,2.8,0.6c1-0.2,2-0.7,2.7-1.5
						c0.8-0.8,1.3-1.8,1.7-2.8c0.7-2.1,0.7-4.5,0.2-6.7c-0.5-2.2-1.4-4.4-2.4-6.4c-2.1-4.1-5-7.8-8.8-10.4
						c-7.4-5.5-15.7-9.8-24.4-12.8c-2.2-0.8-4.4-1.5-6.6-2.1c-2.2-0.6-4.4-1.1-6.6-1.3c-2.2-0.2-4.5-0.1-6.5,0.6
						c-1,0.3-1.9,0.8-2.7,1.4c-0.8,0.6-1.5,1.2-2.5,2l0,0c-0.1,0.1-0.3,0.1-0.3,0C20.9,8.1,20.8,8.1,20.8,8.1z"/>
				</g>
				<g>
					<path class="st0" d="M2.8,26.6c0.1,0.7,0.3,1.5,0.6,2.3c0.3,0.7,0.7,1.5,1.3,2l0.4,0.4c0.2,0.1,0.3,0.2,0.5,0.4
						c0.3,0.3,0.7,0.4,1,0.6c0.4,0.2,0.8,0.3,1.2,0.4c0.4,0.1,0.8,0.1,1.3,0.2c1.7,0.1,3.5-0.2,5.2-0.8c0.4-0.1,0.8-0.3,1.2-0.5
						c0.4-0.2,0.8-0.3,1.2-0.6c0.8-0.5,1.6-0.9,2.3-1.5c3-2.1,5.3-5,7.6-7.8c1.1-1.4,2.3-2.9,3.5-4.2c1.2-1.4,2.6-2.6,4.2-3.6
						c1.6-1,3.5-1.5,5.3-1.8c1.9-0.2,3.8,0.1,5.6,0.5c3.6,0.9,7,2.3,10.3,4c3.3,1.7,6.4,3.6,9.4,5.7c1.5,1,3,2.1,4.4,3.3
						c1.4,1.2,2.8,2.3,4.2,3.6c2.7,2.5,5.2,5.1,7.6,8c1.1,1.4,2.3,2.9,3.3,4.4c1,1.5,1.9,3.1,2.7,4.8c0.7,1.7,1.4,3.4,1.2,5.3
						c-0.1,0.9-0.5,1.9-1.3,2.4c-0.8,0.5-1.8,0.6-2.7,0.6c-0.9-0.1-1.9-0.4-2.6-1c-0.8-0.6-1.2-1.6-1-2.6c0.2-1,1-1.7,1.7-2.2
						c0.8-0.5,1.6-0.9,2.5-1.2c3.4-1.5,6.9-2.6,10.3-3.7c1.7-0.6,3.4-1.2,5.1-1.9c1.6-0.7,3.4-1.4,4.5-2.7c0.6-0.7,0.9-1.5,0.9-2.3
						c-0.1-0.8-0.6-1.6-1.2-2.1c-1.3-1.1-3.2-1.5-4.8-1.3c-0.8,0.1-1.6,0.3-2.3,0.8c-0.3,0.2-0.6,0.5-0.9,0.8
						c-0.3,0.3-0.5,0.6-0.6,0.9c-0.7,1.2,1.1,1.5,2.8,1.1l0,0c0.1,0,0.3,0.1,0.3,0.2c0,0.1,0,0.1,0,0.2c-0.6,0.9-1.8,1.3-2.9,1
						c-0.6-0.1-1.2-0.5-1.5-1.2c-0.3-0.7-0.1-1.4,0.1-1.9c0.2-0.5,0.6-0.9,0.9-1.3c0.3-0.4,0.8-0.7,1.2-0.9c0.9-0.5,1.9-0.7,2.9-0.8
						c2,0,3.9,0.6,5.4,1.9c0.7,0.7,1.3,1.6,1.3,2.6c0,1-0.4,1.9-1,2.7c-0.6,0.8-1.4,1.3-2.2,1.7c-0.8,0.4-1.6,0.8-2.5,1.2
						c-1.7,0.7-3.4,1.4-5.1,2c-3.4,1.2-7,2.2-10.3,3.6c-0.8,0.4-1.7,0.7-2.4,1.1c-0.7,0.5-1.4,1.1-1.6,1.9c-0.2,0.8,0.2,1.7,0.8,2.3
						c0.7,0.6,1.5,0.9,2.4,1c0.9,0.1,1.8,0,2.6-0.5c0.8-0.4,1.2-1.3,1.2-2.2c0.1-1.8-0.5-3.6-1.2-5.2c-1.5-3.3-3.7-6.3-6.1-9
						c-2.4-2.7-5.1-5.2-7.9-7.5c-5.6-4.6-11.5-8.8-18-12.1c-3.2-1.6-6.5-3.1-10-4c-1.7-0.4-3.5-0.7-5.2-0.6c-0.4,0-0.9,0.1-1.3,0.2
						c-0.4,0.1-0.9,0.1-1.3,0.3l-1.3,0.4l-1.2,0.5c-1.6,0.8-3.1,1.8-4.4,3.1c-1.3,1.2-2.5,2.6-3.7,4c-1.1,1.4-2.3,2.9-3.5,4.2
						c-0.6,0.7-1.2,1.4-1.9,2l-1,1l-1.1,0.9c-0.7,0.6-1.5,1.1-2.2,1.6c-0.8,0.4-1.6,0.9-2.5,1.3c-1.7,0.7-3.5,1.3-5.5,1.4
						c-1.9,0.1-4-0.6-5.6-1.9c-0.8-0.7-1.5-1.4-2-2.3c-0.6-0.9-1-1.7-1.4-2.8c-0.2-0.7,0.2-1.5,0.9-1.7c0.7-0.2,1.5,0.2,1.7,0.9
						C2.7,26.4,2.8,26.4,2.8,26.6L2.8,26.6z"/>
				</g>
				<g>
					<path class="st0" d="M126,27.1c-0.3,1.1-0.8,1.9-1.4,2.8c-0.5,0.9-1.2,1.6-2,2.3c-1.6,1.3-3.6,2-5.6,1.9
						c-3.9-0.3-7.3-2-10.2-4.3c-0.4-0.3-0.7-0.6-1.1-0.9l-1-1c-0.7-0.6-1.3-1.3-1.9-2c-1.2-1.4-2.3-2.8-3.5-4.3
						c-1.2-1.4-2.3-2.8-3.7-4c-0.6-0.6-1.4-1.2-2.1-1.7c-0.4-0.3-0.8-0.5-1.1-0.7L92,14.9l-0.6-0.3c-1.6-0.8-3.4-1.1-5.1-1.3
						c-1.7-0.1-3.5,0.2-5.3,0.6c-3.5,0.9-6.8,2.4-10,4.1c-6.5,3.3-12.4,7.5-18,12.2c-2.8,2.3-5.4,4.8-7.9,7.6
						c-2.4,2.7-4.6,5.7-6.1,9.1c-0.2,0.4-0.4,0.8-0.5,1.3c-0.2,0.4-0.3,0.9-0.4,1.3c-0.2,0.9-0.3,1.8-0.2,2.7c0.1,0.9,0.7,1.7,1.5,2
						c0.8,0.4,1.7,0.3,2.6,0.2c0.9-0.2,1.7-0.6,2.4-1.1c0.7-0.6,1.1-1.4,0.8-2.2c-0.3-0.8-1.1-1.3-1.9-1.7c-0.8-0.4-1.6-0.8-2.5-1.1
						c-3.4-1.4-6.9-2.2-10.4-3.4c-3.5-1.2-7-2.6-9.7-5.2c-0.3-0.4-0.6-0.8-0.7-1.3c-0.1-0.2-0.2-0.4-0.2-0.7l-0.1-0.7
						c0-1,0.5-2,1.2-2.6c0.7-0.7,1.7-1.1,2.6-1.3c0.9-0.3,1.9-0.4,2.9-0.3c1,0,2,0.2,2.9,0.7c0.5,0.2,0.9,0.6,1.3,0.9
						c0.3,0.4,0.7,0.8,0.9,1.3c0.3,0.5,0.4,1.2,0.1,1.9c-0.3,0.7-0.9,1.1-1.5,1.2c-1.2,0.3-2.3-0.2-2.9-1c-0.1-0.1,0-0.3,0.1-0.3
						c0.1,0,0.1,0,0.2,0l0,0c1.7,0.3,3.5,0,2.8-1.2c-0.7-1.4-2.2-2.2-3.9-2.4c-0.8-0.1-1.7-0.1-2.6,0.1c-0.9,0.1-1.7,0.5-2.3,1
						c-0.7,0.5-1.1,1.3-1.1,2.1l0.1,0.6c0,0.2,0.1,0.4,0.2,0.6c0.1,0.4,0.3,0.8,0.6,1.1c0.6,0.7,1.3,1.2,2.1,1.7
						c0.8,0.5,1.6,0.9,2.4,1.3c1.6,0.8,3.3,1.4,5.1,2c3.5,1.1,7,2,10.4,3.5c0.8,0.4,1.7,0.8,2.5,1.2c0.8,0.5,1.6,1,2,2
						c0.2,0.5,0.1,1,0,1.5c-0.2,0.5-0.5,0.8-0.9,1.1c-0.7,0.6-1.6,1-2.5,1.2c-0.9,0.2-1.9,0.2-2.8-0.2c-0.9-0.4-1.5-1.3-1.6-2.2
						c-0.2-0.9,0-1.9,0.2-2.8c0.1-0.5,0.2-0.9,0.4-1.3c0.1-0.4,0.3-0.9,0.5-1.3c0.8-1.7,1.6-3.3,2.6-4.8c1-1.5,2.1-3,3.2-4.4
						c2.3-2.9,4.8-5.5,7.6-8c1.4-1.2,2.8-2.4,4.2-3.6c1.5-1.1,2.9-2.2,4.4-3.3c3-2.1,6.2-4,9.4-5.8c3.3-1.7,6.7-3.1,10.3-4
						c1.8-0.4,3.7-0.7,5.6-0.6c1.9,0.2,3.8,0.7,5.4,1.7c1.6,0.9,3,2.2,4.3,3.5c1.2,1.4,2.4,2.8,3.5,4.2c2.3,2.8,4.6,5.7,7.6,7.9
						c0.7,0.6,1.5,1,2.3,1.5c0.4,0.2,0.8,0.4,1.2,0.6c0.4,0.2,0.8,0.4,1.2,0.5c1.7,0.6,3.5,1,5.2,0.8c0.4-0.1,0.9-0.1,1.3-0.2
						c0.4-0.1,0.8-0.2,1.2-0.4c0.4-0.2,0.7-0.4,1-0.6l0.5-0.4l0.4-0.4c0.6-0.6,1-1.3,1.3-2c0.3-0.7,0.5-1.6,0.6-2.3l0,0
						c0.1-0.8,0.8-1.3,1.5-1.2s1.3,0.8,1.2,1.5C126.1,26.9,126.1,27,126,27.1z"/>
				</g>
			</g>
		</g>
	</g>
</g>
<g id="DESIGNED_BY_FREEPIK">
</g>
</svg>
