<?xml version="1.0" encoding="utf-8"?>
<!-- Generator: Adobe Illustrator 22.1.0, SVG Export Plug-In . SVG Version: 6.00 Build 0)  -->
<svg version="1.1" xmlns="http://www.w3.org/2000/svg" xmlns:xlink="http://www.w3.org/1999/xlink" x="0px" y="0px"
	 viewBox="0 0 113.4 41.5" style="enable-background:new 0 0 113.4 41.5;" xml:space="preserve">
<style type="text/css">
	.st0{display:none;}
	.st1{display:inline;}
	.st2{fill:#000;}
	.st3{display:inline;opacity:0.82;}
</style>
<g id="BACKGROUND" class="st0">
	<g class="st1">
		
			<image style="overflow:visible;" width="573" height="572" xlink:href="96E61596A10B174A.png"  transform="matrix(1 0 0 1 -383.3526 -389.6462)">
		</image>
	</g>
</g>
<g id="OBJECTS">
	<g>
		<g class="st0">
			<g>
				<g class="st1">
					<path d="M-244-90.4c0.1,5.3-0.7,10.6-2.7,15.6c-1.9,4.9-4.9,9.5-8.9,13.1c-1,0.9-2,1.7-3.2,2.4c-1.1,0.8-2.3,1.4-3.4,2
						c-2.4,1.2-5,2-7.6,2.5c-2.6,0.5-5.3,0.6-8,0.3c-1.3-0.2-2.6-0.5-3.9-0.9c-1.3-0.4-2.5-1-3.6-1.7c-1.1-0.7-2.2-1.5-3.1-2.6
						c-0.9-1.1-1.5-2.3-1.7-3.7c-0.2-1.3,0-2.8,0.7-4c0.8-1.2,1.9-2,3.2-2.6c2.5-1.1,5.3-1.3,7.9-1.2c2.7,0.1,5.3,0.6,7.9,1.2
						c5.2,1.2,10.1,3.1,15,5.2c4.8,2.1,9.9,3.7,15,4.9c5.1,1.2,10.4,1.9,15.6,2c2.6,0,5.2-0.1,7.8-0.5c2.6-0.4,5.1-1.1,7.3-2.4
						c1.1-0.7,2.1-1.5,2.7-2.6c0.7-1.1,1-2.3,1-3.6c0-1.3-0.2-2.6-0.8-3.7c-0.3-0.6-0.6-1-1.1-1.5c-0.5-0.4-1-0.7-1.6-0.9
						c-1.2-0.4-2.5-0.4-3.8-0.2c-1.3,0.1-2.6,0.4-3.8,0.8c-2.5,0.7-5,1.7-7.4,2.8c-4.8,2.1-9.5,4.6-14.2,7c-4.7,2.5-9.3,5-14,7.4
						c-9.4,4.8-19,9.5-29.4,11.7c-2.6,0.5-5.2,0.9-7.9,0.9c-2.6,0-5.3-0.3-7.9-1.1l-0.9-0.3c-0.3-0.1-0.6-0.3-0.9-0.5
						c-0.6-0.3-1.1-0.7-1.7-1.1c-1-0.9-1.9-2-2.3-3.2c-0.5-1.3-0.5-2.7-0.3-4c0.3-1.3,0.7-2.6,1.4-3.8c1.4-2.3,3.4-4.2,5.7-5.6
						c0.6-0.4,1.2-0.7,1.8-1c0.6-0.3,1.2-0.6,1.9-0.8l0.9-0.4l1-0.3c0.6-0.2,1.3-0.4,2-0.5c2.6-0.6,5.4-0.9,8.1-0.8
						c1.4,0,2.7,0.2,4.1,0.3l2,0.4l1,0.2l1,0.2c5.3,1.3,10.2,3.4,15.1,5.3c4.9,2,9.8,3.8,14.7,5.7c2.4,0.9,4.9,1.8,7.4,2.6
						c2.5,0.8,5,1.5,7.5,2.1c5,1.3,10.1,2.2,15.3,2.4c5.2,0.2,10.4-0.1,15.4-1.3c2.5-0.6,4.9-1.5,6.9-2.9c1-0.7,1.8-1.6,2.2-2.6
						c0.4-1,0.4-2.2-0.1-3.3c-0.5-1.1-1.3-2-2.3-2.7c-1-0.8-2.1-1.4-3.3-1.9c-2.3-1-4.9-1.8-7.4-2.2c-5.1-0.9-10.4-0.6-15.5,0.5
						c-2.6,0.6-5.1,1.3-7.5,2.3c-2.4,1-4.8,2.2-7.2,3.3c-2.4,1.1-4.8,2.2-7.2,3.3c-2.4,1.2-4.7,2.4-6.8,3.9
						c-2.1,1.5-3.9,3.6-4.7,6.1c-0.9,2.5-1,5.2-1,7.8c0.1,5.3,1,10.5,1.8,15.7c-0.8-5.2-1.7-10.4-1.9-15.7c-0.1-2.6,0.1-5.3,0.9-7.8
						c0.8-2.6,2.6-4.7,4.7-6.3c2.1-1.6,4.5-2.9,6.8-4.1c2.4-1.2,4.7-2.3,7.1-3.5c2.4-1.1,4.7-2.4,7.2-3.4c2.4-1,5-1.9,7.6-2.5
						c5.2-1.2,10.6-1.6,15.9-0.8c2.6,0.4,5.3,1.1,7.7,2.2c1.2,0.5,2.5,1.2,3.6,2c1.1,0.8,2.1,1.9,2.8,3.2c0.6,1.3,0.8,2.9,0.3,4.4
						c-0.5,1.5-1.5,2.6-2.6,3.4c-2.3,1.7-4.8,2.7-7.4,3.5c-5.2,1.5-10.6,2.2-16,2.2c-5.4,0-10.8-0.7-16-1.9
						c-5.2-1.1-10.3-2.8-15.3-4.6c-5-1.8-9.9-3.9-14.7-6c-2.4-1.1-4.8-2.1-7.2-3.2c-1.2-0.5-2.4-1.1-3.6-1.5
						c-0.6-0.2-1.2-0.5-1.8-0.7l-1.8-0.6l-0.9-0.3l-0.9-0.2l-1.9-0.5c-1.3-0.2-2.5-0.5-3.8-0.6c-2.6-0.3-5.2-0.3-7.7,0.2
						c-2.6,0.4-5.1,1.2-7.3,2.5c-2.2,1.3-4.3,3-5.7,5.2c-0.7,1.1-1.2,2.3-1.5,3.6c-0.2,1.3-0.1,2.6,0.3,3.8c0.4,1.2,1.3,2.3,2.2,3.1
						c0.5,0.4,1,0.8,1.6,1.1c0.3,0.1,0.6,0.3,0.9,0.4l0.9,0.3c2.5,0.9,5.1,1.1,7.7,1c2.6,0,5.2-0.4,7.8-1c5.1-1.2,10-3.1,14.9-5.2
						c4.8-2.1,9.5-4.4,14.2-6.9c4.7-2.4,9.3-4.9,14-7.4c4.7-2.5,9.3-4.9,14.2-7.1c2.4-1.1,4.9-2.1,7.5-2.9c1.3-0.4,2.6-0.7,4-0.9
						c1.4-0.2,2.8-0.2,4.3,0.2c0.7,0.2,1.4,0.6,2.1,1.1c0.6,0.5,1.1,1.2,1.4,1.9c0.7,1.4,0.9,2.8,0.9,4.3c0.1,1.5-0.3,3.1-1.1,4.4
						c-0.8,1.3-1.9,2.3-3.2,3.1c-2.5,1.6-5.2,2.3-7.9,2.8c-2.7,0.5-5.4,0.6-8.1,0.6c-5.4-0.1-10.8-0.7-16-1.9
						c-5.2-1.2-10.4-2.8-15.3-4.9c-4.8-2.1-9.7-4-14.7-5.2c-2.5-0.5-5-1.1-7.5-1.2c-2.5-0.1-5,0.1-7.1,1c-1,0.5-1.9,1.1-2.4,1.9
						c-0.1,0.2-0.2,0.4-0.3,0.6c-0.1,0.2-0.1,0.5-0.2,0.7c-0.1,0.2,0,0.5-0.1,0.8c0,0.3,0,0.5,0,0.8c0.1,1,0.6,2,1.3,2.9
						c0.7,0.9,1.7,1.6,2.7,2.3c2,1.3,4.5,2.1,6.9,2.5c2.5,0.3,5.1,0.2,7.6-0.2c2.5-0.4,5-1.2,7.3-2.3c1.1-0.5,2.3-1.2,3.3-1.9
						c1.1-0.7,2.1-1.5,3.1-2.3c3.9-3.3,6.9-7.7,8.9-12.5c2-4.8,3-10,3-15.3L-244-90.4z"/>
				</g>
			</g>
			<g>
				<g class="st1">
					<path d="M89.5-55.9c0,0.4,0,0.7,0.1,0.8c0.1,0.1,0.3,0.3,0.7,0.2c0.8-0.1,1.7-0.6,2.3-1.3c0.7-0.7,1.1-1.6,1.1-2.5
						c0.1-1-0.3-1.9-0.9-2.7c-0.6-0.9-1.3-1.5-2.3-1.9c-0.9-0.4-2-0.5-3.1-0.5c-1.1,0-2.1,0.2-3,0.6c-0.9,0.4-1.8,1-2.5,1.8
						c-1.4,1.6-2.2,3.6-2.3,5.7c-0.1,2,0.6,4.1,1.8,5.7c1.2,1.6,3.1,2.6,5.1,3c2,0.4,4.1,0.3,6.1-0.3c2-0.5,3.9-1.4,5.4-2.7
						c1.5-1.3,2.8-2.9,3.8-4.7c2.1-3.5,2.8-7.9,1.9-11.9c-0.5-2-1.4-3.9-2.8-5.6c-1.4-1.6-3.1-2.9-5-3.8c-3.9-1.9-8.4-2.1-12.7-1.6
						c-4.3,0.5-8.4,2.2-12.1,4.5c-3.7,2.3-7,5.1-10.3,7.8C54.4-59.8,47.7-54,40.2-49.2c-3.8,2.4-7.7,4.5-11.9,6
						c-4.2,1.5-8.6,2.5-13.1,2.9c-4.4,0.4-9,0-13.3-1.3c-4.3-1.3-8.3-3.5-11.4-6.6c-0.1-0.1-0.1-0.2,0-0.3c0.1-0.1,0.2-0.1,0.3,0
						c3.4,2.7,7.4,4.6,11.5,5.6c4.2,0.9,8.5,1,12.7,0.5c4.2-0.5,8.4-1.6,12.3-3.2c4-1.6,7.7-3.6,11.3-6c3.6-2.4,7-4.9,10.4-7.7
						c3.4-2.7,6.6-5.6,10.2-8.2c3.6-2.6,7.3-5,11.4-6.8c4-1.9,8.3-3.3,12.6-3.7c4.3-0.4,8.9-0.2,13,1.4c4.1,1.6,7.6,5.2,9,9.6
						c1.4,4.4,0.8,9.3-1.3,13.4c-1.1,2.1-2.5,3.9-4.5,5.3c-1.9,1.4-4.1,2.3-6.3,2.8c-2.3,0.5-4.6,0.5-6.9,0
						c-2.3-0.5-4.4-1.8-5.8-3.8c-1.3-1.9-1.9-4.3-1.8-6.6c0.2-2.3,1.1-4.5,2.7-6.2c0.8-0.8,1.7-1.5,2.8-2c1.1-0.5,2.2-0.6,3.3-0.6
						c1.1,0,2.3,0.1,3.4,0.5c1.1,0.4,2.1,1.2,2.8,2.1c0.7,0.9,1.2,2.1,1.2,3.3c0,1.2-0.4,2.5-1.2,3.4c-0.8,1-1.7,1.8-3.1,2.1
						C90-53,89.1-53,88.3-53.6c-0.8-0.6-1-1.5-1.1-2.2l0-0.1c-0.1-0.6,0.3-1.2,1-1.3c0.6-0.1,1.2,0.3,1.3,1
						C89.5-56.1,89.5-56,89.5-55.9z"/>
				</g>
				<g class="st1">
					<path d="M67.2-46.5c0.3-0.9,0.7-1.6,1.3-2.3c0.6-0.6,1.4-1.1,2.3-1.2c0.8-0.1,1.7,0,2.5,0.2c0.8,0.2,1.6,0.6,2.2,1.2
						c1.1,1.3,1.5,3.1,1,4.7c-0.4,1.6-1.5,3-3,3.9c-1.4,0.9-3.1,1.1-4.8,1.1L67.5-39c-0.4-0.1-0.8-0.1-1.2-0.3
						c-0.8-0.2-1.6-0.6-2.3-1.1c-2.8-1.9-4.5-5.2-4.9-8.5c-0.4-3.4,0.5-6.8,2.3-9.6c1.8-2.8,4.3-5.1,7.1-6.8
						c5.5-3.5,11.8-5.4,18.1-6.7c-6.2,1.7-12.3,3.9-17.4,7.6c-2.5,1.9-4.8,4.1-6.5,6.7C61-55,60.1-52,60.3-48.9
						c0.2,3,1.7,6.1,4.1,7.9c1.2,0.9,2.7,1.4,4.3,1.4c1.5,0.1,3.1-0.1,4.5-0.9c1.4-0.7,2.4-2,2.8-3.5c0.4-1.5,0.2-3.2-0.9-4.3
						c-0.6-0.5-1.2-0.9-2-1c-0.8-0.2-1.5-0.2-2.3-0.1c-0.7,0.2-1.4,0.6-1.8,1.1c-0.4,0.6-0.8,1.3-0.9,2l0,0c0,0.3-0.3,0.5-0.6,0.4
						C67.3-45.9,67.1-46.1,67.2-46.5C67.2-46.4,67.2-46.5,67.2-46.5z"/>
				</g>
				<g class="st1">
					<path d="M6.3-70.2c0-0.4,0-0.7-0.1-0.8c-0.1-0.1-0.3-0.3-0.7-0.2c-0.8,0.1-1.7,0.6-2.3,1.3C2.5-69.2,2-68.3,2-67.3
						c-0.1,1,0.3,1.9,0.9,2.7c0.6,0.9,1.3,1.5,2.3,1.9c0.9,0.4,2,0.5,3.1,0.5c1.1,0,2.1-0.2,3-0.6c0.9-0.4,1.8-1,2.5-1.8
						c1.4-1.6,2.2-3.6,2.3-5.7c0.1-2-0.6-4.1-1.8-5.7c-1.2-1.6-3.1-2.6-5.1-3c-2-0.4-4.1-0.3-6.1,0.3c-2,0.5-3.9,1.4-5.4,2.7
						c-1.5,1.3-2.8,2.9-3.8,4.7C-8.3-67.9-9-63.5-8-59.4c0.5,2,1.4,3.9,2.8,5.6c1.4,1.6,3.1,2.9,5,3.8c3.9,1.9,8.4,2.1,12.7,1.6
						c4.3-0.5,8.4-2.2,12.1-4.5c3.7-2.3,7-5.1,10.3-7.8c6.6-5.6,13.3-11.4,20.8-16.2c3.8-2.4,7.7-4.5,11.9-6
						c4.2-1.5,8.6-2.5,13.1-2.9c4.4-0.4,9,0,13.3,1.3c4.3,1.3,8.3,3.5,11.4,6.6c0.1,0.1,0.1,0.2,0,0.3c-0.1,0.1-0.2,0.1-0.3,0
						c-3.4-2.7-7.4-4.6-11.5-5.6c-4.2-0.9-8.5-1-12.7-0.5c-4.2,0.5-8.4,1.6-12.3,3.2c-4,1.6-7.7,3.6-11.3,6c-3.6,2.4-7,4.9-10.4,7.7
						c-3.4,2.7-6.6,5.6-10.2,8.2c-3.6,2.6-7.3,5-11.4,6.8c-4,1.9-8.3,3.3-12.6,3.7c-4.3,0.4-8.9,0.2-13-1.4c-4.1-1.6-7.6-5.2-9-9.6
						c-1.4-4.4-0.8-9.3,1.3-13.4c1.1-2.1,2.5-3.9,4.5-5.3c1.9-1.4,4.1-2.3,6.3-2.8c2.3-0.5,4.6-0.5,6.9,0c2.3,0.5,4.4,1.8,5.8,3.8
						c1.3,1.9,1.9,4.3,1.8,6.6c-0.2,2.3-1.1,4.5-2.7,6.2c-0.8,0.8-1.7,1.5-2.8,2c-1.1,0.5-2.2,0.6-3.3,0.6c-1.1,0-2.3-0.1-3.4-0.5
						c-1.1-0.4-2.1-1.2-2.8-2.1c-0.7-0.9-1.2-2.1-1.2-3.3c0-1.2,0.4-2.5,1.2-3.4c0.8-1,1.7-1.8,3.1-2.1c0.7-0.2,1.6-0.2,2.4,0.4
						c0.8,0.6,1,1.5,1.1,2.2l0,0.1c0.1,0.6-0.3,1.2-1,1.3s-1.2-0.3-1.3-1C6.3-70,6.3-70.1,6.3-70.2z"/>
				</g>
				<g class="st1">
					<path d="M28.7-79.6c-0.3,0.9-0.7,1.6-1.3,2.3c-0.6,0.6-1.4,1.1-2.3,1.2c-0.8,0.1-1.7,0-2.5-0.2c-0.8-0.2-1.6-0.6-2.2-1.2
						c-1.1-1.3-1.5-3.1-1-4.7c0.4-1.6,1.5-3,3-3.9c1.4-0.9,3.1-1.1,4.8-1.1l1.2,0.1c0.4,0.1,0.8,0.1,1.2,0.3
						c0.8,0.2,1.6,0.6,2.3,1.1c2.8,1.9,4.5,5.2,4.9,8.5c0.4,3.4-0.5,6.8-2.3,9.6c-1.8,2.8-4.3,5.1-7.1,6.8
						c-5.5,3.5-11.8,5.4-18.1,6.7c6.2-1.7,12.3-3.9,17.4-7.6c2.5-1.9,4.8-4.1,6.5-6.7c1.7-2.6,2.6-5.6,2.4-8.7
						c-0.2-3-1.7-6.1-4.1-7.9c-1.2-0.9-2.7-1.4-4.3-1.4c-1.5-0.1-3.1,0.1-4.5,0.9c-1.4,0.7-2.4,2-2.8,3.5c-0.4,1.5-0.2,3.2,0.9,4.3
						c0.6,0.5,1.2,0.9,2,1c0.8,0.2,1.5,0.2,2.3,0.1c0.7-0.2,1.4-0.6,1.8-1.1c0.4-0.6,0.8-1.3,0.9-2l0,0c0-0.3,0.3-0.5,0.6-0.4
						C28.5-80.3,28.7-80,28.7-79.6C28.7-79.7,28.7-79.7,28.7-79.6z"/>
				</g>
			</g>
			<g>
				<g class="st1">
					<path d="M-130.6-260.6c1-1.1,2-1.8,3.1-2.5c1.1-0.6,2.3-1.1,3.6-1.3c2.5-0.5,5-0.2,7.3,0.5c4.6,1.6,8.6,4.4,12.6,7.2
						c7.9,5.5,15.8,11.3,24.6,15.2c4.4,2,9,3.5,13.8,4.1c2.4,0.3,4.8,0.4,7.2,0.2c2.4-0.2,4.8-0.6,6.9-1.5c0.6-0.2,1-0.5,1.6-0.8
						c0.5-0.3,1-0.6,1.4-1c0.8-0.8,1.5-1.7,1.9-2.8c0.7-2.2,0.1-4.6-1.2-6.4c-1.3-1.9-3.1-3.5-5.1-4.7c-2-1.2-4.2-2.1-6.5-2.6
						c-4.6-1.1-9.3-1-14-0.1c-4.7,0.9-9.2,2.3-13.7,4c-9,3.3-17.7,7.5-26.6,11.3c-4.5,1.9-9,3.7-13.7,5.1c-4.6,1.5-9.5,2.6-14.4,3
						c-2.4,0.3-5,0.1-7.4-0.5c-2.4-0.6-4.7-1.8-6.6-3.5c-1.8-1.7-3.1-4-3.6-6.5c-0.3-1.2-0.3-2.5-0.2-3.7c0.1-1.2,0.4-2.4,0.9-3.6
						c0.9-2.3,2.7-4.2,4.8-5.5c2.1-1.3,4.5-1.9,7-2.1c2.4-0.2,4.9,0.1,7.2,0.7c2.4,0.5,4.7,1.4,6.9,2.3c8.9,3.9,16.7,9.7,24.7,15.1
						c4,2.7,8,5.4,12.2,7.7c4.2,2.3,8.7,4.3,13.4,5.2c2.3,0.4,4.7,0.6,7.1,0.3c2.4-0.2,4.7-0.8,6.8-1.9c0.5-0.2,1-0.6,1.5-0.9
						c0.4-0.4,0.9-0.7,1.3-1.1c0.8-0.8,1.5-1.8,1.9-2.8c0.9-2.1,1-4.6,0.1-6.7c-0.8-2.1-2.4-3.9-4.4-5c-1-0.6-2.1-1-3.2-1.2
						c-1.1-0.3-2.3-0.4-3.4-0.4c-4.7,0.2-9.2,1.8-13.5,3.9c-8.5,4.3-16.4,10-25.4,14c-4.5,2-9.3,3.3-14.2,3.7
						c-4.9,0.4-9.9-0.3-14.2-2.7c-1-0.6-2.1-1.3-2.9-2.2c-0.9-0.8-1.7-1.7-2.3-2.8c-1.3-2-1.9-4.5-1.7-7c0.2-2.4,1.5-4.7,3.5-6.2
						c1.9-1.5,4.4-2.2,6.9-2.4l0,0c1-0.2,2.1-0.2,3.1,0c1,0.1,2.1,0.5,3,1.1c0.9,0.6,1.7,1.4,2.2,2.3c0.3,0.5,0.5,1,0.7,1.5
						c0.2,0.5,0.3,1,0.4,1.5c0.1,0.4-0.1,0.9-0.6,1c-0.4,0.1-0.9-0.1-1-0.6c0,0,0,0,0-0.1l0-0.1c-0.1-0.4-0.1-0.9-0.2-1.4
						c-0.1-0.4-0.2-0.9-0.5-1.3c-0.4-0.8-1-1.5-1.7-2.1c-1.5-1.1-3.5-1.5-5.4-1.3l0,0c-2.3,0.1-4.8,0.6-6.7,2c-2,1.3-3.3,3.6-3.5,6
						c-0.3,2.4,0.3,4.8,1.6,6.9c1.2,2.1,3.1,3.7,5.2,4.9c2.1,1.1,4.5,1.8,6.9,2.1c1.2,0.1,2.4,0.2,3.6,0.1c1.2,0,2.4-0.2,3.6-0.3
						c4.7-0.7,9.2-2.4,13.5-4.4c4.3-2,8.5-4.3,12.7-6.8c4.2-2.4,8.3-5,12.7-7.1c4.4-2.1,9.2-3.8,14.2-3.8c2.5,0.1,5.1,0.6,7.2,2
						c2.2,1.3,3.9,3.4,4.8,5.7c0.9,2.4,0.8,5.1-0.3,7.4c-0.5,1.2-1.3,2.2-2.2,3.1c-0.4,0.5-0.9,0.8-1.4,1.2c-0.5,0.3-1,0.7-1.6,1
						c-2.2,1.1-4.7,1.7-7.1,1.9c-2.4,0.2-4.9,0.1-7.3-0.4c-4.8-1-9.3-3-13.5-5.4c-4.2-2.4-8.2-5.1-12.2-7.9c-4-2.8-7.9-5.6-12-8.2
						c-4.1-2.6-8.2-5.1-12.7-7c-2.2-0.9-4.5-1.7-6.9-2.2c-2.3-0.5-4.8-0.8-7.1-0.6c-2.4,0.2-4.7,0.8-6.8,2.1c-2,1.3-3.6,3.2-4.5,5.4
						c-0.4,1.1-0.7,2.3-0.8,3.4c-0.1,0.6,0,1.2,0,1.8c0.1,0.6,0.1,1.2,0.3,1.7c0.5,2.3,1.8,4.4,3.5,5.9c1.8,1.5,3.9,2.5,6.2,3
						c2.3,0.5,4.6,0.5,7,0.1c4.7-0.5,9.3-1.8,13.8-3.4c4.5-1.6,8.9-3.5,13.3-5.5c8.8-3.9,17.6-8,26.8-11.3c4.6-1.6,9.4-2.9,14.2-3.7
						c4.8-0.8,10-0.7,14.8,0.6c2.4,0.7,4.7,1.7,6.8,3c2.1,1.4,4,3.1,5.3,5.2c1.3,2.1,2,4.9,1.1,7.4c-0.4,1.2-1.3,2.3-2.2,3.1
						c-0.5,0.4-1,0.7-1.5,1.1c-0.6,0.3-1.1,0.6-1.7,0.8c-2.3,0.9-4.8,1.3-7.2,1.4c-2.4,0.1-4.9,0-7.3-0.3c-4.8-0.7-9.4-2.3-13.8-4.4
						c-8.8-4.1-16.7-9.8-24.5-15.4c-2-1.4-4-2.8-6-4.1c-1-0.6-2.1-1.3-3.2-1.7c-1.1-0.6-2.2-0.9-3.4-1.3c-0.6-0.1-1.2-0.3-1.8-0.4
						c-0.6,0-1.2-0.1-1.8-0.1c-1.2,0.1-2.4,0.2-3.5,0.6c-1.1,0.4-2.1,1-3,1.7c-0.4,0.4-0.8,0.8-1.2,1.2c-0.3,0.4-0.7,0.9-0.8,1.3
						c-0.2,0.6-0.9,0.9-1.5,0.7c-0.6-0.2-0.9-0.9-0.7-1.5C-130.8-260.4-130.7-260.5-130.6-260.6L-130.6-260.6z"/>
				</g>
			</g>
			<g>
				<g class="st1">
					<path d="M93.3-259.1c-1-0.7-1.7-1.4-2.5-2c-0.8-0.6-1.7-1.1-2.7-1.4c-2-0.7-4.3-0.7-6.5-0.6c-2.2,0.2-4.4,0.6-6.6,1.3
						c-2.2,0.6-4.4,1.3-6.6,2.1c-8.7,3.1-16.9,7.3-24.4,12.8c-3.8,2.6-6.8,6.3-8.8,10.4c-1,2.1-1.9,4.2-2.4,6.4
						c-0.5,2.2-0.6,4.6,0.2,6.7c0.4,1.1,1,2,1.7,2.8c0.8,0.8,1.7,1.3,2.7,1.5c1,0.2,2,0,2.8-0.6c0.8-0.5,1.5-1.3,2-2.2
						c1.9-3.8,1.7-8.4-0.2-12.3c-0.9-2-2.2-3.8-3.6-5.5c-1.5-1.6-3.4-2.9-5.3-4.1c-3.9-2.3-8.4-3.9-13-4.6c-2.3-0.4-4.6-0.5-6.9-0.5
						c-2.3,0-4.7,0.1-6.9,0.7c-1.1,0.3-2.2,0.7-3.1,1.3c-0.9,0.5-1.9,1.3-2,2.1c-0.1,0.7,0.5,1.5,1.4,2c0.9,0.5,1.9,0.9,2.9,1.2
						c0.5,0.1,1,0.2,1.6,0.2l1.6,0.1c1.1,0,2.2-0.1,3.3-0.2c2.2-0.3,4.3-0.8,6.4-1.6c4.2-1.5,8.2-3.6,12.1-6.1
						c7.7-5,14.4-11.3,20.8-18c0.1-0.1,0.2-0.1,0.3,0c0.1,0.1,0.1,0.2,0,0.3c-5.5,7.5-12,14.4-19.7,19.8c-3.9,2.7-8.1,5-12.6,6.6
						c-4.5,1.5-9.5,2.3-14.4,0.9c-1.2-0.4-2.3-1-3.3-1.8c-0.5-0.4-1-0.9-1.3-1.5c-0.4-0.6-0.6-1.5-0.3-2.2c0.2-0.8,0.7-1.3,1.2-1.7
						c0.5-0.4,1.1-0.7,1.6-0.9c1.1-0.5,2.2-0.8,3.4-1c2.3-0.4,4.7-0.3,7-0.3c2.3,0.1,4.6,0.3,6.9,0.6c4.6,0.7,9.1,1.7,13.4,3.7
						c0.5,0.2,1.1,0.5,1.6,0.8c0.5,0.3,1,0.6,1.6,0.9c1,0.6,2,1.3,2.9,2.1c1.8,1.6,3.3,3.6,4.5,5.7c1.1,2.2,1.9,4.6,1.9,7.2
						c0,2.5-0.7,5.1-2.1,7.2c-0.7,1.1-1.7,2-2.9,2.6c-1.2,0.6-2.6,0.7-3.9,0.3c-1.2-0.4-2.3-1.2-3.1-2.1c-0.8-0.9-1.3-2-1.7-3.2
						c-0.7-2.3-0.6-4.7,0-7c0.6-2.3,1.4-4.5,2.5-6.5c1-2.1,2.3-4.1,3.7-5.9c0.7-0.9,1.5-1.8,2.4-2.6c0.9-0.8,1.8-1.5,2.7-2.3
						c7.3-5.8,15.5-10.4,24.2-13.8c2.2-0.8,4.4-1.6,6.6-2.3c2.3-0.7,4.6-1.2,7-1.5c2.4-0.2,4.9-0.2,7.3,0.6c1.2,0.4,2.4,1,3.4,1.8
						c1,0.8,1.8,2.1,1.6,3.5c0,0.1-0.1,0.2-0.3,0.2C93.4-259,93.4-259,93.3-259.1L93.3-259.1z"/>
				</g>
				<g class="st1">
					<path d="M9-259.2c-0.2-1.4,0.6-2.7,1.6-3.5c1-0.8,2.2-1.4,3.4-1.8c2.4-0.8,4.9-0.8,7.3-0.6c2.4,0.2,4.7,0.8,7,1.5
						c2.3,0.6,4.5,1.4,6.6,2.3c8.7,3.4,16.9,8,24.2,13.8c0.9,0.7,1.8,1.5,2.7,2.3c0.9,0.8,1.6,1.7,2.4,2.6c1.5,1.8,2.7,3.8,3.7,5.9
						c1,2.1,1.9,4.3,2.5,6.5c0.5,2.3,0.6,4.7,0,7c-0.3,1.1-0.9,2.2-1.7,3.2c-0.8,0.9-1.8,1.7-3.1,2.1c-1.2,0.4-2.7,0.3-3.9-0.3
						c-1.2-0.6-2.2-1.5-2.9-2.6c-1.4-2.1-2.1-4.6-2.1-7.2c0-2.5,0.8-5,1.9-7.2c1.1-2.2,2.7-4.1,4.5-5.7c0.9-0.8,1.9-1.5,2.9-2.1
						c0.5-0.3,1-0.6,1.6-0.9c0.5-0.3,1.1-0.5,1.6-0.8c4.3-1.9,8.9-3,13.4-3.7c2.3-0.3,4.6-0.5,6.9-0.6c2.3-0.1,4.6-0.1,7,0.3
						c1.2,0.2,2.3,0.5,3.4,1c0.6,0.2,1.1,0.5,1.6,0.9c0.5,0.4,1,0.9,1.2,1.7c0.3,0.8,0,1.6-0.3,2.2c-0.4,0.6-0.8,1.1-1.3,1.5
						c-1,0.8-2.2,1.4-3.3,1.8c-4.9,1.4-9.9,0.6-14.4-0.9c-4.5-1.6-8.7-3.9-12.6-6.6c-7.8-5.4-14.3-12.3-19.7-19.8
						c-0.1-0.1-0.1-0.2,0-0.3c0.1-0.1,0.2-0.1,0.3,0c6.5,6.6,13.2,13,20.8,18c3.8,2.5,7.8,4.7,12.1,6.1c2.1,0.7,4.3,1.3,6.4,1.6
						c1.1,0.2,2.2,0.2,3.3,0.2l1.6-0.1c0.5,0,1-0.1,1.6-0.2c1-0.2,2-0.6,2.9-1.2c0.9-0.5,1.6-1.3,1.4-2c-0.1-0.8-1.1-1.6-2-2.1
						c-1-0.5-2-1-3.1-1.3c-2.2-0.6-4.6-0.7-6.9-0.7c-2.3,0-4.6,0.2-6.9,0.5c-4.6,0.7-9,2.2-13,4.6c-2,1.2-3.8,2.5-5.3,4.1
						c-1.5,1.6-2.7,3.5-3.6,5.5c-1.9,3.9-2.1,8.5-0.2,12.3c0.5,0.9,1.1,1.7,2,2.2c0.8,0.5,1.8,0.7,2.8,0.6c1-0.2,2-0.7,2.7-1.5
						c0.8-0.8,1.3-1.8,1.7-2.8c0.7-2.1,0.7-4.5,0.2-6.7c-0.5-2.2-1.4-4.4-2.4-6.4c-2.1-4.1-5-7.8-8.8-10.4
						c-7.4-5.5-15.7-9.8-24.4-12.8c-2.2-0.8-4.4-1.5-6.6-2.1c-2.2-0.6-4.4-1.1-6.6-1.3c-2.2-0.2-4.5-0.1-6.5,0.6
						c-1,0.3-1.9,0.8-2.7,1.4c-0.8,0.6-1.5,1.2-2.5,2l0,0c-0.1,0.1-0.3,0.1-0.3,0C9-259.2,9-259.2,9-259.2z"/>
				</g>
				<g class="st1">
					<path d="M-9-240.7c0.1,0.7,0.3,1.5,0.6,2.3c0.3,0.7,0.7,1.5,1.3,2l0.4,0.4c0.2,0.1,0.3,0.2,0.5,0.4c0.3,0.3,0.7,0.4,1,0.6
						c0.4,0.2,0.8,0.3,1.2,0.4c0.4,0.1,0.8,0.1,1.3,0.2c1.7,0.1,3.5-0.2,5.2-0.8c0.4-0.1,0.8-0.3,1.2-0.5c0.4-0.2,0.8-0.3,1.2-0.6
						c0.8-0.5,1.6-0.9,2.3-1.5c3-2.1,5.3-5,7.5-7.8c1.1-1.4,2.3-2.9,3.5-4.2c1.2-1.4,2.6-2.6,4.2-3.6c1.6-1,3.5-1.5,5.3-1.8
						c1.9-0.2,3.8,0.1,5.6,0.5c3.6,0.9,7,2.3,10.3,4c3.3,1.7,6.4,3.6,9.4,5.7c1.5,1,3,2.1,4.4,3.3c1.4,1.2,2.8,2.3,4.2,3.6
						c2.7,2.5,5.2,5.1,7.6,8c1.1,1.4,2.3,2.9,3.3,4.4c1,1.5,1.9,3.1,2.7,4.8c0.7,1.7,1.4,3.4,1.2,5.3c-0.1,0.9-0.5,1.9-1.3,2.4
						c-0.8,0.5-1.8,0.6-2.7,0.6c-0.9-0.1-1.9-0.4-2.6-1c-0.8-0.6-1.2-1.6-1-2.6c0.2-1,1-1.7,1.7-2.2c0.8-0.5,1.6-0.9,2.5-1.2
						c3.4-1.5,6.9-2.6,10.3-3.7c1.7-0.6,3.4-1.2,5.1-1.9c1.6-0.7,3.4-1.4,4.5-2.7c0.6-0.7,0.9-1.5,0.9-2.3c-0.1-0.8-0.6-1.6-1.2-2.1
						c-1.3-1.1-3.2-1.5-4.8-1.3c-0.8,0.1-1.6,0.3-2.3,0.8c-0.3,0.2-0.6,0.5-0.9,0.8c-0.3,0.3-0.5,0.6-0.6,0.9
						c-0.7,1.2,1.1,1.5,2.8,1.1l0,0c0.1,0,0.3,0.1,0.3,0.2c0,0.1,0,0.1,0,0.2c-0.6,0.9-1.8,1.3-2.9,1c-0.6-0.1-1.2-0.5-1.5-1.2
						c-0.3-0.7-0.1-1.4,0.1-1.9c0.2-0.5,0.6-0.9,0.9-1.3c0.3-0.4,0.8-0.7,1.2-0.9c0.9-0.5,1.9-0.7,2.9-0.8c2,0,3.9,0.6,5.4,1.9
						c0.7,0.7,1.3,1.6,1.3,2.6c0,1-0.4,1.9-1,2.7c-0.6,0.8-1.4,1.3-2.2,1.7c-0.8,0.4-1.6,0.8-2.5,1.2c-1.7,0.7-3.4,1.4-5.1,2
						c-3.4,1.2-7,2.2-10.3,3.6c-0.8,0.4-1.7,0.7-2.4,1.1c-0.7,0.5-1.4,1.1-1.6,1.9c-0.2,0.8,0.2,1.7,0.8,2.3c0.7,0.6,1.5,0.9,2.4,1
						c0.9,0.1,1.8,0,2.6-0.5c0.8-0.4,1.2-1.3,1.2-2.2c0.1-1.8-0.5-3.6-1.2-5.2c-1.5-3.3-3.7-6.3-6.1-9c-2.4-2.7-5.1-5.2-7.9-7.5
						c-5.6-4.6-11.5-8.8-18-12.1c-3.2-1.6-6.5-3.1-10-4c-1.7-0.4-3.5-0.7-5.2-0.6c-0.4,0-0.9,0.1-1.3,0.2c-0.4,0.1-0.9,0.1-1.3,0.3
						l-1.3,0.4l-1.2,0.5c-1.6,0.8-3.1,1.8-4.4,3.1c-1.3,1.2-2.5,2.6-3.7,4c-1.1,1.4-2.3,2.9-3.5,4.2c-0.6,0.7-1.2,1.4-1.9,2l-1,1
						l-1.1,0.9c-0.7,0.6-1.5,1.1-2.2,1.6c-0.8,0.4-1.6,0.9-2.5,1.3c-1.7,0.7-3.5,1.3-5.5,1.4c-1.9,0.1-4-0.6-5.6-1.9
						c-0.8-0.7-1.5-1.4-2-2.3c-0.6-0.9-1-1.7-1.4-2.8c-0.2-0.7,0.2-1.5,0.9-1.7c0.7-0.2,1.5,0.2,1.7,0.9
						C-9.1-240.9-9.1-240.9-9-240.7L-9-240.7z"/>
				</g>
				<g class="st1">
					<path d="M114.2-240.2c-0.3,1.1-0.8,1.9-1.4,2.8c-0.5,0.9-1.2,1.6-2,2.3c-1.6,1.3-3.6,2-5.6,1.9c-3.9-0.3-7.3-2-10.2-4.3
						c-0.4-0.3-0.7-0.6-1.1-0.9l-1-1c-0.7-0.6-1.3-1.3-1.9-2c-1.2-1.4-2.3-2.8-3.5-4.3c-1.2-1.4-2.3-2.8-3.7-4
						c-0.6-0.6-1.4-1.2-2.1-1.7c-0.4-0.3-0.8-0.5-1.1-0.7l-0.6-0.3l-0.6-0.3c-1.6-0.8-3.4-1.1-5.1-1.3c-1.7-0.1-3.5,0.2-5.3,0.6
						c-3.5,0.9-6.8,2.4-10,4.1c-6.5,3.3-12.4,7.5-18,12.2c-2.8,2.3-5.4,4.8-7.9,7.6c-2.4,2.7-4.6,5.7-6.1,9.1
						c-0.2,0.4-0.4,0.8-0.5,1.3c-0.2,0.4-0.3,0.9-0.4,1.3c-0.2,0.9-0.3,1.8-0.2,2.7c0.1,0.9,0.7,1.7,1.5,2c0.8,0.4,1.7,0.3,2.6,0.2
						c0.9-0.2,1.7-0.6,2.4-1.1c0.7-0.6,1.1-1.4,0.8-2.2c-0.3-0.8-1.1-1.3-1.9-1.7c-0.8-0.4-1.6-0.8-2.5-1.1
						c-3.4-1.4-6.9-2.2-10.4-3.4c-3.5-1.2-7-2.6-9.7-5.2c-0.3-0.4-0.6-0.8-0.7-1.3c-0.1-0.2-0.2-0.4-0.2-0.7L8-230.5
						c0-1,0.5-2,1.2-2.6c0.7-0.7,1.7-1.1,2.6-1.3c0.9-0.3,1.9-0.4,2.9-0.3c1,0,2,0.2,2.9,0.7c0.5,0.2,0.9,0.6,1.3,0.9
						c0.3,0.4,0.7,0.8,0.9,1.3c0.3,0.5,0.4,1.2,0.1,1.9c-0.3,0.7-0.9,1.1-1.5,1.2c-1.2,0.3-2.3-0.2-2.9-1c-0.1-0.1,0-0.3,0.1-0.3
						c0.1,0,0.1,0,0.2,0l0,0c1.7,0.3,3.5,0,2.8-1.2c-0.7-1.4-2.2-2.2-3.9-2.4c-0.8-0.1-1.7-0.1-2.6,0.1c-0.9,0.1-1.7,0.5-2.3,1
						c-0.7,0.5-1.1,1.3-1.1,2.1l0.1,0.6c0,0.2,0.1,0.4,0.2,0.6c0.1,0.4,0.3,0.8,0.6,1.1c0.6,0.7,1.3,1.2,2.1,1.7
						c0.8,0.5,1.6,0.9,2.4,1.3c1.6,0.8,3.3,1.4,5.1,2c3.5,1.1,7,2,10.4,3.5c0.8,0.4,1.7,0.8,2.5,1.2c0.8,0.5,1.6,1,2,2
						c0.2,0.5,0.1,1,0,1.5c-0.2,0.5-0.5,0.8-0.9,1.1c-0.7,0.6-1.6,1-2.5,1.2c-0.9,0.2-1.9,0.2-2.8-0.2c-0.9-0.4-1.5-1.3-1.6-2.2
						c-0.2-0.9,0-1.9,0.2-2.8c0.1-0.5,0.2-0.9,0.4-1.3c0.1-0.4,0.3-0.9,0.5-1.3c0.8-1.7,1.6-3.3,2.6-4.8c1-1.5,2.1-3,3.2-4.4
						c2.3-2.9,4.8-5.5,7.6-8c1.4-1.2,2.8-2.4,4.2-3.6c1.5-1.1,2.9-2.2,4.4-3.3c3-2.1,6.2-4,9.4-5.8c3.3-1.7,6.7-3.1,10.3-4
						c1.8-0.4,3.7-0.7,5.6-0.6c1.9,0.2,3.8,0.7,5.4,1.7c1.6,0.9,3,2.2,4.3,3.5c1.2,1.4,2.4,2.8,3.5,4.2c2.3,2.8,4.6,5.7,7.6,7.9
						c0.7,0.6,1.5,1,2.3,1.5c0.4,0.2,0.8,0.4,1.2,0.6c0.4,0.2,0.8,0.4,1.2,0.5c1.7,0.6,3.5,1,5.2,0.8c0.4-0.1,0.9-0.1,1.3-0.2
						c0.4-0.1,0.8-0.2,1.2-0.4c0.4-0.2,0.7-0.4,1-0.6l0.5-0.4l0.4-0.4c0.6-0.6,1-1.3,1.3-2c0.3-0.7,0.5-1.6,0.6-2.3l0,0
						c0.1-0.8,0.8-1.3,1.5-1.2c0.8,0.1,1.3,0.8,1.2,1.5C114.3-240.4,114.2-240.3,114.2-240.2z"/>
				</g>
			</g>
			<g>
				<g class="st1">
					<path d="M-82.3-47.5c-1.4,0.1-2.8-0.1-4.2-0.4c-1.4-0.3-2.7-0.7-4-1.1c-2.6-0.9-5.1-2.1-7.5-3.4c-2.4-1.3-4.8-2.8-7-4.4
						c-2.2-1.6-4.4-3.3-6.6-4.9l-6.4-5.1c-2.1-1.7-4.3-3.4-6.5-4.9c-2.2-1.5-4.5-3-6.9-3.9c-2.4-1-5.1-1.3-7.3-0.2
						c-0.5,0.3-1,0.6-1.2,1c-0.2,0.4-0.1,0.8,0.2,1.3c0.6,0.9,1.9,1.5,3.1,1.8c2.5,0.7,5.2,0.6,7.9,0.2c2.7-0.4,5.3-1.1,7.8-2.1
						c2.5-1,5-2.1,7.5-3.1c2.5-1.1,5-2.2,7.3-3.6c2.3-1.4,4.7-2.8,6.5-4.8c0.9-1,1.7-2.1,2.3-3.3c0.6-1.2,1-2.6,0.7-3.8
						c-0.3-1.3-1.4-2.2-2.6-2.6c-1.3-0.4-2.6-0.5-4-0.5c-1.4,0-2.7,0.2-3.8,0.8c-1.2,0.5-2.2,1.4-2.6,2.6c-0.5,1.1-0.4,2.4,0.2,3.5
						c0.5,1.1,1.5,2,2.4,3c1,0.9,2,1.8,3.1,2.6c1.1,0.8,2.2,1.5,3.3,2.2c2.3,1.4,4.7,2.6,7.2,3.7C-88.6-75-83.3-73.5-78-73
						c2.6,0.2,5.4,0.2,7.9-0.5c1.2-0.3,2.5-0.8,3.1-1.6c0.3-0.4,0.3-0.6,0-0.9c-0.3-0.3-0.8-0.6-1.4-0.9c-1.2-0.5-2.4-0.7-3.6-0.5
						c-1.2,0.1-2.5,0.5-3.7,1c-2.4,1-4.7,2.5-6.9,4.1c-4.4,3.2-8.5,6.8-12.8,10.2c-2.1,1.7-4.3,3.4-6.5,5c-2.2,1.6-4.6,3-7,4.4
						c-2.4,1.3-4.9,2.5-7.5,3.5c-1.3,0.5-2.6,0.9-3.9,1.2c-1.3,0.3-2.7,0.6-4.1,0.5c-0.1,0-0.2-0.1-0.2-0.2c0-0.1,0.1-0.2,0.2-0.2
						l0,0c1.3,0,2.7-0.2,4-0.6c1.3-0.3,2.6-0.8,3.8-1.3c2.5-1,4.9-2.3,7.3-3.6c2.3-1.4,4.6-2.9,6.8-4.5c2.2-1.6,4.3-3.3,6.4-5.1
						c4.2-3.5,8.3-7.1,12.7-10.4c2.2-1.6,4.5-3.2,7.1-4.4c1.3-0.6,2.7-1,4.1-1.2c0.7-0.1,1.5-0.1,2.2,0c0.8,0.1,1.4,0.3,2.1,0.6
						c0.7,0.3,1.4,0.6,2,1.4c0.3,0.4,0.5,0.9,0.5,1.4c0,0.6-0.2,1-0.5,1.4c-0.6,0.7-1.2,1.1-1.9,1.5c-0.7,0.3-1.4,0.6-2.1,0.8
						c-2.8,0.7-5.6,0.8-8.4,0.6c-5.6-0.5-10.9-2-16.1-4.1c-2.6-1.1-5-2.3-7.4-3.8c-2.4-1.5-4.6-3.2-6.5-5.2c-0.5-0.5-0.9-1-1.4-1.6
						c-0.4-0.6-0.8-1.2-1.1-1.9c-0.6-1.4-0.7-3,0-4.4c0.7-1.4,1.9-2.3,3.2-2.9c1.3-0.6,2.8-0.7,4.2-0.6c1.4,0,2.8,0.2,4.1,0.6
						c0.7,0.3,1.3,0.6,1.8,1.1c0.5,0.5,0.9,1.2,1,1.9c0.3,1.4-0.1,2.8-0.7,4.1c-0.6,1.3-1.4,2.4-2.3,3.4c-0.9,1-2,1.9-3.1,2.7
						c-1.1,0.8-2.3,1.5-3.5,2.2c-2.4,1.4-4.9,2.5-7.3,3.7c-2.5,1.1-4.9,2.3-7.5,3.4c-2.5,1-5.2,1.9-7.9,2.4c-2.7,0.5-5.6,0.6-8.4,0
						c-1.4-0.4-2.8-0.9-3.9-2.2c-0.2-0.3-0.4-0.8-0.5-1.2c-0.1-0.5,0-1,0.2-1.4c0.4-0.8,1.1-1.4,1.8-1.7c0.7-0.4,1.4-0.6,2.1-0.8
						c0.7-0.2,1.5-0.2,2.2-0.2c1.5,0.1,2.9,0.4,4.2,0.9c2.7,1,5,2.5,7.3,4c2.3,1.6,4.5,3.2,6.6,4.9l6.4,5.2
						c4.2,3.4,8.6,6.7,13.2,9.5c2.3,1.4,4.7,2.6,7.2,3.7c1.2,0.5,2.5,1,3.8,1.3c1.3,0.3,2.6,0.7,3.9,0.7l0,0c0.1,0,0.2,0.1,0.2,0.2
						C-82.1-47.6-82.2-47.5-82.3-47.5z"/>
				</g>
				<g class="st1">
					<path d="M-78.3-69c0.8,0.6,1.8,1.1,2.7,1.5c1,0.4,2,0.7,3,0.9c2,0.4,4.1,0.6,6.2,0.6c4.2-0.1,8.4-0.8,12-2.8
						c1.8-1,3.4-2.2,4.7-3.8c1.3-1.5,2.3-3.3,2.4-5.2c0.2-1.9-0.6-3.7-2-5c-1.4-1.3-3.2-2.3-5.2-3c-3.9-1.4-8.1-1.4-12.3-0.7
						c-4.1,0.7-8.2,2-12.1,3.7c-7.8,3.4-15.1,7.9-22.1,12.7c-3.5,2.4-7.1,4.9-10.7,7.1c-3.7,2.2-7.5,4.3-11.5,5.7
						c-2,0.7-4.2,1.3-6.4,1.1c-1.1-0.1-2.2-0.4-3.1-1c-0.9-0.6-1.6-1.5-2.1-2.5c-0.2-0.5-0.4-1.2-0.1-1.7c0.3-0.5,0.9-0.8,1.4-0.9
						c1.1-0.2,2.2-0.2,3.3-0.1c2.1,0.2,4.2,0.8,6.3,1.5c4.1,1.4,7.9,3.4,11.4,6c3.4,2.6,6.3,5.8,8.8,9.3c1.2,1.8,2.3,3.6,3.3,5.5
						c1,1.9,1.8,3.9,2.3,6.1c0.5,2.1,0.7,4.4-0.1,6.5c-0.4,1.1-1.1,2-2,2.7c-0.9,0.7-2,1.2-3,1.4c0,0-0.1,0-0.1,0l0,0l-0.2,0
						c0,0-0.1,0-0.1,0l0,0c-1.1-0.2-2.2-0.7-3.1-1.4c-0.9-0.7-1.6-1.7-2.1-2.7c-0.8-2.2-0.7-4.5-0.2-6.6c0.9-4.3,3-8.2,5.4-11.8
						c2.5-3.6,5.3-6.9,8.9-9.6c3.5-2.6,7.6-4.4,11.7-5.7c2.1-0.6,4.2-1.2,6.3-1.5c1.1-0.1,2.2-0.2,3.3,0.1c0.5,0.1,1.2,0.4,1.6,1.1
						c0.3,0.7,0.1,1.4-0.2,1.9c-0.5,1-1.3,1.9-2.3,2.6c-1,0.6-2.1,1-3.2,1c-2.3,0.1-4.5-0.4-6.5-1.1c-4.1-1.4-7.9-3.5-11.7-5.7
						c-3.7-2.2-7.3-4.6-10.8-7.1c-3.5-2.4-7.1-4.8-10.8-6.9c-3.7-2.1-7.4-4.2-11.3-5.9c-3.9-1.7-7.9-3.1-12-3.8
						c-4.1-0.7-8.4-0.7-12.3,0.6c-1.9,0.7-3.8,1.6-5.2,3c-1.4,1.4-2.2,3.3-2,5.3c0.2,2,1.1,3.9,2.5,5.5c1.3,1.6,3,2.9,4.8,4
						c3.7,2.1,8,2.8,12.2,2.9c2.1,0,4.3-0.2,6.3-0.7c2-0.5,4.1-1.4,5.7-2.7l0,0c0.1-0.1,0.2-0.1,0.3,0c0.1,0.1,0.1,0.2,0,0.3
						c-0.9,0.7-1.8,1.2-2.8,1.7c-1,0.4-2,0.8-3.1,1.1c-2.1,0.6-4.3,0.8-6.4,0.8c-2.2,0-4.3-0.2-6.5-0.5c-2.1-0.4-4.2-1.1-6.2-2.1
						c-1.9-1-3.7-2.4-5.2-4.1c-1.4-1.7-2.6-3.7-2.9-6c-0.1-1.1,0-2.3,0.4-3.4c0.4-1.1,1-2.1,1.8-2.9c0.8-0.8,1.7-1.5,2.7-2.1
						c1-0.6,2-1,3-1.4c2.1-0.8,4.3-1.2,6.5-1.3c2.2-0.1,4.4,0,6.6,0.3c4.4,0.6,8.5,2.1,12.5,3.8c8,3.4,15.3,8.1,22.3,13.1
						c3.5,2.5,6.9,5,10.5,7.3c3.6,2.3,7.3,4.5,11.2,6c2,0.7,4,1.3,6.1,1.2c1-0.1,2-0.3,2.8-0.8c0.8-0.5,1.5-1.3,2-2.2
						c0.2-0.4,0.3-0.9,0.2-1.2c-0.1-0.3-0.6-0.6-1-0.7c-0.9-0.3-2-0.2-3.1-0.1c-2.1,0.2-4.2,0.7-6.2,1.4c-8,3-14.9,8.3-19.7,15.3
						c-2.4,3.5-4.4,7.3-5.4,11.3c-0.5,2-0.7,4.2,0,6c0.3,0.9,0.9,1.8,1.7,2.4c0.8,0.6,1.7,1,2.7,1.3l-0.1,0l0.2,0l-0.1,0
						c1-0.2,2-0.6,2.8-1.2c0.8-0.6,1.4-1.4,1.8-2.4c0.8-1.9,0.6-4.1,0.2-6.2c-0.9-4.1-2.9-8-5.3-11.5c-2.4-3.5-5.3-6.8-8.7-9.3
						c-3.4-2.6-7.3-4.5-11.3-5.9c-2-0.7-4.1-1.2-6.2-1.4c-1.1-0.1-2.1-0.1-3.1,0.1c-0.5,0.1-1,0.3-1.2,0.7c-0.2,0.4-0.1,0.9,0.1,1.4
						c0.5,0.9,1.2,1.7,2,2.3c0.9,0.6,1.9,0.9,2.9,0.9c2.1,0.2,4.2-0.4,6.2-1.1c4-1.5,7.7-3.6,11.3-5.9c3.6-2.3,7.1-4.7,10.6-7.3
						c7-5,14.2-9.7,22.1-13.2c3.9-1.8,8.1-3.3,12.4-4c4.3-0.7,8.9-0.8,13.1,0.7c2.1,0.7,4.2,1.7,5.9,3.3c0.8,0.8,1.6,1.8,2,2.9
						c0.5,1.1,0.7,2.4,0.6,3.6c-0.2,2.4-1.4,4.6-2.9,6.3c-1.5,1.7-3.3,3.1-5.3,4.1c-2,1-4.1,1.8-6.3,2.1c-2.2,0.3-4.4,0.5-6.6,0.4
						c-2.2-0.1-4.4-0.4-6.5-1c-1-0.3-2.1-0.7-3.1-1.2c-1-0.5-1.9-1.1-2.7-1.9c-0.1-0.1-0.1-0.2,0-0.3C-78.5-69-78.4-69-78.3-69
						L-78.3-69z"/>
				</g>
			</g>
			<g>
				<g class="st1">
					<path class="st2" d="M-298.5-151.8c0.4-0.6,0.9-1,1.5-1.3c0.6-0.3,1.3-0.4,2-0.3c0.7,0.1,1.3,0.4,1.9,0.7
						c0.6,0.3,1.1,0.9,1.4,1.5c0.6,1.3,0.5,2.8,0,4c-0.5,1.3-1.3,2.4-2.5,3.2c-1.1,0.8-2.5,1.2-3.9,1.2c-0.3,0-0.7,0-1,0
						c-0.3,0-0.7,0-1-0.1c-0.7-0.2-1.3-0.3-1.9-0.6c-2.6-1-4.5-3.4-5.2-6.1c-0.7-2.6-0.5-5.6,0.8-8c1.2-2.5,3.7-4.4,6.4-5.1
						c1.4-0.4,2.8-0.4,4.1-0.5c0.7,0,1.3,0,2,0c0.7,0,1.3,0.1,2,0.2c2.7,0.3,5.3,1,7.8,1.8c5,1.8,9.7,4.3,14.2,7
						c2.2,1.3,4.5,2.7,6.7,4.1c2.2,1.4,4.4,2.8,6.6,4c1.1,0.6,2.2,1.2,3.4,1.7c1.2,0.4,2.3,1,3.5,1.4c2.4,0.8,4.9,1.3,7.4,1.6
						c2.5,0.2,5.1,0.1,7.5-0.5c0.6-0.2,1.2-0.3,1.8-0.6l0.9-0.4l0.8-0.4c1.1-0.6,2.1-1.4,2.7-2.5l0,0c0.1-0.1,0.2-0.2,0.3-0.1
						c0.1,0.1,0.1,0.2,0.1,0.3c-0.5,1.3-1.6,2.3-2.6,3c-0.3,0.2-0.6,0.4-0.8,0.5l-0.9,0.4c-0.6,0.3-1.2,0.5-1.9,0.8
						c-2.5,0.9-5.2,1.2-7.9,1.1c-2.7-0.1-5.3-0.5-7.9-1.3c-1.3-0.3-2.5-0.8-3.8-1.3c-1.2-0.5-2.4-1.1-3.6-1.7
						c-1.1-0.6-2.4-1.3-3.5-2l-3.3-2c-2.2-1.4-4.4-2.7-6.7-4c-4.4-2.6-8.9-5.1-13.7-7c-2.4-0.9-4.8-1.6-7.3-2
						c-0.6-0.1-1.2-0.2-1.9-0.2c-0.6,0-1.3-0.1-1.9-0.1c-1.3,0-2.5,0-3.6,0.2c-2.3,0.5-4.4,1.9-5.6,4c-1.2,2.1-1.5,4.7-0.9,7.1
						c0.5,2.4,2.1,4.6,4.4,5.5c2.3,1,5,1.1,7.1-0.3c1-0.7,1.8-1.7,2.3-2.8c0.5-1.1,0.6-2.5,0.1-3.6c-0.3-0.5-0.7-1-1.2-1.3
						c-0.5-0.3-1.1-0.6-1.7-0.7c-1.2-0.2-2.4,0.4-3.1,1.4l0,0c-0.1,0.1-0.2,0.1-0.3,0.1S-298.6-151.7-298.5-151.8z"/>
				</g>
				<g class="st1">
					<path class="st2" d="M-220.6-151.1c-0.4,0.6-0.9,1-1.5,1.3c-0.6,0.3-1.3,0.4-2,0.3c-0.7-0.1-1.3-0.4-1.9-0.7
						c-0.6-0.3-1.1-0.9-1.4-1.5c-0.6-1.3-0.5-2.8,0-4c0.5-1.3,1.3-2.4,2.5-3.2c1.1-0.8,2.5-1.2,3.9-1.2c0.3,0,0.7,0,1,0
						c0.3,0,0.7,0,1,0.1c0.7,0.2,1.3,0.3,1.9,0.6c2.6,1,4.5,3.4,5.2,6.1c0.7,2.6,0.5,5.6-0.8,8c-1.2,2.5-3.7,4.4-6.4,5.1
						c-1.4,0.4-2.8,0.4-4.1,0.5c-0.7,0-1.3,0-2,0c-0.7,0-1.3-0.1-2-0.2c-2.7-0.3-5.3-1-7.8-1.8c-5-1.8-9.7-4.3-14.2-7
						c-2.2-1.3-4.5-2.7-6.7-4.1c-2.2-1.4-4.4-2.8-6.6-4c-1.1-0.6-2.2-1.2-3.4-1.7c-1.2-0.4-2.3-1-3.5-1.4c-2.4-0.8-4.9-1.3-7.4-1.6
						c-2.5-0.2-5.1-0.1-7.5,0.5c-0.6,0.2-1.2,0.3-1.8,0.6l-0.9,0.4l-0.8,0.4c-1.1,0.6-2.1,1.4-2.7,2.5l0,0c-0.1,0.1-0.2,0.2-0.3,0.1
						c-0.1-0.1-0.1-0.2-0.1-0.3c0.5-1.3,1.6-2.3,2.6-3c0.3-0.2,0.6-0.4,0.8-0.5l0.9-0.4c0.6-0.3,1.2-0.5,1.9-0.8
						c2.5-0.9,5.2-1.2,7.9-1.1c2.7,0.1,5.3,0.5,7.9,1.3c1.3,0.3,2.5,0.8,3.8,1.3c1.2,0.5,2.4,1.1,3.6,1.7c1.1,0.6,2.4,1.3,3.5,2
						l3.3,2c2.2,1.4,4.4,2.7,6.7,4c4.4,2.6,8.9,5.1,13.7,7c2.4,0.9,4.8,1.6,7.3,2c0.6,0.1,1.2,0.2,1.9,0.2c0.6,0,1.3,0.1,1.9,0.1
						c1.3,0,2.5,0,3.6-0.2c2.3-0.5,4.4-1.9,5.6-4c1.2-2.1,1.5-4.7,0.9-7.1c-0.5-2.4-2.1-4.6-4.4-5.5c-2.3-1-5-1.1-7.1,0.3
						c-1,0.7-1.8,1.7-2.3,2.8c-0.5,1.1-0.6,2.5-0.1,3.6c0.3,0.5,0.7,1,1.2,1.3c0.5,0.3,1.1,0.6,1.7,0.7c1.2,0.2,2.4-0.4,3.1-1.4l0,0
						c0.1-0.1,0.2-0.1,0.3-0.1S-220.6-151.2-220.6-151.1z"/>
				</g>
			</g>
			<g>
				<g class="st1">
					<path d="M2.6-145.8c5.9,1.7,12.1,2,18.2,1.6c6.1-0.5,12.1-2,17.8-4.2c5.7-2.2,11-5.3,16.3-8.6c5.3-3.2,10.4-6.6,16-9.5
						c2.8-1.4,5.6-2.7,8.7-3.5c3-0.8,6.4-1.1,9.4,0c3.1,1,5.7,3.1,7.4,5.8c1.7,2.7,2.6,5.8,2.6,9c0,3.1-0.8,6.3-2.6,8.9
						c-1.7,2.6-4.4,4.6-7.3,5.6c-1.5,0.5-3,0.8-4.6,0.9c-1.5,0.1-3.1,0.1-4.7-0.2c-3.1-0.7-5.9-2.2-8.4-4
						c-10.1-7.2-17.4-17.6-27.5-24.8c-2.5-1.8-5.3-3.1-8.3-3.6c-3-0.6-6.2-0.2-8.8,1.3c-2.7,1.4-4.8,3.8-6.2,6.5
						c-1.4,2.7-2.2,5.8-2.1,8.8c0.1,3.1,0.8,6.1,2.2,8.8c1.3,2.7,3.5,5,6.3,6.3c2.8,1.2,5.9,1.4,8.9,0.9c3-0.4,5.8-1.6,8.5-3
						c5.4-2.8,10.4-6.4,15.7-9.7c2.6-1.7,5.3-3.3,8-4.8c2.8-1.5,5.6-2.8,8.7-3.7c1.5-0.4,3.1-0.8,4.7-0.8c1.6-0.1,3.3,0.1,4.8,0.7
						c1.5,0.6,2.9,1.3,4.1,2.5c1.1,1.1,1.8,2.8,1.6,4.4c-0.2,1.6-1.1,3-2.2,4.1c-1.2,1.1-2.6,1.8-4.1,2.2c-3,0.8-6.3,0.3-9.1-1
						c-2.8-1.3-5.4-3-7.8-4.9c-2.5-1.9-4.7-4-6.9-6.2c-2.1-2.2-4.1-4.6-5.9-7.2c-0.9-1.3-1.7-2.6-2.5-3.9c-0.7-1.4-1.4-2.8-1.7-4.4
						c-0.3-1.6-0.2-3.2,0.5-4.7c0.6-1.5,2-2.8,3.6-3.2c1.6-0.5,3.4-0.2,4.9,0.5c0.7,0.3,1.4,0.8,2.1,1.3c0.7,0.5,1.3,1.2,1.6,2
						c0.7,1.6,0.5,3.4,0.1,5c-0.4,1.6-1.1,3-1.9,4.4c-1.6,2.7-3.7,5.1-6.1,7.2c-4.7,4.2-10.4,7.3-16.4,8.9c-3,0.8-6.2,1.4-9.4,0.9
						c-1.6-0.2-3.2-0.8-4.3-2.2c-0.5-0.7-0.8-1.5-0.8-2.3c0-0.8,0.1-1.6,0.5-2.4c1.3-3,4.5-4.9,7.7-4.6c1.6,0.1,3.1,0.7,4.5,1.3
						c1.4,0.6,2.8,1.4,4.1,2.2c5.2,3.4,9.8,7.7,13.7,12.4c1.9,2.4,3.7,5,4.9,7.9c1.2,2.8,2.1,5.9,2,9c-0.1,1.5-0.5,3.1-1.7,4.2
						c-1.2,1.1-2.9,1.2-4.4,0.9c-1.5-0.3-3-1.2-3.8-2.6c-0.9-1.4-1.1-3.1-0.7-4.7c0.3-1.6,1.1-3.1,2-4.4c0.9-1.3,2-2.5,3.2-3.6
						c2.3-2.1,4.9-4,7.6-5.6c5.4-3.2,11.4-5.3,17.6-6.4c6.2-1.1,12.5-1,18.6,0.4c6.1,1.4,11.8,4.1,16.9,7.6l-0.2,0.4
						c-5.2-3.3-10.8-5.9-16.8-7.1c-6-1.2-12.2-1.2-18.2,0.1c-6,1.2-11.6,3.7-16.9,6.7c-2.6,1.5-5.2,3.2-7.5,5.1
						c-2.3,1.9-4.5,4.1-5.4,7c-0.4,1.4-0.3,3,0.4,4.3c0.7,1.3,2,2.3,3.5,2.7c1.4,0.4,3.2,0.3,4.3-0.8c1.2-1,1.6-2.6,1.7-4.2
						c0.1-3.1-0.8-6.1-2-9c-1.2-2.9-2.9-5.4-4.9-7.8c-3.9-4.7-8.6-8.9-13.8-12.3c-1.3-0.8-2.7-1.6-4.1-2.2c-1.4-0.6-2.9-1.1-4.4-1.2
						c-3-0.3-6,1.7-7.1,4.5c-0.5,1.4-0.5,3,0.4,4.1c0.9,1.1,2.4,1.6,3.8,1.8c3,0.3,6-0.4,8.9-1.2c5.8-1.8,11.2-4.8,15.7-8.9
						c2.2-2,4.3-4.3,5.9-6.8c0.8-1.3,1.4-2.6,1.8-4c0.4-1.4,0.5-2.9,0.1-4.1c-0.3-0.6-0.6-1.2-1.2-1.6c-0.6-0.5-1.2-0.9-1.8-1.2
						c-1.3-0.7-2.8-1-4.1-0.6c-1.4,0.3-2.5,1.4-3.2,2.7c-0.6,1.3-0.8,2.8-0.5,4.3c0.2,1.5,0.9,2.9,1.6,4.2c0.7,1.4,1.5,2.7,2.4,3.9
						c1.7,2.5,3.7,4.9,5.8,7.2c4.2,4.5,9,8.6,14.6,11.2c2.8,1.3,6,1.8,8.9,1c1.5-0.4,2.9-1.1,4-2.2c1.1-1,1.9-2.4,2-3.9
						c0.1-1.5-0.6-2.9-1.7-3.9c-1.1-1-2.5-1.6-3.9-2c-2.8-0.8-5.9-0.2-8.7,0.8c-2.8,1.1-5.5,2.5-8.1,4c-2.6,1.5-5.2,3.2-7.9,4.8
						c-5.2,3.3-10.5,6.5-16.3,9.1c-2.9,1.2-5.9,2.3-9.1,2.5c-3.1,0.3-6.4,0.1-9.3-1.3c-2.9-1.3-5.2-3.8-6.5-6.6
						c-1.4-2.8-2-5.9-2.1-9c-0.2-3.1,0.7-6.3,2.1-9c1.5-2.7,3.6-5.2,6.4-6.7c1.4-0.7,2.9-1.2,4.5-1.5c1.6-0.2,3.1-0.2,4.7,0.1
						c3.1,0.5,6,1.9,8.5,3.6c2.6,1.8,4.9,3.8,7.2,5.9c2.3,2.1,4.4,4.3,6.6,6.5c4.4,4.4,8.7,8.8,13.7,12.4c2.5,1.7,5.3,3.2,8.2,3.9
						c1.5,0.3,3,0.4,4.5,0.2c1.5-0.1,3-0.4,4.5-0.9c2.9-1,5.4-2.9,7.1-5.5c1.6-2.6,2.4-5.6,2.3-8.6c-0.1-3-0.9-6-2.6-8.5
						c-1.6-2.5-4.1-4.4-7-5.3c-2.8-0.9-5.9-0.6-8.8,0.2c-2.9,0.8-5.7,2.1-8.4,3.5c-5.4,2.9-10.5,6.3-15.8,9.5
						c-5.3,3.2-10.7,6.3-16.5,8.6c-5.8,2.2-12,3.6-18.2,4c-3.1,0.2-6.2,0.1-9.3-0.2c-3.1-0.4-6.2-0.9-9.1-2L2.6-145.8z"/>
				</g>
			</g>
			<g>
				<g class="st1">
					<path d="M-207.4-250.4c-1.3,0-2.7-0.2-3.9-0.7c-1.2-0.5-2.4-1.3-3.1-2.5c-0.6-1.2-0.8-2.6-0.4-3.9c0.4-1.3,1.2-2.4,2.3-3.3
						c2.2-1.7,5.1-2,7.7-1.5c1.3,0.3,2.6,0.9,3.8,1.5c1.2,0.7,2.2,1.8,2.8,3c1.3,2.5,1.5,5.4,1.1,8.1c-0.5,2.7-1.7,5.3-3.5,7.4
						c-1.8,2.1-4.3,3.6-7,4.5c-2.7,0.8-5.5,1-8.2,0.8c-1.4,0-2.7-0.2-4.1-0.4c-0.7-0.1-1.3-0.3-2-0.4c-0.3-0.1-0.7-0.1-1-0.2l-1-0.3
						c-2.6-0.8-5.2-2-7.4-3.8c-2.2-1.8-3.9-4.2-4.8-6.9c-0.5-1.3-0.7-2.8-0.8-4.2c-0.1-1.4,0.1-3,0.7-4.4c1.2-2.8,3.8-4.7,6.5-5.4
						c2.8-0.7,5.9,0.2,7.8,2.2c0.9,1,1.8,2.2,2.1,3.5c0.3,1.3,0.1,2.8-0.5,4c-0.6,1.2-1.6,2.2-2.9,2.8c-1.2,0.6-2.7,0.7-4,0.2
						l0.2-0.4c1.2,0.5,2.5,0.5,3.7-0.1c1.2-0.6,2.1-1.5,2.7-2.7c0.6-1.2,0.7-2.5,0.4-3.8c-0.3-1.2-1.1-2.3-2.1-3.2
						c-0.9-0.9-2.1-1.4-3.4-1.6c-1.2-0.2-2.5,0-3.6,0.4c-1.1,0.4-2.2,1.1-3,2c-0.9,0.8-1.6,1.8-2,2.9c-0.9,2.1-0.6,4.7,0.2,7.1
						c0.8,2.3,2.3,4.4,4.2,6c1.9,1.6,4.2,2.8,6.6,3.6c2.4,0.8,5,1.2,7.6,1.4c2.6,0.3,5.2,0.2,7.6-0.5c2.4-0.7,4.7-2,6.4-3.9
						c1.7-1.9,2.9-4.2,3.4-6.7c0.5-2.5,0.4-5.2-0.7-7.5c-1-2.4-3.5-3.8-5.9-4.5c-1.3-0.3-2.6-0.4-3.9-0.2c-1.3,0.2-2.5,0.7-3.6,1.5
						c-1,0.8-1.9,1.9-2.3,3.1c-0.4,1.2-0.3,2.7,0.3,3.8c0.6,1.2,1.7,2,3,2.5C-210.1-250.7-208.7-250.5-207.4-250.4L-207.4-250.4z"/>
				</g>
				<g class="st1">
					<path d="M-288.5-250.2c0.1,0.8,0.5,1.5,1.1,1.8c0.6,0.4,1.5,0.3,2.1-0.3c0.6-0.6,1-1.4,1.1-2.3c0.1-0.4,0.1-0.9,0-1.3
						c-0.1-0.4-0.3-0.8-0.6-1.1c-1.3-1.2-3.3-1.4-4.9-0.8c-0.8,0.3-1.5,0.8-2.1,1.4c-0.5,0.7-0.9,1.4-1,2.3
						c-0.3,1.6-0.1,3.4,0.9,4.7c1,1.3,2.6,2,4.1,1.9c1.6,0,3.1-0.6,4.3-1.6c1.2-1,2.1-2.4,2.6-3.9c0.3-0.8,0.4-1.6,0.5-2.3
						c0-0.8,0-1.5-0.2-2.3c-0.2-0.7-0.5-1.5-0.9-2.1c-0.4-0.7-0.9-1.3-1.5-1.8c-2.3-2.2-5.8-3.3-9-2.5c-1.6,0.4-3.1,1.2-4.2,2.4
						c-1.2,1.2-2,2.6-2.7,4.2c-0.6,1.6-1,3.2-1,4.9c0,1.7,0.3,3.3,0.9,4.8c1.2,3,3.6,5.4,6.4,7c2.8,1.5,5.9,2.3,9.1,2.3
						c3.2,0,6.3-0.9,9.2-2.3c1.4-0.7,2.8-1.6,4.3-2.6c1.5-1,2.9-1.9,4.4-2.8c3-1.8,6-3.5,9.3-5c1.6-0.7,3.3-1.4,5-1.8
						c1.7-0.4,3.6-0.6,5.4-0.5c0.4,0,0.9,0.1,1.4,0.2c0.5,0.1,0.9,0.2,1.3,0.4c0.8,0.3,1.6,0.7,2.4,1.1c1.6,0.8,3.1,1.6,4.6,2.5
						c3,1.8,5.9,3.7,8.7,5.7l-0.2,0.4l0,0c-2.9-1.6-5.8-3.5-8-6.1c-2.2-2.6-3.9-5.5-5.5-8.4c-1.6-2.9-3-6-5.3-8.1
						c-1.1-1.1-2.5-1.8-4-2.1c-1.5-0.2-3.1,0-4.5,0.6c-1.4,0.6-2.7,1.7-3.4,3c-0.7,1.4-0.8,3.1-0.2,4.5c0.6,1.4,1.9,2.5,3.2,3.2
						c1.4,0.6,2.9,0.9,4.3,0.7c0.7-0.1,1.4-0.3,2.1-0.5c0.7-0.3,1.4-0.7,1.8-1.4c0.8-1.4,0.5-3.2-0.2-4.7c-0.8-1.4-2.5-2.3-4.1-2.1
						c-0.8,0.1-1.6,0.5-2.1,1.1c-0.5,0.6-0.7,1.4-0.5,2.2l-0.4,0.1c-0.1-0.9,0.1-1.8,0.7-2.5c0.6-0.7,1.4-1,2.3-1.1
						c1.7-0.2,3.5,0.7,4.3,2.2c0.4,0.7,0.7,1.6,0.7,2.4c0.1,0.9,0,1.7-0.4,2.5c-0.7,1.6-2.1,3.1-4,3.5c-3.8,0.6-7.5-1.8-8.7-5.2
						c-0.6-1.7-0.5-3.6,0.3-5.2c0.8-1.6,2.1-2.9,3.7-3.7c0.8-0.4,1.6-0.7,2.5-0.9c0.9-0.2,1.8-0.2,2.7,0c1.8,0.3,3.4,1.3,4.7,2.5
						c1.3,1.2,2.3,2.6,3.1,4.1c0.8,1.5,1.5,3,2.3,4.5c1.5,3,3.1,5.9,5.1,8.4c1,1.3,2.2,2.4,3.5,3.5c0.6,0.5,1.3,1,2,1.5l2.1,1.3l0,0
						l-0.2,0.4c-2.9-2-5.8-3.8-8.8-5.5c-1.5-0.8-3.1-1.6-4.6-2.3c-1.6-0.7-3.2-1.3-4.8-1.3c-3.4-0.1-6.5,1.2-9.5,2.8
						c-3,1.6-5.8,3.6-8.6,5.6l-4.2,3c-0.7,0.5-1.3,1-2.1,1.5c-0.4,0.3-0.7,0.5-1.1,0.8l-1.2,0.7c-1.6,0.9-3.3,1.6-5.1,2.1
						c-1.8,0.5-3.7,0.8-5.6,0.8c-3.8,0-7.6-1.1-10.7-3.3c-3.1-2.2-5.5-5.3-6.4-8.9c-1-3.6-0.6-7.4,0.8-10.6c0.7-1.6,1.7-3.2,2.9-4.5
						c1.3-1.3,2.9-2.3,4.6-2.8c3.6-1,7.6,0,10.4,2.4c1.4,1.2,2.5,2.9,3,4.7c0.2,0.9,0.3,1.9,0.2,2.9c-0.1,1-0.3,1.9-0.7,2.7
						c-0.7,1.7-1.7,3.4-3.3,4.5c-1.5,1.1-3.4,1.8-5.3,1.6c-1.9-0.1-3.8-1.1-4.7-2.7c-1-1.6-1.1-3.6-0.7-5.3c0.2-0.9,0.7-1.7,1.3-2.3
						c0.6-0.6,1.4-1.1,2.2-1.4c0.8-0.3,1.7-0.3,2.6-0.2c0.9,0.1,1.7,0.5,2.3,1.1c0.3,0.3,0.5,0.7,0.6,1.1c0.1,0.4,0,0.9,0,1.3
						c-0.1,0.9-0.4,1.7-0.9,2.5c-0.3,0.4-0.6,0.7-1.1,0.9c-0.5,0.2-1,0.3-1.5,0.2c-1.1-0.2-1.9-0.9-2.7-1.6L-288.5-250.2z"/>
				</g>
			</g>
			<g>
				<g class="st1">
					<g>
						<path d="M-32.8-146.4c1.4,2.6,4,4.9,7.1,5.7c0.7,0.3,1.5,0.3,2.3,0.4c0.8,0,1.6,0.1,2.4-0.1c0.4-0.1,0.8-0.1,1.2-0.2l1.2-0.3
							c0.8-0.2,1.5-0.5,2.2-0.8c1.5-0.6,2.7-1.6,3.6-2.9c0.8-1.3,1.2-2.8,1.2-4.3c0-0.7-0.1-1.5-0.2-2.2c-0.1-0.4-0.2-0.7-0.2-1
							l-0.3-1c-0.5-1.3-1.1-2.6-1.9-3.8c-1.6-2.3-4-4.1-6.9-4.8c-1.4-0.3-2.9-0.5-4.5-0.3c-1.5,0.2-3,0.6-4.5,1.2
							c-2.9,1.3-5.8,2.8-8.5,4.5c-2.7,1.7-5.3,3.6-7.9,5.6c-2.6,2-5.2,3.9-7.9,5.7c-2.8,1.8-5.7,3.4-9,4.3
							c-3.3,0.9-6.7,1.1-10.1,0.7c-1.7-0.3-3.4-0.7-4.9-1.3c-1.6-0.6-3.1-1.3-4.5-2.1c-5.8-3.2-11-7.3-15.8-11.7
							c-4.8-4.4-9.2-9.2-13.4-14.2c-0.2-0.2-0.1-0.5,0.1-0.7c0.2-0.2,0.5-0.1,0.7,0l0,0c4.3,4.7,9,9.2,13.9,13.5
							c4.9,4.2,10,8.2,15.6,11.1c1.4,0.7,2.8,1.4,4.3,1.9c1.5,0.5,3,0.9,4.4,1.2c3,0.3,6.2,0.2,9.1-0.6c6-1.6,11.2-5.6,16.4-9.4
							c2.6-1.9,5.3-3.8,8.1-5.5c2.8-1.8,5.7-3.3,8.7-4.6c1.5-0.7,3.2-1.2,4.8-1.5c1.7-0.3,3.4-0.4,5.2-0.2c1.8,0.2,3.5,0.8,5.1,1.7
							c1.6,0.9,3,2.1,4.1,3.6c1.1,1.5,1.9,3.1,2.3,4.9c0.4,1.8,0.4,3.6-0.1,5.4c-0.5,1.7-1.4,3.3-2.6,4.6c-1.2,1.2-2.7,2.1-4.2,2.7
							c-0.8,0.3-1.5,0.6-2.3,0.8l-1.2,0.3c-0.4,0.1-0.8,0.1-1.2,0.2c-0.8,0.2-1.6,0.1-2.5,0.1c-0.8-0.1-1.6-0.1-2.4-0.4
							c-1.6-0.4-3.2-1-4.6-2c-1.4-0.9-2.7-2-3.8-3.4c-0.3-0.4-0.3-0.9,0.1-1.2c0.4-0.3,0.9-0.3,1.2,0.1
							C-32.9-146.6-32.9-146.6-32.8-146.4L-32.8-146.4z"/>
					</g>
					<g>
						<path d="M-63.3-146.1c1,1.9,2.8,3.4,4.9,4.4c2.1,1,4.4,1.4,6.7,1.2c2.3-0.2,4.6-1.1,6.4-2.6c1.8-1.5,3.3-3.5,4.1-5.7
							c1.7-4.5,1.2-9.7-1-13.7c-1.1-2.1-2.6-3.8-4.5-5.2c-1.9-1.4-4-2.4-6.3-2.9c-4.5-1.1-9.4-0.8-14,0.4c-4.6,1.1-9,3-13.1,5.4
							c-4.1,2.4-8.1,5.1-11.6,8.3c-3.6,3.1-6.8,6.7-9.2,10.8c-0.1,0.2-0.4,0.3-0.7,0.2c-0.2-0.1-0.3-0.4-0.2-0.7
							c2.5-4.2,5.7-7.9,9.3-11.2c3.6-3.3,7.6-6.1,11.8-8.5c4.2-2.4,8.7-4.4,13.5-5.5c4.7-1.2,9.8-1.5,14.6-0.3
							c2.4,0.6,4.7,1.7,6.7,3.2c2,1.4,3.7,3.5,4.7,5.7c2.1,4.5,2,9.8,0.3,14.3c-0.9,2.2-2.2,4.4-4,6c-1.8,1.6-4.2,2.7-6.6,3.1
							c-2.4,0.4-5,0.2-7.4-0.6c-2.4-0.8-4.7-2.3-6.4-4.4l0,0c-0.5-0.6-0.4-1.4,0.2-1.8c0.6-0.5,1.4-0.4,1.8,0.2
							C-63.4-146.3-63.3-146.2-63.3-146.1z"/>
					</g>
					<g>
						<path d="M-73.2-161.8c0.7-1,1.5-1.7,2.4-2.4c0.9-0.7,1.9-1.2,3-1.5c2.1-0.7,4.4-0.6,6.5,0c2.3,0.7,3.9,2.5,5,4.4
							c1.1,1.9,1.8,4,2,6.3c0.1,1.1,0,2.2-0.2,3.3c-0.2,1.1-0.6,2.2-1.1,3.2c-1.1,2-2.7,3.7-4.5,4.9c-3.7,2.4-8,3.2-12.2,3.3
							c-0.3,0-0.5-0.2-0.5-0.5c0-0.2,0.2-0.5,0.4-0.5l0,0c4-0.8,7.9-1.9,11-4.2c1.5-1.1,2.8-2.5,3.7-4.1c0.8-1.6,1.3-3.5,1.3-5.3
							c0-1.9-0.5-3.8-1.4-5.5c-0.9-1.7-2.2-3.2-3.9-3.7c-1.8-0.5-3.8-0.6-5.5,0c-0.9,0.3-1.7,0.8-2.4,1.4c-0.7,0.6-1.4,1.3-1.8,2
							l0,0.1c-0.3,0.5-0.9,0.7-1.4,0.4c-0.5-0.3-0.7-0.9-0.4-1.4C-73.2-161.8-73.2-161.8-73.2-161.8z"/>
					</g>
					<g>
						<path d="M-68.3-156.6c0.6,0,1.2,0.1,1.8,0.4c0.5,0.3,1,0.8,1.3,1.3c0.3,0.6,0.5,1.2,0.6,1.7c0,0.3,0.1,0.6,0,1
							c0,0.4-0.1,0.7-0.3,1c-0.5,1.2-1.4,2-2.4,2.6c-1,0.6-2.1,0.9-3.1,1.1c-2.2,0.4-4.3,0.1-6.3-0.4c-2-0.5-3.9-1.3-5.7-2.2
							c-3.6-1.8-6.9-4.2-10-6.6c-3.1-2.5-6-5.3-9-7.8c-0.2-0.2-0.2-0.5-0.1-0.7c0.2-0.2,0.5-0.2,0.7-0.1c0,0,0,0,0.1,0.1
							c2.7,2.9,5.8,5.4,8.9,7.7c3.2,2.3,6.6,4.4,10.1,5.9c1.8,0.8,3.6,1.4,5.5,1.8c1.8,0.4,3.7,0.5,5.5,0.2c0.9-0.2,1.7-0.5,2.4-0.9
							c0.7-0.4,1.3-1,1.6-1.6c0.2-0.3,0.2-0.5,0.2-1c0-0.4,0-0.8-0.2-1.1c-0.1-0.3-0.3-0.6-0.6-0.9c-0.3-0.2-0.7-0.5-1-0.6l-0.1,0
							c-0.3-0.1-0.4-0.4-0.3-0.6C-68.7-156.5-68.5-156.6-68.3-156.6z"/>
					</g>
				</g>
				<g class="st1">
					<g>
						<path d="M-168.2-145.5c-1.2,1.4-2.4,2.5-3.8,3.4c-1.4,0.9-3,1.6-4.6,2c-0.8,0.2-1.6,0.3-2.4,0.4c-0.8,0-1.7,0-2.5-0.1
							c-0.4-0.1-0.8-0.1-1.2-0.2l-1.2-0.3c-0.8-0.2-1.5-0.5-2.3-0.8c-1.5-0.6-3-1.5-4.2-2.7c-1.2-1.2-2.1-2.8-2.6-4.6
							c-0.5-1.7-0.5-3.6-0.1-5.4c0.4-1.8,1.2-3.4,2.3-4.9c1.1-1.5,2.5-2.7,4.1-3.6c1.6-0.9,3.3-1.5,5.1-1.7c1.8-0.2,3.5-0.1,5.2,0.2
							c1.7,0.3,3.3,0.9,4.8,1.5c3,1.3,5.9,2.8,8.7,4.6c2.8,1.8,5.4,3.6,8.1,5.5c5.2,3.8,10.4,7.7,16.4,9.4c3,0.8,6.1,1,9.1,0.6
							c1.5-0.2,3-0.6,4.4-1.2c1.5-0.5,2.9-1.2,4.3-1.9c5.6-2.9,10.7-6.9,15.6-11.1c4.8-4.2,9.5-8.7,13.9-13.5l0,0
							c0.2-0.2,0.5-0.2,0.7,0c0.2,0.2,0.2,0.5,0,0.7c-4.1,5-8.6,9.8-13.4,14.2c-4.8,4.4-9.9,8.5-15.8,11.7c-1.5,0.8-3,1.5-4.5,2.1
							c-1.6,0.6-3.2,1-4.9,1.3c-3.4,0.4-6.8,0.2-10.1-0.7c-3.3-0.9-6.2-2.6-9-4.3c-2.8-1.8-5.3-3.8-7.9-5.7c-2.6-2-5.2-3.9-7.9-5.6
							c-2.7-1.7-5.5-3.2-8.5-4.5c-1.5-0.6-2.9-1-4.5-1.2c-1.5-0.2-3-0.1-4.5,0.3c-2.9,0.7-5.3,2.5-6.9,4.8c-0.8,1.1-1.5,2.4-1.9,3.8
							l-0.3,1c-0.1,0.3-0.2,0.7-0.2,1c-0.1,0.7-0.2,1.4-0.2,2.2c0,1.5,0.3,3,1.2,4.3c0.8,1.3,2.1,2.3,3.6,2.9
							c0.7,0.3,1.5,0.7,2.2,0.8l1.2,0.3c0.4,0.1,0.8,0.1,1.2,0.2c0.8,0.1,1.6,0.1,2.4,0.1c0.8-0.1,1.6-0.2,2.3-0.4
							c3-0.8,5.7-3.1,7.1-5.7l0-0.1c0.2-0.4,0.8-0.6,1.2-0.4c0.4,0.2,0.6,0.8,0.4,1.2C-168.1-145.6-168.1-145.6-168.2-145.5z"/>
					</g>
					<g>
						<path d="M-137.1-144.7c-1.7,2.1-4,3.6-6.4,4.4c-2.4,0.8-5,1.1-7.4,0.6c-2.4-0.4-4.8-1.5-6.6-3.1c-1.9-1.6-3.2-3.7-4-6
							c-1.7-4.5-1.7-9.7,0.3-14.3c1-2.2,2.7-4.3,4.7-5.7c2-1.5,4.3-2.6,6.7-3.2c4.8-1.2,9.9-0.8,14.6,0.3c4.7,1.1,9.3,3.1,13.5,5.5
							c4.2,2.4,8.2,5.2,11.8,8.5c3.6,3.3,6.8,7,9.3,11.2c0.1,0.2,0.1,0.5-0.2,0.7c-0.2,0.1-0.5,0.1-0.7-0.2
							c-2.4-4.1-5.7-7.6-9.2-10.8c-3.6-3.1-7.5-5.9-11.6-8.3c-4.1-2.4-8.5-4.2-13.1-5.4c-4.6-1.2-9.4-1.5-14-0.4
							c-2.3,0.6-4.4,1.6-6.3,2.9c-1.9,1.3-3.4,3.1-4.5,5.2c-2.2,4.1-2.7,9.3-1,13.7c0.9,2.2,2.3,4.2,4.1,5.7
							c1.8,1.5,4.1,2.3,6.4,2.6c2.3,0.2,4.7-0.2,6.7-1.2c2-1,3.8-2.5,4.9-4.4c0.3-0.6,1.1-0.8,1.8-0.5c0.6,0.3,0.8,1.1,0.5,1.8
							C-137-144.8-137-144.7-137.1-144.7L-137.1-144.7z"/>
					</g>
					<g>
						<path d="M-131.1-160.8c-0.4-0.7-1.1-1.5-1.8-2c-0.7-0.6-1.5-1.1-2.4-1.4c-1.7-0.6-3.7-0.6-5.5,0c-1.6,0.6-3,2.1-3.9,3.7
							c-0.9,1.7-1.3,3.6-1.4,5.5c0,1.9,0.4,3.7,1.3,5.3c0.9,1.6,2.1,3,3.7,4.1c3.1,2.2,7,3.4,11,4.2l0,0c0.3,0.1,0.4,0.3,0.4,0.6
							c0,0.2-0.3,0.4-0.5,0.4c-4.1-0.1-8.5-0.9-12.2-3.3c-1.8-1.2-3.5-2.9-4.5-4.9c-0.5-1-0.9-2.1-1.1-3.2c-0.2-1.1-0.3-2.2-0.2-3.3
							c0.2-2.2,0.8-4.4,2-6.3c1.1-1.9,2.7-3.6,5-4.4c2.1-0.6,4.4-0.7,6.5,0c1.1,0.3,2.1,0.9,3,1.5c0.9,0.7,1.7,1.4,2.4,2.4
							c0.3,0.5,0.2,1.1-0.2,1.4c-0.5,0.3-1.1,0.2-1.4-0.2C-131-160.7-131-160.7-131.1-160.8L-131.1-160.8z"/>
					</g>
					<g>
						<path d="M-134.2-155.6c-0.3,0.1-0.8,0.3-1,0.6c-0.3,0.3-0.5,0.6-0.6,0.9c-0.1,0.3-0.2,0.7-0.2,1.1c0,0.5,0,0.6,0.2,1
							c0.3,0.6,0.9,1.2,1.6,1.6c0.7,0.4,1.5,0.7,2.4,0.9c1.7,0.3,3.6,0.2,5.5-0.2c1.8-0.4,3.7-1,5.5-1.8c3.6-1.5,6.9-3.6,10.1-5.9
							c3.2-2.3,6.3-4.8,8.9-7.7c0.2-0.2,0.5-0.2,0.7,0c0.2,0.2,0.2,0.5,0,0.7c0,0,0,0-0.1,0.1c-3.1,2.5-5.9,5.3-9,7.8
							c-3.1,2.5-6.4,4.8-10,6.6c-1.8,0.9-3.7,1.7-5.7,2.2c-2,0.5-4.1,0.7-6.3,0.4c-1.1-0.2-2.2-0.5-3.1-1.1c-1-0.6-1.9-1.4-2.4-2.6
							c-0.1-0.3-0.2-0.6-0.3-1c0-0.4,0-0.7,0-1c0.1-0.6,0.2-1.2,0.6-1.7c0.3-0.6,0.8-1,1.3-1.3c0.6-0.3,1.1-0.4,1.8-0.4
							c0.3,0,0.5,0.2,0.5,0.5C-133.7-155.9-133.9-155.7-134.2-155.6L-134.2-155.6z"/>
					</g>
				</g>
			</g>
		</g>
		<g class="st0">
			<g class="st1">
				<path d="M-284.8,27.7c-1.1,1.8-2.8,2.9-4.4,3.1c-1.7,0.3-3.2-0.1-4.6-0.2c-2.9-0.3-5.8-1.7-7.5-4.3c-0.8-1.2-1.3-2.7-1.5-4.2
					c-0.1-1.5-0.1-3,0.2-4.5c0.1-0.8,0.4-1.5,0.6-2.2c0.3-0.7,0.6-1.4,1-2c0.8-1.3,1.8-2.5,3-3.5c2.4-2,5.5-3.2,8.6-3.5
					c0.8-0.1,1.6-0.1,2.4-0.1l2.3,0.2c0.8,0.1,1.5,0.2,2.3,0.3c0.8,0.1,1.5,0.3,2.2,0.5c3,0.7,5.8,1.9,8.6,3.1
					c2.7,1.3,5.4,2.7,8,4.2c5.2,3,10.1,6.2,15.3,9c2.6,1.4,5.2,2.7,7.9,3.8c2.7,1.2,5.4,2.2,8.2,3c2.8,0.8,5.7,1.3,8.5,1.6
					c2.9,0.3,5.8,0.2,8.7-0.2c2.9-0.4,5.8-0.9,8.5-2.1c2.7-1.1,5.1-3,6.3-5.8c-0.5,1.4-1.2,2.7-2.3,3.8c-1,1.1-2.3,2-3.7,2.6
					c-2.7,1.4-5.6,2.1-8.6,2.7c-5.9,1.1-12.1,0.8-18-0.7c-11.8-2.9-22.2-9.4-32.3-15.3c-2.6-1.5-5.1-2.8-7.8-4
					c-2.6-1.2-5.3-2.3-8.1-3.1c-0.7-0.2-1.4-0.4-2.1-0.6c-0.7-0.1-1.4-0.3-2.1-0.4l-2.1-0.3c-0.7,0-1.4-0.1-2.1-0.1
					c-2.8,0.1-5.6,0.9-7.9,2.5c-1.2,0.8-2.2,1.8-3,2.9c-0.5,0.6-0.8,1.2-1.1,1.8c-0.3,0.7-0.6,1.3-0.8,2c-0.8,2.8-0.8,5.9,0.7,8.5
					c1.5,2.5,4.4,4.1,7.4,4.3c0.7,0.1,1.5,0,2.2-0.2c0.7-0.2,1.4-0.5,1.9-0.9c0.6-0.4,1-0.9,1.3-1.4c0.3-0.5,0.4-1.1,0.4-1.6
					c-0.1-1,0.7-1.9,1.7-2c1-0.1,1.9,0.7,2,1.7c0,0.4-0.1,0.8-0.3,1.1L-284.8,27.7z"/>
			</g>
			<g class="st1">
				<path d="M-203.1,12.7c1.1-1.8,2.8-2.9,4.4-3.1c1.7-0.3,3.2,0.1,4.6,0.2c2.9,0.3,5.8,1.7,7.5,4.3c0.8,1.2,1.3,2.7,1.5,4.2
					c0.1,1.5,0.1,3-0.2,4.5c-0.1,0.8-0.4,1.5-0.6,2.2c-0.3,0.7-0.6,1.4-1,2c-0.8,1.3-1.8,2.5-3,3.5c-2.4,2-5.5,3.2-8.6,3.5
					c-0.8,0.1-1.6,0.1-2.4,0.1l-2.3-0.2c-0.8-0.1-1.5-0.2-2.3-0.3c-0.8-0.1-1.5-0.3-2.2-0.5c-3-0.7-5.8-1.9-8.6-3.1
					c-2.7-1.3-5.4-2.7-8-4.2c-5.2-3-10.1-6.2-15.3-9c-2.6-1.4-5.2-2.7-7.9-3.8c-2.7-1.2-5.4-2.2-8.2-3c-2.8-0.8-5.7-1.3-8.5-1.6
					c-2.9-0.3-5.8-0.2-8.7,0.2c-2.9,0.4-5.8,0.9-8.5,2.1c-2.7,1.1-5.1,3-6.3,5.8c0.5-1.4,1.2-2.7,2.3-3.8c1-1.1,2.3-2,3.7-2.6
					c2.7-1.4,5.6-2.1,8.6-2.7c5.9-1.1,12.1-0.8,18,0.7c11.8,2.9,22.2,9.4,32.3,15.3c2.6,1.5,5.1,2.8,7.8,4c2.6,1.2,5.3,2.3,8.1,3.1
					c0.7,0.2,1.4,0.4,2.1,0.6c0.7,0.1,1.4,0.3,2.1,0.4l2.1,0.3c0.7,0,1.4,0.1,2.1,0.1c2.8-0.1,5.6-0.9,7.9-2.5
					c1.2-0.8,2.2-1.8,3-2.9c0.5-0.6,0.8-1.2,1.1-1.8c0.3-0.7,0.6-1.3,0.8-2c0.8-2.8,0.8-5.9-0.7-8.5c-1.5-2.5-4.4-4.1-7.4-4.3
					c-0.7-0.1-1.5,0-2.2,0.2c-0.7,0.2-1.4,0.5-1.9,0.9c-0.6,0.4-1,0.9-1.3,1.4c-0.3,0.5-0.4,1.1-0.4,1.6c0.1,1-0.7,1.9-1.7,2
					c-1,0.1-1.9-0.7-2-1.7c0-0.4,0.1-0.8,0.3-1.1L-203.1,12.7z"/>
			</g>
		</g>
		<g class="st0">
			<g class="st1">
				<path d="M-144.1,29.2c-0.1,1.3-0.8,2.6-1.7,3.2c-0.9,0.6-1.9,0.9-2.9,1.1c-1,0.1-2,0.2-3,0.1c-1-0.2-2-0.6-2.8-1.2
					c-1.6-1.2-2.7-3.1-3-5.1c-0.2-2,0.3-4.1,1.3-5.8c1-1.8,2.6-3.2,4.4-4.1c1.8-0.9,3.9-1.3,5.8-1.5c2-0.2,3.9-0.1,5.7-0.1
					c1.9,0,3.8,0.1,5.6,0.1c7.5,0.2,14.9,0.7,22.1-0.1c3.6-0.4,7.2-1.1,10.5-2.6c1.6-0.7,3.2-1.7,4.5-2.9c1.3-1.2,2.5-2.6,3.4-4.3
					c0,0,0.1,0,0.1,0c0,0,0,0,0,0.1c-1,3.7-3.7,6.9-7.1,8.9c-3.4,2-7.2,3.1-11,3.7c-7.6,1.3-15.3,0.9-22.7,0.3l-5.6-0.4
					c-1.9-0.1-3.7-0.3-5.5-0.3c-1.8,0-3.5,0.3-5.1,0.9c-1.6,0.7-3,1.8-3.9,3.2c-1,1.4-1.5,3.2-1.4,4.9c0.1,1.7,1,3.3,2.4,4.4
					c0.7,0.5,1.5,0.9,2.3,1.1c0.8,0.1,1.7,0.1,2.6-0.2c0.8-0.2,1.6-0.7,2.1-1.2c0.5-0.6,0.6-1.2,0.3-1.8c-0.3-0.7,0-1.4,0.6-1.8
					c0.7-0.3,1.4,0,1.8,0.6c0.1,0.2,0.1,0.4,0.1,0.6L-144.1,29.2z"/>
			</g>
			<g class="st1">
				<path d="M-41.7,29.4c-0.3,0.5-0.2,1.2,0.3,1.8c0.5,0.6,1.3,1,2.1,1.2c0.8,0.2,1.7,0.3,2.6,0.2c0.8-0.2,1.6-0.5,2.3-1.1
					c1.4-1,2.3-2.7,2.4-4.4c0.1-1.7-0.4-3.5-1.4-4.9c-1-1.4-2.4-2.5-3.9-3.2c-1.6-0.7-3.3-0.9-5.1-0.9c-1.8,0-3.6,0.1-5.5,0.3
					l-5.6,0.4c-7.4,0.6-15.1,1-22.7-0.3c-3.8-0.6-7.6-1.7-11-3.7c-3.4-2-6.1-5.2-7.1-8.9c0,0,0-0.1,0-0.1c0,0,0.1,0,0.1,0
					c0.9,1.6,2.1,3.1,3.4,4.3c1.4,1.2,2.9,2.1,4.5,2.9c3.3,1.5,6.9,2.1,10.5,2.6c7.3,0.9,14.6,0.4,22.1,0.1c1.9-0.1,3.8-0.1,5.6-0.1
					c1.9,0,3.8,0,5.7,0.1c1.9,0.2,4,0.6,5.8,1.5c1.8,0.9,3.4,2.4,4.4,4.1c1,1.8,1.5,3.8,1.3,5.8c-0.3,2-1.4,3.9-3,5.1
					c-0.8,0.6-1.8,1-2.8,1.2c-1,0.2-2,0.1-3-0.1c-1-0.2-2-0.5-2.9-1.1c-0.9-0.6-1.7-1.9-1.7-3.2l0-0.3c0-0.7,0.5-1.3,1.3-1.4
					c0.7,0,1.3,0.5,1.4,1.3C-41.6,29-41.6,29.3-41.7,29.4z"/>
			</g>
		</g>
		<g>
			<g>
				<path class="st2" d="M15.8,32.1c-3.8,0.5-7.6-0.8-10.7-3.1c-1.5-1.1-2.9-2.6-3.8-4.3C0.3,23-0.2,21,0.1,18.9
					c0.2-2,1.2-3.9,2.4-5.5c1.3-1.5,2.8-2.8,4.6-3.7c3.6-1.7,7.6-2.1,11.4-1.9C22.3,8,26,8.7,29.6,9.7c3.6,1,7.2,2.1,10.7,3.4
					c7,2.6,13.7,5.8,20.4,8.8c6.7,3.1,13.4,6.1,20.3,8.2c0.9,0.2,1.7,0.5,2.6,0.7l2.6,0.5c1.7,0.2,3.5,0.5,5.3,0.5
					c3.6,0.1,7.2-0.2,10.6-1.1c1.7-0.5,3.3-1.1,4.8-2c1.4-0.9,2.7-2.1,3.4-3.5c0.7-1.4,1.2-3.2,1.1-4.8c0-1.7-0.6-3.3-1.5-4.7
					c-1.9-2.9-5.1-4.9-8.6-5.7C98,9,94.2,9.2,91,11l-0.2-0.4c3.2-2.1,7.2-2.5,11-1.8c3.7,0.7,7.4,2.6,9.7,5.9c1.2,1.6,1.9,3.6,2,5.6
					c0.1,2-0.3,4-1.2,5.9c-0.9,1.9-2.4,3.4-4,4.5c-1.7,1.1-3.5,1.9-5.3,2.5c-3.7,1.1-7.5,1.5-11.3,1.4c-1.9,0-3.8-0.2-5.7-0.4
					L83,33.5c-0.9-0.2-1.8-0.5-2.8-0.7c-3.6-1-7.2-2.3-10.6-3.7c-3.5-1.4-6.8-2.9-10.2-4.4c-6.7-3-13.4-6.2-20.2-8.8
					c-6.8-2.7-13.8-4.9-21-5.5c-3.5-0.3-7.2,0-10.3,1.3c-1.6,0.7-2.9,1.8-4,3C2.8,16,2,17.5,1.8,19.2c-0.3,1.6,0,3.4,0.8,4.9
					c0.7,1.6,1.9,3,3.2,4.1c1.4,1.1,2.9,2.1,4.6,2.7c1.7,0.6,3.5,0.9,5.3,0.9L15.8,32.1z"/>
			</g>
			<g>
				<path class="st2" d="M22.5,18.5c3,0,6,0.6,8.8,1.3c2.9,0.7,5.7,1.6,8.5,2.7c5.6,2,10.9,4.7,16.1,7.2c5.3,2.5,10.6,5,16,7.1
					c2.7,1,5.4,2,8.2,2.8c2.8,0.7,5.7,1.4,8.5,1l0.1,0.4c-2.9,0.9-6,0.5-8.9,0.1c-2.9-0.5-5.8-1.3-8.7-2.2c-2.8-0.9-5.6-1.9-8.4-3
					c-2.7-1.1-5.5-2.3-8.1-3.5c-2.7-1.2-5.3-2.5-7.9-3.8c-2.6-1.2-5.3-2.5-7.9-3.6c-2.7-1.2-5.3-2.3-8.1-3.3c-2.7-1-5.5-2-8.3-2.6
					L22.5,18.5z"/>
			</g>
			<g>
				<path class="st2" d="M22.5,0c3,0,6,0.6,8.8,1.3c2.9,0.7,5.7,1.6,8.5,2.7c5.6,2,10.9,4.7,16.1,7.2c5.3,2.5,10.6,5,16,7.1
					c2.7,1,5.4,2,8.2,2.8c2.8,0.7,5.7,1.4,8.5,1l0.1,0.4c-2.9,0.9-6,0.5-8.9,0.1c-2.9-0.5-5.8-1.3-8.7-2.2c-2.8-0.9-5.6-1.9-8.4-3
					c-2.7-1.1-5.5-2.3-8.1-3.5c-2.7-1.2-5.3-2.5-7.9-3.8c-2.6-1.2-5.3-2.5-7.9-3.6C36.2,5.1,33.6,4,30.8,3c-2.7-1-5.5-2-8.3-2.6
					L22.5,0z"/>
			</g>
		</g>
	</g>
</g>
<g id="DESIGNED_BY_FREEPIK" class="st0">
	<g id="XMLID_76_" class="st3">
		<g id="XMLID_929_">
			<path id="XMLID_958_" d="M-165.3,118.5c-0.2,0-0.4,0.1-0.6,0.3c-0.1,0.2-0.2,0.4-0.2,0.8v2.4c-0.3-0.3-0.6-0.6-0.9-0.7
				c-0.3-0.2-0.7-0.2-1.2-0.2c-0.8,0-1.5,0.3-2,0.8c-0.5,0.6-0.7,1.4-0.7,2.4c0,0.5,0.1,0.9,0.2,1.3c0.1,0.4,0.3,0.8,0.5,1.1
				c0.2,0.3,0.5,0.5,0.9,0.7c0.3,0.2,0.7,0.2,1.1,0.2c0.3,0,0.6,0,0.8-0.1c0.2-0.1,0.5-0.2,0.7-0.4c0.2-0.2,0.4-0.4,0.6-0.6v0.2
				c0,0.3,0.1,0.5,0.2,0.7c0.1,0.2,0.3,0.2,0.5,0.2c0.2,0,0.4-0.1,0.6-0.2c0.1-0.2,0.2-0.4,0.2-0.7v-7.1c0-0.3-0.1-0.5-0.2-0.7
				C-164.8,118.6-165,118.5-165.3,118.5z M-166.3,125.3c-0.1,0.3-0.3,0.5-0.6,0.7c-0.2,0.1-0.5,0.2-0.8,0.2c-0.3,0-0.5-0.1-0.8-0.2
				c-0.2-0.2-0.4-0.4-0.6-0.7c-0.1-0.3-0.2-0.7-0.2-1.1c0-0.4,0.1-0.8,0.2-1.1c0.1-0.3,0.3-0.6,0.5-0.7c0.2-0.2,0.5-0.3,0.8-0.3
				c0.3,0,0.5,0.1,0.8,0.2c0.2,0.2,0.4,0.4,0.6,0.7c0.1,0.3,0.2,0.7,0.2,1.1C-166.1,124.6-166.2,125-166.3,125.3z"/>
			<path id="XMLID_954_" d="M-157.9,124.4c0.2-0.1,0.4-0.4,0.4-0.8c0-0.4-0.1-0.9-0.3-1.3c-0.2-0.4-0.6-0.8-1-1
				c-0.5-0.3-1-0.4-1.6-0.4c-0.5,0-0.9,0.1-1.3,0.2c-0.4,0.2-0.7,0.4-1,0.7c-0.3,0.3-0.5,0.6-0.6,1.1c-0.1,0.4-0.2,0.9-0.2,1.3
				c0,1,0.3,1.8,0.9,2.4c0.6,0.6,1.4,0.9,2.4,0.9c0.5,0,0.9-0.1,1.2-0.2c0.4-0.1,0.6-0.3,0.9-0.4c0.2-0.2,0.4-0.4,0.5-0.6
				c0.1-0.2,0.2-0.4,0.2-0.5c0-0.2-0.1-0.3-0.2-0.4c-0.1-0.1-0.2-0.1-0.4-0.1c-0.2,0-0.3,0-0.4,0.1c-0.2,0.2-0.4,0.3-0.5,0.5
				c-0.1,0.1-0.3,0.2-0.4,0.3c-0.2,0.1-0.3,0.2-0.5,0.2c-0.2,0-0.3,0.1-0.5,0.1c-0.3,0-0.6-0.1-0.8-0.2c-0.2-0.1-0.4-0.4-0.6-0.6
				c-0.1-0.3-0.2-0.6-0.2-1h3.2C-158.5,124.6-158.1,124.5-157.9,124.4z M-162.1,123.7c0.1-0.5,0.2-1,0.5-1.2c0.3-0.3,0.6-0.4,1-0.4
				c0.4,0,0.8,0.1,1,0.4c0.3,0.3,0.4,0.7,0.4,1.2H-162.1z"/>
			<path id="XMLID_952_" d="M-152.5,124c-0.3-0.2-0.7-0.3-1.2-0.4c-0.4-0.1-0.8-0.2-1-0.3c-0.2-0.1-0.4-0.2-0.6-0.3
				c-0.1-0.1-0.2-0.2-0.2-0.4c0-0.2,0.1-0.3,0.3-0.5c0.2-0.1,0.4-0.2,0.7-0.2c0.3,0,0.5,0,0.7,0.1c0.2,0.1,0.3,0.2,0.4,0.4
				c0.2,0.2,0.3,0.3,0.4,0.4c0.1,0.1,0.3,0.1,0.4,0.1c0.2,0,0.4-0.1,0.5-0.2c0.1-0.1,0.2-0.3,0.2-0.5c0-0.2-0.1-0.3-0.2-0.5
				c-0.1-0.2-0.3-0.3-0.5-0.5c-0.2-0.1-0.5-0.3-0.8-0.4c-0.3-0.1-0.7-0.1-1.1-0.1c-0.5,0-1,0.1-1.4,0.3c-0.4,0.2-0.7,0.4-0.9,0.7
				c-0.2,0.3-0.3,0.6-0.3,0.9c0,0.4,0.1,0.7,0.3,0.9c0.2,0.2,0.5,0.5,0.8,0.6c0.4,0.2,0.8,0.3,1.4,0.4c0.5,0.1,0.8,0.2,1.1,0.4
				c0.2,0.1,0.3,0.3,0.3,0.6c0,0.2-0.1,0.4-0.3,0.5c-0.2,0.1-0.5,0.2-0.8,0.2c-0.4,0-0.7-0.1-0.9-0.2c-0.2-0.1-0.4-0.4-0.6-0.6
				c-0.1-0.1-0.2-0.3-0.3-0.4c-0.1-0.1-0.2-0.1-0.4-0.1c-0.2,0-0.4,0.1-0.5,0.2c-0.1,0.1-0.2,0.3-0.2,0.5c0,0.3,0.1,0.5,0.3,0.8
				c0.2,0.3,0.5,0.5,0.9,0.7c0.4,0.2,0.9,0.3,1.5,0.3c0.6,0,1.1-0.1,1.6-0.2c0.4-0.2,0.7-0.4,1-0.7c0.2-0.3,0.3-0.7,0.3-1.1
				c0-0.3-0.1-0.6-0.2-0.8C-151.9,124.3-152.2,124.1-152.5,124z"/>
			<path id="XMLID_950_" d="M-149.9,120.9c-0.2,0-0.4,0.1-0.6,0.2c-0.1,0.2-0.2,0.4-0.2,0.7v4.6c0,0.3,0.1,0.6,0.2,0.7
				c0.1,0.2,0.3,0.3,0.6,0.3c0.2,0,0.4-0.1,0.6-0.2c0.2-0.2,0.2-0.4,0.2-0.7v-4.7c0-0.3-0.1-0.5-0.2-0.7
				C-149.4,121-149.6,120.9-149.9,120.9z"/>
			<path id="XMLID_949_" d="M-149.8,118.6c-0.2,0-0.4,0.1-0.6,0.2c-0.2,0.1-0.2,0.3-0.2,0.6c0,0.3,0.1,0.4,0.2,0.6
				c0.2,0.1,0.4,0.2,0.6,0.2c0.2,0,0.4-0.1,0.6-0.2c0.2-0.1,0.2-0.3,0.2-0.6c0-0.3-0.1-0.5-0.2-0.6
				C-149.5,118.6-149.6,118.6-149.8,118.6z"/>
			<path id="XMLID_945_" d="M-142.7,120.9c-0.2,0-0.4,0.1-0.5,0.2c-0.1,0.2-0.2,0.4-0.2,0.7v0.2c-0.3-0.4-0.6-0.7-0.9-0.8
				c-0.3-0.2-0.7-0.3-1.2-0.3c-0.4,0-0.7,0.1-1.1,0.2c-0.3,0.1-0.6,0.3-0.8,0.6c-0.2,0.3-0.4,0.6-0.6,1c-0.1,0.4-0.2,0.8-0.2,1.3
				c0,0.7,0.1,1.2,0.3,1.7c0.2,0.5,0.5,0.9,0.9,1.2c0.4,0.3,0.9,0.4,1.4,0.4c0.5,0,0.8-0.1,1.2-0.3c0.3-0.2,0.6-0.4,0.9-0.8
				c0,0.5,0,0.9,0,1.2c0,0.2-0.1,0.5-0.2,0.7c-0.1,0.2-0.3,0.4-0.5,0.5c-0.2,0.1-0.6,0.2-1,0.2c-0.2,0-0.4,0-0.5-0.1
				c-0.2,0-0.3-0.1-0.4-0.2c-0.1-0.1-0.2-0.2-0.3-0.3c-0.1-0.1-0.2-0.2-0.3-0.3c-0.2-0.2-0.4-0.3-0.6-0.3c-0.2,0-0.4,0.1-0.5,0.2
				c-0.1,0.1-0.2,0.3-0.2,0.5c0,0.3,0.1,0.5,0.4,0.8c0.2,0.2,0.6,0.4,1,0.6c0.4,0.2,0.9,0.2,1.5,0.2c0.6,0,1.1-0.1,1.5-0.2
				c0.4-0.1,0.7-0.3,1-0.6c0.3-0.3,0.4-0.6,0.6-1c0.1-0.4,0.2-0.9,0.2-1.4v-4.7c0-0.4-0.1-0.7-0.2-0.9
				C-142.2,121-142.4,120.9-142.7,120.9z M-143.8,125.3c-0.2,0.3-0.3,0.5-0.6,0.7c-0.2,0.1-0.5,0.2-0.8,0.2c-0.5,0-0.8-0.2-1.1-0.5
				c-0.3-0.3-0.4-0.8-0.4-1.5c0-0.6,0.1-1.2,0.4-1.5s0.6-0.5,1.1-0.5c0.5,0,0.9,0.2,1.1,0.6c0.3,0.4,0.4,0.9,0.4,1.5
				C-143.5,124.6-143.6,125-143.8,125.3z"/>
			<path id="XMLID_944_" d="M-135.4,122c-0.2-0.3-0.4-0.6-0.8-0.8c-0.3-0.2-0.7-0.3-1.1-0.3c-0.4,0-0.8,0.1-1.2,0.3
				c-0.3,0.2-0.7,0.5-0.9,0.8v-0.2c0-0.2,0-0.4-0.1-0.5c-0.1-0.1-0.2-0.2-0.3-0.3c-0.1-0.1-0.2-0.1-0.4-0.1c-0.2,0-0.4,0.1-0.6,0.2
				c-0.1,0.2-0.2,0.4-0.2,0.7v4.7c0,0.3,0.1,0.6,0.2,0.7c0.2,0.2,0.3,0.3,0.6,0.3c0.2,0,0.4-0.1,0.6-0.2c0.2-0.2,0.2-0.4,0.2-0.7v-2
				c0-0.7,0-1.1,0.1-1.4c0.1-0.3,0.3-0.5,0.5-0.7c0.2-0.2,0.5-0.3,0.8-0.3c0.4,0,0.7,0.1,0.9,0.4c0.1,0.3,0.2,0.7,0.2,1.2v2.7
				c0,0.3,0.1,0.6,0.2,0.7c0.2,0.2,0.3,0.3,0.6,0.3c0.2,0,0.4-0.1,0.6-0.2c0.1-0.2,0.2-0.4,0.2-0.7v-3c0-0.4,0-0.6,0-0.9
				C-135.2,122.4-135.3,122.2-135.4,122z"/>
			<path id="XMLID_939_" d="M-128.5,124.4c0.2-0.1,0.4-0.4,0.4-0.8c0-0.4-0.1-0.9-0.3-1.3c-0.2-0.4-0.6-0.8-1-1
				c-0.5-0.3-1-0.4-1.6-0.4c-0.5,0-0.9,0.1-1.3,0.2c-0.4,0.2-0.7,0.4-1,0.7c-0.3,0.3-0.5,0.6-0.6,1.1c-0.1,0.4-0.2,0.9-0.2,1.3
				c0,1,0.3,1.8,0.9,2.4c0.6,0.6,1.4,0.9,2.4,0.9c0.5,0,0.9-0.1,1.2-0.2c0.4-0.1,0.6-0.3,0.9-0.4c0.2-0.2,0.4-0.4,0.5-0.6
				c0.1-0.2,0.2-0.4,0.2-0.5c0-0.2-0.1-0.3-0.2-0.4c-0.1-0.1-0.2-0.1-0.4-0.1c-0.2,0-0.3,0-0.4,0.1c-0.2,0.2-0.4,0.3-0.5,0.5
				c-0.1,0.1-0.3,0.2-0.4,0.3c-0.2,0.1-0.3,0.2-0.5,0.2c-0.2,0-0.3,0.1-0.5,0.1c-0.3,0-0.6-0.1-0.8-0.2c-0.2-0.1-0.4-0.4-0.6-0.6
				c-0.1-0.3-0.2-0.6-0.2-1h3.2C-129.1,124.6-128.8,124.5-128.5,124.4z M-132.7,123.7c0.1-0.5,0.2-1,0.5-1.2c0.3-0.3,0.6-0.4,1-0.4
				c0.4,0,0.8,0.1,1,0.4c0.3,0.3,0.4,0.7,0.4,1.2H-132.7z"/>
			<path id="XMLID_936_" d="M-122.1,118.5c-0.2,0-0.4,0.1-0.6,0.3c-0.1,0.2-0.2,0.4-0.2,0.8v2.4c-0.3-0.3-0.6-0.6-0.9-0.7
				c-0.3-0.2-0.7-0.2-1.2-0.2c-0.8,0-1.5,0.3-2,0.8c-0.5,0.6-0.7,1.4-0.7,2.4c0,0.5,0.1,0.9,0.2,1.3c0.1,0.4,0.3,0.8,0.5,1.1
				c0.2,0.3,0.5,0.5,0.9,0.7c0.3,0.2,0.7,0.2,1.1,0.2c0.3,0,0.6,0,0.8-0.1c0.2-0.1,0.5-0.2,0.7-0.4c0.2-0.2,0.4-0.4,0.6-0.6v0.2
				c0,0.3,0.1,0.5,0.2,0.7c0.1,0.2,0.3,0.2,0.5,0.2c0.2,0,0.4-0.1,0.6-0.2c0.1-0.2,0.2-0.4,0.2-0.7v-7.1c0-0.3-0.1-0.5-0.2-0.7
				C-121.7,118.6-121.9,118.5-122.1,118.5z M-123.2,125.3c-0.1,0.3-0.3,0.5-0.6,0.7c-0.2,0.1-0.5,0.2-0.8,0.2
				c-0.3,0-0.5-0.1-0.8-0.2c-0.2-0.2-0.4-0.4-0.6-0.7c-0.1-0.3-0.2-0.7-0.2-1.1c0-0.4,0.1-0.8,0.2-1.1c0.1-0.3,0.3-0.6,0.5-0.7
				c0.2-0.2,0.5-0.3,0.8-0.3c0.3,0,0.5,0.1,0.8,0.2c0.2,0.2,0.4,0.4,0.6,0.7c0.1,0.3,0.2,0.7,0.2,1.1
				C-123,124.6-123.1,125-123.2,125.3z"/>
			<path id="XMLID_933_" d="M-112.8,121.3c-0.4-0.3-0.9-0.4-1.4-0.4c-0.5,0-0.9,0.1-1.2,0.3c-0.3,0.2-0.6,0.4-0.9,0.7v-2.5
				c0-0.3-0.1-0.5-0.2-0.7c-0.1-0.2-0.3-0.2-0.6-0.2c-0.2,0-0.4,0.1-0.6,0.3s-0.2,0.4-0.2,0.7v7.1c0,0.3,0.1,0.5,0.2,0.7
				c0.1,0.2,0.3,0.2,0.5,0.2c0.2,0,0.4-0.1,0.6-0.2c0.1-0.2,0.2-0.4,0.2-0.7v-0.2c0.2,0.2,0.3,0.4,0.4,0.5c0.1,0.1,0.2,0.2,0.4,0.3
				c0.2,0.1,0.3,0.2,0.6,0.2c0.2,0.1,0.5,0.1,0.7,0.1c0.4,0,0.8-0.1,1.1-0.2c0.3-0.2,0.6-0.4,0.9-0.7c0.2-0.3,0.4-0.7,0.5-1.1
				c0.1-0.4,0.2-0.9,0.2-1.3c0-0.7-0.1-1.2-0.3-1.7C-112,121.9-112.4,121.5-112.8,121.3z M-113.6,125.7c-0.3,0.4-0.6,0.5-1.1,0.5
				c-0.5,0-0.9-0.2-1.2-0.5c-0.3-0.3-0.4-0.8-0.4-1.5c0-0.4,0.1-0.8,0.2-1.1c0.1-0.3,0.3-0.6,0.6-0.7c0.2-0.2,0.5-0.3,0.8-0.3
				c0.3,0,0.6,0.1,0.8,0.3c0.2,0.2,0.4,0.4,0.5,0.7c0.1,0.3,0.2,0.7,0.2,1.1C-113.1,124.8-113.3,125.3-113.6,125.7z"/>
			<path id="XMLID_931_" d="M-105.8,121c-0.1-0.1-0.2-0.1-0.4-0.1c-0.2,0-0.3,0-0.4,0.1c-0.1,0.1-0.2,0.2-0.3,0.3
				c-0.1,0.2-0.2,0.4-0.3,0.7l-1.3,3.7l-1.4-4c-0.1-0.3-0.2-0.5-0.3-0.6c-0.1-0.1-0.3-0.2-0.5-0.2c-0.1,0-0.3,0-0.4,0.1
				c-0.1,0.1-0.2,0.2-0.3,0.3c-0.1,0.1-0.1,0.2-0.1,0.4c0,0.1,0.1,0.3,0.2,0.6l2,5l-0.1,0.4c-0.1,0.3-0.2,0.5-0.3,0.6
				c-0.1,0.1-0.2,0.2-0.3,0.3c-0.1,0.1-0.3,0.1-0.4,0.1c-0.1,0-0.2,0-0.3,0c-0.1,0-0.2,0-0.3,0c-0.2,0-0.4,0.1-0.5,0.2
				c-0.1,0.1-0.2,0.2-0.2,0.4c0,0.3,0.1,0.5,0.4,0.6c0.2,0.1,0.6,0.2,1.1,0.2c0.5,0,0.9-0.1,1.2-0.2c0.3-0.1,0.5-0.4,0.7-0.6
				c0.2-0.3,0.4-0.7,0.5-1.1l2.1-5.5c0.1-0.1,0.1-0.3,0.1-0.4c0-0.1,0.1-0.2,0.1-0.3c0-0.1,0-0.2-0.1-0.3
				C-105.6,121.1-105.7,121.1-105.8,121z"/>
		</g>
		<g id="XMLID_365_">
			<g id="XMLID_380_">
				<path id="XMLID_928_" d="M-83.4,118.5c-0.5,0-1,0.1-1.3,0.2c-0.3,0.1-0.5,0.4-0.7,0.7c-0.1,0.3-0.2,0.7-0.2,1.2v0.5h-0.4
					c-0.5,0-0.8,0.2-0.8,0.6c0,0.2,0.1,0.3,0.2,0.4c0.1,0.1,0.3,0.2,0.6,0.2h0.4v4.3c0,0.3,0.1,0.6,0.2,0.7c0.2,0.2,0.3,0.3,0.6,0.3
					c0.2,0,0.4-0.1,0.6-0.3c0.2-0.2,0.2-0.4,0.2-0.7v-4.3h0.4c0.3,0,0.5,0,0.7-0.1c0.2-0.1,0.2-0.2,0.2-0.5c0-0.4-0.3-0.6-0.9-0.6
					h-0.4v-0.4c0-0.3,0-0.6,0.1-0.7c0.1-0.2,0.3-0.3,0.6-0.3c0.1,0,0.2,0,0.4,0c0.2,0,0.3,0,0.3,0c0.1,0,0.3-0.1,0.3-0.2
					c0.1-0.1,0.2-0.2,0.2-0.4C-82,118.7-82.5,118.5-83.4,118.5z"/>
				<path id="XMLID_926_" d="M-78.3,121.1c-0.3-0.2-0.6-0.3-1-0.3c-0.3,0-0.6,0.1-0.8,0.3c-0.2,0.2-0.4,0.4-0.6,0.8
					c0-0.3-0.1-0.6-0.2-0.8c-0.1-0.2-0.3-0.3-0.6-0.3c-0.5,0-0.8,0.4-0.8,1.1v4.5c0,0.3,0.1,0.6,0.2,0.7c0.1,0.2,0.3,0.3,0.6,0.3
					c0.2,0,0.4-0.1,0.6-0.2c0.2-0.2,0.2-0.4,0.2-0.7v-1.4c0-0.5,0-0.9,0-1.2c0-0.3,0.1-0.6,0.2-0.9c0.1-0.2,0.2-0.4,0.4-0.6
					c0.1-0.1,0.3-0.2,0.6-0.2c0.2,0,0.4,0,0.6,0.1c0.2,0.1,0.4,0.1,0.4,0.1c0.2,0,0.3-0.1,0.4-0.2c0.1-0.1,0.2-0.3,0.2-0.5
					C-77.8,121.5-77.9,121.3-78.3,121.1z"/>
				<path id="XMLID_922_" d="M-72.2,124.4c0.2-0.1,0.4-0.4,0.4-0.8c0-0.4-0.1-0.9-0.3-1.3c-0.2-0.4-0.6-0.8-1-1
					c-0.5-0.3-1-0.4-1.6-0.4c-0.5,0-0.9,0.1-1.3,0.2c-0.4,0.2-0.7,0.4-1,0.7c-0.3,0.3-0.5,0.6-0.6,1.1c-0.1,0.4-0.2,0.9-0.2,1.3
					c0,1,0.3,1.8,0.9,2.4c0.6,0.6,1.4,0.9,2.4,0.9c0.5,0,0.9-0.1,1.2-0.2c0.3-0.1,0.6-0.3,0.9-0.4c0.2-0.2,0.4-0.4,0.5-0.6
					c0.1-0.2,0.2-0.4,0.2-0.5c0-0.2,0-0.3-0.2-0.4c-0.1-0.1-0.2-0.1-0.4-0.1c-0.2,0-0.3,0-0.4,0.1c-0.2,0.2-0.4,0.3-0.5,0.4
					c-0.1,0.1-0.3,0.2-0.4,0.3c-0.2,0.1-0.3,0.2-0.5,0.2c-0.2,0-0.3,0.1-0.5,0.1c-0.3,0-0.6-0.1-0.8-0.2c-0.2-0.1-0.4-0.4-0.6-0.6
					c-0.1-0.3-0.2-0.6-0.2-1h3.2C-72.7,124.6-72.4,124.5-72.2,124.4z M-76.3,123.7c0.1-0.5,0.2-1,0.5-1.2c0.3-0.3,0.6-0.4,1-0.4
					c0.4,0,0.8,0.1,1,0.4c0.3,0.3,0.4,0.7,0.4,1.2H-76.3z"/>
				<path id="XMLID_919_" d="M-65.4,124.4c0.2-0.1,0.4-0.4,0.4-0.8c0-0.4-0.1-0.9-0.3-1.3c-0.2-0.4-0.6-0.8-1-1
					c-0.5-0.3-1-0.4-1.6-0.4c-0.5,0-0.9,0.1-1.3,0.2c-0.4,0.2-0.7,0.4-1,0.7c-0.3,0.3-0.5,0.6-0.6,1.1c-0.1,0.4-0.2,0.9-0.2,1.3
					c0,1,0.3,1.8,0.9,2.4c0.6,0.6,1.4,0.9,2.4,0.9c0.5,0,0.9-0.1,1.2-0.2c0.3-0.1,0.6-0.3,0.9-0.4c0.2-0.2,0.4-0.4,0.5-0.6
					c0.1-0.2,0.2-0.4,0.2-0.5c0-0.2,0-0.3-0.2-0.4c-0.1-0.1-0.2-0.1-0.4-0.1c-0.2,0-0.3,0-0.4,0.1c-0.2,0.2-0.4,0.3-0.5,0.4
					c-0.1,0.1-0.3,0.2-0.4,0.3c-0.2,0.1-0.3,0.2-0.5,0.2c-0.2,0-0.3,0.1-0.5,0.1c-0.3,0-0.6-0.1-0.8-0.2c-0.2-0.1-0.4-0.4-0.6-0.6
					c-0.1-0.3-0.2-0.6-0.2-1h3.2C-66,124.6-65.7,124.5-65.4,124.4z M-69.6,123.7c0.1-0.5,0.2-1,0.5-1.2c0.3-0.3,0.6-0.4,1-0.4
					c0.4,0,0.8,0.1,1,0.4c0.3,0.3,0.4,0.7,0.4,1.2H-69.6z"/>
				<path id="XMLID_390_" d="M-59.4,121.3c-0.4-0.3-0.9-0.4-1.4-0.4c-0.4,0-0.8,0.1-1.1,0.3c-0.3,0.2-0.6,0.5-1,0.8v-0.2
					c0-0.3-0.1-0.5-0.2-0.7c-0.1-0.2-0.3-0.2-0.6-0.2c-0.2,0-0.4,0.1-0.6,0.2c-0.1,0.2-0.2,0.4-0.2,0.7v7c0,0.4,0.1,0.6,0.1,0.8
					c0.1,0.2,0.3,0.3,0.6,0.3c0.5,0,0.8-0.4,0.8-1.1v-2.4c0.3,0.4,0.6,0.6,0.9,0.8c0.3,0.2,0.7,0.3,1.2,0.3c0.4,0,0.7-0.1,1.1-0.2
					c0.3-0.2,0.6-0.4,0.9-0.7c0.2-0.3,0.4-0.6,0.6-1c0.1-0.4,0.2-0.9,0.2-1.4c0-0.7-0.1-1.3-0.4-1.8
					C-58.7,121.9-59,121.5-59.4,121.3z M-59.9,125.3c-0.1,0.3-0.3,0.5-0.6,0.7c-0.2,0.2-0.5,0.2-0.7,0.2c-0.5,0-0.8-0.2-1.1-0.5
					c-0.3-0.4-0.5-0.9-0.5-1.5c0-0.7,0.2-1.2,0.5-1.6c0.3-0.3,0.7-0.5,1.1-0.5c0.3,0,0.5,0.1,0.8,0.2c0.2,0.2,0.4,0.4,0.5,0.7
					c0.1,0.3,0.2,0.7,0.2,1.1C-59.7,124.6-59.8,125-59.9,125.3z"/>
				<path id="XMLID_389_" d="M-56.5,120.9c-0.2,0-0.4,0.1-0.6,0.2c-0.1,0.2-0.2,0.4-0.2,0.7v4.6c0,0.3,0.1,0.6,0.2,0.7
					c0.2,0.2,0.3,0.3,0.6,0.3c0.2,0,0.4-0.1,0.6-0.3c0.2-0.2,0.2-0.4,0.2-0.7v-4.7c0-0.3-0.1-0.5-0.2-0.7
					C-56,121-56.2,120.9-56.5,120.9z"/>
				<path id="XMLID_388_" d="M-56.4,118.6c-0.2,0-0.4,0.1-0.6,0.2c-0.2,0.1-0.2,0.3-0.2,0.6c0,0.3,0.1,0.4,0.2,0.6
					c0.2,0.1,0.4,0.2,0.6,0.2c0.2,0,0.4-0.1,0.6-0.2c0.2-0.1,0.2-0.3,0.2-0.6c0-0.3-0.1-0.5-0.2-0.6
					C-56,118.6-56.2,118.6-56.4,118.6z"/>
				<path id="XMLID_387_" d="M-49.1,125.9l-1.7-2.6l0.9-0.8c0.4-0.4,0.7-0.7,0.7-1c0-0.2-0.1-0.4-0.2-0.5c-0.1-0.1-0.3-0.2-0.5-0.2
					c-0.2,0-0.3,0-0.4,0.1c-0.1,0.1-0.3,0.3-0.5,0.5l-1.8,1.9v-3.9c0-0.3-0.1-0.6-0.2-0.8c-0.1-0.2-0.3-0.3-0.6-0.3
					c-0.3,0-0.5,0.1-0.6,0.3c-0.1,0.2-0.2,0.5-0.2,0.8v6.9c0,0.3,0.1,0.6,0.2,0.7c0.1,0.2,0.3,0.3,0.6,0.3c0.2,0,0.4-0.1,0.6-0.3
					c0.2-0.2,0.2-0.4,0.2-0.7v-1.3l0.9-0.8l1.4,2.4c0.2,0.3,0.3,0.5,0.4,0.6c0.1,0.1,0.3,0.2,0.5,0.2c0.2,0,0.4-0.1,0.6-0.2
					c0.1-0.2,0.2-0.4,0.2-0.6c0-0.1,0-0.2-0.1-0.3C-48.9,126.3-49,126.1-49.1,125.9z"/>
				<path id="XMLID_386_" d="M-46.9,125.7c-0.3,0-0.5,0.1-0.6,0.3c-0.2,0.2-0.3,0.4-0.3,0.6c0,0.3,0.1,0.5,0.3,0.7
					c0.2,0.2,0.4,0.2,0.6,0.2c0.2,0,0.4-0.1,0.6-0.2c0.2-0.2,0.3-0.4,0.3-0.7c0-0.2-0.1-0.5-0.3-0.6
					C-46.4,125.8-46.7,125.7-46.9,125.7z"/>
				<path id="XMLID_385_" d="M-39.5,124.8c-0.2,0-0.3,0.1-0.4,0.2c-0.1,0.1-0.2,0.2-0.3,0.4c-0.2,0.3-0.4,0.5-0.6,0.7
					c-0.2,0.2-0.5,0.2-0.8,0.2c-0.2,0-0.5,0-0.7-0.1c-0.2-0.1-0.4-0.2-0.5-0.4c-0.1-0.2-0.3-0.4-0.3-0.7c-0.1-0.3-0.1-0.5-0.1-0.8
					c0-0.6,0.1-1.2,0.4-1.5c0.3-0.4,0.7-0.6,1.2-0.6c0.3,0,0.6,0.1,0.8,0.2c0.2,0.1,0.4,0.4,0.6,0.7c0.1,0.2,0.2,0.3,0.3,0.3
					c0.1,0.1,0.2,0.1,0.3,0.1c0.2,0,0.4-0.1,0.5-0.2c0.1-0.1,0.2-0.3,0.2-0.5c0-0.2-0.1-0.4-0.2-0.6c-0.1-0.2-0.3-0.4-0.6-0.6
					c-0.2-0.2-0.5-0.4-0.9-0.5c-0.4-0.1-0.7-0.2-1.2-0.2c-0.7,0-1.3,0.1-1.7,0.4c-0.5,0.3-0.9,0.7-1.1,1.2c-0.3,0.5-0.4,1.1-0.4,1.8
					c0,1,0.3,1.8,0.8,2.3c0.6,0.6,1.3,0.9,2.3,0.9c0.5,0,0.9-0.1,1.3-0.2c0.4-0.1,0.7-0.3,0.9-0.5c0.2-0.2,0.4-0.4,0.6-0.7
					c0.1-0.2,0.2-0.4,0.2-0.6c0-0.2-0.1-0.3-0.2-0.5C-39.2,124.8-39.3,124.8-39.5,124.8z"/>
				<path id="XMLID_382_" d="M-32.7,121.8c-0.3-0.3-0.6-0.5-1-0.7c-0.4-0.2-0.8-0.2-1.3-0.2c-0.5,0-0.9,0.1-1.3,0.2
					c-0.4,0.2-0.7,0.4-1,0.7c-0.3,0.3-0.5,0.6-0.6,1c-0.1,0.4-0.2,0.9-0.2,1.3c0,0.5,0.1,0.9,0.2,1.3c0.2,0.4,0.4,0.7,0.7,1
					c0.3,0.3,0.6,0.5,1,0.7c0.4,0.2,0.8,0.2,1.3,0.2c0.5,0,0.9-0.1,1.3-0.2c0.4-0.2,0.7-0.4,1-0.7c0.3-0.3,0.5-0.6,0.7-1
					c0.1-0.4,0.2-0.9,0.2-1.3c0-0.5-0.1-0.9-0.2-1.3C-32.2,122.4-32.4,122.1-32.7,121.8z M-33.9,125.7c-0.3,0.4-0.7,0.6-1.2,0.6
					c-0.3,0-0.6-0.1-0.8-0.3c-0.2-0.2-0.4-0.4-0.6-0.7c-0.1-0.3-0.2-0.7-0.2-1.1c0-0.4,0.1-0.8,0.2-1.1c0.1-0.3,0.3-0.6,0.6-0.7
					c0.2-0.2,0.5-0.2,0.8-0.2c0.5,0,0.9,0.2,1.2,0.6c0.3,0.4,0.4,0.9,0.4,1.5C-33.5,124.8-33.6,125.4-33.9,125.7z"/>
				<path id="XMLID_381_" d="M-22.8,121.2c-0.3-0.2-0.7-0.3-1.1-0.3c-0.4,0-0.7,0.1-1,0.2c-0.3,0.2-0.6,0.4-0.9,0.7
					c-0.2-0.3-0.4-0.6-0.7-0.7c-0.3-0.2-0.6-0.2-1-0.2c-0.4,0-0.7,0.1-1.1,0.2c-0.3,0.2-0.6,0.4-0.9,0.7v-0.2c0-0.3-0.1-0.5-0.2-0.6
					c-0.2-0.1-0.3-0.2-0.6-0.2c-0.2,0-0.4,0.1-0.6,0.2c-0.1,0.2-0.2,0.4-0.2,0.7v4.6c0,0.3,0.1,0.6,0.2,0.8c0.2,0.2,0.4,0.3,0.6,0.3
					c0.2,0,0.4-0.1,0.6-0.3c0.1-0.2,0.2-0.4,0.2-0.8v-2.2c0-0.7,0.1-1.2,0.3-1.6c0.2-0.4,0.5-0.6,1-0.6c0.3,0,0.5,0.1,0.6,0.2
					c0.1,0.1,0.2,0.3,0.2,0.6c0,0.2,0,0.5,0,1v2.6c0,0.3,0.1,0.6,0.2,0.8c0.1,0.2,0.3,0.3,0.6,0.3c0.3,0,0.5-0.1,0.6-0.3
					c0.2-0.2,0.2-0.4,0.2-0.8v-2.2c0-0.7,0.1-1.2,0.2-1.5c0.1-0.2,0.3-0.4,0.5-0.5c0.2-0.1,0.4-0.2,0.6-0.2c0.3,0,0.5,0.1,0.6,0.2
					c0.1,0.1,0.2,0.3,0.2,0.5c0,0.2,0,0.5,0,0.8v2.7c0,0.3,0.1,0.6,0.2,0.8c0.2,0.2,0.4,0.3,0.6,0.3c0.3,0,0.5-0.1,0.6-0.3
					c0.2-0.2,0.2-0.4,0.2-0.8v-3.2c0-0.6-0.1-1.1-0.2-1.4C-22.2,121.6-22.5,121.3-22.8,121.2z"/>
			</g>
			<g id="XMLID_366_">
				<path id="XMLID_379_" d="M-101.1,123.8C-101.1,123.8-101.1,123.8-101.1,123.8C-101.1,123.8-101.1,123.8-101.1,123.8z"/>
				<path id="XMLID_378_" d="M-101,124.3C-101,124.3-101,124.3-101,124.3c0-0.1-0.1-0.3-0.1-0.4C-101.1,124-101,124.2-101,124.3z"/>
				<path id="XMLID_377_" d="M-100.5,125.8C-100.5,125.8-100.5,125.8-100.5,125.8C-100.5,125.8-100.5,125.8-100.5,125.8z"/>
				<path id="XMLID_376_" d="M-100.5,125.7C-100.5,125.7-100.5,125.7-100.5,125.7C-100.5,125.7-100.5,125.7-100.5,125.7z"/>
				<path id="XMLID_375_" d="M-100.8,124.9c0.1,0.3,0.2,0.5,0.3,0.7C-100.7,125.4-100.8,125.1-100.8,124.9L-100.8,124.9z"/>
				<path id="XMLID_374_" d="M-95.6,117l-0.1-0.3c0.3-0.1,0.5-0.3,0.5-0.6c0-0.4-0.3-0.7-0.7-0.7c-0.4,0-0.7,0.3-0.7,0.7
					c0,0.3,0.2,0.6,0.5,0.6l0.1,0.3c-1,0.1-1.8,0.5-1.8,0.5l0.1,0.4c0.6-0.2,1.2-0.3,1.6-0.4c0.5-0.1,0.8-0.1,1.1-0.1
					c0.3,0,0.5,0,0.8,0.1l0.1-0.5C-93.9,117.2-94.7,117-95.6,117z"/>
				<path id="XMLID_373_" d="M-100.9,119.5c0,0-0.5,0.5-0.9,1.3c0,0,0-0.1-0.1-0.1c-0.1-0.1-0.3-0.2-0.5-0.2c0,0,0,0,0,0
					c-0.1,0-0.2,0-0.3-0.1c0.1-0.1,0.1-0.2,0.1-0.3c0-0.2-0.2-0.4-0.4-0.4c-0.2,0-0.4,0.2-0.4,0.4c0,0.2,0.2,0.4,0.4,0.4
					c0,0,0.1,0,0.1,0c0.1,0.1,0.3,0.2,0.5,0.2c0.1,0,0.2,0,0.3,0.1c0.1,0.1,0.1,0.2,0.1,0.3c0,0,0,0,0,0c-0.3,0.7-0.2,1.7-0.2,1.7
					l0.7,0c0-0.3,0.1-0.9,0.2-1.4c0.3-0.9,0.7-1.5,0.8-1.5l0,0c0,0,0-0.1,0.1-0.1l-0.2-0.1L-100.9,119.5z"/>
				<path id="XMLID_372_" d="M-89.1,118.1c-0.2,0-0.4,0.2-0.4,0.4c0,0,0,0.1,0,0.1c-0.1,0.1-0.2,0.3-0.2,0.5c0,0.1,0,0.2-0.1,0.3
					c-0.1,0-0.1,0.1-0.2,0.1c-0.5-0.7-1.1-1.1-1.1-1.1l-0.5,0.5c0.4,0.3,0.7,0.7,1.1,1.2c0.2,0.4,0.5,0.8,0.7,1.3l0.6-0.3
					c0,0-0.3-0.7-0.7-1.4c0.1,0,0.1-0.1,0.2-0.1c0.1-0.1,0.2-0.3,0.2-0.5c0-0.1,0-0.2,0.1-0.3c0.1,0.1,0.2,0.1,0.3,0.1
					c0.2,0,0.4-0.2,0.4-0.4C-88.6,118.3-88.8,118.1-89.1,118.1z"/>
				<path id="XMLID_371_" d="M-90.7,123.9c-0.9,0.4-2.3,1-4.2,1.3c-0.7,0.1-1.5,0.1-2.1,0.1c-0.9,0-1.6-0.1-2.2-0.1
					c-0.7-0.1-1.2-0.2-1.5-0.3c0.1,0.2,0.2,0.5,0.3,0.7c0,0,0,0,0,0c0,0,0,0.1,0,0.1c0,0,0,0.1,0,0.1c0,0,0,0,0,0
					c0.2,0.4,0.4,0.7,0.7,1c0.9,1,1.8,1.1,1.8,1.1l0,0l0,0c0,0,0.8,0.3,2.1,0.3c1.2,0,2.4-0.2,3.5-0.7c0.8-0.4,1.6-1.1,2-1.7
					c0.3-0.5,0.5-0.9,0.7-1.4c0.1-0.3,0.1-0.7,0.1-1.1C-89.8,123.4-90.2,123.6-90.7,123.9z"/>
				<path id="XMLID_367_" d="M-94,118c-0.3,0-0.5-0.1-0.8-0.1c-0.3,0-0.6,0-1.1,0.1c-0.5,0-1,0.2-1.6,0.4c-0.8,0.3-1.6,0.7-2.2,1.3
					l0,0c-0.1,0.1-0.3,0.3-0.5,0.5c0,0-0.4,0.6-0.7,1.4c-0.2,0.6-0.2,1.5-0.2,1.5v0c0,0.2,0,0.4,0,0.6c0,0,0,0,0,0c0,0,0,0.1,0,0.1
					c0,0.1,0,0.3,0.1,0.4c0.4,0.1,3,0.7,6,0.3c1.8-0.3,3.2-0.8,4.1-1.2c0.7-0.3,1.2-0.6,1.3-0.8c-0.2-0.6-0.7-1.7-1.1-2.3
					C-92,118.6-93.3,118.1-94,118z M-97.7,123.3c-1,0-1.8-0.8-1.8-1.8c0-1,0.8-1.8,1.8-1.8c1,0,1.8,0.8,1.8,1.8
					C-95.9,122.5-96.7,123.3-97.7,123.3z M-92.5,122c-0.6,0-1.1-0.5-1.1-1.1c0-0.6,0.5-1.1,1.1-1.1c0.6,0,1.1,0.5,1.1,1.1
					C-91.4,121.5-91.9,122-92.5,122z"/>
			</g>
		</g>
	</g>
</g>
</svg>
