<svg version="1.1"
	 		width="144.996mm"
   height="144.996mm"
	 inkscape:version="0.92.4 (5da689c313, 2019-01-14)" sodipodi:docname="С‚РµРєСЃС‚СѓСЂС‹ Р°С†С‚РµРєСЃРєРёРµ.svg" xmlns:cc="http://creativecommons.org/ns#" xmlns:dc="http://purl.org/dc/elements/1.1/" xmlns:inkscape="http://www.inkscape.org/namespaces/inkscape" xmlns:rdf="http://www.w3.org/1999/02/22-rdf-syntax-ns#" xmlns:sodipodi="http://sodipodi.sourceforge.net/DTD/sodipodi-0.dtd" xmlns:svg="http://www.w3.org/2000/svg"
	 xmlns="http://www.w3.org/2000/svg" xmlns:xlink="http://www.w3.org/1999/xlink" x="0px" y="0px" viewBox="0 0 294.4 294.4"
	 style="enable-background:new 0 0 294.4 294.4;" xml:space="preserve">
<style type="text/css">
	.st0{fill:#F7F8F7;}
	.st1{fill:#EBECEB;}
</style>
<sodipodi:namedview  bordercolor="#666666" borderopacity="1" fit-margin-bottom="0" fit-margin-left="0" fit-margin-right="0" fit-margin-top="0" gridtolerance="10" guidetolerance="10" id="namedview310" inkscape:current-layer="svg308" inkscape:cx="196.64491" inkscape:cy="198.41769" inkscape:pageopacity="0" inkscape:pageshadow="2" inkscape:window-height="709" inkscape:window-maximized="0" inkscape:window-width="1109" inkscape:window-x="0" inkscape:window-y="0" inkscape:zoom="0.59470518" objecttolerance="10" pagecolor="#ffffff" showgrid="false">
	</sodipodi:namedview>
<g id="Слой_x0020_1" transform="translate(-107.38765)">
	<polygon id="polygon7" class="st0" points="107.4,294.4 401.8,294.4 401.8,0 107.4,0 	"/>
	<path id="path9" inkscape:connector-curvature="0" class="st1" d="M167.8,221.3C167.8,221.4,167.8,221.3,167.8,221.3
		c0-0.1,0-0.2,0-0.2l0,0c0.1-0.1,0.1-0.1,0.1-0.1c0.1,0,0.1,0,0.2,0.1c0.1,0.1,0.1,0.2,0,0.3c-0.1,0.1-0.1,0.1-0.2,0.1l0,0l0,0l0,0
		l0,0l0,0l0,0C167.8,221.5,167.8,221.3,167.8,221.3z M168.2,223c0.7-0.1,1.3-0.6,1.5-1.3c0.2-0.7-0.1-1.4-0.7-1.9
		C166.2,217.9,165,223.6,168.2,223z"/>
	<path id="path11" inkscape:connector-curvature="0" class="st1" d="M167.8,221.4L167.8,221.4L167.8,221.4L167.8,221.4z"/>
	<path id="path13" inkscape:connector-curvature="0" class="st1" d="M167.7,218.6c0.1-0.1,0.2-0.1,0.3-0.1c0.3-0.1,0.6,0,0.9,0.1
		c0.9,0.5,1.6,1.3,1.9,2.3c0,0,0,0.1,0,0.1c-0.1,0.4-0.2,0.7-0.3,1c-0.5,1.5-2.2,2.1-3.5,1.3c-0.5-0.2-0.9-0.6-1.3-1.1
		c-0.3-0.9-0.3-2,0.4-2.6C166.5,219.1,167.1,218.8,167.7,218.6z M165,218c-0.8,0.7-1.5,1.5-1.5,2.6c0,3.7,3.8,6.5,7.1,4.3
		c0.8-0.5,1.3-1.1,1.5-1.8l0.1-0.1c1.6-2.4-0.1-6.2-3-6.4C167.6,216.5,166,217.1,165,218z"/>
	<path id="path15" inkscape:connector-curvature="0" class="st1" d="M174.6,229.3c-0.1,0.3-0.2,0.6-0.2,0.9c0.1,0.1,0.2,0.1,0.3,0.1
		c0.6,0.1,1.6-0.1,1.4,0.9c0,0.1-0.1,0.2-0.1,0.3c-0.1,0.2-0.3,0.3-0.5,0.5c0.1,0,0.1,0,0.1,0c0.9-0.1,0.9-2.1,1-2.7
		c0.2-1.1,0.5-2.3,0.7-3.4c0.5-2.3,1-4.6,1.4-6.9c0.1-0.4-0.1-0.5-0.4-0.3c-0.5,0.2-1.2,0.7-1.3,0.9c-0.1,0.2-0.1,1.2-0.2,1.3
		c-0.2,0.1-0.2,0.2-0.3,0.3c-0.3,1.7-0.6,3.3-0.9,4.9C175.3,227.1,174.9,228.2,174.6,229.3z"/>
	<path id="path17" inkscape:connector-curvature="0" class="st1" d="M174.4,230.1c-0.2,0-0.3-0.1-0.5-0.1c-0.1-0.2-0.2-0.3-0.3-0.3
		c-1.7-0.3-3.3-0.6-4.9-0.9c-1.1-0.2-2.3-0.7-3.4-1c-0.7-0.2-0.9-0.3-1.4,0.1c-0.5,0.4-0.9,0.7-1.4,1.1c0.1,0.1,0.2,0.2,0.3,0.2
		c2.3,0.5,4.7,1,7.1,1.5c1.3,0.2,2.4,0.5,3.7,0.7c0.6,0.1,1.5,0.5,2,0.3c-0.2-0.1-0.3-0.1-0.5-0.2
		C174.2,231.3,174.2,230.8,174.4,230.1z"/>
	<path id="path19" inkscape:connector-curvature="0" class="st1" d="M176,231.4c0-0.1,0.1-0.2,0.1-0.3c0.2-1-0.7-0.8-1.4-0.9
		c-0.1-0.1-0.2-0.1-0.3-0.1c-0.2,0.6-0.2,1.1,0.6,1.6c0.2,0.1,0.3,0.1,0.5,0.2C175.7,231.8,175.8,231.7,176,231.4z"/>
	<path id="path21" inkscape:connector-curvature="0" class="st1" d="M176.3,234.3c0,0.2,0.1,0.4,0.2,0.5v0.1c0.2,0.4,0.6,0.6,1,0.5
		c0.3-0.1,0.6-0.3,0.7-0.5c0.3-0.6,0.1-1.4-0.6-1.6C177,233.1,176.3,233.6,176.3,234.3z"/>
	<path id="path23" inkscape:connector-curvature="0" class="st1" d="M243.2,230.2c-0.3-0.7-0.6-1.4-0.9-2.1
		c-0.2-0.6-0.9-0.7-1.3-0.2c-0.8,1.3-1.6,2.4-2.6,3.5c-0.7,0.9-2.4,1.8-1.8,3.1c0.2,0.5,0.9,1,1.4,0.7c0.3-0.2,0.5-0.6,0.7-0.9
		c0.2-0.3,0.5-0.6,0.7-0.9c0.6-0.9,1.3-1.8,1.9-2.7c-0.5,0.6,2.7,5.1,3.1,5.9c0.1,0.1,0.1,0.2,0.2,0.2s0.2,0,0.3-0.1
		c0.6-0.2,1.2-0.8,1-1.4c-0.1-0.2-0.2-0.3-0.3-0.5C244.8,233.6,244,231.8,243.2,230.2z"/>
	<path id="path25" inkscape:connector-curvature="0" class="st1" d="M242.2,223.8c-0.1-0.1-0.2-0.2-0.3-0.2
		c-0.1-0.1-0.1-0.1-0.1-0.1c-0.3-0.3-0.8-0.3-1.1,0c-0.3,0.2-0.5,0.5-0.7,0.7c-0.6,0.4-1,1-1.5,1.5c-0.1,0.1-0.1,0.1-0.2,0.2
		c-0.2,0.1-0.3,0.3-0.5,0.5c-0.9,0.8-1.8,1.4-2.7,2.1c-0.3,0.1-0.3,0.5-0.2,0.7c0.1,0.6,0.5,1,1,1.4c0.3,0.2,0.6,0.1,0.9-0.2
		c1.4-1.7,2.7-3,4.4-4.3c0,0,3.4,3.8,3.6,4c0.9,1,1.4,2.7,2.7,1.1c0.1-0.1,0.1-0.2,0.1-0.3c0-0.1-0.1-0.2-0.2-0.2
		c-1.1-1.1-1.9-2.2-2.7-3.5C243.9,226,243.1,224.9,242.2,223.8z"/>
	<path id="path27" inkscape:connector-curvature="0" class="st1" d="M240.4,219.8c-1.3,0.9-2.9,2.6-3.3,2.9c-1,0.9-1.3,1.9,0.1,2.6
		c0.3,0.1,3.9-3.6,4.2-3.9c0.2-0.2,3.6,3.4,3.9,3.5s0.9,0,1-0.4c0.1-0.3-0.2-0.7-0.5-1c-1.3-1.4-2.7-2.7-4-4.1
		C241.5,219.2,241,219.4,240.4,219.8z"/>
	<path id="path29" inkscape:connector-curvature="0" class="st1" d="M242.5,216.9c0.4-0.5,0.3-1.3-0.2-1.6c-0.2-0.1-0.3-0.1-0.6-0.1
		l0,0c-0.4-0.1-0.8,0.2-0.9,0.6c-0.1,0.3-0.1,0.6,0.1,0.9C241.2,217.2,242,217.4,242.5,216.9z"/>
	<path id="path31" inkscape:connector-curvature="0" class="st1" d="M311.7,235.9c-0.2,0-1,0.6-1.1,0.5c-0.1-0.1-0.3-0.1-0.5-0.1
		c-1.5,0.7-3.1,1.4-4.6,2.1c-1.1,0.4-2.3,0.7-3.4,1.1c-0.3,0.1-0.6,0.2-0.9,0.3c0.1,0.1,0.1,0.2,0.1,0.3c0.2,0.6,1,1.3,0,1.7
		c-0.1,0-0.2,0.1-0.3,0.1c-0.3,0.1-0.5,0-0.6-0.1v0.1c0.6,0.7,2.3-0.5,2.9-0.7c1.1-0.5,2.2-0.9,3.3-1.4c2.2-0.9,4.3-1.8,6.5-2.7
		c0.3-0.2,0.3-0.4,0.1-0.6C312.9,236.1,312,235.8,311.7,235.9z"/>
	<path id="path33" inkscape:connector-curvature="0" class="st1" d="M301.2,239.8c-0.1-0.2-0.1-0.3-0.2-0.5c0.1-0.1,0.1-0.2,0-0.4
		c-0.7-1.5-1.4-3.1-2.1-4.6c-0.5-1.1-0.7-2.3-1.1-3.5c-0.2-0.7-0.2-0.9-0.9-1.1c-0.6-0.2-1.1-0.4-1.7-0.5c-0.1,0.1-0.1,0.2-0.1,0.3
		c1,2.2,1.9,4.5,2.8,6.8c0.5,1.1,1,2.3,1.5,3.5c0.2,0.6,0.4,1.5,0.9,1.9c-0.1-0.2-0.2-0.3-0.2-0.6
		C300.3,240.3,300.7,240,301.2,239.8z"/>
	<path id="path35" inkscape:connector-curvature="0" class="st1" d="M301.1,241.8c0.1,0,0.2-0.1,0.3-0.1c1-0.5,0.2-1.1,0-1.7
		c-0.1-0.1-0.1-0.2-0.1-0.3c-0.6,0.2-1,0.5-1,1.4c0,0.2,0.1,0.4,0.2,0.6C300.6,241.8,300.8,241.9,301.1,241.8z"/>
	<path id="path37" inkscape:connector-curvature="0" class="st1" d="M313.6,231.8c-0.2,0.1-1,0.7-1.1,0.5c-0.1-0.1-0.3-0.1-0.5,0
		c-1.5,0.7-3.1,1.4-4.6,2.1c-1.1,0.3-2.3,0.7-3.4,1.1c-0.3,0.1-0.6,0.2-0.9,0.3c0.1,0.1,0.1,0.2,0.1,0.2c0.2,0.6,1,1.3,0,1.7
		c-0.1,0.1-0.2,0.1-0.3,0.1c-0.2,0.1-0.5-0.1-0.6-0.2c0,0.1,0,0.1,0.1,0.1c0.5,0.7,2.3-0.5,2.8-0.7c1.1-0.5,2.2-0.9,3.3-1.3
		c2.2-0.9,4.4-1.8,6.5-2.7c0.3-0.1,0.3-0.3,0.1-0.5C314.7,232.1,313.9,231.8,313.6,231.8z"/>
	<path id="path39" inkscape:connector-curvature="0" class="st1" d="M303.1,235.8c-0.1-0.2-0.1-0.3-0.2-0.5c0.1-0.1,0.1-0.3,0.1-0.5
		c-0.7-1.5-1.4-3.1-2.1-4.6c-0.5-1.1-0.7-2.3-1.1-3.4c-0.2-0.7-0.2-0.9-0.9-1.1c-0.6-0.2-1.1-0.3-1.7-0.5c-0.1,0.1-0.1,0.2,0,0.3
		c0.9,2.3,1.8,4.6,2.8,6.8c0.5,1.2,0.9,2.3,1.4,3.5c0.2,0.6,0.4,1.5,0.9,1.9c-0.1-0.2-0.1-0.3-0.2-0.5
		C302.2,236.2,302.6,235.9,303.1,235.8z"/>
	<path id="path41" inkscape:connector-curvature="0" class="st1" d="M303,237.8c0.1-0.1,0.2-0.1,0.3-0.1c1-0.4,0.2-1.1,0-1.7
		c0-0.1-0.1-0.2-0.1-0.2c-0.6,0.2-1,0.5-1,1.4c0.1,0.2,0.1,0.3,0.2,0.5C302.5,237.8,302.7,237.9,303,237.8z"/>
	<path id="path43" inkscape:connector-curvature="0" class="st1" d="M305.2,233.7c-0.1,0-0.2,0.1-0.3,0.1c-0.3,0.1-0.5,0-0.6-0.1
		v0.1c0.5,0.7,2.3-0.5,2.9-0.7c1.1-0.5,2.2-0.9,3.2-1.4c2.2-0.9,4.4-1.8,6.5-2.7c0.4-0.2,0.3-0.3,0.1-0.6c-0.4-0.3-1.3-0.6-1.5-0.6
		c-0.2,0.1-1,0.6-1.1,0.5c-0.1-0.1-0.2-0.1-0.4-0.1c-1.5,0.7-3.1,1.4-4.7,2.1c-1.1,0.3-2.2,0.7-3.4,1c-0.3,0.1-0.6,0.2-0.9,0.3
		c0,0.1,0.1,0.2,0.1,0.3C305.4,232.6,306.1,233.3,305.2,233.7z"/>
	<path id="path45" inkscape:connector-curvature="0" class="st1" d="M301.9,228.3c0.5,1.1,1,2.3,1.4,3.5c0.3,0.6,0.4,1.5,0.9,1.9
		c-0.1-0.2-0.2-0.3-0.2-0.6c-0.1-0.9,0.4-1.1,1-1.4c-0.1-0.2-0.1-0.3-0.2-0.5c0.1-0.1,0.1-0.3,0.1-0.5c-0.7-1.5-1.4-3.1-2.1-4.6
		c-0.5-1.1-0.7-2.3-1.1-3.4c-0.2-0.7-0.2-0.9-1-1.1c-0.5-0.2-1.1-0.4-1.6-0.5c-0.1,0.1-0.1,0.2-0.1,0.3
		C300.1,223.8,301,226,301.9,228.3z"/>
	<path id="path47" inkscape:connector-curvature="0" class="st1" d="M304.1,233.1c0,0.2,0.1,0.4,0.2,0.6c0.2,0.1,0.3,0.2,0.6,0.1
		c0.1,0,0.2-0.1,0.3-0.1c1-0.5,0.2-1.1,0-1.7c-0.1-0.1-0.1-0.2-0.1-0.3C304.5,232,304,232.2,304.1,233.1z"/>
	<path id="path49" inkscape:connector-curvature="0" class="st1" d="M310.1,222.4c0,0,0.1,0,0.1,0c0.9,0.1,1.7-0.4,1.8-1.3
		c0.1-0.6-0.2-1.3-0.7-1.7c-0.6-0.7-1.7-0.9-2.5-0.2c-0.7,0.7-0.7,1.9-0.1,2.7C309.1,222.3,309.6,222.5,310.1,222.4z"/>
	<path id="path51" inkscape:connector-curvature="0" class="st1" d="M313.6,223.5c-0.2,0.4-0.1,0.8,0.3,1c0.3,0.2,0.9,0.1,1-0.3
		c0.6-1.6,0.9-3.4,0.2-5c-0.5-1.4-1.6-2.6-3-3.2c-2.8-1.3-6.4,0.2-7.5,3.1c-0.3,0.9,0.9,1.6,1.3,0.7c0.8-2.2,3.3-3.4,5.5-2.4
		C313.9,218.4,314.4,221.1,313.6,223.5z"/>
	<path id="path53" inkscape:connector-curvature="0" class="st1" d="M310,225.4c0.1-0.6-0.3-1.1-0.7-1.3c-0.6-0.5-1.5-0.4-2,0.1
		c-0.5,0.3-0.7,1-0.5,1.5c0.2,0.4,0.5,0.7,1,0.9C308.7,227,309.9,226.4,310,225.4z"/>
	<path id="path55" inkscape:connector-curvature="0" class="st1" d="M306.1,227.8c-0.2,0.1-0.3,0.3-0.3,0.5l-0.1,0.1
		c-0.2,0.3-0.1,0.9,0.2,1.1c0.2,0.2,0.6,0.3,0.9,0.3c0.7-0.1,1.3-0.7,1-1.4C307.5,227.7,306.7,227.4,306.1,227.8z"/>
	<path id="path57" inkscape:connector-curvature="0" class="st1" d="M131.6,158.3c0.1,0.1,0.2,0.2,0.3,0.2c0.1,0,0.2-0.1,0.3-0.1
		c0.5-0.4,0.9-1.1,0.6-1.7c-0.1-0.1-0.3-0.2-0.4-0.3c-1.5-1-2.7-2.4-3.9-3.8c-0.5-0.5-1-1.1-1.5-1.7c-0.3-0.5-1-0.4-1.2,0.2
		c-0.5,1.4-0.9,2.8-1.5,4.2c-0.5,1-1.8,2.3-0.9,3.5c0.3,0.4,1.1,0.7,1.5,0.2c0.2-0.3,0.3-0.7,0.5-1.1s0.3-0.7,0.4-1.1
		c0.3-1,0.7-2.1,1-3.1C126.7,154.3,131,157.6,131.6,158.3z"/>
	<path id="path59" inkscape:connector-curvature="0" class="st1" d="M360.5,286.3c-0.4,0.1-0.6,0.4-0.7,0.8c0,0.3,0.1,0.6,0.3,0.8
		c0.5,0.5,1.3,0.4,1.5-0.2c0.3-0.6,0-1.3-0.6-1.5C360.9,286.1,360.7,286.2,360.5,286.3C360.5,286.3,360.5,286.3,360.5,286.3z
		 M360.8,294.4c0.6-1,1-1.9,1.1-2.1c0.2-0.2,3.6,1.7,4.6,2.1h0.7c0.2-0.1,0.4-0.3,0.4-0.6c0-0.4-0.4-0.6-0.7-0.9
		c-1.7-0.9-3.4-1.8-5-2.7c-0.3-0.2-0.8,0.2-1.3,0.7c-0.8,0.9-1.7,2.6-2.1,3.4H360.8z M363.6,294.4L363.6,294.4
		c-0.2-0.2-0.3-0.2-0.5-0.2c-0.1-0.1-0.1-0.1-0.1-0.1c-0.3-0.3-0.8-0.2-1,0.2H363.6z"/>
	<path id="path61" inkscape:connector-curvature="0" class="st1" d="M369.4,11.5c0.1,0.1,0.2,0.2,0.3,0.2c0.1,0,0.2-0.1,0.3-0.2
		c0.5-0.4,0.9-1.1,0.6-1.6c-0.1-0.2-0.3-0.3-0.4-0.3c-1.5-1-2.7-2.5-3.9-3.8c-0.5-0.6-1-1.1-1.5-1.7c-0.3-0.5-1-0.5-1.2,0.2
		c-0.5,1.4-0.9,2.8-1.5,4.2c-0.5,1-1.8,2.3-0.9,3.4c0.3,0.5,1.1,0.7,1.5,0.2c0.2-0.2,0.3-0.7,0.5-1c0.1-0.3,0.3-0.7,0.4-1.1
		c0.4-1,0.7-2.1,1-3.1C364.5,7.5,368.8,10.9,369.4,11.5z"/>
	<path id="path63" inkscape:connector-curvature="0" class="st1" d="M121.6,155c0.3,0.1,0.6-0.2,0.7-0.4c0.9-2,1.7-3.7,3-5.5
		c-0.1,0,4.3,2.6,4.6,2.8c1.1,0.7,2.2,2.2,2.8,0.3c0.1-0.1,0.1-0.2,0.1-0.3c-0.1-0.1-0.1-0.1-0.2-0.2c-1.4-0.6-2.4-1.5-3.6-2.5
		c-1-0.9-2.1-1.7-3.2-2.4c-0.1-0.1-0.3-0.2-0.4-0.2c-0.1,0-0.1-0.1-0.1-0.1c-0.3-0.3-0.8-0.1-1,0.3c-0.2,0.3-0.3,0.6-0.5,0.9
		c-0.4,0.6-0.7,1.3-1,1.9c-0.1,0.1-0.1,0.2-0.2,0.2c-0.1,0.2-0.2,0.5-0.3,0.6c-0.6,1-1.3,1.9-2.1,2.7c-0.2,0.2-0.2,0.6,0,0.9
		C120.5,154.6,121,154.9,121.6,155z"/>
	<path id="path65" inkscape:connector-curvature="0" class="st1" d="M359.4,8.2c0.3,0.1,0.6-0.1,0.7-0.4c0.9-2,1.7-3.6,3-5.4
		c0,0,4.3,2.6,4.6,2.8c1.1,0.7,2.2,2.2,2.9,0.3c0-0.1,0.1-0.2,0-0.3c-0.1-0.1-0.1-0.1-0.2-0.2c-1.4-0.7-2.4-1.5-3.6-2.5
		c-1-0.9-2.1-1.7-3.2-2.4H362v0.1c-0.2,0.3-0.3,0.6-0.5,0.9c-0.4,0.6-0.7,1.2-1,1.9c-0.1,0.1-0.1,0.2-0.1,0.2
		c-0.1,0.2-0.2,0.4-0.3,0.6c-0.6,1-1.3,1.9-2.1,2.7c-0.2,0.2-0.2,0.6,0,0.8C358.3,7.8,358.8,8.1,359.4,8.2z M359.1,2.8
		c0.2,0,1-1.5,1.8-2.8h-2.4c-0.1,0.2-0.2,0.3-0.2,0.3C357.5,1.5,357.5,2.6,359.1,2.8z M366.5,0c0.1,0.1,0.2,0.1,0.2,0.1
		c0.2,0,0.3-0.1,0.5-0.1H366.5z"/>
	<path id="path67" inkscape:connector-curvature="0" class="st1" d="M121.3,149.6c0.3,0.1,2.7-4.6,2.8-4.9c0.2-0.3,4.4,2.1,4.8,2.2
		c0.4,0,0.9-0.3,0.9-0.7c0-0.3-0.4-0.6-0.7-0.8c-1.7-0.9-3.4-1.8-5.1-2.7c-0.3-0.2-0.7,0.2-1.2,0.7c-1,1.1-2.1,3.2-2.3,3.8
		C119.7,148.2,119.7,149.4,121.3,149.6z"/>
	<path id="path69" inkscape:connector-curvature="0" class="st1" d="M122.7,138.6c-0.4,0.1-0.6,0.5-0.7,0.9
		c-0.1,0.3,0.1,0.6,0.3,0.8c0.5,0.5,1.3,0.3,1.5-0.2c0.3-0.6,0-1.3-0.6-1.5C123.1,138.5,122.9,138.6,122.7,138.6L122.7,138.6z"/>
	<path id="path71" inkscape:connector-curvature="0" class="st1" d="M195.8,159c-0.3,0-1,0.6-1.2,0.5c-0.1-0.1-0.2-0.1-0.4-0.1
		c-1.5,0.7-3.1,1.4-4.7,2.1c-1.1,0.3-2.2,0.7-3.4,1.1c-0.3,0.1-0.6,0.2-0.9,0.3c0.1,0.1,0.1,0.2,0.1,0.3c0.2,0.6,1,1.3,0,1.7
		c-0.1,0.1-0.2,0.1-0.3,0.1c-0.3,0.1-0.5,0-0.6-0.2c0,0.1,0,0.1,0,0.1c0.6,0.7,2.3-0.5,2.9-0.7c1.1-0.4,2.2-0.9,3.2-1.3
		c2.2-0.9,4.4-1.8,6.6-2.7c0.3-0.1,0.3-0.3,0.1-0.5C196.9,159.2,196.1,158.9,195.8,159z"/>
	<path id="path73" inkscape:connector-curvature="0" class="st1" d="M185.4,162.8c-0.1-0.2-0.1-0.3-0.2-0.5c0.1-0.1,0.1-0.2,0-0.4
		c-0.7-1.5-1.4-3.1-2.1-4.7c-0.5-1-0.7-2.3-1.1-3.4c-0.2-0.7-0.2-0.9-0.9-1.1c-0.6-0.2-1.1-0.4-1.7-0.5c-0.1,0.1-0.1,0.2-0.1,0.3
		c0.9,2.3,1.9,4.6,2.8,6.8c0.5,1.2,1,2.4,1.4,3.5c0.3,0.6,0.5,1.5,0.9,1.9c-0.1-0.1-0.2-0.3-0.2-0.5
		C184.4,163.3,184.8,163,185.4,162.8z"/>
	<path id="path75" inkscape:connector-curvature="0" class="st1" d="M185.2,164.9c0.1,0,0.2-0.1,0.3-0.1c1-0.4,0.2-1.1,0-1.7
		c-0.1-0.1-0.1-0.2-0.1-0.3c-0.6,0.2-1,0.5-1,1.4c0,0.2,0.1,0.4,0.2,0.5C184.7,164.9,184.9,164.9,185.2,164.9z"/>
	<path id="path77" inkscape:connector-curvature="0" class="st1" d="M197.7,154.9c-0.2,0.1-1,0.6-1.1,0.5c-0.1-0.1-0.3-0.1-0.5,0
		c-1.5,0.7-3.1,1.4-4.6,2.1c-1.1,0.3-2.3,0.7-3.4,1.1c-0.3,0.1-0.6,0.2-0.9,0.2c0.1,0.1,0.1,0.2,0.1,0.3c0.2,0.6,1,1.3,0,1.7
		c-0.1,0.1-0.2,0.1-0.3,0.1c-0.2,0.1-0.5,0-0.6-0.1v0.1c0.6,0.7,2.3-0.5,2.9-0.7c1.1-0.5,2.2-0.9,3.3-1.4c2.2-0.9,4.4-1.8,6.5-2.7
		c0.3-0.2,0.3-0.3,0.1-0.6C198.9,155.2,198,154.9,197.7,154.9z"/>
	<path id="path79" inkscape:connector-curvature="0" class="st1" d="M187.2,158.8c-0.1-0.1-0.1-0.3-0.2-0.5c0.1-0.1,0.1-0.3,0-0.5
		c-0.7-1.5-1.4-3.1-2.1-4.6c-0.5-1.1-0.7-2.3-1.1-3.4c-0.2-0.7-0.2-0.9-0.9-1.1c-0.6-0.2-1.1-0.4-1.7-0.5c-0.1,0.1-0.1,0.2,0,0.3
		c0.9,2.3,1.8,4.5,2.7,6.8c0.5,1.2,1,2.3,1.5,3.5c0.2,0.6,0.4,1.5,0.9,1.9c-0.1-0.2-0.2-0.3-0.2-0.5
		C186.3,159.3,186.7,159,187.2,158.8z"/>
	<path id="path81" inkscape:connector-curvature="0" class="st1" d="M187.1,160.8c0.1,0,0.2,0,0.3-0.1c1-0.4,0.2-1.1,0-1.7
		c0-0.1-0.1-0.2-0.1-0.3c-0.6,0.2-1,0.5-1,1.4c0,0.2,0.1,0.3,0.2,0.5C186.6,160.8,186.8,160.9,187.1,160.8z"/>
	<path id="path83" inkscape:connector-curvature="0" class="st1" d="M189.3,156.7c-0.1,0.1-0.2,0.1-0.3,0.1c-0.3,0.1-0.5,0-0.7-0.2
		c0.1,0.1,0.1,0.1,0.1,0.1c0.5,0.7,2.3-0.5,2.9-0.7c1.1-0.5,2.2-0.9,3.2-1.4c2.2-0.9,4.4-1.8,6.5-2.7c0.4-0.2,0.3-0.4,0.1-0.6
		c-0.4-0.3-1.3-0.6-1.5-0.6c-0.2,0-1,0.6-1.1,0.5c-0.1-0.1-0.2-0.1-0.4-0.1c-1.6,0.7-3.1,1.4-4.7,2.1c-1.1,0.4-2.2,0.7-3.4,1.1
		c-0.3,0.1-0.6,0.2-0.9,0.3c0,0.1,0.1,0.2,0.1,0.3C189.5,155.7,190.3,156.3,189.3,156.7z"/>
	<path id="path85" inkscape:connector-curvature="0" class="st1" d="M186,151.3c0.5,1.1,1,2.3,1.4,3.5c0.3,0.6,0.4,1.5,0.9,1.9
		c-0.1-0.1-0.1-0.3-0.1-0.5c-0.1-0.9,0.4-1.1,1-1.4c-0.1-0.2-0.1-0.3-0.2-0.5c0.1-0.1,0.1-0.2,0.1-0.4c-0.7-1.5-1.4-3.1-2.1-4.7
		c-0.5-1-0.7-2.3-1.1-3.4c-0.2-0.7-0.2-0.9-1-1.1c-0.5-0.2-1.1-0.4-1.7-0.5c-0.1,0.1-0.1,0.2,0,0.3C184.2,146.8,185.1,149,186,151.3
		z"/>
	<path id="path87" inkscape:connector-curvature="0" class="st1" d="M188.2,156.2c0,0.2,0.1,0.4,0.1,0.5c0.2,0.2,0.4,0.2,0.7,0.2
		c0.1,0,0.2-0.1,0.3-0.1c1-0.4,0.2-1,0-1.7c-0.1-0.1-0.1-0.2-0.1-0.3C188.6,155,188.1,155.3,188.2,156.2z"/>
	<path id="path89" inkscape:connector-curvature="0" class="st1" d="M194.2,145.5L194.2,145.5c1,0.1,1.8-0.5,1.9-1.3
		c0.1-0.7-0.2-1.3-0.7-1.7c-0.6-0.7-1.7-0.9-2.5-0.2c-0.7,0.7-0.7,1.9-0.1,2.7C193.2,145.3,193.7,145.5,194.2,145.5z"/>
	<path id="path91" inkscape:connector-curvature="0" class="st1" d="M190,142.8c0.9-2.2,3.4-3.4,5.6-2.4c2.4,1.1,3,3.8,2.1,6.2
		c-0.2,0.3-0.1,0.8,0.3,1c0.3,0.2,0.9,0.1,1-0.3c0.6-1.6,0.9-3.4,0.3-5c-0.5-1.4-1.7-2.6-3-3.2c-2.9-1.3-6.4,0.1-7.6,3.1
		C188.3,142.9,189.6,143.7,190,142.8z"/>
	<path id="path93" inkscape:connector-curvature="0" class="st1" d="M194.1,148.4c0.1-0.6-0.3-1.1-0.8-1.3c-0.5-0.5-1.4-0.4-1.9,0.1
		c-0.5,0.3-0.8,1-0.5,1.5c0.2,0.4,0.6,0.7,1,0.9C192.8,150,194,149.5,194.1,148.4z"/>
	<path id="path95" inkscape:connector-curvature="0" class="st1" d="M190.2,150.9c-0.2,0.1-0.3,0.3-0.3,0.5l0,0
		c-0.2,0.4-0.1,0.9,0.2,1.2c0.2,0.2,0.6,0.3,0.9,0.3c0.7-0.1,1.3-0.7,1-1.4C191.6,150.8,190.8,150.5,190.2,150.9z"/>
	<path id="path97" inkscape:connector-curvature="0" class="st1" d="M346.4,144.4L346.4,144.4L346.4,144.4L346.4,144.4z"/>
	<path id="path99" inkscape:connector-curvature="0" class="st1" d="M346.3,144.3C346.4,144.4,346.4,144.3,346.3,144.3
		c0-0.1,0.1-0.2,0-0.2l0,0c0.1-0.1,0.1-0.1,0.2-0.1c0.1-0.1,0.1-0.1,0.1,0c0.1,0.1,0.1,0.2,0,0.3c-0.1,0.1-0.1,0.1-0.2,0.1
		c-0.1,0-0.1,0-0.1,0l0,0l0,0l0,0l0,0l0,0C346.4,144.5,346.4,144.3,346.3,144.3z M346.7,146c0.7-0.1,1.3-0.6,1.5-1.3
		c0.2-0.7-0.1-1.4-0.7-1.9C344.8,141,343.5,146.6,346.7,146z"/>
	<path id="path101" inkscape:connector-curvature="0" class="st1" d="M344.6,142.5c0.4-0.5,1-0.7,1.6-0.9c0.1-0.1,0.2-0.1,0.3-0.1
		c0.3-0.1,0.6,0,0.9,0.1c0.9,0.5,1.6,1.3,1.9,2.3c0,0,0,0.1,0,0.1c-0.1,0.4-0.1,0.7-0.2,1.1c-0.6,1.5-2.2,2-3.6,1.2
		c-0.5-0.2-0.9-0.6-1.3-1.1C344,144.3,344,143.2,344.6,142.5z M349.1,148c0.7-0.5,1.3-1.1,1.5-1.8c0,0,0,0,0-0.1
		c1.6-2.4,0-6.2-3-6.4c-1.5-0.1-3.1,0.5-4.2,1.4c-0.8,0.7-1.5,1.5-1.5,2.6C342,147.3,345.8,150.1,349.1,148z"/>
	<path id="path103" inkscape:connector-curvature="0" class="st1" d="M354.6,154.2c0,0.1,0,0.2-0.1,0.3c-0.1,0.2-0.3,0.4-0.5,0.5
		c0.1,0,0.1,0,0.1,0c0.9-0.1,0.9-2.1,1-2.7c0.2-1.1,0.5-2.3,0.7-3.4c0.5-2.3,1-4.6,1.4-6.9c0.1-0.3-0.1-0.4-0.4-0.3
		c-0.5,0.2-1.2,0.7-1.3,1c-0.1,0.2-0.1,1.1-0.2,1.2c-0.1,0.1-0.2,0.2-0.3,0.3c-0.3,1.7-0.6,3.3-0.9,5c-0.3,1.1-0.7,2.2-1,3.3
		c-0.1,0.3-0.2,0.6-0.3,0.9c0.1,0,0.2,0,0.3,0.1C353.8,153.4,354.8,153.1,354.6,154.2z"/>
	<path id="path105" inkscape:connector-curvature="0" class="st1" d="M348.3,153.8c1.2,0.2,2.4,0.5,3.6,0.7c0.6,0.1,1.5,0.5,2,0.3
		c-0.2,0-0.3-0.1-0.5-0.2c-0.7-0.5-0.8-1-0.6-1.5c-0.2-0.1-0.3-0.1-0.5-0.1c-0.1-0.2-0.2-0.2-0.3-0.3c-1.7-0.3-3.2-0.6-4.9-0.9
		c-1.1-0.2-2.3-0.7-3.4-1c-0.7-0.2-0.9-0.3-1.4,0.2c-0.5,0.3-0.9,0.7-1.3,1c0,0.2,0.1,0.2,0.2,0.2
		C343.6,152.9,346,153.3,348.3,153.8z"/>
	<path id="path107" inkscape:connector-curvature="0" class="st1" d="M353.5,154.7c0.1,0.1,0.3,0.2,0.5,0.2c0.2-0.1,0.4-0.2,0.5-0.5
		c0.1-0.1,0.1-0.2,0.1-0.3c0.2-1-0.7-0.8-1.4-0.9c-0.1-0.1-0.2-0.1-0.3-0.1C352.7,153.8,352.8,154.3,353.5,154.7z"/>
	<path id="path109" inkscape:connector-curvature="0" class="st1" d="M354.8,157.3c0,0.2,0.1,0.4,0.2,0.5c0,0.1,0,0.1,0,0.1
		c0.2,0.4,0.6,0.6,1,0.5c0.3-0.1,0.6-0.3,0.7-0.5c0.4-0.6,0.1-1.4-0.6-1.6C355.6,156.1,354.8,156.6,354.8,157.3z"/>
	<path id="path111" inkscape:connector-curvature="0" class="st1" d="M268.7,147.2c-1.3,6.5-2.4,13.1-3.7,19.6
		c-0.2,1,1.3,1.3,1.5,0.3c1.1-6.1,2.3-12.2,3.4-18.3c0.6,0.2,1.3,0.4,1.9,0.6c5.7,2.8,11.7,5,17.9,6.3c1,0.2,1.3-1.2,0.3-1.5
		c-5.9-2.1-11.7-4.2-17.6-6.2c-0.9-0.5-1.8-0.9-2.7-1.4C269.4,146.5,268.8,146.8,268.7,147.2z"/>
	<path id="path113" inkscape:connector-curvature="0" class="st1" d="M214,0l-3.4,18.2c-0.2,1,1.3,1.3,1.5,0.3
		c1.1-6.1,2.3-12.2,3.4-18.3c0.7,0.2,1.3,0.4,1.9,0.6c5.7,2.8,11.7,5,17.9,6.3c1,0.2,1.3-1.2,0.3-1.5L219.5,0H214z M226.4,0.6
		c0,0.1,0,0.3-0.1,0.4c-0.1,0.8,0.9,1,1.2,0.3c0.2-0.4,0.3-0.9,0.5-1.3h-1.3l-0.1,0.2C226.5,0.3,226.5,0.4,226.4,0.6z M222.9,0
		c0.2,0.4,0.9,0.5,1.1,0H222.9z M224.9,1c0.3,0.1,0.6-0.1,0.7-0.5l0.2-0.5h-1.3l-0.1,0.2C224.3,0.6,224.6,0.9,224.9,1z"/>
	<path id="path115" inkscape:connector-curvature="0" class="st1" d="M265.7,151.4c0.7,0.3,1.2-0.9,0.5-1.1
		c-1.3-0.4-2.6-0.7-3.9-0.7c-0.8-0.1-0.9,1.2-0.1,1.3C263.3,150.9,264.5,151.1,265.7,151.4z"/>
	<path id="path117" inkscape:connector-curvature="0" class="st1" d="M211.2,2.8c0.7,0.3,1.2-0.9,0.5-1.1c-1.3-0.4-2.5-0.7-3.8-0.7
		c-0.8-0.1-1,1.2-0.2,1.3C208.8,2.2,210,2.4,211.2,2.8z"/>
	<path id="path119" inkscape:connector-curvature="0" class="st1" d="M266.1,153.3c0.8,0.1,1-1.2,0.2-1.3c-1.6-0.1-3.1-0.3-4.7-0.6
		c-0.7-0.2-0.9,1.1-0.1,1.2C263,152.9,264.6,153.1,266.1,153.3z"/>
	<path id="path121" inkscape:connector-curvature="0" class="st1" d="M211.7,4.6c0.8,0.1,0.9-1.2,0.1-1.3c-1.5-0.1-3.1-0.3-4.6-0.6
		c-0.8-0.2-1,1.1-0.2,1.2C208.5,4.3,210.1,4.4,211.7,4.6z"/>
	<path id="path123" inkscape:connector-curvature="0" class="st1" d="M265.8,155.2c0.8,0.1,1-1.1,0.2-1.3c-1.5-0.1-3-0.4-4.5-0.8
		c-0.3-0.1-0.7,0-0.8,0.3c-0.1,0.3,0,0.7,0.3,0.8C262.6,154.8,264.2,155.1,265.8,155.2z"/>
	<path id="path125" inkscape:connector-curvature="0" class="st1" d="M211.3,6.6c0.8,0.1,1-1.1,0.2-1.3c-1.5-0.1-3-0.4-4.5-0.8
		c-0.3-0.1-0.6,0-0.8,0.3c-0.1,0.3,0.1,0.7,0.3,0.8C208.1,6.2,209.7,6.4,211.3,6.6z"/>
	<path id="path127" inkscape:connector-curvature="0" class="st1" d="M265.7,157.3c0.8,0.1,0.9-1.1,0.1-1.3
		c-1.5-0.2-3.1-0.4-4.6-0.6c-0.8-0.1-1,1.1-0.2,1.3C262.5,156.8,264.1,157.1,265.7,157.3z"/>
	<path id="path129" inkscape:connector-curvature="0" class="st1" d="M211.2,8.7c0.8,0.1,1-1.1,0.2-1.3c-1.5-0.2-3.1-0.4-4.7-0.6
		c-0.8-0.1-0.9,1.1-0.1,1.3C208.1,8.3,209.6,8.4,211.2,8.7z"/>
	<path id="path131" inkscape:connector-curvature="0" class="st1" d="M265.1,159.3c0.8,0.1,1-1.2,0.2-1.3c-1.5-0.2-3.1-0.4-4.6-0.8
		c-0.3-0.1-0.7,0.2-0.7,0.6c0,0.3,0.2,0.6,0.6,0.7C262,158.8,263.5,159.1,265.1,159.3z"/>
	<path id="path133" inkscape:connector-curvature="0" class="st1" d="M210.6,10.6c0.8,0.1,1-1.2,0.1-1.3c-1.5-0.2-3.1-0.4-4.6-0.8
		c-0.3-0.1-0.6,0.2-0.7,0.6c-0.1,0.3,0.2,0.6,0.5,0.7C207.5,10.2,209,10.5,210.6,10.6z"/>
	<path id="path135" inkscape:connector-curvature="0" class="st1" d="M265.1,161.4c0.8,0.2,1-1.1,0.2-1.3c-1.3-0.2-2.4-0.5-3.6-0.7
		c-0.1-0.1-0.2-0.2-0.4-0.2c-0.1,0-0.3,0-0.4,0c-0.9-0.1-0.9,1-0.2,1.2C262.2,160.8,263.7,161.1,265.1,161.4z"/>
	<path id="path137" inkscape:connector-curvature="0" class="st1" d="M210.7,12.8c0.8,0.2,0.9-1.1,0.1-1.3c-1.2-0.2-2.4-0.5-3.6-0.7
		c-0.1-0.1-0.2-0.2-0.4-0.2c-0.1,0-0.2,0-0.4,0c-0.8-0.1-0.9,1-0.1,1.2C207.7,12.2,209.2,12.5,210.7,12.8z"/>
	<path id="path139" inkscape:connector-curvature="0" class="st1" d="M272.8,146.3c0.2-1.2,0.5-2.3,1-3.4c0.3-0.7-0.7-1.3-1.1-0.6
		c-0.6,1.2-1,2.4-1.2,3.8C271.4,146.8,272.6,147.1,272.8,146.3z"/>
	<path id="path141" inkscape:connector-curvature="0" class="st1" d="M218.3,292.1c0.2-1.2,0.6-2.3,1.1-3.4c0.3-0.7-0.7-1.4-1.1-0.6
		c-0.6,1.2-1,2.4-1.2,3.8C217,292.6,218.2,292.8,218.3,292.1z"/>
	<path id="path143" inkscape:connector-curvature="0" class="st1" d="M274.7,147.1c0.5-1.5,0.9-3,1.2-4.5c0.2-0.8-1.1-1.1-1.2-0.3
		c-0.3,1.5-0.7,3-1.2,4.5C273.3,147.6,274.5,147.9,274.7,147.1z"/>
	<path id="path145" inkscape:connector-curvature="0" class="st1" d="M220.3,292.9c0.5-1.5,0.9-3,1.1-4.5c0.2-0.8-1-1.1-1.2-0.3
		c-0.3,1.5-0.7,3-1.2,4.5C218.8,293.4,220,293.7,220.3,292.9z"/>
	<path id="path147" inkscape:connector-curvature="0" class="st1" d="M275.7,148.2c0.3,0.1,0.7,0.1,0.9-0.3c0.6-1.5,1.1-3,1.4-4.6
		c0.2-0.8-1-1.1-1.2-0.3c-0.3,1.5-0.8,2.9-1.3,4.3C275.3,147.7,275.3,148.1,275.7,148.2z"/>
	<path id="path149" inkscape:connector-curvature="0" class="st1" d="M221.2,294c0.2,0.1,0.7,0.1,0.8-0.3c0.6-1.5,1.1-3.1,1.4-4.6
		c0.2-0.8-1-1.1-1.2-0.3c-0.3,1.5-0.7,3-1.3,4.4C220.8,293.5,220.9,293.9,221.2,294z"/>
	<path id="path151" inkscape:connector-curvature="0" class="st1" d="M278.5,148.5c0.4-1.5,0.8-3,1.1-4.6c0.2-0.7-1-1.1-1.2-0.3
		c-0.4,1.5-0.7,3-1.1,4.6C277.1,149,278.3,149.3,278.5,148.5z"/>
	<path id="path153" inkscape:connector-curvature="0" class="st1" d="M224,294.3c0.4-1.5,0.8-3.1,1.2-4.6c0.2-0.8-1-1.1-1.2-0.3
		c-0.4,1.5-0.8,3-1.2,4.6c-0.1,0.1,0,0.3,0.1,0.4h1.1C224,294.4,224,294.3,224,294.3z M214.2,293l-0.2,1.4h5.5l-1.4-0.5
		c-0.9-0.5-1.8-0.9-2.7-1.4C214.9,292.3,214.3,292.6,214.2,293z M228,294.4c0.3-1,0.7-2.1,1-3.1c0.2-0.7-1-1-1.2-0.3
		c-0.3,1.1-0.7,2.2-1.1,3.4H228z M225.8,294.4c0.5-1.3,0.9-2.7,1.1-4c0.2-0.8-1-1.1-1.2-0.3c-0.3,1.5-0.7,2.9-1.3,4.3H225.8z"/>
	<path id="path155" inkscape:connector-curvature="0" class="st1" d="M279.3,149.6c0.4,0.1,0.6-0.2,0.8-0.5c0.5-1.5,1-3,1.3-4.5
		c0.1-0.8-1.1-1.1-1.3-0.3c-0.3,1.5-0.7,3-1.3,4.5C278.8,149.2,279,149.6,279.3,149.6z"/>
	<path id="path157" inkscape:connector-curvature="0" class="st1" d="M280.9,149.2c-0.1,0.1-0.1,0.3-0.1,0.4c-0.2,0.8,0.9,1,1.2,0.3
		c0.5-1.4,1-2.8,1.4-4.3c0.2-0.7-1-1-1.2-0.3c-0.3,1.2-0.7,2.4-1.2,3.6C281,148.9,280.9,149,280.9,149.2z"/>
	<path id="path159" inkscape:connector-curvature="0" class="st1" d="M266.9,144.1c0.6,0,0.5,0.7,0.1,0.8h-0.1
		C266.6,144.7,266.3,144.1,266.9,144.1z M266.6,146.5c0.1,0.1,0.3,0.1,0.5,0.1c1.1-0.1,1.9-0.9,2.1-2c0.1-1.1-0.7-2.2-1.8-2.3
		c-1.1-0.2-2.2,0.5-2.4,1.6c-0.2,1,0.3,2.1,1.3,2.5C266.3,146.5,266.4,146.5,266.6,146.5z"/>
	<path id="path161" inkscape:connector-curvature="0" class="st1" d="M212.5,289.9c0.6,0,0.5,0.7,0.1,0.7c-0.1,0-0.1,0-0.1,0.1
		C212.1,290.5,211.9,289.9,212.5,289.9z M212.1,292.3c0.2,0.1,0.3,0.1,0.5,0.1c1-0.1,1.9-0.9,2.1-1.9c0.1-1.1-0.7-2.2-1.8-2.3
		c-1.1-0.1-2.2,0.5-2.4,1.7c-0.2,1,0.3,2.1,1.3,2.4C211.8,292.3,211.9,292.3,212.1,292.3z"/>
	<path id="path163" inkscape:connector-curvature="0" class="st1" d="M374.4,84c-0.3,0.1-1,0.6-1.2,0.5c-0.1-0.1-0.2-0.1-0.4,0
		c-1.5,0.7-3.1,1.4-4.7,2.1c-1.1,0.3-2.2,0.7-3.4,1.1c-0.3,0.1-0.6,0.2-0.9,0.2c0,0.1,0.1,0.2,0.1,0.3c0.2,0.6,1,1.3,0,1.7
		c-0.1,0.1-0.2,0.1-0.3,0.1c-0.3,0.1-0.5,0-0.6-0.1v0.1c0.6,0.7,2.3-0.5,2.9-0.7c1.1-0.5,2.2-0.9,3.2-1.4c2.2-0.9,4.4-1.8,6.5-2.7
		c0.4-0.2,0.3-0.3,0.1-0.6C375.5,84.3,374.7,84,374.4,84z"/>
	<path id="path165" inkscape:connector-curvature="0" class="st1" d="M133.6,294.4c-0.3-0.3-0.8-0.5-1.3-0.5c-0.4,0-0.8,0.2-1.1,0.5
		H133.6z M125.7,292.6c0.2,0.9,1.7,0.7,1.5-0.2c-0.6-2.2,0.7-4.7,3.1-5.2c2.6-0.5,4.6,1.4,5.2,3.9c0.1,0.4,0.4,0.7,0.9,0.7
		c0.3-0.1,0.7-0.5,0.6-0.9c-0.4-1.7-1.2-3.2-2.7-4.3c-1.2-0.8-2.8-1.1-4.2-0.9C127,286.4,124.9,289.5,125.7,292.6z M131.4,289
		c-1-0.2-1.9,0.3-2.2,1.3c-0.2,1,0.5,2,1.4,2.2c0.6,0.2,1,0,1.4-0.3c0.1,0,0.1,0,0.1,0c0.7-0.5,1.2-1.4,0.8-2.2
		C132.7,289.4,132,289,131.4,289z M141,294.4l0.5-0.8c0.2-0.3,0-0.5-0.3-0.5c-0.5,0-1.4,0.2-1.6,0.4c-0.1,0.1-0.3,0.6-0.5,0.9H141z"
		/>
	<path id="path167" inkscape:connector-curvature="0" class="st1" d="M141.2,7.9c-0.2,0.2-0.4,1.1-0.6,1.1c-0.2,0-0.3,0.1-0.4,0.2
		c-0.9,1.4-1.7,2.9-2.6,4.3c-0.7,1-1.4,1.9-2.1,2.8c-0.2,0.2-0.4,0.5-0.6,0.7c0.1,0.1,0.2,0.1,0.2,0.2c0.5,0.4,1.5,0.5,1,1.4
		c-0.1,0.1-0.1,0.2-0.2,0.3c-0.2,0.2-0.4,0.2-0.6,0.2c0.1,0,0.1,0.1,0.1,0.1c0.9,0.2,1.7-1.7,2-2.2c0.6-1,1.3-2,1.9-3
		c1.3-2,2.5-4,3.8-5.9c0.2-0.3,0-0.5-0.3-0.5C142.2,7.4,141.4,7.7,141.2,7.9z"/>
	<path id="path169" inkscape:connector-curvature="0" class="st1" d="M364,87.9c-0.1-0.1-0.1-0.3-0.2-0.5c0.1-0.1,0.1-0.3,0.1-0.5
		c-0.7-1.5-1.4-3.1-2.1-4.6c-0.5-1.1-0.7-2.3-1.1-3.4c-0.2-0.7-0.2-0.9-0.9-1.1c-0.6-0.2-1.1-0.3-1.7-0.5c-0.1,0.1-0.1,0.2-0.1,0.3
		c0.9,2.3,1.9,4.5,2.8,6.8c0.5,1.2,1,2.3,1.4,3.5c0.3,0.6,0.4,1.5,0.9,1.9c-0.1-0.2-0.2-0.3-0.2-0.5C362.9,88.4,363.4,88.1,364,87.9
		z"/>
	<path id="path171" inkscape:connector-curvature="0" class="st1" d="M134.8,17c-0.2-0.1-0.3-0.2-0.5-0.3c0-0.1-0.1-0.3-0.2-0.3
		c-1.4-0.9-2.9-1.8-4.3-2.6c-1-0.6-1.9-1.5-2.8-2.2c-0.6-0.5-0.7-0.6-1.4-0.4c-0.5,0.2-1.1,0.3-1.7,0.5c0,0.1,0.1,0.2,0.2,0.3
		c2.1,1.3,4.2,2.6,6.2,4c1,0.7,2.1,1.4,3.2,2.1c0.6,0.3,1.2,1,1.8,1c-0.2-0.1-0.3-0.2-0.4-0.3C134.3,18,134.5,17.5,134.8,17z"/>
	<path id="path173" inkscape:connector-curvature="0" class="st1" d="M363.8,89.9c0.1,0,0.2,0,0.3-0.1c1-0.4,0.2-1.1,0-1.7
		C364,88,364,88,364,87.9c-0.6,0.2-1,0.5-1,1.4c0,0.2,0.1,0.3,0.2,0.5C363.3,89.9,363.5,90,363.8,89.9z"/>
	<path id="path175" inkscape:connector-curvature="0" class="st1" d="M135.9,18.9c0.1-0.1,0.1-0.2,0.2-0.3c0.6-0.9-0.5-1-1-1.4
		c-0.1-0.1-0.2-0.1-0.2-0.2c-0.3,0.5-0.5,1,0,1.7c0.1,0.2,0.2,0.3,0.4,0.3C135.5,19.1,135.7,19,135.9,18.9z"/>
	<path id="path177" inkscape:connector-curvature="0" class="st1" d="M376.3,80c-0.2,0-1,0.6-1.1,0.5c-0.1-0.1-0.3-0.1-0.5-0.1
		c-1.5,0.7-3.1,1.4-4.6,2.1c-1.1,0.4-2.3,0.7-3.4,1.1c-0.3,0.1-0.6,0.2-0.9,0.3c0.1,0.1,0.1,0.2,0.1,0.3c0.2,0.6,1,1.3,0,1.7
		c-0.1,0.1-0.2,0.1-0.3,0.1c-0.2,0.1-0.5,0-0.6-0.2c0,0.1,0,0.1,0,0.1c0.6,0.7,2.3-0.5,2.9-0.7c1.1-0.5,2.2-0.9,3.3-1.4
		c2.2-0.9,4.3-1.8,6.5-2.7c0.3-0.2,0.3-0.4,0.1-0.6C377.4,80.2,376.5,80,376.3,80z"/>
	<path id="path179" inkscape:connector-curvature="0" class="st1" d="M140.4,3.5c-0.2,0.2-0.4,1.1-0.6,1.1c-0.2,0-0.3,0.1-0.4,0.2
		c-0.9,1.5-1.7,2.9-2.6,4.3c-0.7,1-1.4,1.9-2.2,2.8c-0.2,0.2-0.3,0.5-0.5,0.7c0.1,0.1,0.2,0.1,0.2,0.2c0.5,0.4,1.5,0.5,1,1.4
		c-0.1,0.1-0.1,0.2-0.2,0.2c-0.2,0.2-0.4,0.2-0.6,0.2c0.1,0,0.1,0.1,0.1,0.1c0.9,0.2,1.7-1.7,2-2.2c0.6-1,1.3-2,1.9-3
		c1.3-1.9,2.5-3.9,3.8-5.9c0.2-0.3,0-0.5-0.3-0.5C141.5,3.1,140.6,3.3,140.4,3.5z"/>
	<path id="path181" inkscape:connector-curvature="0" class="st1" d="M365.8,83.9c-0.1-0.2-0.1-0.3-0.2-0.5c0.1-0.1,0.1-0.2,0-0.4
		c-0.7-1.5-1.4-3.1-2.1-4.7c-0.5-1-0.7-2.3-1.1-3.4c-0.2-0.7-0.2-0.9-0.9-1.1c-0.6-0.2-1.1-0.4-1.7-0.5c-0.1,0.1-0.1,0.2-0.1,0.3
		c1,2.2,1.9,4.5,2.8,6.8c0.5,1.1,1,2.3,1.5,3.5c0.2,0.6,0.4,1.5,0.9,1.9c-0.1-0.1-0.2-0.3-0.2-0.5C364.9,84.4,365.3,84.1,365.8,83.9
		z"/>
	<path id="path183" inkscape:connector-curvature="0" class="st1" d="M134.1,12.6c-0.2-0.1-0.3-0.2-0.5-0.3c0-0.1-0.1-0.2-0.2-0.3
		c-1.4-0.9-2.9-1.8-4.3-2.6c-1-0.6-1.9-1.5-2.8-2.2c-0.6-0.5-0.7-0.6-1.4-0.4c-0.5,0.2-1.1,0.3-1.7,0.5c0,0.2,0.1,0.2,0.2,0.3
		c2.1,1.3,4.1,2.7,6.2,4c1,0.7,2.1,1.4,3.2,2.1c0.6,0.3,1.2,1,1.8,1c-0.2-0.1-0.3-0.2-0.4-0.3C133.6,13.7,133.8,13.2,134.1,12.6z"/>
	<path id="path185" inkscape:connector-curvature="0" class="st1" d="M365.7,85.9c0.1,0,0.2-0.1,0.3-0.1c1-0.4,0.2-1.1,0-1.7
		c0-0.1-0.1-0.2-0.1-0.3c-0.6,0.2-1,0.5-1,1.4c0,0.2,0.1,0.4,0.2,0.5C365.2,85.9,365.4,86,365.7,85.9z"/>
	<path id="path187" inkscape:connector-curvature="0" class="st1" d="M135.1,14.5c0.1-0.1,0.1-0.2,0.2-0.2c0.6-0.9-0.5-1-1-1.4
		c-0.1-0.1-0.2-0.1-0.2-0.2c-0.3,0.5-0.5,1,0,1.7c0.1,0.2,0.2,0.3,0.4,0.3C134.7,14.7,135,14.6,135.1,14.5z"/>
	<path id="path189" inkscape:connector-curvature="0" class="st1" d="M368.6,79.6c-0.3,0.1-0.6,0.2-0.9,0.2c0,0.1,0.1,0.2,0.1,0.3
		c0.2,0.6,1,1.3,0.1,1.7c-0.1,0.1-0.2,0.1-0.3,0.1c-0.3,0-0.5-0.1-0.7-0.2c0.1,0,0,0.1,0.1,0.1c0.5,0.7,2.3-0.5,2.9-0.7
		c1.1-0.5,2.2-0.9,3.2-1.4c2.2-0.9,4.4-1.8,6.5-2.7c0.4-0.2,0.3-0.3,0.1-0.6c-0.4-0.3-1.3-0.6-1.5-0.6c-0.2,0.1-1,0.6-1.1,0.5
		c-0.1-0.1-0.3-0.1-0.5,0c-1.5,0.7-3.1,1.4-4.6,2.1C370.8,78.9,369.8,79.2,368.6,79.6z"/>
	<path id="path191" inkscape:connector-curvature="0" class="st1" d="M133.9,7.6c-0.2,0.3-0.3,0.5-0.5,0.7c0.1,0.1,0.2,0.1,0.2,0.1
		c0.5,0.4,1.5,0.5,1,1.4c-0.1,0.1-0.1,0.2-0.2,0.2c-0.2,0.2-0.4,0.2-0.6,0.2c0.1,0,0.1,0.1,0.1,0.1c0.9,0.3,1.7-1.7,2-2.2
		c0.6-1,1.3-2,1.9-3L141,0h-1.8c-0.1,0.1-0.1,0.2-0.2,0.2c-0.2,0-0.3,0.1-0.4,0.2c-0.9,1.5-1.8,2.9-2.6,4.4
		C135.4,5.7,134.6,6.6,133.9,7.6z"/>
	<path id="path193" inkscape:connector-curvature="0" class="st1" d="M367.8,79.8c-0.1-0.1-0.2-0.3-0.2-0.5c0.1-0.1,0.1-0.3,0.1-0.5
		c-0.7-1.5-1.4-3.1-2.1-4.6c-0.5-1.1-0.7-2.3-1.1-3.4c-0.2-0.7-0.2-0.9-1-1.1c-0.5-0.2-1.1-0.3-1.7-0.5c-0.1,0.1-0.1,0.2,0,0.3
		c0.9,2.3,1.8,4.5,2.8,6.8c0.5,1.2,1,2.3,1.4,3.5c0.2,0.6,0.4,1.5,0.9,1.9c-0.1-0.2-0.1-0.3-0.1-0.5
		C366.7,80.4,367.1,80.1,367.8,79.8z"/>
	<path id="path195" inkscape:connector-curvature="0" class="st1" d="M133.4,8.3c-0.2-0.1-0.3-0.2-0.5-0.3c0-0.2-0.1-0.3-0.2-0.4
		c-1.4-0.9-2.9-1.8-4.3-2.6c-1-0.6-1.9-1.5-2.8-2.2c-0.6-0.5-0.7-0.6-1.4-0.4c-0.6,0.2-1.1,0.3-1.7,0.5c0,0.2,0.1,0.2,0.2,0.3
		c2.1,1.4,4.1,2.7,6.2,4c1.1,0.7,2.2,1.4,3.2,2.1c0.6,0.3,1.2,1,1.8,1c-0.2-0.1-0.3-0.2-0.4-0.3C132.8,9.3,133,8.8,133.4,8.3z"/>
	<path id="path197" inkscape:connector-curvature="0" class="st1" d="M367.6,82c0.1-0.1,0.2-0.1,0.3-0.1c1-0.4,0.2-1.1-0.1-1.7
		c0-0.1-0.1-0.2-0.1-0.3c-0.6,0.2-1,0.5-1,1.4c0,0.2,0.1,0.3,0.1,0.5C367.1,81.9,367.3,82,367.6,82z"/>
	<path id="path199" inkscape:connector-curvature="0" class="st1" d="M134.4,10.1c0.1-0.1,0.1-0.2,0.2-0.2c0.6-0.9-0.5-1-1-1.4
		c-0.1-0.1-0.2-0.1-0.2-0.1c-0.4,0.5-0.6,1,0,1.7c0.1,0.2,0.2,0.3,0.4,0.3C134,10.3,134.2,10.3,134.4,10.1z"/>
	<path id="path201" inkscape:connector-curvature="0" class="st1" d="M374,67.5c-0.6-0.6-1.8-0.9-2.5-0.1c-0.7,0.7-0.7,1.9-0.1,2.6
		c0.4,0.5,0.9,0.6,1.4,0.5h0.1c0.9,0.1,1.7-0.4,1.9-1.3C374.8,68.6,374.5,67.9,374,67.5z"/>
	<path id="path203" inkscape:connector-curvature="0" class="st1" d="M367.3,67.2c-0.3,0.9,1,1.5,1.3,0.7c0.9-2.2,3.4-3.5,5.6-2.4
		c2.4,1.1,3,3.8,2.1,6.2c-0.1,0.4-0.1,0.8,0.3,1c0.3,0.2,0.9,0.1,1-0.3c0.6-1.6,0.9-3.4,0.3-5c-0.5-1.4-1.7-2.6-3-3.2
		C371.9,62.8,368.4,64.2,367.3,67.2z"/>
	<path id="path205" inkscape:connector-curvature="0" class="st1" d="M372.7,73.5c0.1-0.6-0.2-1.1-0.7-1.4c-0.6-0.5-1.5-0.4-1.9,0.2
		c-0.5,0.3-0.8,0.9-0.5,1.5c0.2,0.4,0.6,0.7,1,0.9C371.4,75.1,372.6,74.5,372.7,73.5z"/>
	<path id="path207" inkscape:connector-curvature="0" class="st1" d="M133.8,0.2c-0.1-0.1-0.1-0.2-0.2-0.2h-2.3
		c-0.2,0.2-0.4,0.5-0.4,0.8c-0.2,0.5-0.1,1.3,0.5,1.5c0.4,0.2,0.9,0.2,1.3,0.2C133.6,2.3,134.3,1.2,133.8,0.2z"/>
	<path id="path209" inkscape:connector-curvature="0" class="st1" d="M368.8,75.9c-0.2,0.1-0.3,0.3-0.3,0.5l0,0
		c-0.2,0.4-0.2,0.9,0.2,1.2c0.2,0.2,0.5,0.3,0.9,0.3c0.7,0,1.3-0.7,1-1.4C370.2,75.9,369.4,75.6,368.8,75.9z"/>
	<path id="path211" inkscape:connector-curvature="0" class="st1" d="M131.9,4.4c-0.1,0.2-0.1,0.4,0,0.6c0,0.1,0,0.1,0,0.1
		c0.1,0.5,0.4,0.8,0.8,0.9c0.3,0.1,0.7,0,0.9-0.2c0.6-0.4,0.6-1.3,0-1.7C133.1,3.6,132.2,3.8,131.9,4.4z"/>
	<path id="path213" inkscape:connector-curvature="0" class="st1" d="M230.5,69.4C230.5,69.5,230.5,69.4,230.5,69.4
		c0-0.1,0-0.2-0.1-0.2l0,0c0.1-0.1,0.1-0.1,0.2-0.1c0.1-0.1,0.1-0.1,0.1,0c0.1,0.1,0.1,0.3,0,0.3c-0.1,0.1-0.1,0.1-0.2,0.1h-0.1l0,0
		h0.1c-0.1,0-0.1,0-0.1,0l0,0C230.6,69.6,230.5,69.4,230.5,69.4z M230.9,71.2c0.7-0.2,1.3-0.6,1.5-1.3c0.2-0.7-0.1-1.5-0.6-1.9
		C229,66.1,227.7,71.7,230.9,71.2z"/>
	<path id="path215" inkscape:connector-curvature="0" class="st1" d="M230.6,69.5L230.6,69.5L230.6,69.5
		C230.5,69.5,230.5,69.5,230.6,69.5z"/>
	<path id="path217" inkscape:connector-curvature="0" class="st1" d="M290.3,291.2L290.3,291.2L290.3,291.2L290.3,291.2z"/>
	<path id="path219" inkscape:connector-curvature="0" class="st1" d="M290.3-3.2L290.3-3.2L290.3-3.2L290.3-3.2z"/>
	<path id="path221" inkscape:connector-curvature="0" class="st1" d="M228.8,67.7c0.5-0.4,1-0.7,1.6-0.9c0.1-0.1,0.2-0.1,0.3-0.1
		c0.3,0,0.6,0,0.9,0.1c0.9,0.5,1.6,1.3,1.9,2.3c0,0.1,0,0.1,0,0.1c-0.1,0.4-0.1,0.7-0.2,1.1c-0.6,1.5-2.2,2-3.6,1.3
		c-0.5-0.3-0.9-0.7-1.3-1.2C228.1,69.4,228.1,68.3,228.8,67.7z M233.3,73.1c0.7-0.5,1.3-1.1,1.5-1.8l0,0c1.6-2.4,0-6.2-3-6.4
		c-1.5-0.1-3.1,0.4-4.2,1.4c-0.8,0.6-1.5,1.5-1.5,2.6C226.2,72.4,229.9,75.2,233.3,73.1z"/>
	<path id="path223" inkscape:connector-curvature="0" class="st1" d="M238.7,79.3c0,0.1,0,0.2-0.1,0.3c-0.1,0.3-0.3,0.4-0.5,0.5h0.1
		c0.9-0.1,0.9-2.1,1-2.7c0.2-1.1,0.5-2.3,0.7-3.4c0.5-2.3,1-4.6,1.4-6.8c0.1-0.4-0.1-0.5-0.4-0.4c-0.5,0.2-1.2,0.7-1.3,1
		c-0.1,0.2-0.1,1.1-0.2,1.2c-0.1,0.1-0.2,0.2-0.3,0.3c-0.3,1.7-0.6,3.3-0.9,5c-0.3,1.1-0.7,2.2-1,3.4c-0.1,0.3-0.2,0.6-0.3,0.9
		c0.1,0,0.2,0,0.3,0.1C238,78.5,238.9,78.3,238.7,79.3z"/>
	<path id="path225" inkscape:connector-curvature="0" class="st1" d="M299.9,294.4l1.2-5.8c0.1-0.4-0.1-0.5-0.4-0.3
		c-0.5,0.2-1.2,0.7-1.3,0.9c-0.1,0.2-0.1,1.2-0.2,1.3c-0.1,0.1-0.2,0.2-0.3,0.3l-0.6,3.6H299.9z M290.2,291.1
		C290.3,291.2,290.2,291.1,290.2,291.1c0-0.1,0-0.2,0-0.2l0,0c0.1-0.1,0.1-0.1,0.1-0.1c0.1,0,0.1,0,0.2,0.1c0.1,0.1,0.1,0.2,0,0.3
		c-0.1,0.1-0.1,0.1-0.2,0.1l0,0l0,0l0,0l0,0l0,0C290.3,291.3,290.2,291.1,290.2,291.1z M290.6,292.8c0.7-0.1,1.3-0.6,1.5-1.3
		c0.2-0.7-0.1-1.4-0.7-1.9C288.7,287.7,287.4,293.4,290.6,292.8z M288.5,289.4c0.4-0.5,1-0.7,1.6-0.9c0.1-0.1,0.2-0.1,0.3-0.1
		c0.3-0.1,0.6,0,0.9,0.1c0.9,0.5,1.6,1.3,1.9,2.3c0,0,0,0.1,0,0.1c-0.1,0.4-0.2,0.7-0.3,1c-0.5,1.5-2.2,2.1-3.5,1.3
		c-0.5-0.2-0.9-0.6-1.3-1.1C287.9,291.1,287.9,290,288.5,289.4z M293.5,294.4c0.5-0.5,0.8-1,1-1.5l0.1-0.1c1.6-2.4-0.1-6.2-3-6.4
		c-1.5-0.1-3.1,0.5-4.2,1.4c-0.8,0.7-1.5,1.5-1.5,2.6c0,1.6,0.7,3,1.8,4H293.5z"/>
	<path id="path227" inkscape:connector-curvature="0" class="st1" d="M298.5,6.5c0,0.1-0.1,0.2-0.1,0.3c-0.1,0.2-0.3,0.4-0.5,0.5
		c0.1,0,0.1,0,0.1,0c0.9-0.1,0.9-2.1,1-2.7c0.2-1.1,0.5-2.3,0.7-3.4l0.2-1.1h-1.7l-0.2,1.4c-0.3,1.1-0.7,2.2-1,3.4
		c-0.1,0.3-0.2,0.6-0.2,0.9c0.1,0,0.2,0,0.3,0.1C297.7,5.8,298.7,5.5,298.5,6.5z M293,0.3c0.2-0.1,0.3-0.2,0.5-0.3h-5.8
		C289.1,1.2,291.1,1.5,293,0.3z"/>
	<path id="path229" inkscape:connector-curvature="0" class="st1" d="M232.5,78.9c1.2,0.2,2.4,0.5,3.6,0.7c0.6,0.2,1.5,0.5,2.1,0.3
		c-0.2,0-0.4-0.1-0.5-0.2c-0.7-0.5-0.7-1-0.6-1.5c-0.2-0.1-0.3-0.1-0.5-0.1c-0.1-0.1-0.2-0.2-0.3-0.3c-1.7-0.3-3.2-0.6-4.9-0.9
		c-1.1-0.2-2.3-0.7-3.4-1c-0.7-0.2-0.9-0.3-1.4,0.2c-0.5,0.3-0.9,0.7-1.3,1.1c0,0.1,0.1,0.2,0.2,0.2C227.8,78,230.1,78.4,232.5,78.9
		z"/>
	<path id="path231" inkscape:connector-curvature="0" class="st1" d="M292.2,6.2c1.3,0.2,2.4,0.5,3.7,0.7c0.6,0.1,1.5,0.5,2,0.3
		c-0.2,0-0.3-0.1-0.5-0.2c-0.7-0.5-0.7-1-0.6-1.5c-0.2-0.1-0.3-0.1-0.5-0.1c-0.1-0.1-0.2-0.2-0.3-0.3c-1.7-0.3-3.3-0.6-4.9-0.9
		c-1.1-0.2-2.3-0.7-3.4-1c-0.7-0.2-0.9-0.3-1.4,0.2c-0.5,0.3-0.9,0.7-1.4,1c0.1,0.2,0.2,0.2,0.3,0.2C287.5,5.2,289.9,5.7,292.2,6.2z
		"/>
	<path id="path233" inkscape:connector-curvature="0" class="st1" d="M237.7,79.8c0.1,0.1,0.3,0.2,0.5,0.2c0.2-0.1,0.3-0.2,0.5-0.5
		c0.1-0.1,0.1-0.2,0.1-0.3c0.2-1-0.7-0.7-1.4-0.9c-0.1-0.1-0.2-0.1-0.3-0.1C237,78.9,237,79.4,237.7,79.8z"/>
	<path id="path235" inkscape:connector-curvature="0" class="st1" d="M297.4,7.1c0.2,0.1,0.3,0.2,0.5,0.2c0.2-0.1,0.4-0.2,0.5-0.5
		c0-0.1,0.1-0.2,0.1-0.3c0.2-1-0.7-0.7-1.4-0.9c-0.1-0.1-0.2-0.1-0.3-0.1C296.6,6.2,296.6,6.7,297.4,7.1z"/>
	<path id="path237" inkscape:connector-curvature="0" class="st1" d="M241,83c0.4-0.6,0.1-1.4-0.6-1.6c-0.7-0.1-1.4,0.3-1.4,1
		c0,0.2,0.1,0.4,0.2,0.6l0,0c0.2,0.4,0.6,0.6,1,0.5C240.6,83.5,240.9,83.3,241,83z"/>
	<path id="path239" inkscape:connector-curvature="0" class="st1" d="M300.7,10.3c0.3-0.6,0.1-1.4-0.6-1.6c-0.7-0.2-1.4,0.3-1.4,1
		c0,0.2,0.1,0.4,0.2,0.5c0,0.1,0,0.1,0,0.1c0.2,0.4,0.6,0.6,1,0.5C300.3,10.8,300.6,10.5,300.7,10.3z"/>
	<path id="path241" inkscape:connector-curvature="0" class="st1" d="M310.2,83.4c0.1,0.1,0.2,0.1,0.3,0.2c0.1,0,0.2-0.1,0.3-0.2
		c0.5-0.4,1-1.1,0.6-1.6c-0.1-0.2-0.3-0.3-0.4-0.4c-1.5-1-2.7-2.4-3.9-3.8c-0.5-0.6-1-1.1-1.5-1.8c-0.3-0.5-1.1-0.4-1.3,0.2
		c-0.4,1.4-0.8,2.8-1.4,4.2c-0.5,1-1.8,2.3-0.9,3.4c0.3,0.4,1.1,0.7,1.5,0.2c0.2-0.2,0.3-0.7,0.5-1c0.1-0.4,0.2-0.7,0.4-1.1
		c0.3-1,0.7-2.1,1-3.1C305.3,79.4,309.6,82.7,310.2,83.4z"/>
	<path id="path243" inkscape:connector-curvature="0" class="st1" d="M300.2,80.1c0.3,0.1,0.6-0.2,0.7-0.4c1-2,1.7-3.6,3-5.5
		c0,0.1,4.3,2.7,4.6,2.8c1.1,0.7,2.2,2.2,2.8,0.2c0.1-0.1,0.1-0.2,0.1-0.3c-0.1-0.1-0.1-0.2-0.2-0.2c-1.4-0.7-2.4-1.5-3.6-2.5
		c-1-0.9-2.1-1.7-3.2-2.5c-0.1-0.1-0.3-0.1-0.4-0.1c-0.1-0.1-0.1-0.1-0.1-0.1c-0.3-0.2-0.9-0.1-1,0.3c-0.2,0.3-0.3,0.6-0.5,0.9
		c-0.4,0.6-0.7,1.3-1,1.9c-0.1,0.1-0.1,0.2-0.2,0.3c-0.1,0.2-0.2,0.4-0.3,0.6c-0.6,1-1.3,1.9-2.1,2.8c-0.2,0.2-0.2,0.6,0,0.8
		C299.1,79.6,299.6,79.9,300.2,80.1z"/>
	<path id="path245" inkscape:connector-curvature="0" class="st1" d="M299.9,74.7c0.3,0.1,2.7-4.5,2.8-4.9c0.2-0.3,4.4,2.2,4.8,2.2
		c0.4,0.1,0.8-0.2,0.8-0.6c0.1-0.4-0.3-0.6-0.7-0.9c-1.7-0.9-3.4-1.8-5.1-2.7c-0.3-0.2-0.7,0.2-1.2,0.7c-1,1.2-2.1,3.3-2.3,3.8
		C298.3,73.4,298.3,74.4,299.9,74.7z"/>
	<path id="path247" inkscape:connector-curvature="0" class="st1" d="M302.5,65.1c0.3-0.6,0-1.3-0.6-1.5c-0.2-0.1-0.4,0-0.6,0.1l0,0
		c-0.4,0.1-0.7,0.4-0.7,0.8c-0.1,0.3,0.1,0.6,0.3,0.8C301.4,65.8,302.2,65.7,302.5,65.1z"/>
	<path id="path249" inkscape:connector-curvature="0" class="st1" d="M149,71.4c-1.2,6.5-2.4,13.1-3.6,19.6c-0.2,1,1.3,1.3,1.5,0.3
		c1.1-6.1,2.3-12.2,3.4-18.3c0.6,0.2,1.3,0.4,1.9,0.6c5.7,2.8,11.7,5,17.9,6.3c1,0.2,1.3-1.2,0.3-1.5c-5.9-2.1-11.7-4.2-17.5-6.2
		c-0.9-0.5-1.9-0.9-2.7-1.4C149.6,70.6,149.1,70.9,149,71.4z"/>
	<path id="path251" inkscape:connector-curvature="0" class="st1" d="M107.4,240.7l0.2,0.1c1,0.2,1.2-1.2,0.3-1.5l-0.5-0.2V240.7z"
		/>
	<path id="path253" inkscape:connector-curvature="0" class="st1" d="M145.9,75.6c0.7,0.3,1.2-0.9,0.5-1.1c-1.3-0.4-2.5-0.7-3.8-0.7
		c-0.8-0.1-1,1.2-0.2,1.3C143.6,75,144.7,75.2,145.9,75.6z"/>
	<path id="path255" inkscape:connector-curvature="0" class="st1" d="M146.3,77.4c0.8,0.1,1-1.2,0.2-1.3c-1.5-0.1-3.1-0.3-4.6-0.6
		c-0.8-0.2-1,1.1-0.2,1.2C143.3,77.1,144.8,77.2,146.3,77.4z"/>
	<path id="path257" inkscape:connector-curvature="0" class="st1" d="M146.1,79.4c0.8,0.1,1-1.1,0.2-1.3c-1.5-0.1-3-0.4-4.5-0.8
		c-0.3-0.1-0.6,0-0.8,0.3c-0.1,0.3,0.1,0.7,0.3,0.8C142.9,78.9,144.5,79.2,146.1,79.4z"/>
	<path id="path259" inkscape:connector-curvature="0" class="st1" d="M145.9,81.4c0.8,0.1,1-1.1,0.2-1.3c-1.5-0.2-3.1-0.4-4.7-0.6
		c-0.8-0.1-0.9,1.1-0.1,1.3C142.8,81,144.3,81.2,145.9,81.4z"/>
	<path id="path261" inkscape:connector-curvature="0" class="st1" d="M145.4,83.4c0.8,0.1,0.9-1.2,0.1-1.3c-1.5-0.2-3.1-0.4-4.6-0.8
		c-0.3-0.1-0.7,0.2-0.7,0.6c-0.1,0.3,0.2,0.6,0.5,0.7C142.2,83,143.8,83.3,145.4,83.4z"/>
	<path id="path263" inkscape:connector-curvature="0" class="st1" d="M145.4,85.5c0.7,0.2,0.9-1.1,0.1-1.3c-1.2-0.2-2.4-0.5-3.6-0.7
		c-0.1-0.1-0.2-0.2-0.4-0.2c-0.1,0-0.3,0-0.4,0c-0.8-0.1-0.9,1-0.2,1.2C142.4,85,143.9,85.3,145.4,85.5z"/>
	<path id="path265" inkscape:connector-curvature="0" class="st1" d="M153,70.4c0.2-1.2,0.6-2.3,1.1-3.4c0.3-0.7-0.8-1.3-1.1-0.6
		c-0.6,1.2-1,2.4-1.2,3.8C151.6,71,152.9,71.2,153,70.4z"/>
	<path id="path267" inkscape:connector-curvature="0" class="st1" d="M154.9,71.2c0.5-1.5,0.9-3,1.2-4.5c0.2-0.8-1-1.1-1.2-0.3
		c-0.3,1.5-0.7,3-1.2,4.5C153.5,71.8,154.7,72,154.9,71.2z"/>
	<path id="path269" inkscape:connector-curvature="0" class="st1" d="M155.9,72.4c0.3,0.1,0.7,0.1,0.9-0.3c0.6-1.5,1.1-3,1.4-4.6
		c0.2-0.8-1-1.1-1.2-0.3c-0.3,1.5-0.7,2.9-1.3,4.3C155.6,71.9,155.6,72.2,155.9,72.4z"/>
	<path id="path271" inkscape:connector-curvature="0" class="st1" d="M158.8,72.7c0.4-1.5,0.8-3,1.2-4.6c0.2-0.7-1-1.1-1.3-0.3
		c-0.3,1.5-0.7,3-1.1,4.6C157.4,73.1,158.6,73.4,158.8,72.7z"/>
	<path id="path273" inkscape:connector-curvature="0" class="st1" d="M159.6,73.8c0.3,0.1,0.6-0.1,0.7-0.5c0.6-1.5,1-3,1.3-4.5
		c0.2-0.8-1.1-1.1-1.2-0.3c-0.3,1.5-0.8,3-1.3,4.5C159,73.4,159.3,73.7,159.6,73.8z"/>
	<path id="path275" inkscape:connector-curvature="0" class="st1" d="M161.1,73.4c0,0.1-0.1,0.3-0.1,0.4c-0.2,0.8,0.9,1,1.2,0.3
		c0.5-1.4,1-2.8,1.5-4.3c0.2-0.7-1-1-1.3-0.3c-0.3,1.2-0.7,2.4-1.1,3.6C161.3,73.1,161.2,73.2,161.1,73.4z"/>
	<path id="path277" inkscape:connector-curvature="0" class="st1" d="M147.2,68.2c0.6,0,0.5,0.7,0,0.8c0,0,0,0-0.1,0
		C146.9,68.9,146.6,68.2,147.2,68.2z M146.8,70.7c0.1,0.1,0.3,0.1,0.5,0.1c1-0.1,1.9-0.9,2-2c0.2-1.1-0.7-2.2-1.8-2.3
		c-1.1-0.2-2.2,0.5-2.4,1.6c-0.2,1,0.3,2.1,1.3,2.5C146.5,70.7,146.7,70.7,146.8,70.7z"/>
	<path id="path279" inkscape:connector-curvature="0" class="st1" d="M380.9,232.1c-1.2,6.5-2.4,13.1-3.6,19.6
		c-0.2,1,1.3,1.3,1.5,0.3c1.1-6.2,2.3-12.2,3.4-18.4c0.6,0.2,1.3,0.5,1.9,0.7c5.6,2.8,11.6,4.9,17.7,6.3V239l-17-6
		c-0.9-0.5-1.8-0.9-2.7-1.4C381.6,231.4,381,231.7,380.9,232.1z"/>
	<path id="path281" inkscape:connector-curvature="0" class="st1" d="M377.8,236.3c0.7,0.3,1.2-0.9,0.5-1.1
		c-1.3-0.4-2.5-0.7-3.8-0.7c-0.8-0.1-1,1.2-0.2,1.2C375.5,235.8,376.7,235.9,377.8,236.3z"/>
	<path id="path283" inkscape:connector-curvature="0" class="st1" d="M378.4,238.2c0.7,0.1,0.9-1.2,0.1-1.3
		c-1.5-0.1-3.1-0.3-4.6-0.6c-0.8-0.2-1,1.1-0.2,1.2C375.2,237.8,376.8,238,378.4,238.2z"/>
	<path id="path285" inkscape:connector-curvature="0" class="st1" d="M378,240.2c0.8,0.1,1-1.2,0.2-1.3c-1.5-0.2-3-0.4-4.5-0.8
		c-0.3-0.1-0.6,0-0.8,0.3c-0.1,0.3,0.1,0.7,0.3,0.8C374.8,239.7,376.4,240,378,240.2z"/>
	<path id="path287" inkscape:connector-curvature="0" class="st1" d="M377.8,242.2c0.8,0.1,1-1.1,0.2-1.3c-1.5-0.2-3.1-0.4-4.7-0.6
		c-0.8-0.1-0.9,1.1-0.1,1.3C374.8,241.8,376.3,242,377.8,242.2z"/>
	<path id="path289" inkscape:connector-curvature="0" class="st1" d="M377.3,244.1c0.8,0.1,0.9-1.1,0.1-1.2
		c-1.5-0.2-3.1-0.4-4.6-0.8c-0.3-0.1-0.6,0.2-0.7,0.6s0.2,0.6,0.5,0.7C374.2,243.8,375.7,244,377.3,244.1z"/>
	<path id="path291" inkscape:connector-curvature="0" class="st1" d="M377.4,246.3c0.7,0.1,0.9-1.1,0.1-1.3
		c-1.2-0.2-2.4-0.5-3.6-0.7c-0.1-0.1-0.2-0.2-0.4-0.2c-0.1,0-0.3,0-0.4,0c-0.8-0.1-0.9,1-0.2,1.2C374.4,245.7,375.9,246,377.4,246.3
		z"/>
	<path id="path293" inkscape:connector-curvature="0" class="st1" d="M385,231.2c0.2-1.2,0.6-2.3,1.1-3.4c0.3-0.7-0.7-1.3-1.1-0.6
		c-0.6,1.2-1,2.4-1.2,3.8C383.6,231.7,384.9,232,385,231.2z"/>
	<path id="path295" inkscape:connector-curvature="0" class="st1" d="M386.9,232c0.5-1.5,0.9-3,1.2-4.5c0.2-0.8-1-1.1-1.2-0.3
		c-0.3,1.5-0.7,3-1.2,4.5C385.5,232.5,386.7,232.8,386.9,232z"/>
	<path id="path297" inkscape:connector-curvature="0" class="st1" d="M387.9,233.2c0.3,0.1,0.7,0.1,0.9-0.3c0.6-1.5,1.1-3,1.4-4.6
		c0.2-0.8-1-1.1-1.2-0.3c-0.3,1.5-0.7,2.9-1.3,4.3C387.5,232.6,387.6,233,387.9,233.2z"/>
	<path id="path299" inkscape:connector-curvature="0" class="st1" d="M390.7,233.4c0.4-1.5,0.8-3,1.2-4.6c0.2-0.8-1-1.1-1.3-0.3
		c-0.3,1.5-0.7,3-1.1,4.6C389.4,233.9,390.5,234.2,390.7,233.4z"/>
	<path id="path301" inkscape:connector-curvature="0" class="st1" d="M391.6,234.5c0.3,0.1,0.6-0.2,0.7-0.5c0.6-1.5,1-3,1.3-4.5
		c0.2-0.8-1-1.1-1.2-0.3c-0.3,1.5-0.8,3-1.3,4.5C391,234.1,391.3,234.5,391.6,234.5z"/>
	<path id="path303" inkscape:connector-curvature="0" class="st1" d="M393.1,234.1c0,0.1-0.1,0.3-0.1,0.4c-0.2,0.8,0.9,1,1.2,0.3
		c0.5-1.4,1-2.8,1.5-4.3c0.2-0.7-1-1-1.2-0.3c-0.4,1.2-0.8,2.4-1.2,3.5C393.2,233.8,393.2,234,393.1,234.1z"/>
	<path id="path305" inkscape:connector-curvature="0" class="st1" d="M379.2,229c0.6,0,0.5,0.7,0.1,0.7c-0.1,0-0.1,0.1-0.1,0.1
		C378.8,229.6,378.6,229,379.2,229z M378.8,231.4c0.1,0.1,0.3,0.1,0.5,0.1c1-0.1,1.9-1,2-2c0.2-1.1-0.7-2.2-1.8-2.3
		c-1.1-0.1-2.2,0.5-2.4,1.7c-0.2,1,0.3,2.1,1.3,2.4C378.5,231.4,378.6,231.4,378.8,231.4z"/>
</g>
</svg>
