<?xml version="1.0" standalone="no"?>
<svg version="1.0" xmlns="http://www.w3.org/2000/svg"
 width="21.000000" height="29.000000" viewBox="0 0 21.000000 29.000000"
 preserveAspectRatio="xMidYMid meet">

<g transform="translate(0.000000,29.000000) scale(0.100000,-0.100000)"
fill="#FFC800" stroke="none">
<path d="M60 271 c-5 -11 -10 -40 -10 -64 0 -37 -4 -46 -21 -50 -19 -5 -21
-11 -16 -41 18 -110 90 -147 160 -82 24 22 27 33 27 86 l0 62 -29 -7 c-36 -8
-61 15 -61 55 0 16 -7 36 -16 44 -20 20 -21 20 -34 -3z m35 -68 c8 -71 16 -96
22 -70 5 18 23 24 23 7 0 -17 28 -11 39 8 9 14 10 12 11 -15 0 -51 -16 -80
-56 -99 -46 -22 -61 -13 -92 50 -23 48 -22 76 2 43 22 -29 26 -20 26 58 0 89
16 100 25 18z"/>
</g>
</svg>
