<svg width="585.8117" height="585.8117" xmlns="http://www.w3.org/2000/svg" viewBox="0 0 297.6 297.6"><style>.st1{fill:#232124}</style><g id="Слой_x0020_1" transform="translate(-69.629)"><path id="polygon7" fill="#262527" d="M367.3 0H69.6v297.6h297.7z"/><path id="path9" class="st1" d="M93.3 80.8c-.9-2.5-5.3-3.9-5.3-3.9-.4-.1-.9-.6-1.1-1l-.3-.7c-.2-.4-.4-1-.5-1.3s-.3-.8-.5-1.3l-4.3-9.9c-.2-.4-.3-.8-.2-.9l.1-.1c.6-.7.8-1.6.6-2.5-.1-.1-.1-.1-.1-.2l-.1-.1c-.1-.1-.1-.3-.1-.3.7-1.1.9-1.8.7-2.5l-.1-.3c-.4-.3-.7-.7-.7-.9s-.1-.7-.2-.9l-.3-.1h-.3c-.1.3-.3.7-.3.9s-.1.3-.2.3-.3-.2-.3-.4-.1-.6-.3-.9l-.3.1h-.3c-.1.3-.2.7-.2.9s-.1.4-.2.4c-.1.1-.5-.1-.5-.3s-.2-.6-.4-.9l-.3.1-.3.4c-.1.3-.1.7 0 .9s-.1.4-.2.4c-.1.1-.6 0-.7-.2s-.3-.5-.5-.8l-.3.1-.3.2c0 .3 0 .7.1.9s.1.4-.1.4c-.1.1-.5 0-.6-.2s-.4-.5-.7-.7l-.3.1-.3.1c0 .3.1.8.2 1s.2.4.1.4c-.3.2-.3.5-.2.7.1.3.5.3.7.2 1.5-.9 5.3-1.8 6.9-1.4.1.1.3.1.3.3.1.1-.1.5-.1.5-.2.5-.7.7-1.1.5 0 0-.8-.3-1.7-.1-1.1.4-1.5 1.7-1.5 1.7-.1.5-.5.9-.7.9l-.2.1h.2s-.3.1-.8.3c0 0-.7.2-1.3.5-1.5.7-3.4 1.9-3.4 1.9-.4.3-.7.5-.7.5s-.1.1-.2.1V66l.4-.2c.4-.2.7-.3.7-.3s.4-.1.8-.3c0 0 1.9-.7 3.3-1.1.6-.2 1.3-.4 1.9-.6 0 0 0-.1.1-.1l.3-.1c.3-.1.5-.1.5-.1s.1-.1.3-.1l.1-.1h.1c.1-.1.3-.1.5 0 .1 0 .5.4.7.9l3.1 10.3c.1.4.3 1 .5 1.3.1.3.3.9.4 1.3l.2.7c.1.4 0 1.1-.3 1.5 0 0-2.8 3.9-1.8 6.7 1.2 3.3 4.9 4.9 8.2 3.7 3.3-1.6 4.9-5.2 3.7-8.6zM74.2 63.3c-1.3.5-2.4.5-2.5.1s.7-1.1 2-1.5c1.3-.5 2.4-.5 2.5-.1.1.3-.8 1.1-2 1.5zm5.2-2.5c-.6.2-1.3-.1-1.5-.7-.3-.6.1-1.3.7-1.5.6-.3 1.3.1 1.5.7.3.6-.1 1.2-.7 1.5zM89.2 88c-2.7 1.1-5.8-.4-6.8-3.1-.9-2.5 1.8-5.8 1.8-5.8.3-.3.4-1 .3-1.5l-.4-1.6c-.1-.4-.3-1-.3-1.3-.1-.3-.3-.9-.4-1.3l-1.5-5.9c-.1-.5-.1-.5.1-.1l2.7 5.6c.2.4.5.9.5 1.2.1.3.4.9.6 1.3l.8 1.6c.2.4.7.8 1.1.9 0 0 3.9.9 4.7 3.3 1 2.7-.5 5.7-3.2 6.7z"/><path id="path11" class="st1" d="M89.9 82.2c-.5-1.4-2.1-2.1-3.4-1.6-1.4.5-2.1 2.1-1.6 3.4.5 1.4 2.1 2.1 3.4 1.6 1.4-.6 2-2.1 1.6-3.4zm-2 2.4c-.9.3-1.7-.1-2.1-.9-.3-.9.1-1.7.9-2.1.9-.3 1.7.1 2.1.9.3.9-.1 1.7-.9 2.1z"/><path id="path13" class="st1" d="M111.3 88.2l-3.6-.7c-.5-.1-.9-.3-.9-.5s-.1-.7-.1-.7h.9l3.7-.1c.5 0 1.1-.2 1.5-.5l-.1-.5c-.1-.5-.1-.6-.1-.6-.4-.2-1.1-.3-1.6-.3l-3.7.1c-.5.1-.9-.2-.9-.5-.1-.3.1-1.2.6-1.3l2.6-.6c.5-.1 1.1-.5 1.3-.7l-.3-.6c-.2-.5-.3-.5-.3-.5-.5-.2-1.2-.2-1.6-.1l-2.3.5c-.5.1-.9-.1-1.1-.6 0 0-.1-.4-.3-1.1 0 0 .3-.2.7-.3l3.3-1.3c.5-.2 1-.7 1.2-1.1l-.3-.6c-.3-.6-.5-.7-.5-.7-.5-.1-1.1 0-1.6.1l-2.9 1.2c-.5.2-.9 0-1.1-.4-.1-.4-.3-1.6.1-1.9l2.9-1.5c.4-.2.9-.7 1.1-1.1l-.3-.5-.3-.5c-.5 0-1.2.1-1.6.4l-2.5 1.3c-.4.3-.8.2-.9-.1-.1-.2-.5-.9-.5-.9s.3-.2.7-.5l2.9-2c.4-.3.7-.9.8-1.3l-.5-.5c-.5-.5-.7-.5-.7-.5-.5 0-1.1.2-1.5.5l-2.3 1.5c-.3.3-.9.7-1.3 1.1 0 0-2.3 2.3-3.7 3.9-.8.8-1.8 2-1.8 2-.3.3-.9.4-1.2.1l-1.3-.8c-.4-.2-.5-.6-.2-1l4.1-5c.3-.3.5-.6.5-.6.1 0 .1-.1.1-.1s.3-.2.7-.5l2.9-2.1c.4-.3.9-.8 1-1.2 0 0 .1-.1-.3-.5-.3-.4-.5-.4-.5-.4-.5.1-1.1.4-1.5.7l-2 1.5c-.4.3-.9.2-1-.1-.2-.3-.5-1.3-.1-1.6l2.4-2.3c.3-.3.7-.9.7-1.3l-.4-.3c-.5-.4-.5-.3-.5-.3-.5.1-1.1.5-1.4.7L94 62.4c-.3.3-.5.6-.5.6s-.3-.2-.5-.3l-.2-.2c-.5-.2-.7-.5-.6-.7l.3-.4 1.9-2.8c.3-.3.5-1 .5-1.5l-.6-.2c-.5-.3-.6-.2-.6-.2-.4.2-.9.6-1.2 1l-1.9 2.8c-.3.4-.5.7-.5.7s-.1-.1-.4-.1c-.2-.1-.6-.6-.5-1l.9-3.3c.1-.4.1-1.1-.2-1.5l-.7-.1c-.8-.1-.9.1-.9.1-.4.3-.7.9-.9 1.3l-.9 3.2c-.1.5-.2.8-.3.9-.3.9-.8 3.6-.6 6.3.3 2.7 1.1 4.8 2.5 6.3l.1.1s.2.2.5.4c.3.3 1.1.8 1.1.8l.1.1h.1l.1.1s.3.1.8.3l2.1 1.2c.4.3.7.5.7.5l.6.6s.6.6 1 1.3c.3.5.6 1.1.8 1.6.4 1.1.5 2.4.5 2.4v.9s0 .3-.1.8c0 0-.1.9-.3 1.7-.3 1.1-.9 2.2-1.7 3.1-.8.9-2.2 1.7-2.2 1.7-.4.3-.7.5-.7.5s-.2.1-.5.2l-.3.1-.3.1-.6.2s-.3.1-.8.1l-1.9.1c-.4 0-.8-.1-.8-.1s-.3-.1-.7-.3c0 0-5.1-2.2-6.3-5.3-.2-.5-.3-1-.4-1.5-.3-1.7-.1-3.4.5-4.9.4-.9.9-1.7 1.5-2.4l.1-.1c.1-.1.3-.6.5-1 0 0 .2-.4.3-1.1v-.1c.3-1.9-.2-3.9-1.4-5.7-1-1.6-2.3-2.6-3.3-2.6-1.3 0-3.5.3-4.7.8-.2.1-1.7 2.4-1.7 2.4-.3.3-.5 1.1-.5 1.5v1.1s0 .4.1.9l.3 3.5c.1.5.1.9.1 1s.5.4.8.5c.3.2.7.3.7.3.1.1.6-.1 1.1-.3l6.7-2.6c.4-.2.7-.2.7-.1s-.2.5-.2.6c-.7.8-1.3 1.9-1.3 1.9-.3.4-.8.8-1.3.9 0 0-2.9.5-4.9.9-.5.1-1.6.4-2.9.7V83c.1 0 .1 0 .1-.1h.1c.4-.1.8-.1.9.1 0 0 .1.4.3.8l.6 2c.1.5.1 1 0 1.3l-.5.1-.4.1c-.3-.1-.6-.7-.7-1.1l-.4-1.4v6.4c1.7-1.3 4.3-3.1 5-3.5 1.1-.7 2.5-1.6 2.5-1.6.3-.3.7-.1.9.3l.1.3c.1.4.1.5.1.5.2.4.4.7.3.7-1 .6-1.6 1-2.6 1.8-.7.5-4.5 3.3-6.4 4.7v2.4c.1-.1.1-.1.2-.1l2.1-1.5c.4-.3.8-.3.9-.1.1.2.3 1-.1 1.3L70 98.3l-.4.4v1.4c.2.2.3.2.3.2.4 0 1.1-.3 1.5-.5L74 98c.3-.3.9-.3 1.1 0l.3.2s-.1.1-.1.2l-.4.4-2.6 2.7c-.3.3-.6.9-.6 1.3l.5.3c.5.3.6.3.6.3.4-.1 1.1-.5 1.3-.8l2.5-2.6.3-.3c.1-.1.3-.3.3-.2l.1.1c.1.1.3.6.1 1l-1 2.4c-.2.5-.1 1.1 0 1.5l.8.1c.7.1.9.1.9.1.4-.3.9-.8 1.1-1.2l.8-2c.1-.4.4-1.1.5-1.5l2.3-6.9c.1-.4.6-.6 1-.5l.9.3c.5.1.7.5.7 1 0 0-.3 2.3-.5 3.9-.2 2.1-.7 5.2-.7 5.2-.1.5-.2 1.2-.3 1.7l-.5 3.1c-.1.5.1 1.2.3 1.6 0 0 .1.1.7.1.7 0 .8-.2.8-.2.3-.3.6-1 .7-1.4l.6-3.5c.1-.4.1-.8.1-.8s.1 0 .3-.1l.2-.1c.3-.1.6.1.6.3l.1.5.2 3.1c0 .5.3 1.1.5 1.4l.5-.1c.5-.1.6-.2.6-.2.2-.4.3-1.1.3-1.5l-.2-3.2c-.1-.5-.1-.9-.1-.9s.1 0 .4-.1c.2-.1.9.1.9.5l1 3.5c.1.4.5 1 .8 1.3l.5-.3c.5-.3.6-.3.6-.3.1-.5.1-1.2 0-1.6l-.9-3.3c-.1-.5-.3-.8-.3-.8.2-.1.3-.1.3-.1h.1c.3-.1.8.1 1 .5l1.6 3.5c.2.5.7.9 1.1 1.1 0 0 .1.1.6-.3.6-.3.6-.5.6-.5.1-.4 0-1.1-.2-1.5l-1.5-3.2c-.1-.4-.1-.9.3-1 .3-.1 1.3-.3 1.5.1l1.9 3.1c.2.4.7.9 1.1 1.1l.4-.3.4-.4c0-.5-.1-1.2-.4-1.6l-1.7-2.9c-.3-.3-.3-.8-.1-.9.3-.1.9-.5.9-.5s.2.3.5.7l2.5 3.4c.3.3.9.7 1.3.7l.5-.5c.5-.6.5-.8.5-.8 0-.5-.3-1.1-.6-1.5 0 0-4.8-5.7-5.8-6.7-1-1.2-3.5-3.2-3.5-3.2-.3-.3-.5-.8-.2-1.2l.6-.9c.2-.5.7-.7 1.1-.5l8.5 2.3.8.2s.3.1.8.1l3.5.7c.4.1 1.1 0 1.5-.2 0 0 .1 0 .1-.7.1-.7-.1-.9-.1-.9-.2-.3-.8-.6-1.2-.7zM86.6 62.9c.3-.6.5-.6.5-.6.5-.1 1.1.1 1.6.2l5.5 2.5c.4.2.9.5 1.2.8v.3c0 .2 0 .4-.1.6-.1.4-.4.7-.7.7l-.2.1c-.2 0-.5-.1-.5-.1-.1 0-.5-.2-.9-.4l-5.3-2.3c-.4-.1-.9-.6-1.2-1 0 0-.2-.2.1-.8zm1.6 7.1c-.1.5-.4.9-.7 1.1L87 71c-.3-.1-.6-.3-.7-.5h-.1c0-.1.1-.5.3-.9l.5-1.7c.1-.5.4-.9.7-1.1l.5.1.5.1c.1.3.1.9 0 1.3l-.5 1.7zm1.8 2.3l-.6-.3c-.5-.3-.8-.5-.9-.8l-.1-.1c0-.1.2-.4.4-.8l1-1.9c.2-.4.7-.8 1.1-.9l.6.3.6.3c.1.3.1.9-.1 1.3l-.9 1.9c-.3.6-.8 1-1.1 1zm-16.8-3.2c.7-.2 1.4.1 1.6.8.3.6-.1 1.3-.7 1.6-.7.2-1.4-.1-1.6-.7-.3-.7.1-1.5.7-1.7zm.1 8.4c-.7.3-1.4-.1-1.6-.7-.3-.7.1-1.4.7-1.7.7-.2 1.4.1 1.6.8.3.6 0 1.4-.7 1.6zm2.3-3.8l-3 .3c-.5.1-1.1 0-1.3-.1l-.1-.3c0-.3.1-.6.3-.7h.1c.1-.1.5-.1.9-.1l2.9-.3c.5 0 1.1.1 1.4.2v.3l.1.3c-.2.2-.8.4-1.3.4zm3.8 2.1h-.5l-.4.1c-.3-.3-.5-1-.5-1.5l-.4-4.1c-.1-.5.1-1.1.2-1.5l.5-.1c.4 0 .7.1.8.5h.1c0 .1 0 .5.1.9l.4 4.2c0 .4-.1 1.1-.3 1.5zm-7.2 7c-.1-.4 0-.7.2-.8 0 0 .3-.1.8-.3l2-.5c.5-.1 1-.1 1.3 0l.1.5.1.4c-.2.2-.7.5-1.1.6l-2 .5c-.5.1-1.1.1-1.3 0l-.1-.4zm4 2.6l-1.9.7c-.5.1-1.1.2-1.3.1l-.1-.4-.1-.4c.2-.2.3-.5.3-.5.1 0 .4-.1.8-.3l2-.7c.4-.1 1-.1 1.3-.1l.1.4.1.4c-.2.4-.8.7-1.2.8zm2.6 12.1l-.4.4c-.4-.1-.9-.4-1.3-.7l-2-2.2c-.3-.3-.5-.9-.5-1.3l.4-.3c.2-.2.3-.3.5-.3l.3-.1c.1.1.5.5.9.8l2 2.2c.3.3.5.9.5 1.3 0-.1 0-.1-.4.2zm1.9-4.8l-.9.9c-.3.4-.8.6-1.1.6l-.4-.4-.5-.4c-.1-.3.1-.8.5-1.1l.9-1c.3-.3.8-.6 1.1-.5l.4.3c.3.3.5.5.5.7l.1.1c0 .1-.3.5-.6.8zm11.2-.1l.4-.2c.1-.1.2-.1.3-.2l.3-.1c.1.1.5.4.7.8l.9 1.3c.2.4.4.9.3 1.2l-.4.3-.4.3c-.3-.1-.7-.5-.9-.9l-.9-1.3c-.2-.4-.4-.9-.3-1.2zm-3.4 1l.5-.1c.2-.1.4-.1.5-.1h.2c.1.1.3.5.4.9l.6 1.5c.1.4.1 1 .1 1.3l-.5.1-.4.2c-.3-.1-.6-.6-.8-1l-.5-1.5c-.1-.4-.2-1-.1-1.3zm8.2 2.4c.5-.1 1.2-.3 1.7-.2 0 0 .5 0 .7.6s-.1.9-.1.9c-.3.3-.9.7-1.4.9l-8.3 3.1c-.5.1-1.1.3-1.6.2 0 0-.5 0-.7-.6-.1-.3-.1-.6.1-.9l.1-.3c.3-.2.9-.5 1.3-.7l8.2-3zm-.4-16.8l-.3-.7-.2-.6c.1-.3.2-.7.2-.7s.3-.1.8-.3l1.7-.5c.4-.1 1-.1 1.3.1l.2.7.2.6c-.1.4-.5.8-.9.9l-1.7.6c-.5.2-1.1.1-1.3-.1zm4.6 4.6l-1.9.1c-.4.1-1-.1-1.3-.3l-.1-.6c0-.5.1-1 .3-1.1h.1s.4-.1.8-.1l1.9-.2c.5-.1 1.1.1 1.3.3l.1.6.1.6c-.3.3-.9.6-1.3.7zm4.6 1.5s0 .5-.6.7-1.3-.1-1.5-.8c0 0-.1-.4-.3-.8l-2.9-9.1c-.2-.5-.3-1.2-.2-1.7 0 0 0-.5.6-.7.3-.1.5-.1.7.1l.3.1c.3.3.5.9.5 1.1.1.3.3.8.4 1.2l.2.6c.1.4.3 1.1.5 1.5l.1.5c.1.5.3 1.2.5 1.6l.1.4c.1.5.3 1.1.5 1.6l.1.5c.2.4.4 1.1.5 1.5v.1c.4.4.5 1.1.5 1.6z"/><path id="path15" class="st1" d="M133.4 0l-.9 3.3c-.2.6-.3 1.7-.1 2.3 0 0 0 .1.7.3.7.1.7 0 .7 0 .5-.5.9-1.4 1.1-2.1L136 0h-2.6zm3.4 0l-1.1 4.1c-.2.7-.3 1.7-.1 2.3 0 0 0 .2.7.3.7.2.7.1.7.1.5-.5.9-1.5 1.1-2.1l1.3-4.8h-2.6V0zm3.2 0l-1.3 5c-.2.6-.2 1.7-.1 2.3 0 0 0 .1.7.3.7.1.8.1.8.1.4-.5.9-1.5 1.1-2.1l1.5-5.6H140zm3.4 0l-1.6 5.8c-.1.7-.2 1.7-.1 2.3 0 0 .1.2.7.3.7.2.8.1.8.1.4-.5.9-1.5 1.1-2.1L146-.1l-2.6.1zm3.2 0l-1.8 6.7c-.1.6-.2 1.7-.1 2.3 0 0 .1.1.7.3.6.2.7.1.7.1.4-.5.9-1.5 1.1-2.1l2-7.3h-2.6zm3.3 0c0 .1-.1.1-.1.3l-2 7.2c-.1.7-.2 1.7-.1 2.3 0 0 .1.2.7.3.7.2.7.1.7.1.4-.5.9-1.4 1.1-2.1l2-7.3c.1-.3.3-.7.4-.9l-2.7.1zm3.2 0c0 .2 0 .7-.1 1.1l-2 7.2c-.2.6-.3 1.7-.1 2.3 0 0 0 .1.7.3s.7.1.7.1c.5-.5.9-1.5 1.1-2.1l2.3-8.1c.1-.3.1-.5.1-.9l-2.7.1z"/><path id="path17" class="st1" d="M262.8 0c-1.3 2.2-.1 4 .3 4.1.5.1.9-.3 1.1-.9.1-.5.9-1.7 2.2-2.3 1.3-.5 2.6-.8 3.9-.9h-7.5zm12.4 0c-.9 0-2.1.1-3.1.1-1.7.1-3.3.5-4.9 1.1-.6.3-1.2.6-1.7 1-.5.5 1.1 2.2 1.5 1.8 2.7-2.3 9.9-1.9 10.6-2.1 1.6-.4 1.8-.7 1.8-.7.2-.3.5-.7.8-1.1h-5V0z"/><path id="path19" class="st1" d="M285.8 0c-.3.3-.5.7-.9 1-.1.1-.3.2-.4.3-.3.1-.7 0-.9-.3s-.3-.7-.2-1h2.4z"/><path id="path21" class="st1" d="M310.5 12.9c-.1-.7-.4-1.7-.7-2.3l-1.5-3.9c-.3-.6-.7-1.5-.9-2.1l-.1-.3c-.3-1.3-.8-3-1.6-4.3h-6.5c-.1.1-.1.1-.3.1-2 1-4 1.9-6.1 2.7-1.2.5-4.5 1.7-4.5 1.7-.7.2-1.6.1-2.1-.2 0 0-.3-.1-.8-.4-1-.4-1.4-1.9-3.8-3.1-.5-.3-1.3 2.1-3.1 2.4-.8.2-2 .7-2.9.6-.5-.1-.9.2-1.1.7l-1.3 2.6c-.3.6-1.1 1.1-1.7 1.2 0 0-3.4.4-4.8.5-2.2.3-4.4.5-6.7.6-1.5.1-4.2-.4-5.3 1-1.2 1.6-.4 4.7 0 6.6l.1.3c.1.6.2 1.7.3 2.3l.5 4.1c.1.7.3 1.7.5 2.3 0 0 .7 2.1 1.6 1.9s1.1-2.3 1.1-2.3c0-.7 0-1.7-.1-2.3l-.2-2.1c-.1-.7-.1-1.2-.1-1.2s.1-.1.3-.1c.2-.1.9.3.9 1l.1.6c.1.7.3 1.7.4 2.3 0 0 .5 1.9 1.3 1.8.9-.1 1.3-2.3 1.3-2.3.1-.6.1-1.7.1-2.3l-.1-.7c-.1-.7.1-1.3.3-1.3.3 0 1 .3 1.1.9s.3 1.6.5 2.2c0 0 .7 1.9 1.5 1.8s1.1-2.2 1.1-2.2c.1-.7.1-1.7.1-2.3-.1-.6 0-1.2.2-1.2.2-.1.7.1.7.5.1.3.3 1.1.4 1.8 0 0 .5 1.7 1.3 1.6s1.3-2.1 1.3-2.1c.1-.7.2-1.5.1-1.9 0-.4.2-.8.5-.9s1.5 0 1.7.7c0 0 1.7 4.5 3.6 6.3l.3.3c.4.3.5 1.1.3 1.7l-5 12.1c-.3.6-.5 1.1-.5 1.1s-.1.3-.3.7c-.2.3-.4 1.5 0 1.9.5.3 1.9.6 2.1.1.3-.6 1.4-2.1 1.9-2.1.5.1 1.6.6 1.5 1.2-.1.7.1 2.3.6 2.5.5.1 1.9-.3 1.9-.9l.1-1.5c0-.7.4-1.2.8-1.2.4-.1 1.6.4 1.6 1l.1 1.3c0 .7.5 1.2.9 1.2.5 0 1.8-.6 1.7-1.3l-.2-1.6c-.1-.7-.1-1.2-.1-1.2s.3-.1.7-.1c.4-.1 1.6.2 1.7.8l.3 1.5c.1.7.6 1.1 1.1 1s1.6-1 1.4-1.6l-.5-1.5c-.1-.6 0-1.3.5-1.4.4-.1 1.7.1 1.9.7l.5 1.4c.2.6.8.9 1.3.7.5-.3 1.4-1.3 1.1-1.9l-.5-1.1c-.3-.6-.3-1.2.1-1.3.3-.2 1.5-.1 1.8.5l.7 1.1c.3.5.9.7 1.3.5.4-.3 1.2-1.6.9-2.1-.4-.5-1.1-1.9-.8-2.1.3-.2.9-.7.9-.7s.4.4.9.8l1.1.9c.5.5 1.1.4 1.4 0 .3-.5.7-2 .2-2.3-.4-.3-1.5-1.1-1.5-1.1s-.4-.3-.9-.7l-10.1-8.2c-.5-.4-.7-1-.7-1.3l.1-.3c1-2.6.8-7.8.8-7.8-.1-.6.5-1.2 1.1-1.3l.5-.1c.5-.1 1 .2 1.1.6.1.3.6 1.1 1.1 1.6 0 0 1.3 1.5 2.1 1.3.9-.3.4-2.1.4-2.1-.1-.6-.4-1.4-.5-1.7s-.1-.7.1-.7.9.3 1.1.9c.3.6.7 1.5 1.1 2.1 0 0 1.2 1.7 2 1.3.9-.3.5-2.2.5-2.2-.1-.7-.4-1.6-.7-2.2-.2-.5-.2-1 .1-1.1.3-.1 1.1.3 1.4.9l.3.7c.3.6.8 1.5 1.2 2 0 0 1.4 1.7 2.2 1.3.9-.3.3-2.2.3-2.2-.1-.6-.5-1.6-.7-2.2l-.3-.6c-.2-.6-.3-1.1 0-1.2s.7-.2.7-.2.2.5.5 1.1l.7 1.9c.3.6.8 1.6 1.1 2.1 0 0 1.1 1.9 2 1.5.9-.3.6-2.5.6-2.5zM258.1 16c-1 .3-1.9-.2-2.1-1-.2-.7.5-1.6 1.4-1.9 1-.2 1.9.2 2.1 1s-.5 1.7-1.4 1.9zm12.3-.2c-.6.3-1.3.5-1.7.6-.3 0-.9.1-1.1.2-.3 0-1 .2-1.7.3l-.8.1c-.6.1-1.5.3-1.9.4s-1.1.1-1.5.3c-.4.1-1.3.1-1.9.1 0 0-.1 0-.5-.2-.2-.1-.3-.3-.4-.5 0-.2.1-.4.3-.6.3-.3.7-.5 1.3-.7h.1c.1-.1.5-.1.9-.2s1.1-.2 1.5-.3 1.2-.3 1.9-.3l.8-.2c.6-.1 1.4-.2 1.7-.3s.8-.1 1.1-.2c.3-.1 1.1-.1 1.7-.1 0 0 .7.1.9.6.1.7-.7 1-.7 1zm.4-3.4l-.3.1c-.5.1-1.3.2-1.9.2-.5.1-1.3.1-1.9.1-.5.1-1.3.1-1.5.1-.3.1-1.1.1-1.7.1l-1.1.1c-.7.1-1.7 0-2.4-.1 0 0-.7-.1-.7-.7.1-.5.5-.9 1.3-1.1h.2c.3-.1 1-.1 1.7-.1l6-.4c.7 0 1.7.1 2.4.2 0 0 .7.1.7.7-.1.3-.4.6-.8.8zm13.9-3.2c.8-.2 1.6.2 1.7.9.2.7-.3 1.5-1.1 1.7-.8.2-1.6-.2-1.8-.9-.2-.8.4-1.5 1.2-1.7zm-2.2 1.9c.2.7-.3 1.5-1.1 1.7-.8.2-1.6-.2-1.8-.9s.3-1.5 1.1-1.7c.8-.2 1.6.2 1.8.9zm-2.8-4.7c.8-.2 1.6.2 1.8.9s-.3 1.5-1.1 1.7c-.7.2-1.5-.2-1.7-.9-.2-.8.3-1.5 1-1.7zm-2.9 4.7c.8-.2 1.6.3 1.7 1 .2.7-.3 1.5-1.1 1.7-.8.2-1.6-.2-1.8-.9s.4-1.6 1.2-1.8zm-1.9 5.9l-.1-.5c-.1-.2-.1-.5.1-.7l.1-.2c.3-.1.9-.3 1.6-.5l10.1-2.5c.7-.1 1.6-.2 2.1-.1l.1.5.1.5c-.4.3-1.3.7-1.9.9L277 16.9c-.6.1-1.5.1-2.1.1zm3.6 12.1c.3-.1.4.3.2.9s-.5.6-.5.1c-.2-.5-.1-.9.3-1zm15.6 1.8l.1.3.1.3c-.3.2-1 .5-1.6.6L280 35.3c-.6.2-1.4.3-1.7.2l-.1-.3c-.1-.1-.1-.3 0-.4l.1-.1c.1-.1.8-.3 1.5-.5l12.7-3.2c.6 0 1.3-.1 1.6-.1zm-12.6 1c.3.6.1 1.1-.5 1.3l-.7.2c-.7.1-1.2.1-1.3-.2-.1-.3.1-1 .3-1.6l.3-1c.2-.6.7-.7 1-.1l.9 1.4zm.2-3.6c.7-.2 1.1.2 1 .9l-.2 1.1c-.1.6-.5.7-.9.1l-.5-.8c-.3-.6 0-1.2.6-1.3zm3.9 2.7c.4.5.2 1-.4 1.2l-.9.2c-.7.1-1.1-.3-.9-.9l.2-1.5c.1-.7.6-.7 1-.3l1 1.3zm-.3-3.6l.3-.1c.7-.1 1.1.3 1.1.9l-.1 1.1c-.1.7-.5.8-.9.3l-.8-.9c-.4-.6-.2-1.2.4-1.3zm2.2 3l.1-1.1c0-.7.5-.8.9-.3l.9.9c.5.5.8.9.9.9 0 0-.4.2-1.1.4l-.6.1c-.7.1-1.1-.3-1.1-.9zm4.2-1.8c.2-.6.5-.6.6.1l.1.5c.1.7-.1 1.3-.5 1.4-.5.1-.9.1-.9.1.1 0 .3-.7.4-1.3l.3-.8zm-.6-1.6l-.4 1.2c-.1.7-.7.8-1.1.3l-.8-.9c-.4-.5-.3-1 .4-1.1l1.1-.3c.6-.2.9.2.8.8zm-1.4-3.4c-.2.2-.9.5-1.6.7l-7.2 1.8c-.7.1-1.4.3-1.7.2l-.1-.3c-.1-.1 0-.3.1-.4l.1-.1c.1-.1.7-.3 1.4-.4l7.2-1.8c.7-.2 1.5-.3 1.7-.2l.1.3v.2zm0-5.1c-.7 3.2-1.5 3.7-1.5 3.7-.5.3-1.5.7-2.1.9l-4.8 1.2c-.7.2-1.7.1-2.3-.1 0 0-1.3-.5-2.7-2.3-.6-.8 0-2 .5-2.9.6-.8 1.5-1.3 1.5-1.3.6-.3 1.5-.6 2.1-.7.5-.1 1.1-.2 1.1-.1l.1.1c.1 0 .5.4.7 1.3.3.8.3 1.5.1 1.8-.1.4-.6.6-1 .5-.3-.1-.4-.4-.3-.7.1-.2.3-.3.4-.2.3.1.6-.1.7-.3.1-.3 0-.6-.3-.7-.7-.3-1.5.1-1.7.9-.3.8.2 1.7 1 2 .3.1.7.1 1.1 0 .5-.1 1.1-.5 1.3-1.1.3-.9-.4-2.8-.4-2.8-.2-.7.1-1.3.7-1.4.5-.1 1.5-.2 2.2-.1-.2-.1 4.1.3 3.6 2.3zm1.8-10.8h-.3c-.5 0-.8-.1-1-.3-.3-.5.3-.9.3-.9.5-.4 1.5-1 2.1-1.3l5.5-2.5c.6-.3 1.3-.6 1.5-.7l.2-.1c.7-.2 1.4-.1 1.6.3.3.5-.3.9-.3.9-.5.4-1.4 1-2 1.3l-1 .5c-.6.3-1.3.6-1.6.7-.3.1-.9.4-1.4.7-.5.2-1.3.6-1.7.8-.7.1-1.4.4-1.9.6zm12.2-.8c-.2.3-.3.4-.3.4-.6.3-1.4.6-1.8.7-.4.1-1.1.3-1.4.5-.4.1-1.2.4-1.9.6l-.7.3c-.6.2-1.3.4-1.6.5-.3.1-.8.2-1.1.3-.3.1-1.1.3-1.8.3 0 0-.8.1-.9-.4-.2-.5.4-.9.4-.9.6-.3 1.3-.7 1.6-.8.3-.1.8-.3 1.1-.3.3-.1 1-.3 1.7-.5l.7-.3c.6-.2 1.5-.5 1.9-.6.3-.1 1-.3 1.4-.5.5-.1.9-.3.9-.3h.1c.5-.1 1.1-.1 1.4-.1.3.1.5.3.5.5s-.1.4-.2.6zm.4-2c-1 .2-1.9-.2-2.1-1s.5-1.7 1.4-1.9c.9-.3 1.9.2 2.1 1s-.5 1.6-1.4 1.9z"/><path id="path23" class="st1" d="M143.8 254.1c-.6-.4-1.3-.2-1.7.5-.3.7-.1 1.5.5 1.8.6.4 1.3.2 1.7-.5.3-.6.1-1.5-.5-1.8z"/><path id="path25" class="st1" d="M148.2 260.7s-.9-5.5-4.1-7.4c-3.1-2-7.5-.1-7.5-.1-.6.3-.6.7 0 .9 0 0 3.5 1.4 5.7 2.8s5.2 4.1 5.2 4.1c.5.5.8.4.7-.3zm-3.4-4.6c-.5.9-1.5 1.2-2.3.7-.9-.5-1.2-1.7-.8-2.5.4-.9 1.5-1.3 2.3-.7 1 .5 1.3 1.7.8 2.5z"/><path id="path27" class="st1" d="M166.4 259.3c0-.7-.6-1.2-1.3-1.1s-1.3.7-1.2 1.5c.1.7.6 1.2 1.3 1.1.7-.2 1.2-.8 1.2-1.5z"/><path id="path29" class="st1" d="M172 260.3s-3.3-3.5-7-3c-3.7.6-6.7 5.3-6.7 5.3-.3.5-.1.8.5.6 0 0 3.7-1.3 6.4-1.7 2.7-.4 6.4-.3 6.4-.3.7 0 .9-.4.4-.9zm-6.9.9c-.9.1-1.7-.5-1.9-1.5-.1-1 .7-1.9 1.7-2.1 1-.1 1.9.5 1.9 1.5s-.7 2-1.7 2.1z"/><path id="path31" class="st1" d="M149.5 279.8c-1.7-.5-3.6.5-4.1 2.3-.5 1.7.5 3.6 2.3 4.1 1.7.5 3.6-.5 4.1-2.3s-.5-3.7-2.3-4.1zm1.1 3.7c-.3 1.1-1.5 1.8-2.5 1.5-1.1-.3-1.8-1.5-1.5-2.5.3-1.1 1.5-1.8 2.5-1.5 1.2.2 1.8 1.4 1.5 2.5z"/><path id="path33" class="st1" d="M150.5 276.2c-3.7-1.1-7.6 1.2-8.6 4.9-1.1 3.7 1.1 7.6 4.9 8.6 3.7 1.1 7.6-1.2 8.6-4.9s-1.3-7.6-4.9-8.6zm3.1 8.2c-.7 2.7-3.6 4.4-6.4 3.6-2.7-.7-4.4-3.6-3.6-6.4.7-2.7 3.6-4.4 6.3-3.6 2.8.7 4.5 3.6 3.7 6.4z"/><path id="path35" class="st1" d="M158.3 278.8c-.3-.7-.7-1.5-1.2-2.1-1.4-1.9-3.4-3.3-5.7-3.9-5.7-1.5-11.5 1.8-13 7.4-1.5 5.7 1.8 11.5 7.4 13 5.7 1.5 11.5-1.8 13-7.4.7-2.5.5-4.9-.5-7zm-1.2 6.5c-1.3 4.7-6.1 7.4-10.8 6.1s-7.4-6.1-6.1-10.8c1.3-4.7 6.1-7.4 10.8-6.1 4.6 1.3 7.3 6.1 6.1 10.8z"/><path id="path37" class="st1" d="M176.8 262.9c-1.2-5.1-6.1-8.5-11.9-7.6-4.3.7-7.9 3.5-9.7 7.1l-.1.1c-.1.2-.6.7-1.1 1.1 0 0-.5.5-1.4.2l-.7-.2c-.4-.5-.7-1.5-.8-2.1l-.1-.5c-.5-3.8-2.7-7.4-6.1-9.5-4.9-3.1-10.8-2-13.9 2.3-.1.1-.1.3-.1.5.1.2.2.3.4.4 3.4.7 6.9 2.1 10.1 4.1 2.4 1.5 4.7 3.3 6.6 5.4l.1.2c.2.1.5.7.8 1.3 0 0 .3.8.1 1.9-.3 1.1-1.1 1.5-1.1 1.5-.5.4-1 .7-1 .7s-.3.1-.8.1l-.4.1-.3.1c-.3.1-1.1.1-1.7-.1l-17.4-4.7c-.6-.2-1.6-.3-2.3-.2l-.1.5-.1.5c.5.4 1.4.8 2 1l15.2 4.1c.7.2 1.1.3 1.1.4l-.4.2c-.4.3-1.2.3-1.9.1l-14.4-3.9c-.6-.2-1.6-.3-2.1-.2l-.1.5-.1.3c.1.3.1 1-.1 1.7l-2.7 9.9c-.2.7-.2 1.7-.1 2.3 0 0 0 .2.7.3.7.2.8.1.8.1.4-.5.9-1.4 1.1-2.1l2.7-9.7c.1-.7.5-1.1.7-1.1.3.1.4.1.4.1 0 .1-.1.6-.3 1.2l-2.8 10.3c-.1.6-.2 1.7-.1 2.3 0 0 .1.1.7.3.6.2.7.1.7.1.4-.5.9-1.5 1.1-2.1l2.8-10.3c.2-.6.3-1.1.3-1.2 0 0 .3.1.7.2.5.1.8.2.8.2s-.2.6-.3 1.2l-2.8 10.3c-.2.6-.3 1.7-.1 2.3 0 0 0 .1.7.3l.7.1c.5-.5.9-1.5 1.1-2.1l2.8-10.3c.1-.6.3-1.1.3-1.2 0 0 .5.1.9.2.5.1.8.8.6 1.4l-2.7 10c-.2.6-.3 1.7-.1 2.3 0 0 0 .1.7.3.7.2.7.1.7.1.5-.5.9-1.5 1.1-2.1l2.7-10c.2-.7.9-1 1.5-.9.7.2.8.7.4 1.3 0 0-2.1 2.7-2.7 5-.9 3.4-.5 6.9 1.3 10 .3.6.5.8.5.8.4.5.3.8-.3.7-.5-.1-1.1-.2-1.4-.2-.3.1-.7.5-.7.5l-.1.1c-.1.1-.3.7-.4 1.3l-1.3 4.9h2.6l.9-3.3c.2-.7.5-1.1.7-1.1s.2.6 0 1.2l-.8 3.1h2.5l.7-2.5c.2-.6.5-1.1.7-1.1.2.1.2.6.1 1.3l-.7 2.3h2.6l.3-1.4c.2-.7.5-1.1.6-1.1.1.1.3.7.1 1.3l-.3 1.1h2.5l.1-.5c.2-.7.5-1.1.6-1.1s.3.6.1 1.2l-.1.4h2.6c.2-.6.5-1.1.7-1 .1.1.2.5.1 1h2.7c.1-.1.2-.2.3-.2.1.1.1.1.1.2h2.7c.1-.5.1-1.1 0-1.5 0 0-.1-.1-.7-.3h-.1s-.4-.1-.9-.2c-.4-.1-.3-.5.3-.8l2.7-1.8c.5-.4 1.1-.3 1.3.3l.5.1c.7.2.7.1.7.1.5-.5.9-1.4 1.1-2.1l2.7-10c.2-.6.7-1 1.3-.9.5.1.9.3.9.3s-.1.6-.3 1.2l-2.8 10.3c-.1.6-.2 1.7-.1 2.3 0 0 .1.1.7.3.6.1.7.1.7.1.4-.5.9-1.5 1.1-2.1l2.8-10.3c.2-.7.3-1.2.3-1.2s.2 0 .5.1.4.7.2 1.3l-2.7 9.9c-.1.7-.2 1.7-.1 2.3 0 0 .1.2.7.3.7.2.7.1.7.1.4-.5.9-1.5 1.1-2.1l2.7-10c.1-.6.6-1.1 1-.9.3.1.5.7.3 1.3l-2.7 9.7c-.2.7-.2 1.7-.1 2.3 0 0 .1.2.7.3.7.2.8.1.8.1.4-.5.9-1.5 1.1-2.1l2.7-9.9c.2-.6.5-1.3.9-1.5l.1-.3.1-.5c-.5-.3-1.3-.8-1.9-.9l-12.1-3.3c-.7-.1-1.3-.5-1.3-.7-.1-.3.1-.7.7-.5l13.1 3.5c.7.2 1.6.3 2.1.2l.1-.5.1-.5c-.4-.4-1.3-.8-1.9-.9l-15.3-4.2c-.6-.1-1.1-.3-1.1-.3s-.4-.3-.9-.8c0 0-.5-.5-1.3-1l-.1-.1c-.1-.1-.6-.6-.9-1.1 0 0-.9-1.2-.5-2.5.2-.9.6-1.2.6-1.2.5-.4 1.1-.9 1.3-.9l.2-.1c2.7-1.2 5.7-2.1 8.6-2.5 3.8-.6 7.5-.5 10.9.1.1.1.3-.1.5-.2-.3.3-.2.1-.3-.1zm-15.4 16.7zM149.1 264s-4.2-4.2-7.2-6.1-8.3-3.7-8.3-3.7c-.6-.2-.6-.7-.1-.9 0 0 6.9-3.4 11-.7 4.1 2.6 5.3 11.1 5.3 11.1.1.6-.2.8-.7.3zm7.1 10.1c.5.4 1.1.9 1.3 1.2.3.3.7.7.9 1.1l.2.3c.1.1.2.3.3.4.4.7.7 1.4.9 2.1.5 1.3.7 2.6.7 3.9 0 1-.1 2-.4 3-.3 1-.7 1.9-1.2 2.7-1.7 3.1-4.7 5.1-8.1 5.8l-.3.1c-.4.1-.7.1-.7.1s-.5 0-1.2.1c0 0-.3 0-1-.1-.3 0-.5-.1-.8-.1l-1.2-.3c-.4-.1-.8-.3-1.1-.4s-.5-.2-.7-.3c-.7-.3-1.3-.7-1.9-1.1-.3-.3-.6-.5-.9-.7-3.3-2.9-4.9-7.6-3.7-12.1.7-2.3 2-4.3 3.7-5.9.5-.4 1-.7 1.5-1.1s1.2-.7 1.8-.9c.6-.3 1.3-.5 1.9-.6 1.8-.4 3.7-.3 5.6.1 2 .7 4.4 2.7 4.4 2.7zm18.1-11.8s-5.6-.5-9.1.1-9.1 2.8-9.1 2.8c-.6.2-.8 0-.5-.6 0 0 4.4-7.4 9.3-8.1 4.8-.8 9.7 5 9.7 5 .6.5.4.9-.3.8z"/><path id="path39" class="st1" d="M279.5 290.9c-.3-1.3-1.7-2.1-2.9-1.8-1.3.3-2.1 1.7-1.8 3 .3 1.3 1.7 2.1 3 1.7 1.2-.3 2-1.6 1.7-2.9zm-2.1 1.8c-.7.1-1.3-.3-1.5-.9-.1-.7.3-1.3.9-1.5.7-.1 1.3.3 1.5.9.2.6-.2 1.3-.9 1.5z"/><path id="path41" class="st1" d="M283.3 290.6c-.9-3.3-4.3-5.3-7.6-4.5-2.7.7-4.2 4.5-4.2 4.5-.3.6-.7 1.6-1.1 2.1 0 0-.5.6-.1-.5.6-2.5-3.1 1.7-4.7 2.7-1.5.9-2.3 1.8-2.8 2.7h7.5c1.7-.2 3.4-.1 5.1-.1.5.1.7.1.7.1.6 0 .6.1 0 .1h-.9 5.1c.2-.3.5-.6.7-.8-.1-.1 3-3.3 2.3-6.3zm-5.3 4.2c-1.9.5-3.7-.7-4.2-2.5-.5-1.9.7-3.7 2.5-4.2 1.9-.5 3.7.7 4.2 2.5.4 1.8-.7 3.7-2.5 4.2z"/><path id="path43" class="st1" d="M288.4 292.2c-.7.1-1.3.4-1.3.5v.1c0 1.9-.5 3.5-1.3 4.7h-2.4c0-.1.1-.3.2-.3 2.3-2.3 1.9-6.3.5-9.4-1.2-2.6-3.7-4-6.7-3.9-3.4.2-6.5 2.3-7.6 5.4-.2.5-.7.8-1.2.6l-.2-.1-.3-.3c-.1 0-.5-.2-1.1-.5l-.3-.1c-.6-.3-.8-1.1-.5-1.6l1.1-2c.3-.5 1-.8 1.6-.5l.1.1c.5.3 1.5.1 1.6 0 .2-.2 0-.7-.3-1.3l-.1-.1c-.3-.6-.1-1.3.5-1.7l1.9-1.1c.5-.3 1.3-.1 1.6.5l.2.3c.3.5 1.3.9 1.6.8.3-.1.5-.6.7-1.3.1-.7.7-1.1 1.3-1l2.2.3c.7.1 1.1.7 1 1.3-.1.6.5 1.4.7 1.5.3.1.8-.2 1.3-.7.4-.5 1.2-.5 1.7-.1l1.6 1.5c.5.5.5 1.2.1 1.7l-.1.2c-.5.5-.7 1-.7 1.1l.1.2.1.3c.1.3.8.5 1.4.4l.2-.1c.6-.1 1.3.3 1.4 1l.4 2.1c.1.8-.4 1.4-1 1.5z"/><path id="path45" class="st1" d="M304.3 296.2c-1.5-.7-3.5.7-4.9 1.5h6.5c-.6-.7-1-1.3-1.6-1.5z"/><path id="path47" class="st1" d="M183 169.8c-2.1-2.6-4.8-3.8-8.9-4.1-1.9-.1-14.3 1.7-14.3 1.7-.6.1-1.1-.1-1.1-.3 0-.3-.3-1.1-.3-1.3-.1-.1-.1-.2-.1-.2s0-.1-.1-.3c-.1-.1-.3-.5-.5-.9l-.1-.3c-.3-.6-.4-.7-.4-.7-.3-.5-.1-1.1.5-1.1l.6-.1c.7-.1 1.4-.3 1.8-.5 4.5-1.5 6.9-2.9 8-4.7l.3-.5.1-.5c.1-.3.1-.5.1-.5s.1 0 .3-.1.5-.2.7-.3l3.2-1.5c.6-.3 1.3-.8 1.6-1.1l-.2-.3-.1-.3c-.4 0-1.3.2-1.8.5l-2.6 1.2c-.6.3-1.1.5-1.1.5l-.1-.5-.2-1c.1 0 .5-.2 1.1-.5l2.1-1c.6-.3 1.3-.7 1.6-1.1l-.1-.3-.2-.3c-.4 0-1.2.3-1.8.5l-1.9.9c-.6.3-1.1.5-1.1.5l-.1-.5c-.1-.5.3-1.2.9-1.5l1.6-.9c.6-.3 1.3-.8 1.5-1.1l-.1-.3-.2-.3c-.4.1-1.2.3-1.8.6l-1.3.7-.6.3c-.3.1-.5.1-.6-.1l-.1-.5-.1-.4s.1-.1.3-.2c.1-.1.4-.3.7-.5l1.2-.8c.5-.3 1.2-.9 1.4-1.3l-.2-.3-.2-.3c-.4.1-1.2.4-1.7.7l-1 .7c-.5.4-1.1.5-1.3.2s-.5-.9-.5-.9.5-.3.9-.7l.8-.7c.5-.4 1.1-1 1.3-1.4l-.3-.3-.2-.3c-.4.1-1.1.5-1.7.9l-.8.7-.5.4c-.3.2-.5.2-.7.1l-.3-.4-.4-.3c0-.1.3-.5.7-1l.6-.8c.4-.5.8-1.3.9-1.7l-.3-.3-.3-.2c-.3.2-1 .8-1.4 1.3l-.7.9c-.3.5-.7.9-.7.9s-.3-.1-.5-.3c-.3-.1-.9-.9-.7-1.5l.1-.3c.3-.6.5-1.5.5-1.9l-.4-.1-.3-.1c-.3.3-.7 1-1 1.6l-.2.5-.3.6c-.1.3-.4.5-.7.5l-.6-.1h-.6v-.3-.9c.1-.6-.1-1.5-.3-1.8h-.4l-.3-.1c-.2.4-.3 1.3-.3 1.9 0 .7-.3 1.3-.5 1.3h-.3c-.3.1-.5.1-.8.2 0 0-.1-.5-.1-1-.1-.5-.3-1.3-.5-1.6h-.4l-.3.1c-.1.4-.1 1.2-.1 1.8.1.6.1 1.1.1 1.1s-.2.1-.5.1c-.2.1-.9.3-.9.3s-.1-.4-.3-.8c-.1-.5-.5-1.1-.8-1.4l-.3.1-.3.1c-.1.4 0 1.1.1 1.6.2.5.1.9-.1 1.1-.3.1-.9.5-.9.5s-.3-.3-.6-.7c-.3-.5-.9-.9-1.3-1.1l-.3.3-.3.2c.1.4.4 1.1.7 1.4.3.4.3.8.1 1-.3.2-.9.7-.9.7s-.3-.3-.7-.6c-.3-.3-.9-.7-1.3-.9l-.3.3-.3.3c.2.3.6.9 1 1.3.3.3.5.9.2 1.3l-.2.4c-.9 1.9-.3 5.2-.3 5.2.1.6 0 1.1-.3 1.1h-.3c-.8.2-1.3.9-1.3 1.7 0 .1.1.2.1.3v.2c.1.2-.1.3-.5.3l-.3-.1h-.1c-1.1-.1-2.3-.1-3.5-.1-1 .1-2.1.2-3.3.4-.5.1-1.1.1-1.8.3-.4.1-.9.2-1.4.3-2.1.4-4.2.9-6.2 1.4-.7.2-1.2.9-1.1 1.7.1.7.9 1.3 1.7 1.1 1.9-.2 4.1-.5 6.1-.7 1.1-.1 2.1-.1 3.1-.2 1.1 0 2.1 0 2.9.1 1 0 1.9.1 2.7.3.9.2 1.7.5 2.4.9.7.3 1.5.8 2.2 1.3.3.3.6.5 1 .9l.1.1c.2.2.4.4.5.6.2.1.3.3.5.4l.1.1.2.1c.2.1.4.3.4.3 0 .1.3.5.6 1l.2.5c.3.5.5.9.6 1.5l.1.3c.1.3.2.6.2.7.1.1.1.3.1.3 0 .1-.5.2-1 .3l-.5.1c-3.1.7-6.5 1.4-7.5 2-3.5 1.7-5.7 4.2-6.7 7.6-.9 2.7-.3 7.3 1 9.8s2.6 3.7 5.3 4.5c1.4.5 2.9.5 4.3.3 3.3-.6 3.1-1.1 4.1-4.2.6-1.9 1.3-3.3.4-5.1-.9-1.7-8.3-4.7-7-1.3.4 1.1 1.7 1.6 2.2 2.6.7 1.1.4 2.4.4 2.4-.1.7-.7 1.1-1.4 1 0 0-2.3-.3-3.6-2.7-1.1-2.1-1.5-3.8-1.3-4.3.1-.1.2-2.9 5.7-4.6 1.6-.5 4.5-1.3 4.5-1.3.6-.2 1 .2.9.9 0 0-.4 1.9-.1 3.5.5 3 4.2 5.7 4.2 5.7.5.4 1 .9 1 1.2l.1.3c.2.9.3 1.2.3 1.2.3.5.5 1.5.5 2.2l-1 5.8c-.1.7.3 1.3 1 1.4l2.5.3c.7.1 1.3-.3 1.3-.9l.8-4.9c.1-.7.5-.7.7-.1l2.1 3.9c.3.6 1.1.8 1.6.5l2.2-1.1c.6-.3.8-1.1.5-1.7l-2.5-4.8c-.3-.6-.4-1.6-.3-2.3 0 0 .1-.5-.1-1.4l-.1-.3c-.1-.3.1-1 .5-1.5 0 0 2.4-3.9 1.8-6.9-.3-1.7-1.4-3.3-1.4-3.3-.3-.5-.1-1 .5-1.1 0 0 3.5-.4 5.5-.5 6.2-.5 7.3 2 7.3 2.1.3.4.5 2.1.3 4.5-.2 1.7-.7 4.7-2.5 5.4-1.8.8-3.3-1.3-3.2-3s2-3.7 1.5-5.3c-.7-2.7-3.8.9-4.5 1.8-1.9 2.5-1.9 5.3.3 7.9 2.1 2.5 2.7 3.4 5.9 2.7 1.4-.3 2.8-.9 3.9-1.9 2.2-1.8 3.6-4.3 3.9-7.1.7-3-.5-7.4-2.3-9.6zm-38.6 20.1c.9-.7 2.1-.5 2.7.3.5.6.4 1 .4 1-.1.7-.4.9-.6.7-.2-.3-.4-.7-.4-.9l-.2-.2c-.3-.4-.9-.4-1.3-.1-.4.3-.5.9-.1 1.3l.1.2c.2.1.6.3.8.6s-.2.5-.9.5c0 0-.3 0-.8-.6-.6-.9-.5-2.1.3-2.8zm-3.6-3.6c-.1 1.3-1.3 2.4-2.6 2.3-1.1-.1-1.5-.8-1.5-.8-.3-.5-.3-.9.1-.9s.9.2 1.2.4l.3.1c.7 0 1.2-.5 1.3-1.1 0-.6-.5-1.2-1.1-1.2h-.3c-.3.1-.8.2-1.2.1-.5 0-.4-.4 0-.9 0 0 .5-.5 1.5-.5 1.3 0 2.3 1.1 2.3 2.5zm2.8-8.7c-1.5.7-3.3-.1-3.9-1.6-.5-1.2.1-2.3.1-2.3.3-.6.7-.7.9-.2s.3 1.1.2 1.6l.1.3c.3.7 1.2 1.1 1.9.8s1.1-1.2.7-1.9l-.1-.3c-.3-.3-.7-.8-.9-1.3s.1-.7.7-.5c0 0 1.2.3 1.7 1.5.8 1.5.2 3.3-1.4 3.9zm3.4-30.4c1.6-3.1 6.5-4.5 9.2-5.1 6.3-1.2 9.4 3.1 10.3 7.5.1.7.2 1.2.3 1.7.5 2.1.8 3.7.1 5-.9 1.5-3.1 2.7-7.2 4.1-.4.1-1 .3-1.7.4-.9.2-1.7.2-2.5.1-.7-.1-1.4-.3-2.1-.7h-.1c-.1-.1-.3-.1-.3-.3-.1-.1.1-.2.5-.1h.3c.3.1.5.1.8.1.5 0 1.1-.1 1.7-.2 4.7-.9 7.9-5 7.1-9.2-.8-4.2-5.3-6.9-10-5.9-3.5.7-6.3 5-6.3 5-.3.6-.7.5-.7-.1.1.1.1-1.2.6-2.3zm11.1 5.9c-.5-2.7-3.3-4.3-6.3-3.8-2 .4-3.5 2.4-3.5 2.4-.3.5-.5.5-.2-.1 0 0 2.1-4.8 5.7-5.5 4-.8 7.7 1.4 8.4 4.9.7 3.4-2.1 6.9-6 7.6l-.6.1c-.7 0-.8-.3-.3-.7 0 0 3.3-2.5 2.8-4.9zm-6-2.5c2.2-.4 4.3.8 4.7 2.7s-1.1 3.8-3.3 4.2c-2.3.5-4.4-.7-4.7-2.7-.4-1.8 1.1-3.7 3.3-4.2zm-6.9 3.2c.4-.1.9.2.9.6.1.3-.1.5-.2.7-.1.1-.3.3-.5.3l-.4.1c-.3-.4-.5-.7-.5-.7-.1-.6.2-1 .7-1zm5.8 9.6c-.3.1-.7.1-.9-.1-.1-.1-.3-.1-.3-.3h-.1l-.2-.2-.3-.3-.5-.5-.2-.1c-.3-.3-.7-.7-1.1-.9-.8-.6-1.6-1.1-2.4-1.5-.9-.4-1.8-.7-2.7-.9s-1.9-.3-3-.4c-.9-.1-1.9-.1-3.1 0-.9 0-1.9.1-3.1.2-2.1.2-4.3.5-6.2.7 0 0-.1 0 0 0 1.9-.5 4-1.1 6.1-1.5.5-.1.9-.2 1.3-.3.7-.1 1.2-.3 1.8-.3 1.1-.2 2.2-.3 3.2-.3 1.1-.1 2.2-.1 3.3 0 .3.1.7.1 1 .2.7.1 1.3.2 1.9.4.1.1.3.1.4.1 1.1.3 2.1.9 3.1 1.5l.2.1c.3.1.8.6 1.2 1 .5.5 1.7 1.4 1.7 1.5l.1.1v.3c.1.4-.1.8-.3 1.1-.2.2-.6.3-.9.4zm1.7 5.2c-.1-.1-.1-.3-.1-.4-.1-.1-.1-.5-.3-.8l-.1-.3c-.2-.6-.4-1.1-.7-1.6l-.1-.3c-.1-.2-.3-.4-.2-.4v-.1c.7-.1 1.3-.5 1.7-.9.4-.5.5-.5.5-.5.1-.6.3-1.1.3-1.2 0 0 .2 0 .3.1.2.1.8.4 1 .7l.2.3c.3.5.7 1.1 1 1.8l.1.3c.1.3.3.7.4.9.1.1.1.3.2.4.1.1.1.5.2.7 0 .3-.5.9-1 1l-.5.1c-1.1.2-1.9.3-1.9.3-.5-.1-1-.1-1-.1zm7.4 24.1l-.6 3.3c-.1.6-.6 1.1-1.1 1s-.9-.7-.8-1.3l.5-3.3c.1-.7.7-1.1 1.2-1.1.6.1.9.7.8 1.4zm1.2-3.7c-2.3.5-2.6-.5-2.6-.5-.3-.6.1-1.1.7-1 0 0 .7 0 1.7-.1.9-.2 1.6-.5 1.6-.5.6-.3.9 0 .8.7 0-.1-.3 1.1-2.2 1.4zm5.4 4.7c.3.6.1 1.3-.3 1.5s-1.1 0-1.5-.6l-1.4-2.7c-.3-.6-.3-1.2.1-1.4.3-.1 1.3-.3 1.6.3l1.5 2.9zm-2.2-10.8c-.1.1-.2.3-.3.4l-.3.3c-.1.1-.1.1-.3.2l-.3.3c-.1.1-.3.2-.4.3-.6.4-1.4.7-2.2.9-.8.1-1.6.1-2.3 0-.1 0-.3-.1-.5-.1-.1-.1-.3-.1-.4-.1-.1-.1-.2-.1-.3-.1s-.3-.1-.5-.1c-.1-.1-.3-.1-.4-.2-1.7-.9-2.9-2.5-3.3-4.5-.3-1.8.1-3.5 1-4.9 1-1.3 2.5-2.4 4.2-2.7 1.8-.3 3.5.1 4.9 1s2.4 2.4 2.7 4.2c.5 1.7-.1 3.7-1.3 5.1zm8.2-12.7c-.5 1.6-2.1 2.5-3.7 2.1-1.6-.4-2.5-2.1-2.1-3.7.4-1.3 1.6-1.7 1.6-1.7.6-.3 1-.1.9.4s-.5 1.1-.8 1.3l-.1.4c-.2.8.2 1.5 1 1.8.7.2 1.5-.3 1.7-1l.1-.3c-.1-.3-.1-1.1.1-1.5.1-.5.6-.5.9.1 0-.1.8.9.4 2.1zm4.6 16.8c-.3.7-.6.8-.6.8-.6.1-1.1.1-.9-.2.1-.3.4-.6.6-.7l.1-.2c.2-.4 0-.9-.4-1.1-.5-.2-.9 0-1.1.4l-.1.2c0 .2-.1.6-.1.9-.1.3-.5 0-.8-.5 0 0-.1-.2.2-.9.3-.9 1.4-1.3 2.3-.9.8.3 1.2 1.3.8 2.2zm7.5-9.8c-.4-.1-.9-.3-1.1-.6l-.3-.1c-.6-.1-1.3.3-1.4.9-.1.6.3 1.3.9 1.4h.3c.3-.1.9-.1 1.3 0 .5.1.3.5-.1.9 0 0-.7.5-1.7.3-1.3-.3-2.2-1.6-1.9-2.9.3-1.3 1.6-2.2 2.9-1.9 1.1.2 1.5 1 1.5 1 .1.6 0 1-.4 1z"/><path id="path49" class="st1" d="M152.5 152.4c-.7.1-1.1.7-1 1.3s.7 1 1.4.9 1.1-.7 1-1.3-.8-1-1.4-.9z"/><path id="path51" class="st1" d="M156.9 177.1c-.5.7-.7 1.5-.5 2.3.2 1.2 1.3 1.8 1.3 1.8l1 .6s.4 0 .8.1l.5-.1.4-.1c.5-.3.8-.5.8-.5s.3-.4.7-.9c0 0 .7-.9.5-2.1-.2-.8-.7-1.5-1.3-1.9-.7-.4-1.5-.6-2.3-.5-.9.2-1.5.7-1.9 1.3z"/><path id="path53" class="st1" d="M196.4 34.8c-2.2-.5-4.4.6-4.9 2.6-.5 1.9.9 3.9 3.1 4.5 2.3.5 4.4-.6 4.9-2.5.5-2.1-.9-4.1-3.1-4.6z"/><path id="path55" class="st1" d="M211.9 51.5c-1.3-1.2-2.9-2.1-4.6-2.5-2.2-.5-4.7-.3-7.4.6l-.5.1c-.5.2-1.2-.1-1.6-.6 0 0-1.3-1.7-1.1-3V46c0-.1.5-.5 1.1-.7 0 0 4.5-1.9 5.3-4.9.9-3.9-1.9-7.9-6.4-9.1-2.3-.5-4.7-.5-6.7.5-2.1 1.1-2.3 3.5-4 4.9-2.3 2-6.4 2.4-9.3 3.8-.7.3-.9 1-.5 1.7.3.6 1.1 1 1.9.8 1.2-.3 2.4-.6 3.6-.8 1.3-.2 2.5-.3 3.6-.4.6-.1 1.2-.1 1.7 0h.3c.3 0 .6.1.7.2.1.1-.3.5-.9.6 0 0-.9.2-2.2.3-1.2.1-2.5.2-3.7.3-.8 0-1.3.4-1.1.9s.9.9 1.7.9c1.3.1 2.7.1 3.9.1.1 0 .3.1.3.1 1.6 0 3-.1 4.3-.2h.3c.3-.1 1.1.1 1.7.4 0 0 .2.1.9.3h.1c.1.1.1.6-.1 1.2 0 0-1.1 3.4-1.7 3.5h-.1c0 .1-.5-.1-1.1-.3l-.6-.1c-6-1.5-11.9 1.7-13.1 6.9s2.5 10.7 8.5 12.1l.5.1c.5.1.6.5.2 1.1 0 0-2.1 2.7-4.1 3-2.9.5-1.3 3.2.2 3.5 1.1.3 5.9.3 5.9.3.7 0 1.1.5.8 1.1l-.9 2.8c-.3.7-.6 1.7-.8 2.3l-3.2 10c-.2.7.1 1.3.8 1.5l3.1.7c.7.1 1.3-.3 1.3-.9l1.1-8.2c.1-.6.3-1.7.4-2.3l1.9-7.9c.1-.7.3-1.2.3-1.2s.3.3.7.6l.4.2c.7.4 1.4.7 2.1.9l.1.1c.1 0-.1.5-.3 1.1l-2.1 5c-.3.6-.5 1.7-.6 2.3l-1 10.2c-.1.7.4 1.3 1 1.5l2.1.2c.6.2 1.1-.3 1.1-.9L196 88c-.1-.7.1-1.7.4-2.3l4.1-9.2c.3-.6.7-1.5 1.1-2.1l.6-2.1c.1-.7.1-1.4.1-1.6s-.2-.4-.5-.5c-.2 0-.9-.1-1.5-.3l-.5-.1c-.5-.1-1-.1-1.5-.3-.9-.2-1.5-.5-2.1-1.5-.2-.5-.4-.9-.5-1.5-.3-1.2-.2-2.4-.2-2.4v-1.3c0-.1.1-.5.1-1l.1-.3c.1-.2.1-.4.1-.5l.1-.3c.1-.1.1-.3.1-.3s.5-.3 1.1-.7c0 0 .6-.4 1.6-.9 1.7-.9 3.5-1.9 4.8-2.3 1.3-.5 1.9-.4 2.2-.3.2 0 .2.1.3.2.9.8 1.3 2.3 1.3 4.1v.1c0 .2-.1.4-.1.5h-.1c-1.3.9-1.9 2.2-1.5 3.5.3 1.4 1.7 2.5 3.3 2.9 1.5.3 2.9.1 4-.7 1.9-1.2 2.9-3.1 3.1-5.5.2-3.2-1.5-7.4-4.1-9.8zm-22.5-14.9c.7-2.9 3.9-4.6 7.3-3.8 3.3.8 5.4 3.8 4.7 6.7s-3.9 4.6-7.2 3.8c-3.4-.7-5.5-3.7-4.8-6.7zm0 18.1l-.6-.1c-3-.7-5.9.8-6.6 3.5-.6 2.6 1.3 5.3 4.3 6.1l.7.1c.7 0 1.2.3 1.3.7.1.3-.3 1.7-.9 1.7 0 0-.6 0-1.5-.3-4.5-1.1-7.3-5.1-6.4-9 1-3.9 5.3-6.2 9.8-5.1 1.1.3 2 .7 2 .7.6.3 1 .7.9.7-.1.1-.3.2-.4.2l-.5.5c-.5.2-1.6.6-2.1.3zm24.4 6.4c-.1 1.3-.5 3.1-2.2 4.2-.7.4-1.5.5-2.3.3-.9-.2-1.6-.8-1.7-1.4l-.1-.5c.3-.4.8-.7 1.1-.7l.2-.2c.5-.3.5-.5.5-2.1.1-2.3-.6-4.3-1.9-5.5-.2-.2-.6-.6-1.4-.8-.9-.2-2.1-.1-3.5.4-1.3.5-2.9 1.3-4.4 2.1-.9.5-1.7 1-2.5 1.5l-.4.2c-.3.3-.7.5-.7.5-.1 0-.3.4-.7.8-.3.4-.7 2.9-.7 2.9V65c.1 1 .1 2 .5 2.9.1.3.3.7.5.9 1 1.9 2.5 2.4 3.5 2.7.6.1 1.2.2 1.7.3l.2.1c.3 0 .3.6.3 1.2 0 0 0 .1-.3.5-.1.3-.4.6-.7.8-.5.4-1.3.5-2.1.4-.2 0-.4-.1-.6-.1-.5-.1-.9-.3-1.4-.6-1.7-1-2.9-3.1-3.5-5.3-.3-.8-.5-1.7-.7-2.5-.1-.9-.3-1.8-.3-2.5v-.1c-.2-2.3 0-5.3 1.6-7.2l.3-.3c.5-.3.8-.7.9-.7.1-.1.3-.2.5-.3l.3-.2c.7-.5 1.5-.9 2.3-1.4 1.1-.7 2.7-1.4 2.7-1.4.6-.3 1.1-.5 1.3-.5.1 0 .1-.1.1-.1s.1-.1.3-.1l.2-.1c2.3-.8 4.3-1 6.1-.5 1.3.3 2.5.9 3.5 1.9 2.3 2 3.7 5.5 3.5 8.3z"/><path id="path57" class="st1" d="M71.4 168.1l-.5-.3c-.3 0-.9.3-1.3.7v3.2l1.4-1.6c.4-.5.8-1.2.8-1.6l-.4-.4zm8.2 14.2v-.2c-.3-.1-1.1-.2-1.8-.2h-1.3c-.7 0-1.2-.1-1.3-.1 0-.1.5-.4 1.1-.5l.7-.1c.7-.1 1.4-.4 1.7-.6l-.1-.5-.1-.4c-.3-.1-1.2-.2-1.9-.1l-.9.2c-.7.1-1.3 0-1.3-.1-.1-.1.3-.6 1-.7l1.2-.3c.7-.1 1.4-.4 1.7-.6l-.1-.3-.1-.4c-.4-.1-1.2-.1-1.9.1l-1.6.3c-.6.1-1.2.1-1.2.1-.1-.1.3-.5.9-.7l.9-.4c.7-.2 1.3-.6 1.6-.9l-.1-.3-.1-.3c-.3 0-1.1.2-1.7.4l-1.2.5c-.6.2-1.1.3-1.2.2s.1-.7.7-1l.8-.5c.5-.3 1.1-.9 1.3-1.1l-.1-.3-.2-.3c-.3.1-1.1.4-1.6.7l-.9.6c-.5.3-1.1.5-1.1.5-.1-.1.1-.7.5-1.1l1.1-.9c.5-.5 1-1.1 1.1-1.5l-.3-.4-.3-.5c-.4.1-1.1.4-1.6.8l-1.3 1.1c-.3.3-.7.5-1 .5v4.1c1.6 1.7 2.7 3.9 3.1 6.2.3 1.5.1 3.3.1 3.3-.1.6-.5.8-1.1.4 0 0-1.1-1-2.2-1.9v3.9c1.7 1.5 3.2 2.9 3.2 2.9.5.4 1.1.3 1.3-.3l1.4-7.7c0-.7.5-1.2 1.2-1.2l1.1-.1c.7 0 1.5-.1 1.8-.2.1.1.1.1.1-.1z"/><path id="path59" class="st1" d="M366.9 63.9l-3.6 3.3c-.3.3-.5.7-.5.7s.3-.2.7-.4l3.8-1.8v-2.2l-.4.4z"/><path id="path61" class="st1" d="M367.1 99.9c.1.1.1.2.2.2v-1.4c-.3.3-.5.5-.5.8-.1 0-.1 0 .3.4zm-2-3.3s-.1.1.3.5c.3.4.5.3.5.3.4-.1.9-.3 1.3-.5v-2.4c-.7.5-1.1.8-1.1.8-.4.3-.8.9-1 1.3zm2.1-13.6l.1-1.9c-2.3.5-5.1 1.3-5.1 1.3-.5.1-1.1.4-1.4.7l.1.5.1.5c.4.1 1.1.1 1.6.1l1.3-.3c.5-.1.8-.1.8.1.1.1-.3.7-.7.9l-1.7.5c-.5.1-1 .4-1.3.7l.1.3.1.3c.3.1.9.1 1.4-.1l1.7-.5c.5-.1.9-.1.9.1l.1.2c.1.2 0 .5-.2.6l-.4.2-1.6.8c-.4.2-.9.7-1.1 1.1l.2.5.3.5c.4.1 1.1-.1 1.5-.3l1.8-.9c.4-.2.8-.3.9-.2.1.1 0 .7-.3.9l-1.7 1.3c-.3.3-.8.9-.9 1.3l.3.4.3.4c.4 0 1.1-.3 1.4-.5 0 0 .7-.5 1.6-1.2v-6.4l-.2-.6c-.1-.4-.2-.9-.1-1-.2-.1.1-.3.1-.3z"/><path id="path63" class="st1" d="M358 176c.9.8 2.5.5 3.4-.6.9-1.2.9-2.7-.1-3.5s-2.5-.5-3.5.7c-.9 1.1-.8 2.7.2 3.4z"/><path id="path65" class="st1" d="M367.3 171.7v-3.2l-.2.2-1.3 1.5c-.5.5-.9.8-1 .7s-.2-.9.2-1.4l1.1-1.7c.3-.5.7-1.3.7-1.6l-.3-.2-.3-.1c-.3.1-.8.7-1.1 1.3l-1 1.5c-.4.5-.8.9-.9.8-.2-.1-.3-.9-.1-1.5l.8-1.7c.3-.6.5-1.3.4-1.7l-.5-.2-.4-.1c-.3.1-.8.8-1.1 1.4l-.7 1.6c-.3.6-.7 1-.9.9-.2-.1-.8-.9-.7-1.5l.2-1.9c0-.7-.1-1.5-.3-1.9h-.4l-.5-.1c-.3.3-.5 1.1-.6 1.7l-.1 1.7c-.1.7-.3 1.1-.6 1.1s-1.1-.5-1.3-1.1l-.3-1.4c-.1-.7-.5-1.5-.7-1.8l-.4.1-.3.1c-.1.4 0 1.3.1 1.9l.3 1.5c.1.6.1 1.2-.1 1.3s-1-.1-1.5-.6l-.9-1.1c-.5-.5-1.2-1-1.6-1.1l-.4.3-.4.3c.1.5.5 1.3.9 1.7l.9 1c.4.5.7 1.1.5 1.2-.1.2-.9.3-1.4-.1l-1.3-1.3c-.5-.5-1.2-.9-1.6-1.1l-.3.3-.3.3c.1.4.7 1.1 1.1 1.6l1.5 1.5c.5.5.7 1.4.6 2v1.4c.1.7-.1.8-.6.3l-2.9-3.1c-.5-.5-1-1.1-1.3-1.2h-.3l-.3.1c-.2.2-.7.9-1 1.5l-2.3 3.8c-.3.6-.9 1.5-1.3 2l-10.1 12.8c-.4.5-.3 1.3.2 1.7l.2.2c.5.4.5 1.1.1 1.5L319 204.6c-.5.4-.4.9.2 1.2l2 .9c.6.3 1.5.1 1.9-.4l10.1-11c.5-.5 1.3-.6 1.7-.2.5.4.9.7.9.7s-.3.4-.8.9l-15.7 16.5c-.5.5-.3 1.1.3 1.4l1.2.5c.6.3 1.4.1 1.8-.4l14.1-16.6c.5-.5 1.2-.5 1.7-.1.5.3.6 1.1.1 1.6l-14.9 17c-.5.5-.4 1.3.1 1.7l.8.7c.5.4 1.3.3 1.7-.2l14-17.8c.4-.5 1.1-.6 1.6-.2.5.3.6 1.1.2 1.7l-13.1 17c-.4.5-.5 1.5-.1 2l.3.6c.3.5.9.6 1.3.1l13.3-18.4c.4-.5.9-.7 1.3-.5.3.3.7.6.9.7s.1.7-.3 1.3l-13.5 18.2c-.4.5-.3 1.3.2 1.7l.9.7c.5.4 1.3.3 1.6-.3l12.5-19c.4-.6.9-.8 1.3-.5.3.3.7.6.9.7s.1.7-.3 1.3l-12.1 19.3c-.3.6-.2 1.4.3 1.8l.4.3c.5.4 1.3.3 1.6-.3l11.7-19.7c.3-.5 1-.7 1.5-.3l.2.2c.5.5 1.3.4 1.7-.1l11.3-14.3c.4-.5.3-1.3-.2-1.7l-9.1-7.3c-.5-.4-.7-1.1-.2-1.7l.7-1c.5-.5.7-.9.7-1-.1-.1 0-.1.1 0s.5.2.5.2.5.3 1 .7c0 0 3.5 2.4 5.7 4.1.7.5 1.5 1.2 2.2 1.8v-3.9c-.1-.1-.3-.2-.3-.3-2-1.5-5.1-3.7-5.1-3.7-.5-.4-.6-1.1-.2-1.7l2.7-3.3c.4-.5 1-.7 1.3-.5l.3.3c.5.3.9.7 1.3 1.2v-4.1c-.1.1-.2.1-.3 0-.2-.1-.3-.8.1-1.3l.3-.1zm-22.6 3.5l.8-1.3c.3-.6.9-.7 1.4-.1l5 5.4c.4.5.5 1.3.1 1.8s-1.1.6-1.7.2L345 177c-.5-.5-.6-1.3-.3-1.8zm2.7 25.9c-.3.6-1.1.7-1.5.3l-6.4-5c-.5-.4-.5-1.1-.1-1.6l4.3-4.2c.5-.5 1.3-.5 1.8-.1l4.7 3.7c.5.4.7 1.2.3 1.7l-3.1 5.2zm3.7 2.8c-.4.6-1.1.7-1.6.3l-.3-.2c-.5-.4-.6-1.1-.2-1.7l5.2-6.5c.4-.5.3-1.3-.2-1.7l-9.3-7.4c-.5-.4-1.3-.3-1.7.2l-5.1 6.5c-.4.5-1.2.6-1.7.2-.5-.4-.6-1.1-.1-1.7l7.3-8c.4-.5 1.2-.6 1.7-.2l11.7 9.2c.5.4.6 1.2.3 1.7l-6 9.3zm11.4-10.8c.5.4.6 1.1.2 1.7l-9 11.3c-.4.5-.9.7-1.3.5-.3-.3-.2-.9.1-1.5l7.2-10.7c.3-.6.3-1.3-.3-1.7L344 180.6c-.5-.4-1.3-.3-1.7.2l-7.9 10c-.4.5-.9.7-1.2.5-.3-.2-.1-.8.3-1.3l8.9-11.3c.4-.5 1.2-.6 1.7-.2l18.4 14.6zm.2-16.7c-1.5 1.9-4 2.3-5.7 1.1-1.6-1.3-1.7-3.9-.3-5.8 1.5-1.9 4.1-2.3 5.7-1.1 1.7 1.4 1.9 3.9.3 5.8z"/><path id="path67" class="st1" d="M289.3 95.3c-.1.3.3.8.8 1.1l4.9 3c.5.3.4.7-.2.8h-5.7c-.5-.1-1.1-.1-1.1-.1s-.2-.1-.5-.1-.6.3-.8.9l-1.1 3.9c-.2.5-.1 1.2.1 1.4.2.1.5-.1.7-.7l.9-3.1c.1-.6.8-1 1.3-.9 0 0 6.7.7 9.1-.4.3-.1.4-.4.2-.7-1.5-2.2-7.7-5.1-7.7-5.1-.3-.4-.8-.3-.9 0z"/><path id="path69" class="st1" d="M288.3 99c-.1.1.4.3 1 .3 0 0 3.1.5 4.4.3.2-.1.2-.1.1-.3-.9-.9-3.9-2.1-3.9-2.1-.5-.2-1-.3-1.1-.2-.1.1.4.5.9.7l1.7.9c.5.3.5.5-.1.5l-1.9-.1c-.5-.2-1.1-.2-1.1 0z"/><path id="path71" class="st1" d="M284.7 91.8c-1.6-.5-3.3.5-3.7 2.1-.5 1.6.5 3.3 2.1 3.7 1.6.5 3.3-.5 3.7-2.1.4-1.6-.5-3.3-2.1-3.7zm1.2 3.4c-.3 1.1-1.5 1.8-2.6 1.5s-1.8-1.5-1.5-2.6 1.5-1.8 2.6-1.5c1.1.4 1.8 1.5 1.5 2.6z"/><path id="path73" class="st1" d="M282.4 99.6c.3.1.5-.1.5-.3s-.1-.5-.3-.5c-2.3-.7-3.6-3-2.9-5.3.6-2.2 2.9-3.5 5.2-2.9 2.3.7 2.7 2.2 2.7 2.2.2.5.3 1.3.4 1.5l.2.1c.3.1.5-.1.6-.3.1-.5-.2-1.4-.7-2.3-.7-1-1.8-1.7-2.9-2.1-2.7-.7-5.6.9-6.3 3.6-.8 2.7.8 5.5 3.5 6.3z"/><path id="path75" class="st1" d="M291.7 90.7c-.8-.3-1.6.2-1.9 1-.2.8.3 1.7 1.1 1.9.8.3 1.6-.2 1.9-1 .2-.8-.3-1.7-1.1-1.9zm.2 1.6c-.1.3-.5.5-.8.4s-.5-.4-.4-.7c.1-.3.5-.5.7-.4.4 0 .6.4.5.7z"/><path id="path77" class="st1" d="M288.7 87c-.8-.2-1.7.3-1.9 1.1-.3.8.2 1.6 1 1.9.8.2 1.7-.3 1.9-1.1.2-.8-.2-1.7-1-1.9zm.1 1.6c-.1.3-.4.5-.7.5-.3-.1-.5-.5-.4-.8s.4-.5.7-.4c.3.1.5.4.4.7z"/><path id="path79" class="st1" d="M283.3 85.5c-.8-.2-1.7.3-1.9 1.1-.3.8.2 1.7 1 1.9.9.2 1.7-.3 1.9-1.1.2-.8-.2-1.6-1-1.9zm.1 1.7c-.1.3-.4.5-.7.4-.3-.1-.5-.4-.4-.7.1-.3.4-.5.7-.5.3.1.5.4.4.8z"/><path id="path81" class="st1" d="M278.1 88c-.8-.3-1.6.2-1.9 1-.2.8.3 1.7 1.1 1.9.8.3 1.7-.2 1.9-1 .1-.9-.3-1.7-1.1-1.9zm.2 1.6c-.1.3-.4.5-.7.4-.3-.1-.5-.4-.5-.7.1-.3.5-.5.8-.4.3 0 .4.3.4.7z"/><path id="path83" class="st1" d="M276.1 93.6c-.8-.2-1.7.3-1.9 1.1-.3.8.2 1.7 1 1.9.8.2 1.7-.3 1.9-1.1.2-.9-.2-1.7-1-1.9zm.1 1.6c-.1.3-.4.5-.7.4-.3-.1-.5-.4-.4-.7.1-.3.4-.5.7-.5.3.2.5.5.4.8z"/><path id="path85" class="st1" d="M281 112c-1.7-.5-3.4.5-3.9 2.2s.5 3.4 2.2 3.9 3.4-.5 3.9-2.2-.5-3.5-2.2-3.9zm1.3 3.5c-.3 1.2-1.6 1.9-2.7 1.6-1.2-.3-1.9-1.6-1.6-2.8s1.6-1.9 2.8-1.5 1.9 1.6 1.5 2.7z"/><path id="path87" class="st1" d="M282 108.6c-3.5-1-7.3 1.1-8.3 4.6s1.1 7.3 4.7 8.3c3.5 1 7.2-1.1 8.2-4.7 1-3.6-1.1-7.2-4.6-8.2zm3.7 7.9c-.9 3.1-4.1 4.9-7.1 4-3.1-.9-4.9-4.1-4-7.1.9-3.1 4.1-4.9 7.1-4s4.9 4.1 4 7.1z"/><path id="path89" class="st1" d="M288.7 110.2c-1.3-2.3-3.3-3.9-5.9-4.7-2.5-.7-5.2-.4-7.5.9s-3.9 3.4-4.7 5.9c-.7 2.5-.4 5.2.9 7.5s3.4 3.9 5.9 4.7c2.5.7 5.2.3 7.5-.9 2.3-1.3 3.9-3.4 4.7-5.9.8-2.6.5-5.3-.9-7.5zm.1 7.2c-1.3 4.7-6.3 7.5-11.1 6.2-4.7-1.3-7.5-6.3-6.2-11.1 1.3-4.7 6.3-7.5 11.1-6.2 4.7 1.4 7.5 6.3 6.2 11.1z"/><path id="path91" class="st1" d="M282.7 100.4c-.3-.1-.6.3-.8.9l-.5 1.9c-.1.6-.1 1.1.2 1.2s.7-.3.8-.9l.5-1.9c.2-.6.1-1.1-.2-1.2z"/><path id="path93" class="st1" d="M283.4 103.8c-.1.6-.1 1.1.2 1.2s.6-.3.8-.9l.5-1.9c.1-.5.1-1.1-.2-1.2-.3-.1-.6.3-.8.9l-.5 1.9z"/><path id="path95" class="st1" d="M257.7 106.1c1.8-3.3 3.8-5.2 5.5-5.4.8-.1 1.7 0 2.6.3 2.5.9 6.4 4.4 6.4 4.4.4.4.9.6 1 .4s.1-1-.3-1.4c0 0-3.9-3.6-6.7-4.5-1.1-.4-2.2-.5-3.2-.4-2.1.3-4.3 2.3-6.3 6-2.1 3.7-4.1 7-4.1 7-.3.5-.7.4-.8-.1 0 0-.3-1.4.7-3.9.7-1.7 1.8-4.2 3.4-6.5 2.1-3.1 4.4-4.7 6.8-5.1 1.4-.2 2.9 0 4.3.5 2.7.9 8.4 6.1 8.4 6.1.5.4 1 .7 1.3.5.2-.1.5-.6.1-1 0 0-6.3-5.7-9.3-6.7-1.7-.6-3.3-.8-4.9-.6-2.7.3-5.3 2.2-7.6 5.5-1.7 2.4-2.9 5-3.5 6.7-1.4 3.5-.7 5.5-.5 6 .3.5.5.8.9.9.5.2.9-.3 1.4-1.1.3-.5.8-1.3 1.4-2.3 1.1-2 2.5-4.4 3-5.3z"/><path id="path97" class="st1" d="M259.4 107.8l-.3-.2c-.3.2-.9.8-1.2 1.3l-3.8 5.6c-.3.5-.7 1.3-.7 1.7l.3.2c.1 0 .1.1.1.1l.3.1c.3-.2.7-.7 1.1-1.3l3.8-5.6c.3-.5.7-1.2.7-1.6 0-.1 0-.1-.3-.3z"/><path id="path99" class="st1" d="M259 113.7c.1-.6-.1-1.4-.2-1.7h-.8c-.1.4-.3 1.1-.3 1.7l-.1 2.4c0 .6.1 1.3.1 1.7l.3.1h.4c.2-.3.3-1.1.4-1.7l.2-2.5z"/><path id="path101" class="st1" d="M261.1 116.9c.4-.3.5-.9.7-4.1.1-1.9.3-4.4.6-6.3.5-3 1.1-3.1 1.1-3.1l.3-.1c.5.1.8.6.7 1.2l-1.2 5.9c-.1.5-.2 1.3-.1 1.7l.3.1h.1l.3.1c.3-.3.5-1 .7-1.6l1.2-5.8c.1-.5.5-.9.8-.8.3.2 1.1 1.1.9 1.7l-1.9 6.7c-.1.5-.3 1.3-.2 1.7l.3.1h.1l.3.1c.2-.3.6-1 .7-1.6l1.9-6.3c.1-.5.6-.8.9-.5.4.2.7 1.1.4 1.6 0 0-2.4 2.9-1.7 7.9.1.3.3.5.5.5h.3c.4-.1.7-.4.6-.7-.7-5.5 2.4-8 2.4-8l.1-.1.1-.1v-.1h.1v-.2-.1h.1v-.1-.1-.1l-.1-.1v-.2l-.1-.1c-.7-1-6.1-4.8-8.9-4.2-1.9.3-2.3 4.7-2.7 10.7-.1 1.3-.2 2.2-.2 2.2-.1.6-.2 1.3-.3 1.7l.2.2.3.3c0 .2.2.2.4 0z"/><path id="path103" class="st1" d="M308.1 124.2c.3-1.9.7-4.7.5-7.6-.3-4.1-1.5-6.9-3.7-8.7-1.2-1-2.7-1.7-4.5-2.1-3.2-.7-11.5.9-11.5.9-.6.1-.9.4-.7.6.1.1 1 .6 1.6.5 0 0 7.6-1.4 10.3-.8 1.5.3 2.9.9 4 1.8 1.9 1.5 2.9 4.1 3.2 7.8.1 2.8-.2 5.5-.5 7.3-.5 2.6-1.4 3.7-1.4 3.7-.5.5-.8.3-.8-.3 0 0 0-3.9.1-8.1.2-4.2-.6-7.1-2.3-8.4-.7-.7-1.7-1.1-2.9-1.3-2.8-.6-8.1.4-8.1.4-.6.1-1.1.4-1 .6 0 .3.5.7 1.1.7 0 0 5.1-1.1 7.7-.5 1 .2 1.8.5 2.5 1.1 1.3 1 1.9 3.7 1.8 7.5-.1 1.1-.1 3.8-.1 6.3v2.7c.1.9.1 1.5.7 1.7.3.1.7-.1 1.1-.3.7-.5 2.3-1.8 2.9-5.5z"/><path id="path105" class="st1" d="M302.1 121.5c0-.6-.2-1.4-.3-1.7h-.4l-.3.1c-.1.3-.3 1.1-.2 1.7l.3 6.8c.1.6.2 1.3.3 1.6l.3.1H302.4c.1-.3.2-1.1.2-1.7l-.5-6.9z"/><path id="path107" class="st1" d="M300 123.9l-.3-.2c-.3.3-.8.9-1.1 1.4l-1.1 2.1c-.3.5-.5 1.3-.6 1.7l.3.2h.1l.3.1c.3-.3.7-.9 1-1.4l1.1-2.1c.3-.5.5-1.3.6-1.7 0 .1 0 .1-.3-.1z"/><path id="path109" class="st1" d="M301.1 113c-2.1-1.9-8.7-1.5-9.8-1v.1h-.1l-.1.1h-.1c-.1.1-.1.2-.1.3 0 .1-.3 5.4-1.3 8.3-.1.3.1.7.4.8 0 0 .1 0 .1.1.3.1.7-.1.8-.5.9-2.6 1.1-6.9 1.1-6.9.1-.6.4-1.1.7-1.2.4 0 1.5.4 1.4 1l-1.7 6.3c-.1.5-.3 1.3-.2 1.7l.3.1c.1 0 .1 0 .1.1l.3.1c.3-.3.6-1 .7-1.6l1.8-6.7c.1-.6.6-1.1.9-1 .4 0 1.1.6.9 1.1l-1.9 5.5c-.2.6-.3 1.4-.3 1.7l.3.1h.1l.3.1c.3-.3.6-1 .8-1.5l2-5.7c.2-.5.8-.9 1.2-.7l.3.3s.5.4-.7 3.2c-.7 1.9-1.9 4-2.8 5.7-1.5 2.9-1.7 3.4-1.6 3.9.1.3.3.4.5.5.1 0 .3 0 .4-.1l.3-.1c.1-.3.3-1 .6-1.6 0 0 .4-.7 1-2 3-5.4 4.8-9.2 3.4-10.5z"/><path id="path111" class="st1" d="M284.8 137.4c-.2-.4-.7-1.1-1.1-1.5l-.9-.7c-.5-.4-.9-.7-.9-.7 0-.1-.1-.6 0-1.2l.7-6.1c.1-.6-.3-1.1-.9-1.1-.5.1-1.1.9-1.1 1.5l-.3 5.9c-.1.6-.3 1.5-.6 2.1l-.9 1.9c-.3.5-.5 1.3-.6 1.8l.4.2s.1 0 .1.1l.3.1c.3-.3.7-.9 1-1.5l.3-.5c.3-.5.5-.5.7.1l.1.5c.1.6.2 1.3.4 1.6l.3.1h.3l.4-.1c.1-.4.2-1.3.1-1.9-.1-.6.1-.9.3-.7.3.3.8.5 1.3.7l.3-.3.3-.3z"/><path id="path113" class="st1" d="M292.9 133.3l.1-.5c-.3-.2-1.1-.5-1.7-.6l-1.8-.3c-.6-.1-1.1-.2-1.1-.2s-.1-.5-.3-1.1l-1.5-5.6c-.1-.5-.7-.9-1.3-.7l-.2.1c-.5.4-.7 1.1-.5 1.7l2.1 5.7c.3.5.5 1.5.6 2.1l.3 2.1c.1.6.3 1.3.4 1.6l.3.1c.1.1.2.1.3.1l.4-.1c.1-.5.1-1.3.1-1.9l-.1-.5c-.1-.5.2-.7.6-.3l.6.7c.4.5.9.9 1 1h.1c.2.1.5 0 .7-.1l.3-.3c-.1-.4-.6-1.1-1-1.5l-.2-.2c-.4-.5-.3-.7.1-.7.5.1 1.3.1 1.7 0v-.6z"/><path id="path115" class="st1" d="M278.6 126.7c-2.1-.7-4.1-1.8-5.7-3.2-.6-.5-1.2-1.1-1.7-1.6-.1-.2-.3-.3-.5-.3h-.2c-.2.1-.7.6-1.1 1.1l-2.7 2.9c-.4.5-.9 1.2-1 1.6l.3.3.3.3c.4-.1 1.1-.7 1.5-1.1l2.1-2.3c.4-.5.9-.7 1.1-.5s.5 1.1.1 1.6l-2 2.6c-.3.5-.7 1.2-.9 1.7l.3.3c.1.1.2.1.3.1l.3.1c.3-.2.8-.7 1.2-1.2l2-2.6c.3-.5.9-.7 1.1-.5.3.1.7 1 .4 1.5l-1.8 2.7c-.3.5-.6 1.3-.7 1.7l.3.3c.1 0 .1.1.2.1l.3.1c.3-.2.8-.8 1.1-1.3l1.9-2.8c.3-.5.8-.8 1.1-.7.3.1.8.9.5 1.4l-1.5 2.7c-.3.5-.6 1.3-.6 1.7l.3.2c.1.1.1.1.2.1l.3.1c.3-.3.8-.9 1.1-1.5l1.9-3.4c.3-.5.5-1.1.6-1.4l-.1-.2c.1-.4-.1-.6-.3-.6z"/><path id="path117" class="st1" d="M265.4 129.2l-.3-.3c-.4.2-1.1.7-1.5 1.2l-2.7 3.1c-.4.5-.9 1.2-1 1.6l.3.3c.1.1.2.1.3.2l.3.1c.3-.2.9-.7 1.3-1.1l2.7-3.1c.4-.5.9-1.1 1-1.6l-.4-.4z"/><path id="path119" class="st1" d="M269.2 119.3l-.3-.3c-.4.1-1.1.6-1.5 1l-9.6 9.2c-.5.4-.9 1.1-1.1 1.5l.3.3c.1.1.2.2.3.2l.2.1c.3-.1.9-.6 1.3-1l9.6-9.2c.5-.4.9-1.1 1.1-1.5l-.3-.3z"/><path id="path121" class="st1" d="M268.2 131.7l-.3-.2c-.4.2-1 .8-1.3 1.3l-2.5 3.3c-.4.5-.7 1.2-.9 1.7l.3.2c.1.1.2.1.3.1l.3.1c.3-.2.8-.8 1.2-1.3l2.5-3.3c.3-.5.7-1.2.8-1.7l-.4-.2z"/><path id="path123" class="st1" d="M270.8 133.3l-.3-.3c-.4.3-.9.9-1.3 1.3l-2.3 3.5c-.3.5-.7 1.3-.7 1.7l.3.2c.1.1.1.1.2.1l.3.1c.3-.2.8-.8 1.1-1.3l2.3-3.5c.3-.5.6-1.3.7-1.7.1.1.1.1-.3-.1z"/><path id="path125" class="st1" d="M274.4 134.8l-.3-.2c-.4.3-.9.9-1.2 1.5l-1.9 3.5c-.3.5-.5 1.3-.6 1.8l.4.2.1.1.3.1c.3-.3.7-.9 1.1-1.4l1.9-3.5c.3-.5.5-1.3.6-1.8 0-.1 0-.1-.4-.3z"/><path id="path127" class="st1" d="M267.7 194.1c-.1-.8-.9-1.4-1.7-1.3-.9.1-1.5.9-1.3 1.8.1.8.9 1.4 1.7 1.3.8-.2 1.4-1 1.3-1.8z"/><path id="path129" class="st1" d="M270.4 193.7c-.2-1.3-1.1-2.1-1.1-2.1-.5-.5-.8-.9-.8-.9v-.1-.1c0-.1.1-.7.1-1.3 0 0 .4-5.6.1-5.9-.3-.3-.6-.5-.9-.5-.5 0-.8.4-.8.8 0 .3.3 3.1.3 3.1.1.7-.2.8-.6.3l-.5-.5-.4-.4c-.3-.5-1-1.3-1.4-1.8 0 0-.1-.1-.5.1-.2.1-.3.3-.4.6-.1.7.3 1.2 1.5 2.5.5.5 1 1.1 1.4 1.7l.3.5c.1.2.2.4.1.4-.4-.1-.9-.1-1.3 0-1 .1-1.7.6-1.7.6-.5.4-1.4.6-2.1.5 0 0-8.5-1.9-9-2.8-1.1-2.3-4.6-4.3-10.7-6.4-.5-.2-1 .1-1.2.5-.1.5.1 1.1.6 1.2 6.9 2.3 9.1 4.3 9.6 5.5.4.7-2.1 1.7-2.5 1.6h-.1l-.1-.1c0-.1-.7-.5-1.2-.8l-5.1-3c-.5-.3-1.5-.7-2.1-.7l-.3.4-.3.5c.3.5 1.1 1.1 1.7 1.5l4.3 2.6c.6.3.9.8.8 1l-.1.3-.1.3c-.1.7-.8.9-1.4.7l-4.9-2.1c-.6-.3-1.5-.5-2.1-.4l-.2.5-.2.5c.4.4 1.2.9 1.8 1.2l5.3 2.3c.6.3 1.1.5 1.1.5h-.1c-.1.9-.3 1.8-.3 1.8-.1.7-.8 1-1.4.7l-5.2-1.9c-.7-.2-1.6-.4-2.2-.3l-.1.5-.2.5c.4.4 1.3.9 1.9 1.1l5.5 1.9c.6.3 1 .8.9 1.3s-.9 1.6-1.5 1.4l-5.2-2.1c-.6-.2-1.6-.4-2.1-.3l-.2.5-.2.5c.4.4 1.2.9 1.9 1.2l5.4 2.1c.6.3 1.1.6 1 .8v.1c-.2.8-.3 1-.3 1-.2.7-.8.9-1.5.7l-5.1-2c-.6-.3-1.5-.5-2.1-.4l-.2.5-.1.5c.4.4 1.2.9 1.8 1.2l5.2 2.1c.7.3 1 .9.7 1.6 0 0-.1.1-.2.5l-.1.4c-.1.2-.5.5-.9.5l-.8-.1c-.5-.1-1.3-.3-2.1-.6-1.8-.6-3.6-1.4-4.5-1.9-.1-.1-.2-.1-.3-.1-.1-.1-.3-.1-.3-.1-.8-.1-1.7.6-2 1.7-.4 1.3 0 2.8.9 3.2.1.1.2.1.3.1 1.8.9 3.6 1.5 3.6 1.5.6.3 1 .6.8.8-.1.3-.5.9-.5.9s-.5.3-1.1.6c0 0-5.1 3-7.3 4.7-1.9 1.5-3.6 3-4.9 4.2-2.1 2.1-2.3 3.1-2.3 3.6 0 .4.3.7.7.8h.1c.5 0 .8-.3.8-.8 0 0 .1-.6 1.9-2.5 1.1-1.2 2.8-2.6 4.7-4.1 2.9-2.2 5.7-3.9 5.7-3.9.5-.3 1-.5.9-.3v.1c-.1.2-.1.4-.1.4l-.3.3c-.1.1-.4.3-.6.5 0 0-2.3 2.1-4.7 4.3-6.2 5.7-6.4 6.5-6.5 6.9s.1.9.5 1h.1l.4.1c.3-.3.8-1 1.3-1.5l9.1-8.7c.5-.5.9-.5 1-.2s.1 1.6-.3 2.1c0 0-2.1 2.5-4.1 4.8-1.6 1.9-2.8 3.3-3.7 4.5-.5.6-.9 1.1-1.2 1.5-.5.7-.7 1-.5 1.5l.1.2c.3.1.5.3.5.3s.2-.1.4-.1c.2-.1.8-.9 1.2-1.4l8.3-9.9c.5-.5.9-.8 1-.7s.2.9-.1 1.5c0 0-1.3 2.5-3.1 5.5-3.5 5.9-3.8 6.2-3.8 6.2-.5.5-1.1 1.1-1.5 1.3l.1.4c.1.3.3.6.7.6.1.1.1.1.3 0 .4-.1.9-.3 2.4-2.6.8-1.2 1.8-2.8 3-4.9 1.7-2.8 3.2-5.5 3.2-5.5.3-.6.9-.9 1.2-.7.3.1 1.3 1.1 1.2 1.7l-1.8 10.3c-.1.7-.7 1.3-1.3 1.4 0 0-2.4.4-2.3.8 0 .5.4.8.8.7.1 0 .3 0 .5-.1 1.3-.2 3.5-.5 5.8 1.9.1.1.3.2.5.3.2 0 .5-.1.7-.2.3-.3-.7-1.5-.7-1.5-.4-.5-.2-.7.4-.6 0 0 2.1.6 2.4.3.3-.3.2-.8-.1-1.1-.9-.7-1.8-.9-1.8-.9-.7-.1-1.1-.7-1-1.3l1.7-9.9c.1-.7.2-1.2.2-1.2l.6-.2c.3-.1 1.5-.6 1.8-.8s.7.2.8.9l1.3 10c.1.7-.3 1.4-.9 1.7 0 0-2.2 1.1-2.1 1.5.1.3.4.5.7.5.1 0 .3 0 .4-.1.1-.1.3-.1.5-.3 1.1-.5 3.2-1.5 6.1.1.4.2.9.1 1.1-.3.2-.4-1.1-1.2-1.1-1.2-.5-.3-.5-.7.2-.7 0 0 2.3-.1 2.4-.5s-.1-.9-.5-1.1c-1.1-.4-2-.3-2-.3-.7.1-1.3-.3-1.3-1l-.9-6.8c-.1-.7.3-1 .9-.7 0 0 2.9 1.1 6.5.3 5.1-1.3 3.9-15.3 1-21.4-2.9-6.1-4.7-8.2-4-10.6.6-1.7 5.8-1.7 5.8-1.7.7 0 1.3.3 1.5.5.2.3.9 1.5.9 2.1 0 0 1.7 13.8 2.5 20.9l.1.2c.2.1.4.3.4.3s.2-.1.4-.1l.1-.2c2.5-4.3 2.2-21.3 2.2-21.3 0-.7.1-1.3.3-1.5l.1-.1c.2-.7.5-1.7.4-2.9zm-20.5 3.3c.1-.8.1-1.5 1.1-1.3 1.1.2 2.9 1.1 2.7 1.9-.1.8-1.1 1.3-2.1 1.1-1-.2-1.8-1-1.7-1.7zm.3 3.2c.7.4-1.3 3.7-1.9 3.3-.1-.1-.2-.1-.3-.2-.5-.5-.5-1.4 0-2.1.1-.3.4-.5.6-.7.5-.5 1.1-.6 1.6-.3zm-4.5 16.6c-.5.6-1 .9-1.5.7-.3-.1-.5-.3-.7-.7-.1-.1-.1-.3-.1-.5-.1-.5 0-1 .2-1.6.1-.3.3-.7.4-.9.4-.6.9-1.1 1.3-1.1.1 0 .3 0 .3.1.1 0 .2.1.3.1.6.4 1 1.7.6 2.9-.1.4-.5.7-.8 1zm.5 3.8c-.1.9-1 1.5-1.9 1.4s-1.5-.9-1.3-1.8c.1-.9.6-1 .6-1 .6-.2 1.3-.1 1.6.1.3.3 1 1.1 1 1.3zm.1-9.8c-.1-.1-.1-.3-.1-.5v-.1-.4s.1-.3.1-.8l.2-.5v-.1l.2-.4.1-.2.5-.7c.6-.3 1.1-.5 1.1-.5h.3l.2.1c.7.3 1 1.1.5 2.4-.2.4-.6 1.3-.9 1.7-.4.5-.9.7-1.3.7-.1 0-.2-.1-.3-.1-.3-.2-.5-.4-.6-.6zm-14.2 2.5l-.1-.1c-.1-.1-.3-.5-.5-.9l.2-.8.2-.5c.1-.2.4-.3.5-.3l.1.1c1 .5 2.8 1.3 4.7 1.9.9.3 1.7.5 2.4.6.4.1.7.1 1.1.1h.3c.3-.1.7-.1.9-.1.1-.1.3-.2.5-.3.1-.2.1-.3.2-.4v-.1c.4-.7 1.1-2.5 2.1-6.5.9-3.5 1.7-7.3 2.2-9.9.7-3.2.7-3.3 1-3.7l.1-.1c.1-.1.2-.1.2-.1h.1l.1-.1h.5c0 .1.1.3.2.5.1.3-.1 1.2-.1 1.2v.1s-.1.5-.3 1.2c0 0-.1.3-.3 1.4l-.1.7c-.1.7-.3 1.2-.3 1.2s-.1.5-.3 1.1l-1.5 6.6c-.1.7-.3 1.2-.3 1.2l-.1.1-.2.5c-.1.5-.1.8-.1.8s-.1.5-.3 1.2c0 0-.2.7-.5 1.5v.2c-.4 1.1-.6 1.6-.6 1.6-.3.6-.8 1.4-1.1 1.8-.3.4-1.1.9-1.7 1h-.9c-.3 0-.7-.1-1-.1-.5-.1-1.1-.2-1.7-.4-1.8-.5-3.6-1.3-5.6-2.2zm9.8 16.5l-1.7 9.9c-.1.6-.3 1.1-.4 1.2-.1 0-.3-.5-.1-1.1l1.7-9.9c.1-.6.3-1.1.3-1.1.2-.1.3.4.2 1zm5.7-5.2l-2 1c-.5.3-1.5.7-2.1 1 0 0-1.1.3-2.3.2-1.8-.3-3.3-1.4-4.1-3-.7-1.3-.9-2.8-.4-4.3.3-.9.8-1.5.8-1.5.4-.5.9-.9 1.1-.9l.2.1c1 .1 2.1.1 3.1-.1h.1c.1-.1.3-.1.5 0 .1 0-.1.5-.6 1 0 0-.7.6-.9 1.7-.3 2 1.1 3.9 3.1 4.2 1.5.3 2.8-.9 2.8-.9.5-.5 1.1-.5 1.3-.2.1.3 0 1.3-.6 1.7zm2.6 14.2c-.1 0-.4-.4-.5-1.1l-1.4-10.1c-.1-.7-.1-1.3.1-1.3.1-.1.3.4.5 1.1l1.3 10.2c.1.5.1 1.1 0 1.2zm0-21.7c-.3 1.1-1.4 2.3-2 2.5-.2.1-.4.1-.5 0-.6-.2-.9-1.1-.8-2.1.1-.3.1-.5.2-.8.4-1.3 1.3-2.3 2.1-2.1.8.3 1.4 1.2 1 2.5zm-.1-4.6c-.5-.2-.7-.9-.6-1.7 0-.4.1-.8.3-1.3.6-1.3 1.6-2.1 2.3-1.8s.1 2.3-.5 3.6c-.1.5-1 1.4-1.5 1.2zm3.4 6.9l-.2.5c-.3.5-.6.9-.6.9s-.4.3-.9.7l-.4-.1c-.7-.2-.6-1.3-.2-2.7.4-1.3.9-2.5 1.7-2.2h.1c.1.1.5.7.7 1.3-.1.1.1.5-.2 1.6zm6.5.8c.8.2 1.1 1.5.7 2.9-.5 1.3-1.4 2.2-2.1 2-.8-.2-.9-2.1-.5-3.4.4-1.3 1.1-1.7 1.9-1.5zm-3.6-8.4c.5-1.3 3.2.6 2.7 1.9-.5 1.3-1.6 1.3-2.3 1-.8-.3-.9-1.6-.4-2.9zm-.2 6.1c.7.3.8 2.6.4 3.9-.4 1.3-1.2 1.2-1.9 1-.3-.1-.5-.3-.6-.6-.3-.6-.3-1.4 0-2.3.3-.9.7-1.5 1.2-1.9.3-.1.6-.2.9-.1zm-.7-6.5c-.5 1.1-1 2.3-1.7 2.3-.1 0-.3-.1-.4-.1-.3-.2-.6-.5-.7-1.1-.1-.5.1-1.2.3-1.9.6-1.3 1.6-2.1 2.3-1.8.7.3.8 1.3.2 2.6zm-.4-7.5c-.5.9-2.1 1.3-2.8.9-.7-.5-.8-1.5-.3-2.4s1.5-1.3 2.2-.9c.7.4 1.4 1.5.9 2.4zm1.7-9.9c-.1.7-.9 1.6-1.9 1.5-1.1-.1-2-1.3-1.9-2.1s1.1-1.3 2.1-1.1c1.1.1 1.9.9 1.7 1.7zm4.7 0c-.1.8-1.1 1.3-2.1 1.1-1.1-.1-1.8-.9-1.7-1.7.1-.7 1.1-.7 2.2-.5 1 .2 1.7.3 1.6 1.1zm5.5 22.4c-.1.7-.3.7-.3 0l-2.1-17c-.1-.7.2-1.1.5-.9h.3c.4.1.8.1 1.2.1l.5-.1c.5-.2 1 .1 1 .8l-1.1 17.1zm1.5-20.5c0 .1 0 .1-.1.1-.5.6-1.1 1-1.9 1.1-.3.1-.6.1-.9 0-.5-.1-1-.3-1.4-.6l-.2-.2c-.1-.2-.3-.4-.3-.4s-.2-.3-.4-.8l-.1-.5c-.2-1.3.6-2.5 1.7-3 .3-.1.5-.2.7-.2.3-.1.5-.1.8 0 1.3.2 2.3 1.2 2.5 2.5.2.8.1 1.4-.4 2z"/></g></svg>