<svg xmlns="http://www.w3.org/2000/svg" width="585.8117" height="585.8117" viewBox="0 0 4329.742 4469" clip-rule="evenodd" fill-rule="evenodd" image-rendering="optimizeQuality" shape-rendering="geometricPrecision" text-rendering="geometricPrecision"><path class="fil0" fill="#f6f7f6" fill-rule="nonzero" d="M4399.371 0h-4469v4469h4469z"/><path class="fil1" d="M286.371 1214c-14-38-79-58-79-58-6-2-14-9-17-15l-4-11c-3-6-6-15-8-19s-5-12-8-19l-64-148c-3-6-4-12-3-13l1-1c9-10 12-24 9-37-1-1-1-2-1-3l-1-2-2-4c10-16 14-27 10-37-1-4-2-5-2-5-6-4-10-10-10-14 0-3-1-10-3-14l-5-1h-4c-2 5-4 11-4 14s-1 5-3 5c-1 0-5-3-5-6s-2-9-5-14l-4 1h-4c-2 4-3 11-3 14s-1 6-3 6c-2 1-7-1-8-4 0-3-3-9-6-13l-5 1-4 1c-1 5-1 11 0 14s-1 6-3 6c-2 1-9 0-11-3-1-3-5-8-8-12l-4 2-4 2c0 4 0 10 1 13s1 6-1 6c-2 1-8 0-9-3-2-3-6-8-10-11l-4 1-4 2c0 5 2 12 3 15 2 3 3 6 2 6-4 3-5 8-3 11 2 4 7 5 11 3 23-14 79-27 103-21 2 1 4 2 5 4s-2 7-2 7c-3 7-10 10-17 7 0 0-12-5-25-1-16 6-22 25-22 25-2 7-7 13-10 14l-3 1h-1s-5 2-12 4c0 0-10 3-19 7-23 10-51 28-51 28-6 4-10 7-10 7s-1 1-3 2v33l6-3c6-3 11-5 11-5s6-2 12-5c0 0 28-10 50-17 9-3 19-6 29-9 0 0 0-1 1-1l4-1 8-2s2-1 4-1l2-1h1c2-1 5-1 7 0 1 0 8 6 10 13l47 154c2 6 5 15 7 19 1 4 4 13 6 20l3 10c2 6 0 16-4 22 0 0-42 59-27 101 18 49 73 74 123 56 49-18 74-73 56-123zm-288-263c-19 7-36 7-38 1s11-16 30-23 36-8 38-2-11 17-30 24zm78-38c-9 3-20-1-23-11-4-9 1-20 11-23 9-4 20 1 23 10 4 10-1 20-11 24zm148 409c-41 16-87-6-102-47-14-37 27-87 27-87 4-5 6-15 5-22l-7-25c-2-6-4-15-5-19-1-5-4-14-6-20l-23-89c-2-7-1-7 2-1l40 84c3 6 7 14 8 18 2 4 6 13 9 19l12 24c3 6 11 12 17 14 0 0 58 14 70 49 16 41-6 87-47 102z" fill="#edeeed" fill-rule="nonzero"/><path class="fil1" d="M234.371 1234c-8-21-31-31-51-24-21 8-31 31-24 51 8 21 31 31 51 24 21-8 31-31 24-51zm-29 36c-13 4-26-2-31-14-4-13 2-26 14-31 13-4 26 2 31 14 4 13-2 26-14 31z" fill="#edeeed" fill-rule="nonzero"/><path class="fil1" d="M555.371 1324l-54-11c-7-1-13-5-13-7 0-3-1-11-1-11h13l56-2c7 0 17-3 22-7l-1-8c-1-8-2-9-2-9-6-3-17-5-24-5l-56 1c-7 1-13-3-14-7-1-5 2-18 9-20l39-9c7-1 16-7 20-11l-4-9c-3-8-4-8-4-8-7-3-18-3-24-2l-35 8c-7 2-14-2-16-9 0 0-2-6-5-16 0 0 5-3 11-5l49-20c7-3 15-10 18-16l-5-9c-5-9-7-10-7-10-7-1-17 0-24 2l-43 18c-7 3-14 0-16-6s-4-24 2-28l43-22c6-3 13-11 16-16l-5-7-5-7c-7 0-18 2-24 6l-37 19c-6 4-12 3-14-1-2-3-7-13-7-13s5-3 11-7l44-30c6-4 11-13 12-20l-8-8c-8-8-11-8-11-8-7 0-17 3-23 7l-34 23c-5 4-14 11-19 16 0 0-35 35-56 58-12 12-27 30-27 30-5 5-13 6-18 2l-19-12c-6-3-8-9-3-15l61-75c4-5 7-9 7-9 1 0 1-1 1-1s4-3 10-7l43-31c6-4 13-12 15-18 0 0 1-1-5-7-5-6-7-6-7-6-7 2-17 6-23 10l-30 22c-6 4-13 3-15-1-3-4-7-19-2-24l36-35c5-5 10-14 11-20l-6-5c-7-6-7-5-7-5-7 1-16 7-21 11l-36 35c-4 5-8 9-8 9s-4-3-8-5l-3-3c-7-3-10-8-9-10l4-6 28-42c4-5 7-15 7-22l-9-3c-8-4-9-3-9-3-6 3-14 9-18 15l-29 42c-4 6-7 11-7 11s-2-1-6-2c-3-1-9-9-8-15l14-49c2-6 1-17-3-22l-11-1c-12-1-14 1-14 1-6 4-11 13-13 20l-14 48c-2 7-3 12-4 13-5 14-12 54-9 94 4 40 17 72 38 95l1 1s3 3 7 6c4 4 16 12 17 12l2 1h1l2 1s5 2 12 4l32 18c6 4 10 7 10 7l9 9s9 9 15 20c5 8 9 16 12 24 6 16 8 36 8 36v13s0 5-1 12c0 0-1 14-5 26-5 17-14 33-26 47s-33 26-33 26c-6 4-11 7-11 7s-3 1-7 3l-4 2-5 1c-5 2-9 3-9 3s-5 1-12 2l-28 1c-6 0-12-1-12-1s-5-2-11-5c0 0-77-33-94-80-3-8-5-15-6-23-5-25-2-51 7-74 6-13 13-25 22-36l1-1c2-2 5-9 7-15 0 0 3-6 4-16v-1c4-28-3-58-21-85-15-24-35-39-50-39-19 0-52 5-71 12-3 1-26 36-26 36-4 5-7 16-8 23v16s0 6 1 13l4 52c1 7 1 14 2 15 0 2 7 6 12 8 5 3 10 5 11 5 1 1 9-2 16-4l101-39c6-3 11-3 10-1 0 2-3 8-3 9-11 12-19 28-19 28-4 6-12 12-19 13 0 0-43 7-74 14-7 2-24 6-44 11v27c1 0 1 0 2-1h2c6-2 12-1 13 2l4 12 9 30c1 7 1 15 0 20l-7 2-6 1c-4-2-9-10-11-16l-6-21v96c26-19 64-47 75-53 17-10 38-24 38-24 5-4 11-2 13 4l2 5c2 6 2 7 2 7 3 6 6 11 5 11-15 9-24 15-39 27-10 7-67 49-96 71v36c1-1 2-1 3-2l31-23c6-4 12-4 14-1s4 15-2 19l-40 28-6 6v21c3 3 4 3 4 3 6 0 17-4 22-8l40-27c5-4 13-4 17 0l4 3s-1 1-2 3c-2 1-4 4-6 6l-39 40c-4 5-9 14-9 20l7 5c8 5 9 5 9 5 6-2 16-7 20-12l38-39 5-5c2-2 4-4 5-3l2 1c2 1 5 9 2 15l-15 36c-3 7-2 17 0 23l12 2c11 2 13 1 13 1 6-4 13-12 16-18l12-30c2-6 6-17 8-23l34-104c2-6 9-9 15-7l13 5c7 1 11 8 10 15 0 0-5 35-8 58-3 31-10 78-10 78-1 7-3 18-4 25l-8 47c-1 7 1 18 4 24 0 0 1 1 11 2 10 0 12-3 12-3 5-5 9-15 10-21l9-53 2-12s2 0 5-1l3-1c5-1 9 1 9 4l1 7 3 47c0 7 4 16 8 21l8-1c8-2 9-3 9-3 3-6 5-17 4-23l-3-48c-1-7-1-13-1-13s2 0 6-1c3-1 13 2 14 8l15 53c1 6 7 15 12 19l8-4c8-4 9-5 9-5 2-7 2-18 0-24l-13-49c-2-7-4-12-4-12 3-1 4-2 5-2h1c5-2 12 1 15 7l24 52c3 7 10 14 16 17 0 0 1 1 9-5 9-5 9-8 9-8 1-6 0-17-3-23l-22-48c-2-6-1-13 4-15s19-4 23 2l28 47c3 6 11 13 17 16l6-5 6-6c0-7-2-18-6-24l-25-43c-4-5-4-12-1-14 4-2 13-8 13-8s3 5 7 10l38 51c4 5 13 10 20 11l7-8c8-9 8-12 8-12 0-7-4-17-9-22 0 0-72-86-87-100-19-18-56-48-56-48-5-4-7-12-3-18l9-14c3-7 11-10 17-8l127 34c6 2 12 3 12 3s5 1 12 2l53 11c6 1 17 0 23-3 0 0 2 0 2-10 1-11-1-13-1-13-5-4-15-9-21-11zm-370-379c4-9 7-9 7-9 7-1 17 1 24 3l82 37c6 3 14 8 18 12v5c0 3 0 6-2 9-2 6-6 10-10 11l-3 1c-3 0-7-1-8-2-1 0-7-3-13-6l-79-35c-6-2-14-9-18-15 0 0-2-2 2-11zm24 106c-2 7-6 14-10 16l-7-2c-5-1-9-4-10-7h-1c0-1 2-7 4-14l7-25c2-7 6-14 10-17l7 2 7 2c2 4 2 13 0 19zm27 35l-9-4c-7-4-12-8-13-12l-1-1c0-1 3-6 6-12l15-29c3-6 10-12 16-13l9 5 9 5c2 5 1 14-2 20l-14 28c-4 6-11 12-16 13zm-252-49c10-3 21 2 24 12 4 9-1 20-11 24-10 3-21-2-24-11-4-10 1-21 11-25zm1 127c-10 4-21-1-24-11-4-10 1-21 11-25 10-3 21 2 24 12 4 9-1 20-11 24zm35-57l-45 4c-7 1-16 0-20-2l-1-5c0-5 2-9 5-10h1c1-1 7-1 14-2l44-4c7 0 16 1 21 3v5l1 5c-4 3-13 5-20 6zm57 31h-7l-6 1c-4-5-7-15-8-22l-6-62c-1-7 1-17 3-23l7-1c6 0 11 2 12 7h1c0 1 0 7 1 14l6 63c1 7-1 17-3 23zm-108 105c-2-6 0-11 3-12 0 0 5-2 12-4l30-8c7-1 15-1 19 0l2 7 2 6c-3 3-11 7-17 9l-30 8c-7 2-16 2-20 0l-1-6zm60 40l-29 10c-7 2-16 3-20 1l-2-6-2-6c3-3 4-7 4-7 1 0 6-1 12-4l30-10c6-2 15-2 19-1l2 6 2 6c-2 4-10 9-16 11zm38 181l-6 6c-6-1-14-6-19-11l-30-33c-4-5-8-14-8-20l6-5c3-3 5-4 8-5l4-2c2 1 8 7 13 12l30 33c4 5 8 14 8 20l-6 5zm29-72l-13 14c-5 6-12 9-17 9l-6-6-7-6c-1-4 2-12 7-17l13-15c5-5 12-9 17-8l6 5c4 4 7 8 8 11l1 2c0 1-4 6-9 11zm168-2l6-3c2-1 3-2 5-3l4-1c2 1 7 6 11 12l13 20c3 6 6 14 5 18l-6 4-6 4c-4-1-10-7-14-13l-13-20c-3-5-6-13-5-18zm-50 16l7-2c3-1 6-1 8-1h3c1 1 4 7 6 14l9 22c2 6 2 15 1 19l-7 2-6 3c-4-2-9-9-12-15l-8-23c-2-6-3-15-1-19zm123 35c7-2 18-4 25-3 0 0 7 0 10 9s-2 14-2 14c-5 5-14 10-21 13l-124 46c-7 2-17 4-24 3 0 0-7 0-11-9-1-4-1-9 1-13l2-4c5-3 13-7 20-10zm-7-252l-4-10-3-9c2-5 3-10 3-10s5-2 12-4l25-8c6-2 15-2 20 1l3 10 3 9c-1 6-8 12-14 14l-26 9c-6 2-15 1-19-2zm69 69l-28 2c-6 1-15-2-19-5l-1-9c0-8 1-15 4-16h1s6-1 12-1l28-3c7-1 16 2 19 5l1 9 1 9c-3 4-11 8-18 9zm69 23s0 8-9 11-19-2-22-12l-4-12-44-136c-3-7-4-18-3-25 0 0 0-8 9-11 4-1 7-1 11 1l5 2c4 5 7 13 8 16 2 4 4 12 6 18l3 9c2 6 5 17 8 23l2 7c2 7 5 18 8 24l2 6c2 7 5 17 7 24l2 7c3 6 6 17 8 23v1c2 6 4 17 3 24zM888.371 0l-13 50c-3 9-4 25-2 35 0 0 0 2 10 5 10 2 11 0 11 0 7-7 14-21 16-31l17-59zm50 0l-17 62c-3 10-4 25-2 35 0 0 0 3 10 5 10 3 11 1 11 1 7-8 14-22 17-31l19-72zm49 0l-20 75c-3 9-3 25-2 35 0 0 0 2 10 5 10 2 12 1 12 1 6-8 13-22 16-32l23-84zm50 0l-24 87c-2 10-3 26-2 35 0 0 1 3 10 5 10 3 12 1 12 1 6-7 13-22 16-31l26-97zm49 0l-27 100c-2 9-3 25-2 35 0 0 1 2 11 5 9 3 11 1 11 1 6-8 13-22 16-31l30-109V0zm50 0c0 1-1 2-1 4l-30 108c-2 10-3 26-2 35 0 0 1 3 11 5 10 3 11 1 11 1 6-7 14-21 16-31l30-109c1-5 4-10 6-13zm47 0c0 3 0 10-2 16l-29 109c-3 9-4 25-2 35 0 0 0 2 10 5s11 1 11 1c7-8 14-22 16-31l34-122c1-4 1-8 2-13zM2830.371 0c-19 33-2 60 4 61 7 2 14-5 16-13 1-8 13-25 33-34 19-8 39-12 59-14zm186 0c-13 0-31 1-46 1-25 1-50 7-74 17-9 4-18 9-26 15-7 7 17 33 24 27 41-35 149-29 159-32 24-6 27-11 27-11 3-5 7-11 12-17zM3176.371 0c-4 5-8 10-13 15-2 2-4 3-6 4-5 1-10 0-14-4s-5-10-3-15z" fill="#edeeed" fill-rule="nonzero"/><path class="fil1" d="M3547.371 194c-2-10-6-26-10-35l-23-58c-4-9-10-23-13-32l-1-4c-5-19-12-45-24-65h-97c-1 1-2 1-4 2-30 15-60 28-92 40-18 7-68 26-68 26-10 3-24 2-32-3l-12-6c-15-6-21-28-57-46-8-4-19 31-46 36-12 3-30 11-43 9-7-2-14 3-16 11-1 3-19 39-19 39-5 9-16 17-26 18 0 0-51 6-72 8-33 5-66 8-100 9-23 1-63-6-80 15-18 24-6 71 0 99l1 4c1 9 3 25 4 35l7 62c1 10 5 25 8 34 0 0 11 31 24 29s16-35 16-35c0-10 0-26-1-35l-3-31c-1-10-2-18-2-18s2-1 4-1c3-1 13 5 14 15l1 9c1 10 4 26 6 35 0 0 7 29 20 27s20-34 20-34c2-9 2-25 1-35l-1-11c-1-10 1-19 5-20 4 0 15 5 16 13 1 9 4 24 7 33 0 0 10 29 23 27s16-33 16-33c2-10 2-26 1-35s0-18 3-18c3-1 11 2 11 8 1 5 4 17 6 27 0 0 7 26 20 24s19-31 19-31c2-10 3-23 2-29 0-6 3-12 7-14 4-1 22 0 26 10 0 0 26 67 54 95l5 5c6 5 7 17 4 26l-75 182c-5 9-8 16-8 16s-2 5-5 10-6 23 0 28c7 5 28 9 32 1 4-9 21-32 28-31s24 9 23 18c-1 10 2 35 9 37 8 2 29-4 29-13l1-23c0-10 6-18 12-18 6-1 24 6 24 15l1 20c0 10 7 18 14 18 8 0 27-9 25-19l-3-24c-1-10-2-18-2-18s4-1 10-2 24 3 26 12l5 22c2 10 9 17 17 15 7-2 24-15 21-24l-7-22c-2-9 0-19 7-21 6-1 25 1 29 10l8 21c3 9 12 14 19 11 7-4 21-20 16-29l-8-17c-4-9-4-18 1-20 5-3 22-2 27 7l10 17c5 8 14 11 20 7 6-5 18-24 13-32-6-7-16-29-12-31 4-3 14-10 14-10s6 6 14 12l17 14c7 7 17 6 21 0 5-7 10-30 3-34-6-5-22-16-22-17 0 0-6-5-14-11l-152-123c-7-6-11-15-10-19l2-4c15-39 12-117 12-117-1-9 7-18 17-20l7-1c7-1 15 3 17 9 2 5 9 16 16 24 0 0 19 23 31 19 13-5 6-32 6-32-2-9-6-21-8-26s-1-10 1-11c3 0 13 4 17 13s11 23 17 31c0 0 18 25 30 20 13-4 8-33 8-33-2-10-6-24-10-33-3-8-3-15 1-17 4-1 17 4 21 13l4 11c4 9 12 22 18 30 0 0 21 25 33 20 13-4 5-33 5-33-2-9-8-24-11-33l-4-9c-3-9-4-17 0-18s10-3 10-3 3 7 7 16l11 29c4 9 12 24 17 32 0 0 17 28 30 23 12-4 8-36 8-36zm-787 46c-15 4-29-3-32-15-3-11 7-24 21-28 15-3 29 3 32 15s-7 25-21 28zm185-3c-9 4-20 8-26 9-5 0-13 2-17 3-4 0-15 3-25 4l-12 2c-9 2-22 4-28 6-6 1-16 2-22 4-6 1-19 2-29 2 0 0-2 0-7-3-3-2-5-4-6-7 0-3 1-6 4-9 4-4 11-8 19-10h1c1-1 7-2 14-3 6-1 17-3 23-4s18-4 28-5l12-3c9-1 21-3 25-4s12-2 17-3c4-1 17-1 26-1 0 0 11 1 13 9 1 8-10 13-10 13zm6-51l-5 2c-7 2-20 3-28 3-8 1-20 2-28 2-8 1-19 1-23 1-5 1-16 1-26 2l-17 1c-10 1-26 0-36-2 0 0-10-2-10-10 1-7 8-13 19-16h3c4-1 15-2 25-2l90-6c10 0 26 1 36 3 0 0 10 1 10 10 0 4-4 9-10 12zm208-48c12-3 24 3 26 14 3 11-4 22-16 25s-24-3-27-14 5-22 17-25zm-33 29c3 11-4 22-16 25s-24-3-27-14 5-22 17-25 24 3 26 14zm-41-71c12-3 24 3 27 14s-5 22-17 25c-11 3-23-3-26-14s5-22 16-25zm-44 71c12-3 24 4 26 15 3 11-4 22-16 25s-24-3-27-14 5-23 17-26zm-29 88l-1-8c-1-3-1-7 1-10l2-3c4-2 14-5 24-8l151-38c10-2 24-3 32-2l2 8 2 7c-6 5-20 11-29 14l-151 38c-10 2-24 3-33 2zm54 182c4-1 6 5 3 13s-7 9-8 2c-2-7 0-14 5-15zm235 27l1 5 1 4c-4 3-15 7-24 9l-191 48c-9 3-21 4-25 3l-1-4c-1-2-1-4 0-6l1-1c2-1 12-4 22-7l190-48c10-2 21-3 26-3zm-190 15c5 9 1 17-8 20l-11 3c-10 2-18 1-19-3s1-15 4-24l5-15c3-9 10-10 15-1zm4-54h1c9-3 16 3 14 13l-3 16c-2 9-7 11-13 2l-7-12c-6-8-2-17 8-19zm58 40c6 7 3 15-6 18l-13 3c-10 2-16-4-14-13l3-22c2-10 9-11 15-4zm-4-54l4-1c10-2 17 4 16 13l-1 16c-1 10-7 12-13 4l-12-14c-6-7-3-16 6-18zm33 45l2-17c0-10 7-12 13-5l13 14c7 7 12 14 13 14 0 0-6 3-16 6l-9 2c-10 2-17-4-16-14zm62-27c3-9 7-9 9 1l2 7c2 10-1 19-8 21-7 1-13 2-13 2 1 0 4-10 6-19zm-9-24l-6 18c-2 10-10 12-17 4l-12-13c-6-7-4-15 6-17l16-4c10-3 15 3 13 12zm-21-51c-3 3-14 7-24 10l-108 27c-10 2-21 4-26 3l-1-4c-1-2 0-4 1-6l1-2c2-1 11-4 21-6l108-27c10-3 22-4 26-3l1 4 1 4zm1-76c-11 48-22 55-22 55-8 5-23 11-32 13l-72 18c-10 3-25 2-35-1 0 0-20-7-40-34-9-12 0-30 8-43 9-12 23-19 23-19 9-4 23-9 31-11s16-3 17-2l1 1c2 0 7 6 10 20 4 12 4 23 2 27-2 6-9 9-15 7-4-1-6-6-5-10 1-3 4-4 6-3 4 1 9-1 10-5 2-4 0-9-5-10-10-4-22 2-26 13-4 12 3 25 15 30 5 2 11 2 16 0 8-2 16-8 19-17 4-13-6-42-6-42-3-10 1-19 10-21 8-2 23-3 33-2 0 0 64 6 57 36zm26-163h-5c-7 0-12-2-15-5-4-8 4-14 4-14 8-6 22-15 31-19l82-38c9-4 19-9 22-10l3-1c11-3 21-1 24 5 4 7-4 13-4 13-7 6-21 15-30 19l-15 7c-9 4-20 9-24 11s-13 6-21 10c-7 3-19 9-26 12s-18 8-26 10zm183-12c-3 5-4 6-4 6-9 4-21 9-27 11s-16 5-21 7c-6 2-18 6-28 9l-11 4c-9 3-20 6-24 8-5 1-12 3-17 5s-17 4-27 4c0 0-12 1-14-6-3-8 6-14 6-14 9-5 19-10 24-12 5-1 12-4 16-5s15-5 25-8l11-4c9-3 22-7 28-9 5-1 15-5 21-7 7-2 13-4 14-4h1c8-2 16-2 21-1 4 2 7 4 8 7s0 6-2 9zm6-30c-15 3-29-3-32-15s7-25 21-28c14-4 29 3 32 15s-7 24-21 28zM1044.371 3815c-9-6-20-3-25 7-4 10-1 22 8 27 9 6 20 3 25-7 4-9 1-22-8-27z" fill="#edeeed" fill-rule="nonzero"/><path class="fil1" d="M1110.371 3915s-14-82-61-111c-47-30-113-1-113-1-9 4-9 11 0 14 0 0 52 21 86 42s78 62 78 62c7 6 12 4 10-6zm-51-69c-7 14-22 18-34 10-13-8-18-25-12-38 6-14 22-19 35-11s18 26 11 39zM1383.371 3893c0-11-9-18-20-16-11 1-19 11-18 22s9 18 20 16c10-2 18-11 18-22z" fill="#edeeed" fill-rule="nonzero"/><path class="fil1" d="M1467.371 3909s-50-53-105-45c-55 9-100 79-100 79-5 8-2 12 7 9 0 0 56-20 96-26s96-5 96-5c10 1 13-5 6-12zm-103 13c-14 2-26-7-28-22-1-15 11-29 26-32 15-2 28 8 28 23s-11 29-26 31zM1129.371 4201c-26-7-54 8-61 35-7 26 8 54 35 61 26 7 54-8 61-35 7-26-8-54-35-61zm17 56c-4 17-22 27-38 22-17-4-27-22-22-38 4-17 22-27 38-22 17 4 27 22 22 38z" fill="#edeeed" fill-rule="nonzero"/><path class="fil1" d="M1144.371 4148c-56-16-114 18-129 73-16 56 17 114 73 129 56 16 114-18 129-73 16-56-18-114-73-129zm47 122c-11 41-54 66-96 54-41-11-66-54-54-96 11-41 54-66 95-54 42 11 67 54 55 96z" fill="#edeeed" fill-rule="nonzero"/><path class="fil1" d="M1262.371 4186c-5-11-11-22-18-31-21-28-51-49-86-59-85-23-172 27-195 111-23 85 27 172 111 195 85 23 172-27 195-111 10-37 7-73-7-105zm-19 98c-19 70-91 111-162 92-70-19-111-91-92-162 19-70 91-111 162-92 70 19 111 91 92 162z" fill="#edeeed" fill-rule="nonzero"/><path class="fil1" d="M1539.371 3948c-18-77-92-128-178-114-64 10-118 53-146 107l-1 2c-2 3-9 10-17 16 0 0-7 7-21 3l-10-3c-6-8-11-22-12-31l-1-8c-8-57-40-111-91-143-74-47-162-30-208 34-2 2-2 5-2 8 1 3 3 5 6 6 51 11 103 32 151 62 36 23 70 50 99 81l2 3c3 2 8 11 12 20 0 0 5 12 1 28s-16 23-16 23c-8 6-15 10-15 10s-5 1-12 2l-6 1-5 1c-5 2-17 1-26-2l-262-71c-9-3-24-4-34-3l-1 7-2 7c7 6 21 12 30 15l228 62c10 3 17 5 16 6l-6 3c-6 4-18 5-28 2l-216-58c-9-3-24-4-32-3l-2 7-1 5c2 4 2 15-1 25l-40 148c-3 10-3 26-2 35 0 0 0 3 10 5 10 3 12 1 12 1 6-7 13-21 16-31l40-146c2-10 7-17 10-16 4 1 6 2 6 2 0 1-2 9-5 18l-42 155c-2 9-3 25-2 35 0 0 1 2 11 5 9 3 11 1 11 1 6-8 13-22 16-31l42-155c3-9 5-17 5-18 0 0 5 1 11 3 7 1 12 3 12 3s-3 9-5 18l-42 155c-3 9-4 25-2 35 0 0 0 2 10 5 10 2 11 1 11 1 7-8 14-22 17-32l42-154c2-9 4-17 4-18 0 0 7 1 14 3 8 2 12 12 9 21l-40 150c-3 9-4 25-2 35 0 0 0 2 10 5s11 1 11 1c7-8 14-22 16-31l41-150c3-10 13-15 22-13 10 3 12 11 6 19 0 0-31 41-40 75-14 51-7 104 19 150 5 9 7 12 7 12 6 8 4 12-4 10-7-2-17-3-21-3-5 1-11 8-11 8s-1 1-1 2c-1 1-4 11-6 20l-20 73h39l13-49c3-10 7-17 10-16 3 0 3 9 0 18l-12 47h38l10-37c3-9 7-17 10-16s3 9 1 19l-10 34h39l5-21c3-10 7-17 9-16 1 1 4 10 2 20l-5 17h38l2-7c3-10 7-17 9-17s5 9 2 18l-2 6h39c3-9 7-16 10-15 2 1 3 7 1 15h41c1-2 3-3 4-3 1 1 1 2 2 3h40c1-8 1-16 0-23 0 0-1-2-11-5h-1s-6-2-13-3c-6-2-5-7 4-12l41-27c8-6 17-4 20 4l8 2c10 3 11 1 11 1 7-7 14-21 17-31l40-150c3-9 11-15 19-13 7 2 13 4 13 4s-2 9-5 18l-42 155c-2 9-3 25-2 35 0 0 1 2 11 5 9 2 11 1 11 1 6-8 13-22 16-32l42-154c3-10 5-18 5-18s3 0 7 1 6 10 3 20l-41 149c-2 10-3 26-2 35 0 0 1 3 11 5 10 3 11 1 11 1 6-7 14-22 16-31l41-150c2-9 9-16 15-14 5 1 7 10 5 20l-40 146c-3 10-3 25-2 35 0 0 1 3 10 5 10 3 12 1 12 1 6-8 13-22 16-31l40-149c3-9 8-19 13-22l1-4 2-7c-7-5-19-12-29-14l-182-50c-10-2-19-7-20-11-2-4 1-10 10-8l196 53c10 3 24 4 32 3l2-7 2-7c-6-6-19-12-29-14l-229-63c-9-2-17-4-17-5 0 0-6-5-13-12 0 0-8-7-20-15l-2-2c-2-1-9-9-14-17 0 0-13-18-7-38 3-13 9-18 9-18 7-6 16-13 20-14l3-2c41-18 85-31 129-38 57-9 112-8 164 2 2 1 5-1 7-3s3-5 2-8zm-231 250v0zm-184-234s-63-63-108-92c-45-28-125-55-125-55-9-3-9-10-1-14 0 0 103-51 165-11 62 39 80 167 80 167 1 9-4 12-11 5zm106 151c8 6 17 14 20 18 4 4 10 11 13 16l3 5c1 2 3 4 4 6 6 10 11 21 14 32 7 19 10 39 10 59 0 15-2 30-6 45s-10 28-18 41c-26 46-71 77-122 87l-5 1c-6 1-11 1-11 1s-8 0-18 1c0 0-4 0-15-1-4 0-8-1-12-1-6-1-12-3-18-4-6-2-12-4-17-6-4-2-7-3-11-5-10-4-20-10-28-16-5-4-9-7-13-10-50-44-74-114-56-182 10-35 30-65 56-88 7-6 15-11 23-16 8-6 18-10 27-14s19-7 29-9c27-6 55-5 84 2 31 9 67 38 67 38zm272-176s-84-7-136 1c-53 9-136 42-136 42-9 3-12 0-7-9 0 0 66-111 139-122 72-12 146 75 146 75 7 8 4 14-6 13zM3081.371 4368c-5-20-25-32-44-27-20 5-32 25-27 45 5 19 25 31 45 26 19-5 31-25 26-44zm-31 27c-10 2-20-4-23-14-2-10 4-20 14-23 10-2 20 4 23 14 2 10-4 20-14 23z" fill="#edeeed" fill-rule="nonzero"/><path class="fil1" d="M3138.371 4364c-13-50-64-80-114-67-40 10-63 67-63 67-4 9-11 24-17 32 0 0-7 9-2-7 9-37-47 25-70 40-22 14-34 27-42 40h112c25-3 51-2 77-2 8 1 11 1 11 1 9 0 9 1 0 1h-14 76c3-4 7-9 10-12 0 0 47-49 36-93zm-79 62c-28 7-56-10-63-37-7-28 10-56 37-63 28-7 56 10 63 37 7 28-10 56-37 63z" fill="#edeeed" fill-rule="nonzero"/><path class="fil1" d="M3215.371 4388h-1c-10 2-18 6-18 8v2c0 28-7 52-20 71h-36c0-2 2-4 3-5 35-34 29-95 7-141-18-39-55-60-100-58-51 3-97 35-114 81-3 8-11 12-18 9l-3-1c-3-3-4-5-4-5-1 0-8-3-17-8l-4-2c-9-5-12-16-8-24l16-30c4-8 15-12 24-7l2 1c8 4 22 2 24 0 3-3 0-11-4-20l-2-2c-4-9-2-20 7-25l29-16c8-5 19-2 24 7l3 4c5 8 19 13 24 12 4-1 8-9 10-19 1-10 11-17 20-15l33 4c10 2 17 10 15 19-1 9 8 21 11 23 4 1 12-3 19-10 6-7 18-7 25-1l24 23c7 7 8 18 1 25l-2 3c-7 7-11 15-10 17l1 3 2 4c2 5 12 8 21 6l3-1c9-1 19 5 21 15l6 32c2 10-5 19-14 21zM3453.371 4447c-23-11-53 11-74 22h97c-7-10-14-18-23-22zM1632.371 2550c-32-39-72-57-134-61-29-1-214 26-214 26-9 2-17-1-17-5s-4-17-5-19-2-3-2-3 0-2-1-4l-7-14-2-4c-5-9-6-11-6-11-5-8-1-16 8-16l9-2c11-2 21-5 27-7 67-22 104-44 120-71l4-8 2-8 2-8s2 0 5-2c3-1 7-3 11-5l48-23c9-4 20-12 24-16l-3-5-2-5c-6 0-19 3-27 8l-39 18c-9 4-16 8-16 8l-1-8c-2-8-3-15-3-15 1 0 8-3 17-7l31-15c9-4 20-11 24-16l-2-5-3-5c-6 0-18 4-27 8l-28 13c-9 4-16 7-16 7l-1-7c-2-8 4-18 13-22l24-13c9-4 20-12 23-17l-2-5-3-5c-6 1-18 5-27 9l-20 10-9 5c-4 2-8 1-9-2l-2-7-2-6s2-1 5-3c2-2 6-4 10-7l18-12c8-5 18-14 21-19l-3-5-3-4c-6 1-18 6-26 11l-15 10c-8 6-17 7-19 3s-8-13-8-13 7-5 14-11l12-10c8-6 17-15 20-21l-4-4-3-5c-6 2-17 8-25 14l-12 10-8 6c-4 3-8 3-11 1l-5-6-6-4c0-1 4-7 10-15l9-12c6-8 12-19 14-25l-5-4-4-3c-5 3-15 12-21 20l-10 13-10 14-8-4c-5-2-14-14-10-23l2-4c4-9 7-22 7-28l-6-2-5-2c-4 4-11 15-15 24l-3 7-4 9c-2 4-6 7-10 7l-9-1h-9v-5-13c1-9-1-22-4-27h-6l-5-1c-3 6-5 19-5 29s-4 19-8 20h-5l-12 3s-1-7-2-15-5-19-8-24h-6l-5 1c-2 6-2 18-1 27s2 16 2 16-3 1-7 2c-3 1-13 4-13 4l-4-12c-2-7-7-17-12-21l-5 1-5 2c-1 6 0 17 2 24 3 7 1 14-2 16l-14 7s-4-5-9-11c-5-7-13-14-19-17l-4 4-4 3c1 6 6 16 10 21 5 6 5 12 2 15-4 3-13 10-13 10s-4-4-10-9c-5-5-14-11-20-13l-4 4-4 5c3 5 9 14 15 19 5 5 7 14 3 19l-3 6c-14 28-4 78-4 78 2 9 0 16-4 16h-5c-12 3-20 13-20 25 0 2 1 3 1 4v3c2 3-1 4-7 4l-4-1h-2c-17-2-34-2-53-1-15 1-32 3-50 6-8 1-17 2-27 4-6 2-13 3-21 5-32 6-63 14-93 21-11 3-18 14-16 26 2 11 13 19 25 17 28-3 61-8 92-11 17-1 32-2 46-3 16 0 31 0 44 1 15 0 29 2 41 5 13 3 25 7 36 13 11 5 22 12 33 20 4 4 9 8 15 13l2 2c3 3 6 6 8 9 3 2 5 5 7 6l1 1 3 2 6 4c0 1 4 7 9 15l3 8c4 7 7 14 9 22l2 4c1 4 3 9 3 11 1 2 1 4 2 5 0 1-7 3-15 5l-8 1c-46 10-97 21-113 30-52 26-85 63-101 114-13 41-5 109 15 147 19 38 39 55 80 68 21 7 44 8 65 4 49-9 47-17 62-63 9-29 20-49 6-76-13-25-124-71-105-19 6 16 25 24 33 39 10 16 6 36 6 36-2 10-11 16-21 15 0 0-35-5-54-41-16-32-22-57-20-64 1-2 3-43 85-69 24-8 67-19 67-19 9-3 15 3 13 13 0 0-6 28-1 52 8 45 63 86 63 86 8 6 15 14 15 18l1 4c3 13 5 18 5 18 5 8 8 23 7 33l-15 87c-1 10 5 19 15 21l37 5c10 2 19-5 20-14l12-73c2-10 7-11 11-2l31 59c5 9 16 12 24 8l33-17c9-5 12-16 8-25l-38-72c-4-9-6-24-4-34 0 0 2-7-1-21l-1-4c-1-5 2-15 8-23 0 0 36-59 27-103-5-25-21-49-21-49-5-8-2-15 8-17 0 0 53-6 82-8 93-7 109 30 110 31 5 6 8 32 5 67-3 25-11 70-37 81-27 12-49-20-48-45 1-26 30-55 23-80-11-40-57 14-67 27-29 38-28 80 4 119 31 38 40 51 89 41 21-4 42-14 59-28 33-27 54-65 58-107 4-43-14-109-41-142zm-580 302c13-10 31-8 41 4 7 9 6 15 6 15-2 10-6 14-9 11-3-4-6-10-6-14l-3-3c-5-6-13-6-19-2-6 5-7 14-2 19l2 3c3 1 9 5 12 9s-3 7-13 7c0 0-5 0-12-9-10-12-9-30 3-40zm-54-55c-1 20-19 36-39 35-16-1-23-12-23-12-5-8-5-14 1-14s14 3 18 6l5 1c10 0 18-7 19-17 0-9-7-18-17-18h-4c-4 2-12 3-18 2-7 0-6-6 0-14 0 0 8-8 23-7 21 1 36 18 35 38zm43-130c-23 10-50-1-59-24-8-18 2-35 2-35 5-9 11-10 14-3s4 17 3 24l2 5c5 11 18 16 29 12 10-5 16-18 11-29l-2-4c-4-4-10-12-13-19s2-11 11-8c0 0 18 5 26 22 9 23-1 49-24 59zm51-456c24-47 97-68 138-76 94-18 141 47 154 113 1 10 3 18 5 26 7 32 12 55 1 75-13 22-47 41-108 62-6 2-15 4-25 6-13 3-25 3-37 2-11-2-21-5-31-10h-1c-2-1-4-2-4-4-1-1 1-3 7-2h5c4 1 8 1 12 1 8 0 17-1 25-3 71-13 119-75 107-138s-79-103-150-89c-53 10-95 75-95 75-5 9-10 7-10-2 0 0-1-20 7-36zm167 88c-7-40-50-65-94-57-30 6-53 36-53 36-5 8-7 7-3-2 0 0 31-72 85-82 60-12 116 21 126 73 10 51-31 103-90 114l-9 2c-10 0-12-4-4-10 0 0 49-38 42-74zm-90-37c33-6 65 12 70 41 6 28-17 57-50 63-34 7-66-11-71-40s17-57 51-64zm-105 47c6-2 13 3 14 9 1 4-1 8-3 10s-4 4-7 4l-6 2c-4-6-8-11-8-11-1-7 3-13 10-14zm88 144c-5 1-10 1-14-1-2-1-4-2-5-4h-1l-3-3c-1-2-3-3-4-5l-7-7-3-2c-5-5-11-10-16-14-12-9-24-17-36-23-13-6-27-11-41-14s-28-5-45-6c-14-1-29-1-46 0-14 0-29 1-47 3-32 3-65 7-93 11 0 0-1 0 0 0 29-8 60-16 92-22 7-2 14-3 20-4 10-2 18-4 27-5 17-3 33-5 48-5 17-1 33-1 49 0l15 3c10 1 19 3 28 6 2 1 4 1 6 2 16 5 31 13 46 22l3 2c4 2 12 9 18 15 7 7 26 21 26 22l1 1v4c1 6-1 12-5 17-3 4-8 6-13 7zm25 78c-1-2-2-4-2-6-1-2-2-7-4-12l-1-4c-3-9-6-17-10-24l-1-4c-2-3-4-6-3-6v-1c10-1 19-7 25-14s7-8 7-8c2-9 4-17 5-18 0 0 3 0 5 1 3 1 12 6 15 10l3 4c5 8 10 17 15 27l2 4c2 5 5 11 6 13 1 1 2 5 3 6 1 2 2 7 3 10 0 4-7 14-15 15l-7 1c-16 3-28 5-28 5-10 2-18 2-18 1zm112 362l-9 49c-1 9-9 16-17 15s-13-10-12-20l8-49c2-10 10-17 18-16 8 2 13 11 12 21zm17-55c-34 7-39-7-39-7-4-9 1-16 11-15 0 0 11 0 26-2 14-3 24-8 24-8 9-4 14 0 12 10 0 0-5 17-34 22zm82 70c4 9 2 19-5 23s-17 0-22-9l-21-41c-5-9-4-18 1-21 5-2 20-4 24 5zm-34-161c-1 2-3 4-5 6l-4 4c-1 1-2 2-4 3-1 1-3 3-5 4s-4 3-6 4c-9 6-21 10-33 13-12 2-24 2-35 0-2 0-5-1-7-1-2-1-4-2-6-2-2-1-3-1-4-2-2 0-4-1-7-2l-6-3c-25-14-44-38-50-68-5-27 2-53 15-74 15-20 37-36 63-41 27-5 53 1 74 15s36 36 41 63c6 30-3 60-21 81zm124-192c-7 24-32 38-55 31-24-6-38-31-32-55 6-19 24-26 24-26 9-4 15-1 13 6s-8 16-12 20l-2 6c-3 12 3 23 15 27 11 3 23-4 26-15l2-5c-2-5-1-16 1-23 2-8 9-7 14 1 0 0 11 15 6 33zm69 253c-5 11-9 12-9 12-9 2-16 1-14-3s6-9 9-11l1-3c3-6 0-14-6-16-7-3-14 0-17 6l-1 3c0 3-1 9-2 13-2 4-7 0-12-8 0 0-1-3 3-13 5-13 21-19 34-14 13 6 19 21 14 34zm112-148c-6-1-13-5-17-9l-5-1c-9-2-19 4-21 14-2 9 4 19 14 21h4c4-1 13-1 19 0 7 1 5 8-2 14 0 0-10 8-25 5-20-5-33-24-29-44s24-33 44-29c16 3 22 15 22 15 4 9 2 15-4 14z" fill="#edeeed" fill-rule="nonzero"/><path class="fil1" d="M1174.371 2289c-10 2-17 10-15 19 1 9 11 15 21 13s17-11 15-20-11-14-21-12zM1240.371 2659c-7 10-10 22-7 34 3 18 19 27 19 27 8 5 15 9 15 9s6 0 12 1l7-1 6-1c7-4 12-7 12-7s5-6 11-14c0 0 10-13 7-31-3-12-10-22-19-29-10-6-22-9-34-7-13 3-23 10-29 19zM1833.371 522c-33-8-66 9-73 39-7 29 14 59 47 67 34 8 66-9 73-38 7-30-14-60-47-68z" fill="#edeeed" fill-rule="nonzero"/><path class="fil1" d="M2067.371 773c-20-18-43-31-69-37-33-8-71-5-111 9l-7 2c-7 3-18-1-24-9 0 0-19-26-17-45v-2c0-2 8-7 17-11 0 0 68-29 79-73 14-59-29-119-96-136-34-8-71-8-101 8-31 17-35 52-60 73-35 30-96 36-139 57-10 4-13 15-8 25 5 9 17 15 28 12 18-5 36-9 54-12 19-3 37-5 54-6 9-1 18-1 26 0h5c4 0 9 2 10 3 1 2-4 7-14 9 0 0-14 3-33 5-18 2-37 3-56 4-12 0-19 6-17 13 3 7 14 13 26 13 20 2 40 2 59 2 2 0 4 1 5 1 24 0 45-1 65-3h5c5-1 17 2 26 6 0 0 3 1 13 4h2c2 1 1 9-2 18 0 0-17 51-25 52h-1c0 1-7-1-16-5l-9-2c-90-22-178 25-197 104s38 161 128 182l7 2c8 1 9 8 3 16 0 0-32 41-62 45-43 7-19 48 3 53 16 4 89 5 89 5 10 0 16 8 12 17l-14 42c-4 10-9 25-12 34l-48 150c-3 10 2 19 12 22l46 11c10 2 19-4 20-14l16-123c1-9 4-25 6-35l29-118c2-10 4-18 4-18s5 4 11 9l6 3c10 6 21 11 32 13l1 1c1 0-1 7-5 17l-32 75c-4 9-8 25-9 34l-15 153c-1 10 6 20 15 22l31 7c9 3 17-4 17-13l-3-123c-1-10 2-26 6-35l62-138c4-9 11-23 16-32l9-31c1-10 1-21 1-24s-3-6-7-7c-3 0-13-2-23-4l-8-1c-8-1-15-2-22-4-13-3-23-8-32-23-3-7-6-14-7-22-4-18-3-36-3-36v-19c0-1 1-8 1-15l1-5c1-3 2-6 2-8l2-4 2-4 16-10s9-6 24-14c25-14 52-28 72-35s29-6 33-5c3 0 3 1 5 3 13 12 20 35 19 62v1c0 3-1 6-2 7h-1c-20 14-28 33-22 52 5 21 25 38 50 44 22 5 43 1 60-10 28-18 44-46 47-82 3-50-22-112-61-149zm-339-223c11-43 59-69 109-57 49 12 81 57 70 100-10 44-59 69-108 57-49-11-81-56-71-100zm0 272l-9-2c-45-11-89 12-99 52-9 39 19 80 64 91l10 2c10 0 18 5 19 11 1 5-4 25-14 25 0 0-9 0-23-4-67-16-110-76-96-135 15-59 80-93 147-77 17 4 30 11 30 11 9 5 15 10 14 11-2 1-5 3-6 3-1 1-4 4-8 7-5 3-21 9-29 5zm367 96c-1 20-8 46-33 63-10 6-22 8-34 5-13-3-24-12-26-21l-2-8c4-6 12-11 17-11l3-3c7-4 7-8 8-31 2-34-9-65-28-83-3-3-9-9-21-12-14-3-32-1-53 6-19 7-43 19-66 31-13 8-26 15-37 22l-6 3c-5 4-10 7-10 7-1 0-5 6-10 12s-10 43-10 44v33c1 15 2 30 7 44 2 5 4 10 7 14 15 28 38 36 53 40 9 2 18 3 26 4l3 1c4 0 5 9 4 18 0 0 0 1-4 8-2 5-6 9-10 12-8 6-19 8-31 6-3 0-6-1-9-1-7-2-14-5-21-9-26-15-43-46-53-79-5-12-8-25-11-38-2-14-4-27-5-37v-1c-3-35 0-79 24-108l5-5c7-5 12-10 13-10 1-1 4-3 8-5l4-3c10-7 22-14 34-21 17-10 40-21 40-21 9-4 17-8 19-8 1 0 2-1 2-1s2-1 5-2l3-1c34-12 65-15 92-8 19 4 37 14 52 28 33 31 54 84 51 126zM-43.629 2524l-7-5c-5 0-13 5-19 11v48l21-24c6-7 12-18 12-24l-7-6zm123 213v-3c-5-2-17-3-27-3h-19c-10 0-18-1-19-2 0-2 7-6 17-8l11-1c10-2 21-6 26-9l-1-7-1-6c-5-2-18-3-28-2l-14 3c-10 1-19 0-20-2s5-9 15-11l18-4c10-1 21-6 26-9l-1-5-1-6c-6-1-18-1-28 1l-24 5c-9 2-18 2-18 1-1-1 5-7 14-10l13-6c10-3 20-9 24-13l-1-4-2-4c-5 0-17 3-26 6l-18 7c-9 3-17 5-18 3-2-1 2-10 10-15l12-7c8-5 17-13 20-17l-2-4-3-4c-5 1-16 6-24 11l-14 9c-8 5-16 8-17 7-2-2 1-11 8-17l16-13c8-7 15-17 16-22l-5-6-5-7c-6 1-17 6-24 12l-20 17c-5 4-11 8-15 8v62c24 25 41 58 47 93 4 22 2 49 2 49-1 9-8 12-16 6 0 0-17-15-33-28v58c25 22 48 43 48 43 7 6 16 4 19-5l21-115c0-10 8-18 18-18l16-1c10 0 22-1 27-3v-4zM4393.371 960l-54 50c-5 5-8 10-8 10s5-3 11-6l57-27v-33l-6 6zM4396.371 1500c1 2 2 3 3 3v-21c-4 4-7 8-8 12l5 6zm-29-50s-1 1 5 7c5 6 7 5 7 5 6-1 14-4 20-7v-36c-10 7-17 12-17 12-6 4-13 13-15 19zm31-203l1-1v-27c-35 8-77 19-77 19-7 1-16 6-21 11l2 8 2 7c6 2 17 2 24 1l19-5c7-2 12-1 12 2 1 2-4 11-10 13l-26 7c-7 2-15 6-19 10l1 5 2 5c5 1 14 1 21-1l25-7c7-2 13-1 14 1l1 3c1 3 0 7-3 9l-6 3-24 12c-6 3-14 10-16 16l3 7 4 8c6 1 16-1 22-4l27-13c6-3 12-4 13-3 1 2 0 10-5 14l-26 19c-5 4-12 13-14 19l5 6 5 6c6 0 16-4 21-8 0 0 10-8 24-18v-96l-3-9c-1-6-3-13-2-15 0-1 4-4 4-4zM4260.371 2643c14 12 38 8 51-9 14-18 13-41-2-53s-38-8-52 10c-13 17-12 41 3 52z" fill="#edeeed" fill-rule="nonzero"/><path class="fil1" d="M4399.371 2578v-48l-3 3-20 23c-7 7-14 12-15 10-2-2-3-13 3-21l16-25c5-8 10-19 11-24l-4-3-5-2c-4 2-12 11-17 19l-15 23c-6 8-12 14-14 12-3-1-5-13-1-22l12-26c4-9 7-20 6-26l-7-3-6-2c-5 2-12 12-16 21l-11 24c-4 9-11 15-14 13-3-1-12-13-11-23l3-28c0-10-1-22-4-28h-6l-7-1c-4 5-8 17-9 26l-2 26c-1 10-5 17-9 17s-17-7-19-17l-4-21c-2-10-7-22-10-27l-6 1-5 1c-1 6 0 19 2 29l5 22c2 9 1 18-1 19-3 1-15-1-22-9l-14-16c-7-7-18-15-24-17l-6 5-6 5c1 7 8 19 14 26l14 15c6 8 10 16 7 18-2 3-14 5-21-1l-20-20c-7-7-18-14-24-16l-5 5-4 4c2 6 10 17 17 24l23 23c7 7 11 21 9 30v21c2 10-2 12-9 4l-43-47c-7-7-15-16-20-18h-4l-5 1c-3 3-10 13-15 22l-34 57c-5 9-14 22-20 30l-152 192c-6 8-5 19 3 25l3 3c8 6 8 16 1 23l-185 163c-7 6-6 14 3 18l30 14c9 4 22 1 29-6l152-165c7-8 19-9 26-3 8 6 14 11 14 11s-5 6-12 13l-235 248c-7 7-5 16 4 21l18 8c9 4 21 1 27-6l212-250c7-7 18-8 25-2 8 5 9 16 2 24l-223 256c-7 8-6 19 2 25l12 10c8 6 19 5 25-3l210-268c6-8 17-9 24-3 8 5 9 17 3 25l-196 256c-6 8-7 22-2 30l5 9c5 8 14 9 19 1l199-277c6-8 14-11 19-8 4 4 10 9 13 11s1 11-5 19l-202 273c-6 8-5 20 3 26l14 11c8 6 19 4 24-4l187-285c6-9 14-12 19-8s11 9 14 11 1 11-4 19l-182 290c-5 9-3 21 5 27l6 5c8 6 19 4 24-4l175-296c5-8 15-10 23-4l3 3c8 7 19 6 25-2l170-215c6-7 5-19-3-25l-136-109c-8-6-10-17-3-25l11-15c7-7 11-14 10-15s0-1 2 0 7 3 7 3 7 5 15 10c0 0 52 36 85 62 10 8 22 18 33 27v-58c-2-1-4-3-5-4-30-23-76-55-76-55-8-6-9-17-3-25l40-50c6-8 15-11 20-8l4 4c7 5 14 11 20 18v-62c-2 1-3 1-4 0-3-2-5-12 2-20zm-338 52l12-20c5-9 14-10 21-2l75 81c6 7 7 20 1 27-6 8-17 9-25 3l-79-63c-8-6-10-18-5-26zm40 389c-5 9-16 11-23 4l-96-75c-8-6-8-17-1-24l64-63c7-7 19-8 27-2l70 55c8 6 10 18 5 26zm55 43c-6 9-16 10-24 4l-4-3c-7-6-9-17-3-25l78-98c6-7 5-19-3-25l-140-111c-8-6-20-5-26 3l-77 98c-6 7-18 9-25 3-8-6-9-17-2-25l110-120c6-8 18-9 26-3l176 138c7 6 9 18 4 26zm171-163c7 6 9 17 3 25l-135 170c-6 7-14 11-19 8-4-4-3-13 2-22l108-160c5-9 4-20-4-26l-232-182c-7-6-19-5-25 3l-119 150c-6 8-14 11-18 8s-2-12 4-20l134-169c6-8 18-9 25-3zm4-250c-22 28-60 35-85 16-24-20-26-58-4-87 23-28 61-35 86-16 24 20 26 58 3 87zM3229.371 1431c-1 5 4 12 12 16l74 45c7 5 6 11-3 12h-85l-16-2s-3-1-7-2-9 5-12 14l-16 59c-3 8-2 18 2 21 3 2 8-2 11-11l13-47c2-9 12-15 20-14 0 0 101 10 137-6 5-2 6-6 3-10-23-33-116-77-116-77-8-4-16-3-17 2z" fill="#edeeed" fill-rule="nonzero"/><path class="fil1" d="M3214.371 1486c-1 2 6 4 15 5 0 0 47 8 66 4 3-1 3-2 1-4-14-13-58-32-58-32-8-3-15-5-16-3s6 7 14 10l26 13c8 4 7 8-2 8l-29-2c-9-2-17-1-17 1zM3159.371 1378c-24-7-50 7-56 31-7 24 7 50 31 56 24 7 49-7 56-31s-7-49-31-56zm18 52c-5 17-22 27-39 22-17-4-27-22-22-39 4-17 22-27 39-22s27 22 22 39z" fill="#edeeed" fill-rule="nonzero"/><path class="fil1" d="M3125.371 1496c4 1 7-1 8-5s-1-7-4-8c-34-10-54-45-44-79 9-33 44-53 78-44 35 10 41 33 41 33 3 8 5 19 6 23l3 1c4 1 8-1 9-5 2-8-3-21-11-34-11-15-27-26-44-31-41-11-84 13-95 54-12 41 12 83 53 95zM3265.371 1362c-12-4-24 3-28 15-3 12 4 25 16 28 12 4 24-3 28-15 3-12-4-25-16-28zm3 24c-2 5-7 8-12 6-4-1-7-6-6-11s7-8 11-6c5 1 8 6 7 11zM3219.371 1307c-12-3-25 4-28 16-4 12 3 24 15 28 12 3 25-4 28-16 4-12-3-25-15-28zm2 24c-1 5-6 8-11 7-5-2-8-7-6-12 1-5 6-7 11-6s8 6 6 11zM3138.371 1284c-12-3-25 4-28 16-4 12 3 25 15 28 13 3 25-4 28-16 4-12-3-24-15-28zm2 25c-1 5-6 7-11 6s-8-6-6-11c1-5 6-8 11-7 5 2 8 7 6 12zM3060.371 1321c-12-4-24 3-28 15-3 12 4 25 16 28 12 4 25-3 28-15s-4-25-16-28zm3 24c-1 5-6 8-11 6-5-1-8-6-7-11 2-5 7-8 12-6 5 1 7 6 6 11zM3030.371 1405c-12-3-25 4-28 16-4 12 3 25 15 28s25-4 28-16c4-12-3-24-15-28zm2 25c-1 5-6 7-11 6s-8-6-6-11c1-5 6-8 11-7 5 2 8 7 6 12zM3104.371 1681c-25-7-51 7-58 33-7 25 8 51 33 58s51-8 58-33-8-51-33-58zm20 54c-5 18-24 29-41 24-18-5-29-24-24-42s24-28 42-23 28 24 23 41z" fill="#edeeed" fill-rule="nonzero"/><path class="fil1" d="M3119.371 1630c-53-15-109 16-124 69s16 109 70 124c53 15 108-16 123-70 15-53-16-108-69-123zm56 120c-13 46-61 73-107 60s-73-61-60-107 61-73 107-60 73 61 60 107z" fill="#edeeed" fill-rule="nonzero"/><path class="fil1" d="M3220.371 1654c-19-34-50-59-88-70s-78-6-113 13c-34 20-59 51-70 89-10 38-6 78 14 113 19 34 51 59 89 70 38 10 78 5 112-14s59-51 70-89 6-78-14-112zm1 109c-20 71-94 113-166 93-71-20-113-95-93-166s95-113 166-93 113 94 93 166zM3130.371 1508c-4-1-9 5-12 14l-8 28c-2 9-1 17 3 18s10-5 12-14l8-28c2-9 1-17-3-18zM3140.371 1558c-2 9-1 17 3 18s9-5 12-14l8-28c2-8 1-16-3-18-4-1-9 5-12 14zM2754.371 1593c27-49 57-78 82-81 12-2 25 0 39 5 38 13 96 66 96 66 6 6 13 9 15 6s2-15-5-21c0 0-59-54-100-68-16-6-33-8-48-6-31 4-64 35-95 90-31 56-61 105-61 105-5 7-10 6-12-2 0 0-4-21 11-58 10-26 27-63 51-97 32-46 66-71 102-76 21-3 43 0 65 8 40 14 126 91 126 91 7 6 15 10 19 8 3-1 7-9 1-15 0 0-94-85-140-101-25-9-50-12-74-9-41 5-79 33-114 83-25 36-43 75-53 101-21 52-10 82-7 90 4 7 8 12 13 13 8 3 14-5 21-16 5-8 12-20 21-34 19-32 39-68 47-82z" fill="#edeeed" fill-rule="nonzero"/><path class="fil1" d="M2780.371 1618l-5-3c-5 3-13 12-18 19l-57 84c-5 8-10 19-11 25l5 3c1 0 2 1 2 1l4 1c4-3 11-11 16-19l57-84c5-7 10-18 11-24l-4-3zM2773.371 1708c1-9-1-21-3-26h-5l-6-1c-2 6-5 17-5 26l-2 36c0 9 1 20 2 25l5 1h7c3-5 5-16 6-25zM2805.371 1756c6-5 7-14 10-62 2-29 4-66 9-95 7-45 16-47 16-47l5-1c8 1 12 9 10 18l-18 89c-2 8-3 20-2 26l5 1h1l5 1c4-4 8-15 10-24l18-87c2-8 7-14 12-12 5 3 16 16 13 25l-29 100c-2 8-4 20-3 26l5 1h1l5 2c3-5 9-15 11-24l28-95c2-8 9-12 14-8 6 3 11 17 6 24 0 0-36 43-26 118 1 4 4 7 7 8h4c6-1 10-6 9-11-11-82 36-120 36-120l1-1 1-1v-1h1v-1-1-1h1v-1-1-1l-1-1v-1-1l-1-1c-11-15-92-72-133-63-29 5-35 70-41 160-1 20-3 33-3 33-1 9-3 20-4 25l3 3c1 2 3 3 5 4 3 1 6 0 9-2zM3511.371 1865c4-28 10-70 7-114-4-61-22-104-55-130-18-15-41-26-67-31-48-10-172 13-172 13-9 2-14 6-11 9 2 2 15 9 24 8 0 0 114-21 155-12 23 5 43 14 60 27 28 22 44 62 48 117 2 42-3 83-7 110-7 39-21 55-21 55-7 7-12 5-12-4 0 0 0-58 2-122 3-63-9-107-34-126-11-10-26-17-44-20-42-9-121 6-121 6-9 2-16 6-15 9 0 4 8 11 16 10 0 0 77-16 116-7 15 3 27 8 37 16 19 15 29 56 27 112-1 16-2 57-2 94v40c1 13 1 23 10 25 5 1 11-1 17-5 8-5 32-25 42-80z" fill="#edeeed" fill-rule="nonzero"/><path class="fil1" d="M3420.371 1824c0-9-3-21-5-26h-6l-5 1c-2 5-4 17-3 26l4 102c1 9 3 20 4 24l4 1h9c2-5 3-17 3-26zM3389.371 1861l-5-3c-4 4-12 13-16 21l-17 31c-4 8-8 19-9 25l5 3h2l4 2c4-4 11-13 15-21l17-31c4-7 8-19 9-25l-5-2zM3406.371 1696c-31-28-130-22-147-15v1h-1l-1 1h-1c-1 2-2 3-2 5 0 1-4 81-19 124-2 5 1 11 6 12 0 0 1 0 1 1 5 1 10-2 12-7 13-39 17-104 17-104 1-9 6-17 11-18 6 0 23 6 21 15l-26 95c-2 8-4 20-3 26l5 1c1 0 1 0 1 1l5 1c4-5 9-15 11-24l27-100c2-9 9-16 14-15 6 0 17 9 14 17l-29 83c-3 9-5 21-5 26l5 2h1l5 2c4-4 9-15 12-23l30-86c3-8 12-13 18-10l4 4s7 6-10 48c-11 28-28 60-42 86-23 43-26 51-24 58 1 4 4 6 7 7 2 0 4 0 6-1l4-1c1-5 5-15 9-24 0 0 6-11 15-30 42-80 70-138 49-158zM3161.371 2063c-3-6-11-16-17-22l-13-11c-7-6-13-11-13-11 0-1-1-9 0-18l11-91c1-9-5-16-14-16-8 1-16 14-16 23l-4 89c-1 9-5 23-9 31l-14 28c-5 8-8 20-9 27l6 3s1 0 2 1l5 1c4-4 11-14 15-22l5-8c4-8 8-7 10 2l1 7c1 9 3 20 6 24l4 2h4l6-1c2-6 3-19 2-28v-1c-2-9 1-13 5-10 4 4 12 8 19 10l4-5 4-4zM3283.371 2002l1-7c-5-3-17-8-26-9l-27-5c-9-2-16-3-17-3 0 0-2-7-5-16l-22-84c-2-8-11-14-20-11l-3 1c-7 6-10 17-7 25l32 85c4 8 7 22 9 31l4 31c1 9 4 20 6 24l4 1c2 1 3 1 5 1l6-1c2-7 2-19 1-28l-1-7c-1-8 3-10 9-4l9 10c6 7 13 13 15 15h2c3 1 7 0 10-2l5-5c-2-6-9-17-15-23l-3-3c-6-7-5-11 2-10 7 2 19 1 25 0l1-6zM3068.371 1902c-32-11-61-27-86-48-9-7-18-16-26-24-2-3-5-4-8-4h-3c-3 2-10 9-16 16l-40 44c-6 7-13 18-15 24l5 4 4 4c6-2 16-10 22-17l32-35c6-7 14-10 17-7s8 17 2 24l-30 39c-5 7-11 18-13 25l5 4c1 1 3 1 4 2l4 1c5-3 12-11 18-18l30-39c5-7 13-11 17-8 4 2 11 15 6 22l-27 41c-4 7-9 19-10 25l5 4c1 0 2 1 3 1l4 1c5-3 12-12 17-19l28-42c4-7 12-12 16-10s12 13 8 21l-22 40c-5 8-9 20-9 26l5 3c1 1 2 1 3 1l4 2c5-4 12-14 16-22l29-51c4-8 8-17 9-21l-1-3c-1-3-4-5-7-6zM2869.371 1940l-5-4c-6 3-16 11-22 18l-40 46c-6 7-13 18-15 24l5 4c1 1 3 2 4 3l4 1c4-3 13-10 19-17l40-47c6-7 13-17 15-24l-5-4zM2927.371 1792l-4-4c-6 2-17 9-23 15l-144 138c-7 6-14 16-17 23l5 4c1 2 3 3 5 3l3 1c4-2 13-9 19-15l144-138c7-6 14-16 17-22l-5-5zM2912.371 1977l-5-3c-6 3-15 12-20 19l-37 50c-6 7-11 18-13 25l5 3c1 1 3 2 4 2l4 2c4-3 12-12 18-19l37-50c5-7 11-18 12-25l-5-4zM2951.371 2002l-5-4c-6 4-14 13-19 20l-34 52c-5 8-10 19-11 26l5 3c1 1 2 2 3 2l5 1c4-3 12-12 17-19l34-52c5-8 9-19 10-26l-5-3zM3005.371 2024l-5-3c-6 4-14 14-18 22l-29 53c-4 8-8 20-9 27l6 3s1 1 2 1l5 1c4-4 11-13 16-21l29-53c4-8 8-20 9-27l-6-3zM2904.371 2914c-2-12-13-21-26-20-13 2-22 14-20 27 1 12 13 21 26 20 13-2 22-14 20-27z" fill="#edeeed" fill-rule="nonzero"/><path class="fil1" d="M2944.371 2909c-3-19-16-32-16-32-7-7-12-13-12-13v-1-1c0-1 1-10 2-20 0 0 6-84 2-89-4-4-9-7-14-7-7 0-12 6-12 12 0 5 4 46 4 46 1 10-3 12-9 5l-7-8-6-6c-5-7-15-20-21-27 0 0-1-2-7 2-3 2-5 5-6 9-1 10 5 18 22 38 7 8 15 17 21 25l4 7c2 3 3 6 2 6-6-1-13-1-19 0-15 2-25 9-25 9-7 6-21 9-31 7 0 0-128-29-135-42-17-34-69-65-161-96-7-3-15 1-18 8-2 8 2 16 9 18 103 35 136 64 144 82 6 11-31 25-38 24h-1l-2-2c0-1-10-7-18-12l-76-45c-8-5-22-10-31-11l-4 6-4 7c5 7 16 17 25 22l64 39c9 5 14 12 12 15l-1 5-2 4c-2 10-12 14-21 11l-74-32c-9-4-23-7-32-6l-3 7-3 7c6 6 18 14 27 18l79 34c9 4 17 7 17 8h-1c-2 13-5 27-5 27-2 10-12 15-21 11l-78-28c-10-3-24-6-33-5l-2 7-3 8c6 6 19 13 28 17l82 29c9 4 15 12 14 20-2 7-14 24-23 21l-78-31c-9-3-24-6-32-5l-3 7-3 7c6 6 18 14 28 18l81 31c9 4 16 9 15 12v2c-3 12-4 15-4 15-3 10-12 14-22 11l-76-30c-9-4-23-7-32-6l-3 7-2 7c6 6 18 14 27 18l78 31c10 4 15 14 11 24 0 0-1 2-3 8l-2 6c-2 3-8 7-13 7l-12-1c-8-2-19-4-32-9-27-9-54-21-68-28-2-1-3-1-4-2-2-1-4-1-5-1-12-2-25 9-30 26-6 20 0 42 13 48 1 1 3 1 4 2 27 13 54 23 54 23 9 4 15 9 12 12-2 4-7 13-7 13s-7 4-16 9c0 0-77 45-110 70-29 23-54 45-73 63-31 31-35 46-35 54 0 6 4 11 10 12h1c7 0 12-5 12-12 0 0 1-9 29-37 17-18 42-39 70-61 43-33 86-59 86-59 8-5 15-7 14-4v2c-1 3-1 6-1 6s-1 2-4 4c-2 2-6 5-9 8 0 0-35 32-71 65-93 86-96 98-98 103-1 6 2 13 8 15h2l6 1c4-5 12-15 19-22l136-131c7-7 14-8 15-3 2 5 2 24-5 32 0 0-32 37-62 72-24 28-42 50-56 67-8 9-14 17-18 22-7 10-11 15-8 22l1 3 8 4s3-1 6-1c3-1 12-13 18-21l124-148c7-7 13-12 15-10s3 14-2 23c0 0-20 37-46 82-52 89-57 93-57 93-7 7-17 16-22 20l1 6c1 5 5 9 10 9 1 1 2 1 4 0 6-1 13-5 36-39 12-18 27-42 45-73 25-42 48-83 48-83 4-9 13-13 18-10 5 2 19 16 18 25l-27 155c-1 10-11 19-20 21 0 0-36 6-35 12 0 7 6 12 12 11 2 0 5 0 8-1 19-3 53-8 87 28 2 2 4 3 7 4 3 0 7-1 10-3 4-5-10-22-10-22-6-7-3-11 6-9 0 0 32 9 36 4s3-12-2-16c-13-11-27-13-27-13-10-2-17-11-15-20l25-149c2-10 3-18 3-18s4-1 9-3c5-1 22-9 27-12s11 3 12 13l20 150c2 10-5 21-13 26 0 0-33 16-31 22 2 4 6 7 10 8 2 0 4 0 6-1s4-2 7-4c17-8 48-23 92 1 6 3 13 1 16-4 3-6-16-18-16-18-8-5-7-10 3-10 0 0 34-1 36-7s-1-13-7-16c-16-6-30-4-30-4-10 2-19-5-20-15l-14-102c-1-10 5-15 14-11 0 0 44 17 98 5 77-19 58-230 15-321-43-92-71-123-60-159 9-26 87-26 87-26 10 0 20 4 22 8 3 5 13 22 14 32 0 0 26 207 37 314l1 3 6 4s3-1 6-1l2-3c37-65 33-320 33-320 0-10 2-20 4-22l1-2c11-14 15-30 13-47zm-307 49c2-12 1-22 16-20 16 3 43 17 41 28-2 12-16 20-32 17-15-2-26-14-25-25zm4 48c10 6-19 55-29 49-2-1-3-2-4-3-7-8-7-21 0-32 2-5 6-8 9-11 8-6 17-7 24-3zm-67 250c-7 9-15 13-22 11-5-1-8-5-10-11-1-2-2-5-2-8-1-7 0-15 3-24 1-5 4-10 6-14 6-9 13-16 20-17 2 0 4 0 5 1 2 0 3 1 4 2 9 6 15 25 9 43-2 8-9 12-13 17zm8 56v1c-2 13-15 22-28 20s-22-14-20-27 9-15 9-15c9-3 20-2 24 2s15 17 15 19zm1-147c-1-2-2-5-2-8v-2-6s1-5 2-12l3-7v-1s2-3 3-6l2-3 7-10c9-4 16-8 16-8h4l3 1c10 5 15 16 7 36-3 6-9 20-13 25-6 7-14 11-20 11-2 0-3-1-5-1-3-2-6-5-7-9zm-214 38l-2-1c-1-1-5-7-8-13l3-12 3-7c2-3 6-5 7-4l1 1c15 7 42 19 70 29 14 4 26 7 36 9 6 1 11 1 16 1h5c5-1 11-2 13-2 2-1 5-3 7-5 1-3 2-5 3-6v-2c6-11 16-37 32-98 13-52 25-110 33-148 11-48 11-50 15-56l1-1c1-1 3-2 3-2h1l1-1h7c0 1 2 4 3 8s-1 18-1 18v1s-2 8-4 18c0 0-1 4-5 21l-2 10c-2 10-4 18-4 18s-2 8-4 17l-23 99c-2 10-4 18-4 18l-1 1-3 7c-1 7-2 12-2 12s-2 8-5 18c0 0-3 10-7 22v3l-9 24c-5 9-12 21-17 27s-16 13-26 15h-14c-5 0-10-1-15-2-7-1-16-3-26-6-21-6-47-17-78-31zm148 248l-25 148c-2 9-5 17-6 18-2 0-4-8-2-17l25-149c2-9 4-17 5-17 2 0 4 8 3 17zm86-79l-30 15c-8 5-23 11-32 15 0 0-17 5-35 3-27-5-50-21-62-45-11-20-13-42-6-64 4-14 12-23 12-23 6-8 14-14 17-13l3 1c15 2 32 2 46-1h2c2-1 5-1 7 0 1 0-2 8-9 15 0 0-10 9-13 26-4 30 16 58 46 63 23 4 42-13 42-13 8-7 16-8 19-3 3 4 2 19-7 24zm39 213c-2 0-6-6-7-16l-21-152c-1-10-1-19 1-20s5 6 7 16l20 153c1 9 1 18 0 19zm0-325c-5 16-21 34-30 37-3 1-6 1-8 0-9-3-14-16-12-31 1-4 1-8 3-12 6-20 20-34 31-31 12 4 22 17 16 37zm-2-69c-7-3-11-13-9-25 0-6 2-12 4-19 9-19 24-32 35-27s2 35-7 54c-2 7-16 20-23 17zm51 104l-3 8c-5 7-9 13-9 13s-6 5-14 11l-6-2c-11-3-9-20-3-40s14-37 25-33h2c2 2 7 10 10 20 0 0 3 6-2 23zm97 12c12 3 16 22 10 43-7 20-21 33-32 30-12-3-13-31-7-51 7-20 18-26 29-22zm-53-126c8-20 48 9 40 29-8 19-24 19-35 15-11-5-13-25-5-44zm-3 91c11 4 12 39 6 59s-18 18-29 15c-4-1-7-5-9-9-4-9-4-21 0-34s10-23 18-28c4-3 9-4 14-3zm-11-98c-7 16-15 34-25 35-2 0-4-1-6-1-5-3-9-8-10-16s1-18 5-28c9-20 24-32 35-27s10 18 1 37zm-6-112c-8 13-32 20-42 14-11-7-12-22-4-36s23-20 33-14 21 22 13 36zm26-149c-2 11-13 24-28 22-16-2-30-19-29-31 2-12 16-19 32-17 15 2 27 14 25 26zm70 0c-2 12-16 19-32 17s-27-14-25-26c2-11 17-10 33-8 15 3 25 5 24 17zm83 336c-2 10-4 10-5 0l-31-255c-1-10 3-16 8-14h5c6 1 12 1 18 1l8-2c8-3 15 2 15 12zm22-307c0 1 0 1-1 2-7 9-17 15-28 16-4 1-9 1-13 0-8-1-15-4-21-9l-3-3c-2-3-5-6-5-6s-3-5-6-12l-1-7c-3-19 9-38 26-45 4-2 7-3 11-3 4-1 8-1 12 0 19 3 34 18 37 37 1 11-1 21-8 30z" fill="#edeeed" fill-rule="nonzero"/></svg>